<?xml version="1.0" encoding="UTF-8" standalone="no"?>
<!DOCTYPE svg PUBLIC "-//W3C//DTD SVG 1.1//EN" "http://www.w3.org/Graphics/SVG/1.1/DTD/svg11.dtd">
<svg width="100%" height="100%" viewBox="0 0 2741 777" version="1.1" xmlns="http://www.w3.org/2000/svg" xmlns:xlink="http://www.w3.org/1999/xlink" xml:space="preserve" xmlns:serif="http://www.serif.com/" style="fill-rule:evenodd;clip-rule:evenodd;stroke-linejoin:round;stroke-miterlimit:2;">
    <g id="Artboard1" transform="matrix(1,0,0,1,-295.276,-295.276)">
        <rect x="295.276" y="295.276" width="2740.29" height="776.791" style="fill:none;"/>
        <clipPath id="_clip1">
            <rect x="295.276" y="295.276" width="2740.29" height="776.791"/>
        </clipPath>
        <g clip-path="url(#_clip1)">
            <g transform="matrix(1.23224,0,0,1.40484,-403.329,-454.136)">
                <rect x="295.276" y="295.276" width="2917.32" height="1830.71"/>
            </g>
            <g transform="matrix(0.488856,0,0,0.488856,223.113,185.98)">
                <g transform="matrix(1039.84,0,0,1039.84,347.783,1195.38)">
                    <path d="M0.12,-0.489C0.12,-0.507 0.118,-0.52 0.115,-0.529C0.112,-0.537 0.107,-0.544 0.099,-0.548C0.091,-0.552 0.078,-0.554 0.062,-0.556L0.039,-0.559L0.039,-0.571C0.094,-0.569 0.14,-0.569 0.177,-0.569C0.196,-0.569 0.218,-0.569 0.241,-0.57C0.255,-0.571 0.268,-0.571 0.28,-0.571L0.314,-0.571C0.39,-0.571 0.448,-0.557 0.489,-0.529C0.53,-0.5 0.55,-0.46 0.55,-0.407C0.55,-0.371 0.54,-0.34 0.519,-0.314C0.499,-0.288 0.469,-0.268 0.431,-0.254C0.392,-0.239 0.347,-0.232 0.294,-0.232C0.277,-0.232 0.26,-0.233 0.245,-0.235C0.229,-0.237 0.215,-0.239 0.202,-0.243L0.202,-0.255C0.204,-0.254 0.207,-0.254 0.209,-0.253C0.221,-0.25 0.233,-0.248 0.245,-0.247C0.258,-0.246 0.27,-0.245 0.283,-0.245C0.335,-0.245 0.372,-0.258 0.397,-0.284C0.421,-0.309 0.433,-0.35 0.433,-0.404C0.433,-0.457 0.422,-0.496 0.4,-0.521C0.377,-0.545 0.342,-0.558 0.294,-0.557L0.231,-0.557L0.231,-0.202L0.12,-0.202L0.12,-0.489ZM0.166,-0.002C0.149,-0.002 0.132,-0.002 0.117,-0.002C0.101,-0.002 0.087,-0.001 0.073,-0.001L0.039,-0L0.039,-0.012L0.062,-0.015C0.079,-0.017 0.091,-0.02 0.099,-0.024C0.107,-0.028 0.112,-0.034 0.116,-0.043C0.119,-0.051 0.12,-0.064 0.12,-0.082L0.12,-0.202L0.231,-0.202L0.231,-0.082C0.231,-0.064 0.233,-0.052 0.236,-0.043C0.239,-0.034 0.245,-0.028 0.253,-0.024C0.261,-0.021 0.274,-0.018 0.291,-0.016L0.329,-0.012L0.329,-0C0.27,-0.002 0.222,-0.002 0.184,-0.002L0.166,-0.002Z" style="fill:white;fill-rule:nonzero;"/>
                </g>
                <g transform="matrix(1039.84,0,0,1039.84,917.842,1195.38)">
                    <path d="M0.151,-0.002C0.127,-0.002 0.1,-0.002 0.07,-0.001L0.026,-0L0.026,-0.012L0.043,-0.014C0.057,-0.015 0.069,-0.017 0.077,-0.021C0.085,-0.025 0.091,-0.032 0.094,-0.04C0.098,-0.048 0.099,-0.059 0.099,-0.074L0.099,-0.208L0.202,-0.208L0.202,-0.074C0.202,-0.059 0.203,-0.048 0.207,-0.04C0.211,-0.032 0.216,-0.025 0.224,-0.021C0.233,-0.017 0.244,-0.015 0.258,-0.014L0.275,-0.012L0.275,-0L0.231,-0.001C0.201,-0.002 0.174,-0.002 0.151,-0.002ZM0.099,-0.544C0.099,-0.559 0.098,-0.571 0.094,-0.58C0.091,-0.589 0.085,-0.596 0.076,-0.6C0.068,-0.605 0.056,-0.608 0.04,-0.609L0.026,-0.611L0.026,-0.623C0.047,-0.621 0.069,-0.621 0.091,-0.621C0.134,-0.621 0.171,-0.625 0.202,-0.632L0.202,-0.208L0.099,-0.208L0.099,-0.544Z" style="fill:white;fill-rule:nonzero;"/>
                </g>
                <g transform="matrix(1039.84,0,0,1039.84,1200.27,1195.38)">
                    <path d="M0.318,-0.31C0.318,-0.344 0.31,-0.37 0.294,-0.387C0.278,-0.404 0.254,-0.413 0.223,-0.413C0.203,-0.413 0.187,-0.41 0.174,-0.403C0.161,-0.397 0.154,-0.389 0.154,-0.38C0.154,-0.376 0.155,-0.372 0.158,-0.367C0.16,-0.362 0.164,-0.357 0.168,-0.351C0.173,-0.343 0.178,-0.336 0.181,-0.33C0.184,-0.323 0.186,-0.317 0.186,-0.31C0.186,-0.298 0.181,-0.289 0.171,-0.282C0.161,-0.274 0.148,-0.271 0.132,-0.271C0.115,-0.271 0.101,-0.276 0.091,-0.286C0.081,-0.295 0.076,-0.308 0.076,-0.325C0.076,-0.344 0.084,-0.362 0.099,-0.378C0.114,-0.394 0.136,-0.406 0.163,-0.415C0.19,-0.423 0.221,-0.428 0.256,-0.428C0.295,-0.428 0.326,-0.422 0.35,-0.41C0.374,-0.398 0.392,-0.38 0.403,-0.355C0.415,-0.331 0.42,-0.299 0.42,-0.26L0.42,-0.208L0.318,-0.208L0.318,-0.31ZM0.177,0.011C0.14,0.011 0.11,0.002 0.088,-0.016C0.066,-0.034 0.055,-0.059 0.055,-0.09C0.055,-0.116 0.063,-0.137 0.078,-0.154C0.093,-0.17 0.11,-0.182 0.131,-0.19C0.152,-0.198 0.179,-0.207 0.213,-0.216C0.237,-0.222 0.257,-0.228 0.271,-0.232C0.284,-0.237 0.296,-0.244 0.305,-0.251C0.314,-0.259 0.319,-0.269 0.319,-0.281L0.321,-0.262C0.318,-0.25 0.311,-0.241 0.301,-0.234C0.29,-0.227 0.275,-0.218 0.254,-0.209C0.235,-0.199 0.219,-0.191 0.207,-0.183C0.195,-0.175 0.185,-0.165 0.176,-0.152C0.167,-0.139 0.163,-0.122 0.163,-0.103C0.163,-0.079 0.169,-0.062 0.182,-0.049C0.194,-0.036 0.212,-0.03 0.235,-0.03C0.253,-0.03 0.269,-0.033 0.283,-0.041C0.298,-0.048 0.311,-0.06 0.322,-0.075L0.322,-0.062C0.305,-0.037 0.284,-0.019 0.259,-0.007C0.235,0.005 0.207,0.011 0.177,0.011ZM0.42,-0.048C0.42,-0.035 0.422,-0.026 0.427,-0.021C0.431,-0.015 0.438,-0.012 0.447,-0.012C0.453,-0.012 0.46,-0.013 0.466,-0.016C0.473,-0.018 0.48,-0.022 0.488,-0.027C0.491,-0.029 0.493,-0.03 0.495,-0.032L0.501,-0.022C0.486,-0.01 0.471,-0.002 0.456,0.003C0.441,0.009 0.423,0.011 0.404,0.011C0.375,0.011 0.353,0.005 0.339,-0.006C0.325,-0.018 0.318,-0.036 0.318,-0.06L0.318,-0.208L0.42,-0.208L0.42,-0.048Z" style="fill:white;fill-rule:nonzero;"/>
                </g>
                <g transform="matrix(1039.84,0,0,1039.84,1709.95,1195.38)">
                    <path d="M0.075,-0.354C0.069,-0.366 0.064,-0.375 0.06,-0.382C0.055,-0.388 0.05,-0.392 0.044,-0.395C0.038,-0.398 0.03,-0.4 0.021,-0.402L0.006,-0.403L0.006,-0.416C0.044,-0.414 0.075,-0.413 0.099,-0.413L0.107,-0.413C0.154,-0.413 0.201,-0.414 0.247,-0.415L0.247,-0.403L0.229,-0.401C0.213,-0.399 0.202,-0.396 0.195,-0.392C0.188,-0.387 0.185,-0.381 0.185,-0.371C0.185,-0.362 0.189,-0.349 0.196,-0.332L0.31,-0.089L0.3,-0.079L0.37,-0.249C0.384,-0.282 0.392,-0.309 0.394,-0.33C0.397,-0.351 0.395,-0.368 0.387,-0.38C0.379,-0.391 0.367,-0.399 0.349,-0.402L0.34,-0.403L0.34,-0.416C0.369,-0.414 0.399,-0.413 0.429,-0.413C0.45,-0.413 0.473,-0.414 0.499,-0.416L0.499,-0.403L0.489,-0.401C0.476,-0.397 0.465,-0.39 0.455,-0.382C0.446,-0.373 0.436,-0.359 0.426,-0.34C0.415,-0.321 0.403,-0.293 0.387,-0.257L0.267,0.036L0.258,0.036L0.075,-0.354ZM0.126,0.193C0.099,0.193 0.078,0.187 0.062,0.174C0.046,0.162 0.038,0.145 0.038,0.124C0.038,0.107 0.044,0.093 0.055,0.082C0.066,0.071 0.081,0.066 0.1,0.066C0.113,0.066 0.124,0.069 0.132,0.075C0.14,0.082 0.144,0.09 0.144,0.101C0.144,0.107 0.143,0.113 0.141,0.119C0.139,0.124 0.135,0.131 0.132,0.138C0.129,0.142 0.127,0.147 0.125,0.151C0.123,0.156 0.122,0.16 0.122,0.164C0.122,0.168 0.123,0.172 0.126,0.174C0.129,0.177 0.134,0.178 0.14,0.178C0.158,0.178 0.174,0.172 0.188,0.16C0.202,0.148 0.214,0.131 0.223,0.108L0.263,0.012L0.275,0.017L0.237,0.108C0.229,0.127 0.22,0.142 0.21,0.154C0.201,0.166 0.189,0.176 0.175,0.183C0.162,0.189 0.145,0.193 0.126,0.193Z" style="fill:white;fill-rule:nonzero;"/>
                </g>
                <g transform="matrix(1039.84,0,0,1039.84,2203.71,1195.38)">
                    <path d="M0.151,-0.002C0.127,-0.002 0.1,-0.002 0.07,-0.001L0.026,-0L0.026,-0.012L0.043,-0.014C0.058,-0.015 0.069,-0.017 0.077,-0.021C0.085,-0.025 0.091,-0.032 0.094,-0.04C0.098,-0.048 0.1,-0.059 0.1,-0.074L0.1,-0.208L0.202,-0.208L0.202,-0.074C0.202,-0.059 0.204,-0.048 0.207,-0.04C0.211,-0.032 0.218,-0.026 0.226,-0.022C0.235,-0.018 0.248,-0.015 0.264,-0.014L0.29,-0.012L0.29,-0L0.241,-0.001C0.207,-0.002 0.177,-0.002 0.151,-0.002ZM0.1,-0.433C0.1,-0.475 0.107,-0.51 0.122,-0.54C0.136,-0.569 0.158,-0.592 0.185,-0.607C0.213,-0.623 0.246,-0.631 0.284,-0.631C0.326,-0.631 0.359,-0.623 0.383,-0.607C0.408,-0.591 0.42,-0.57 0.42,-0.543C0.42,-0.527 0.414,-0.513 0.404,-0.503C0.393,-0.492 0.378,-0.487 0.36,-0.487C0.346,-0.487 0.334,-0.491 0.326,-0.498C0.317,-0.505 0.313,-0.514 0.313,-0.526C0.313,-0.532 0.314,-0.539 0.317,-0.545C0.319,-0.551 0.323,-0.559 0.328,-0.567C0.331,-0.572 0.334,-0.577 0.336,-0.582C0.338,-0.586 0.339,-0.59 0.339,-0.594C0.339,-0.602 0.336,-0.608 0.329,-0.612C0.323,-0.616 0.314,-0.618 0.301,-0.618C0.267,-0.618 0.242,-0.605 0.226,-0.58C0.21,-0.555 0.202,-0.517 0.202,-0.464L0.202,-0.208L0.1,-0.208L0.1,-0.433ZM0.023,-0.416L0.308,-0.416L0.308,-0.403L0.023,-0.403L0.023,-0.416Z" style="fill:white;fill-rule:nonzero;"/>
                </g>
                <g transform="matrix(1039.84,0,0,1039.84,2511.29,1195.38)">
                    <path d="M0.318,-0.31C0.318,-0.344 0.31,-0.37 0.294,-0.387C0.278,-0.404 0.254,-0.413 0.223,-0.413C0.203,-0.413 0.187,-0.41 0.174,-0.403C0.161,-0.397 0.154,-0.389 0.154,-0.38C0.154,-0.376 0.155,-0.372 0.158,-0.367C0.16,-0.362 0.164,-0.357 0.168,-0.351C0.173,-0.343 0.178,-0.336 0.181,-0.33C0.184,-0.323 0.186,-0.317 0.186,-0.31C0.186,-0.298 0.181,-0.289 0.171,-0.282C0.161,-0.274 0.148,-0.271 0.132,-0.271C0.115,-0.271 0.101,-0.276 0.091,-0.286C0.081,-0.295 0.076,-0.308 0.076,-0.325C0.076,-0.344 0.084,-0.362 0.099,-0.378C0.114,-0.394 0.136,-0.406 0.163,-0.415C0.19,-0.423 0.221,-0.428 0.256,-0.428C0.295,-0.428 0.326,-0.422 0.35,-0.41C0.374,-0.398 0.392,-0.38 0.403,-0.355C0.415,-0.331 0.42,-0.299 0.42,-0.26L0.42,-0.208L0.318,-0.208L0.318,-0.31ZM0.177,0.011C0.14,0.011 0.11,0.002 0.088,-0.016C0.066,-0.034 0.055,-0.059 0.055,-0.09C0.055,-0.116 0.063,-0.137 0.078,-0.154C0.093,-0.17 0.11,-0.182 0.131,-0.19C0.152,-0.198 0.179,-0.207 0.213,-0.216C0.237,-0.222 0.257,-0.228 0.271,-0.232C0.284,-0.237 0.296,-0.244 0.305,-0.251C0.314,-0.259 0.319,-0.269 0.319,-0.281L0.321,-0.262C0.318,-0.25 0.311,-0.241 0.301,-0.234C0.29,-0.227 0.275,-0.218 0.254,-0.209C0.235,-0.199 0.219,-0.191 0.207,-0.183C0.195,-0.175 0.185,-0.165 0.176,-0.152C0.167,-0.139 0.163,-0.122 0.163,-0.103C0.163,-0.079 0.169,-0.062 0.182,-0.049C0.194,-0.036 0.212,-0.03 0.235,-0.03C0.253,-0.03 0.269,-0.033 0.283,-0.041C0.298,-0.048 0.311,-0.06 0.322,-0.075L0.322,-0.062C0.305,-0.037 0.284,-0.019 0.259,-0.007C0.235,0.005 0.207,0.011 0.177,0.011ZM0.42,-0.048C0.42,-0.035 0.422,-0.026 0.427,-0.021C0.431,-0.015 0.438,-0.012 0.447,-0.012C0.453,-0.012 0.46,-0.013 0.466,-0.016C0.473,-0.018 0.48,-0.022 0.488,-0.027C0.491,-0.029 0.493,-0.03 0.495,-0.032L0.501,-0.022C0.486,-0.01 0.471,-0.002 0.456,0.003C0.441,0.009 0.423,0.011 0.404,0.011C0.375,0.011 0.353,0.005 0.339,-0.006C0.325,-0.018 0.318,-0.036 0.318,-0.06L0.318,-0.208L0.42,-0.208L0.42,-0.048Z" style="fill:white;fill-rule:nonzero;"/>
                </g>
                <g transform="matrix(1039.84,0,0,1039.84,3020.98,1195.38)">
                    <path d="M0.1,-0.337C0.1,-0.353 0.098,-0.365 0.094,-0.374C0.091,-0.383 0.085,-0.389 0.076,-0.394C0.068,-0.398 0.056,-0.401 0.04,-0.402L0.027,-0.404L0.027,-0.416C0.048,-0.415 0.069,-0.415 0.09,-0.415C0.134,-0.415 0.171,-0.418 0.202,-0.426L0.202,-0.208L0.1,-0.208L0.1,-0.337ZM0.151,-0.002C0.127,-0.002 0.1,-0.002 0.07,-0.001L0.027,-0L0.027,-0.012L0.044,-0.014C0.058,-0.015 0.069,-0.017 0.077,-0.021C0.085,-0.025 0.091,-0.032 0.094,-0.04C0.098,-0.048 0.1,-0.059 0.1,-0.073L0.1,-0.208L0.202,-0.208L0.202,-0.073C0.202,-0.059 0.203,-0.048 0.207,-0.04C0.21,-0.032 0.216,-0.025 0.224,-0.021C0.232,-0.017 0.244,-0.015 0.258,-0.014L0.275,-0.012L0.275,-0L0.231,-0.001C0.201,-0.002 0.174,-0.002 0.151,-0.002ZM0.151,-0.505C0.133,-0.505 0.118,-0.51 0.106,-0.521C0.093,-0.532 0.087,-0.547 0.087,-0.564C0.087,-0.581 0.093,-0.595 0.106,-0.606C0.118,-0.617 0.133,-0.623 0.151,-0.623C0.169,-0.623 0.184,-0.617 0.196,-0.606C0.208,-0.596 0.215,-0.581 0.215,-0.564C0.215,-0.547 0.208,-0.532 0.196,-0.521C0.184,-0.51 0.169,-0.505 0.151,-0.505Z" style="fill:white;fill-rule:nonzero;"/>
                </g>
                <g transform="matrix(1039.84,0,0,1039.84,3296.69,1195.38)">
                    <path d="M0.151,-0.002C0.127,-0.002 0.1,-0.002 0.07,-0.001L0.026,-0L0.026,-0.012L0.043,-0.014C0.058,-0.015 0.069,-0.017 0.077,-0.021C0.085,-0.025 0.091,-0.032 0.094,-0.04C0.098,-0.048 0.1,-0.059 0.1,-0.074L0.1,-0.208L0.202,-0.208L0.202,-0.074C0.202,-0.059 0.204,-0.048 0.207,-0.04C0.211,-0.032 0.218,-0.026 0.226,-0.022C0.235,-0.018 0.248,-0.015 0.264,-0.014L0.29,-0.012L0.29,-0L0.241,-0.001C0.207,-0.002 0.177,-0.002 0.151,-0.002ZM0.1,-0.337C0.1,-0.352 0.098,-0.365 0.094,-0.374C0.091,-0.382 0.085,-0.389 0.076,-0.394C0.068,-0.398 0.056,-0.401 0.041,-0.403L0.026,-0.404L0.026,-0.416C0.047,-0.415 0.069,-0.414 0.091,-0.414C0.134,-0.414 0.171,-0.418 0.202,-0.426L0.202,-0.208L0.1,-0.208L0.1,-0.337ZM0.355,-0.283C0.342,-0.283 0.331,-0.286 0.323,-0.293C0.315,-0.3 0.311,-0.31 0.311,-0.322C0.311,-0.328 0.312,-0.333 0.314,-0.339C0.316,-0.344 0.318,-0.35 0.322,-0.356C0.324,-0.361 0.327,-0.366 0.328,-0.37C0.33,-0.375 0.331,-0.38 0.331,-0.384C0.331,-0.39 0.329,-0.394 0.325,-0.398C0.32,-0.401 0.314,-0.403 0.306,-0.403C0.293,-0.403 0.28,-0.4 0.267,-0.394C0.254,-0.389 0.241,-0.381 0.23,-0.371C0.218,-0.36 0.208,-0.348 0.2,-0.334L0.2,-0.347C0.214,-0.373 0.234,-0.393 0.258,-0.407C0.282,-0.422 0.308,-0.429 0.335,-0.429C0.36,-0.429 0.381,-0.422 0.396,-0.409C0.41,-0.395 0.418,-0.376 0.418,-0.353C0.418,-0.332 0.412,-0.315 0.4,-0.302C0.389,-0.289 0.374,-0.283 0.355,-0.283Z" style="fill:white;fill-rule:nonzero;"/>
                </g>
                <g transform="matrix(1227.36,0,0,1227.36,3941.36,1195.38)">
                    <path d="M0.422,0.004C0.413,0.001 0.388,-0 0.346,-0L0.015,-0L0.018,-0.012C0.032,-0.021 0.043,-0.027 0.052,-0.033C0.061,-0.038 0.071,-0.044 0.084,-0.052C0.137,-0.086 0.18,-0.116 0.214,-0.143C0.247,-0.169 0.274,-0.197 0.296,-0.228C0.318,-0.258 0.329,-0.29 0.329,-0.324C0.329,-0.349 0.322,-0.37 0.308,-0.386C0.294,-0.401 0.275,-0.409 0.251,-0.409C0.231,-0.409 0.213,-0.404 0.197,-0.393C0.181,-0.382 0.168,-0.367 0.159,-0.349C0.15,-0.33 0.145,-0.311 0.145,-0.29C0.145,-0.27 0.15,-0.255 0.159,-0.245C0.169,-0.234 0.183,-0.229 0.201,-0.229C0.211,-0.229 0.22,-0.231 0.228,-0.235C0.236,-0.239 0.244,-0.245 0.251,-0.253L0.254,-0.242C0.24,-0.224 0.224,-0.211 0.206,-0.202C0.187,-0.192 0.167,-0.188 0.146,-0.188C0.117,-0.188 0.094,-0.195 0.077,-0.209C0.061,-0.224 0.053,-0.243 0.053,-0.269C0.053,-0.297 0.064,-0.324 0.086,-0.349C0.108,-0.373 0.138,-0.393 0.176,-0.407C0.213,-0.422 0.254,-0.429 0.299,-0.429C0.334,-0.429 0.364,-0.425 0.39,-0.416C0.415,-0.408 0.435,-0.396 0.449,-0.38C0.463,-0.364 0.47,-0.346 0.47,-0.324C0.47,-0.298 0.46,-0.273 0.44,-0.252C0.421,-0.23 0.396,-0.21 0.366,-0.193C0.336,-0.176 0.298,-0.157 0.251,-0.138C0.234,-0.131 0.213,-0.122 0.191,-0.112L0.191,-0.11L0.381,-0.11C0.396,-0.11 0.407,-0.111 0.415,-0.113C0.423,-0.115 0.429,-0.118 0.434,-0.123C0.439,-0.128 0.443,-0.135 0.448,-0.145L0.46,-0.145C0.439,-0.067 0.426,-0.017 0.422,0.004Z" style="fill:white;fill-rule:nonzero;"/>
                </g>
                <g transform="matrix(1227.36,0,0,1227.36,4540.97,1195.38)">
                    <path d="M0.128,-0.151C0.107,-0.151 0.09,-0.157 0.076,-0.168C0.063,-0.18 0.056,-0.195 0.056,-0.213C0.056,-0.233 0.064,-0.25 0.079,-0.263C0.095,-0.277 0.115,-0.284 0.138,-0.284C0.159,-0.284 0.177,-0.278 0.191,-0.267C0.204,-0.255 0.211,-0.24 0.211,-0.222C0.211,-0.202 0.203,-0.185 0.188,-0.171C0.172,-0.158 0.152,-0.151 0.128,-0.151Z" style="fill:white;fill-rule:nonzero;"/>
                </g>
                <g transform="matrix(1227.36,0,0,1227.36,4825.82,1195.38)">
                    <path d="M0.422,0.004C0.413,0.001 0.388,-0 0.346,-0L0.015,-0L0.018,-0.012C0.032,-0.021 0.043,-0.027 0.052,-0.033C0.061,-0.038 0.071,-0.044 0.084,-0.052C0.137,-0.086 0.18,-0.116 0.214,-0.143C0.247,-0.169 0.274,-0.197 0.296,-0.228C0.318,-0.258 0.329,-0.29 0.329,-0.324C0.329,-0.349 0.322,-0.37 0.308,-0.386C0.294,-0.401 0.275,-0.409 0.251,-0.409C0.231,-0.409 0.213,-0.404 0.197,-0.393C0.181,-0.382 0.168,-0.367 0.159,-0.349C0.15,-0.33 0.145,-0.311 0.145,-0.29C0.145,-0.27 0.15,-0.255 0.159,-0.245C0.169,-0.234 0.183,-0.229 0.201,-0.229C0.211,-0.229 0.22,-0.231 0.228,-0.235C0.236,-0.239 0.244,-0.245 0.251,-0.253L0.254,-0.242C0.24,-0.224 0.224,-0.211 0.206,-0.202C0.187,-0.192 0.167,-0.188 0.146,-0.188C0.117,-0.188 0.094,-0.195 0.077,-0.209C0.061,-0.224 0.053,-0.243 0.053,-0.269C0.053,-0.297 0.064,-0.324 0.086,-0.349C0.108,-0.373 0.138,-0.393 0.176,-0.407C0.213,-0.422 0.254,-0.429 0.299,-0.429C0.334,-0.429 0.364,-0.425 0.39,-0.416C0.415,-0.408 0.435,-0.396 0.449,-0.38C0.463,-0.364 0.47,-0.346 0.47,-0.324C0.47,-0.298 0.46,-0.273 0.44,-0.252C0.421,-0.23 0.396,-0.21 0.366,-0.193C0.336,-0.176 0.298,-0.157 0.251,-0.138C0.234,-0.131 0.213,-0.122 0.191,-0.112L0.191,-0.11L0.381,-0.11C0.396,-0.11 0.407,-0.111 0.415,-0.113C0.423,-0.115 0.429,-0.118 0.434,-0.123C0.439,-0.128 0.443,-0.135 0.448,-0.145L0.46,-0.145C0.439,-0.067 0.426,-0.017 0.422,0.004Z" style="fill:white;fill-rule:nonzero;"/>
                </g>
                <g transform="matrix(1227.36,0,0,1227.36,5462.26,1195.38)">
                </g>
            </g>
            <g transform="matrix(1,0,0,1,1087.66,721.89)">
                <g transform="matrix(70.8333,0,0,70.8333,210.329,225.9)">
                    <path d="M0.161,-0.149C0.146,-0.113 0.143,-0.086 0.153,-0.066C0.162,-0.047 0.185,-0.035 0.22,-0.031L0.238,-0.029L0.238,-0C0.197,-0.002 0.151,-0.002 0.102,-0.002C0.068,-0.002 0.034,-0.002 -0.001,-0L-0.001,-0.029L0.013,-0.031C0.032,-0.034 0.047,-0.039 0.059,-0.046C0.071,-0.053 0.082,-0.063 0.092,-0.078C0.102,-0.092 0.112,-0.113 0.124,-0.14L0.311,-0.577L0.338,-0.577L0.543,-0.095C0.55,-0.078 0.556,-0.066 0.562,-0.058C0.567,-0.05 0.574,-0.044 0.582,-0.04C0.589,-0.035 0.6,-0.033 0.613,-0.032L0.641,-0.029L0.641,-0C0.628,-0.001 0.616,-0.001 0.604,-0.002C0.584,-0.002 0.563,-0.002 0.541,-0.002L0.539,-0.002L0.539,-0.002C0.5,-0.002 0.448,-0.002 0.384,0L0.384,-0.029L0.412,-0.032C0.429,-0.034 0.442,-0.037 0.449,-0.042C0.457,-0.046 0.461,-0.054 0.461,-0.063C0.462,-0.072 0.459,-0.085 0.452,-0.102L0.291,-0.482L0.307,-0.494L0.161,-0.149ZM0.177,-0.229L0.442,-0.229L0.453,-0.199L0.164,-0.199L0.177,-0.229Z" style="fill:white;fill-rule:nonzero;"/>
                </g>
                <g transform="matrix(70.8333,0,0,70.8333,256.885,225.9)">
                    <path d="M0.162,-0.002C0.138,-0.002 0.107,-0.002 0.071,-0.001L0.031,-0L0.031,-0.029L0.06,-0.032C0.076,-0.033 0.089,-0.036 0.098,-0.04C0.107,-0.044 0.113,-0.051 0.117,-0.06C0.121,-0.069 0.123,-0.082 0.123,-0.097L0.123,-0.207L0.201,-0.207L0.201,-0.097C0.201,-0.081 0.203,-0.069 0.206,-0.059C0.21,-0.05 0.216,-0.043 0.224,-0.039C0.232,-0.034 0.243,-0.031 0.258,-0.03L0.27,-0.029L0.27,-0L0.236,-0.001C0.206,-0.002 0.181,-0.002 0.162,-0.002ZM0.123,-0.314C0.123,-0.331 0.121,-0.343 0.117,-0.353C0.113,-0.362 0.107,-0.369 0.097,-0.374C0.088,-0.378 0.075,-0.382 0.058,-0.383L0.031,-0.386L0.031,-0.415C0.05,-0.414 0.069,-0.413 0.088,-0.413C0.134,-0.413 0.171,-0.417 0.201,-0.424L0.201,-0.207L0.123,-0.207L0.123,-0.314ZM0.404,-0.277C0.404,-0.313 0.397,-0.341 0.382,-0.359C0.368,-0.377 0.346,-0.386 0.317,-0.386C0.287,-0.386 0.26,-0.377 0.237,-0.358C0.213,-0.34 0.193,-0.312 0.177,-0.274L0.173,-0.292C0.191,-0.337 0.215,-0.371 0.243,-0.393C0.271,-0.416 0.305,-0.427 0.344,-0.427C0.388,-0.427 0.422,-0.413 0.446,-0.386C0.47,-0.359 0.482,-0.32 0.482,-0.268L0.482,-0.207L0.404,-0.207L0.404,-0.277ZM0.443,-0.002C0.424,-0.002 0.4,-0.002 0.371,-0.001L0.338,-0L0.338,-0.029L0.348,-0.03C0.362,-0.031 0.373,-0.034 0.381,-0.039C0.389,-0.043 0.395,-0.05 0.399,-0.059C0.402,-0.069 0.404,-0.081 0.404,-0.097L0.404,-0.207L0.482,-0.207L0.482,-0.097C0.482,-0.082 0.484,-0.069 0.488,-0.06C0.492,-0.051 0.498,-0.044 0.507,-0.04C0.516,-0.036 0.529,-0.033 0.545,-0.032L0.574,-0.029L0.574,-0L0.534,-0.001C0.497,-0.002 0.467,-0.002 0.443,-0.002Z" style="fill:white;fill-rule:nonzero;"/>
                </g>
                <g transform="matrix(70.8333,0,0,70.8333,299.727,225.9)">
                </g>
                <g transform="matrix(70.8333,0,0,70.8333,315.093,225.9)">
                    <path d="M0.342,0.011C0.285,0.011 0.235,-0 0.192,-0.024C0.15,-0.047 0.117,-0.081 0.094,-0.125C0.071,-0.169 0.059,-0.222 0.059,-0.282C0.059,-0.341 0.071,-0.394 0.094,-0.439C0.118,-0.484 0.151,-0.52 0.194,-0.545C0.237,-0.57 0.287,-0.582 0.342,-0.582C0.399,-0.582 0.449,-0.571 0.492,-0.547C0.534,-0.523 0.567,-0.49 0.59,-0.446C0.614,-0.402 0.625,-0.349 0.625,-0.289C0.625,-0.23 0.613,-0.177 0.59,-0.132C0.566,-0.087 0.533,-0.051 0.49,-0.026C0.447,-0.001 0.398,0.011 0.342,0.011ZM0.343,-0.017C0.382,-0.017 0.417,-0.028 0.446,-0.051C0.475,-0.073 0.498,-0.105 0.514,-0.145C0.53,-0.186 0.538,-0.233 0.538,-0.287C0.538,-0.34 0.529,-0.387 0.512,-0.428C0.495,-0.468 0.472,-0.499 0.442,-0.521C0.412,-0.543 0.378,-0.554 0.341,-0.554C0.302,-0.554 0.268,-0.543 0.238,-0.52C0.209,-0.498 0.186,-0.466 0.17,-0.425C0.154,-0.385 0.146,-0.338 0.146,-0.284C0.146,-0.231 0.155,-0.184 0.172,-0.143C0.189,-0.103 0.212,-0.072 0.242,-0.05C0.272,-0.028 0.306,-0.017 0.343,-0.017Z" style="fill:white;fill-rule:nonzero;"/>
                </g>
                <g transform="matrix(70.8333,0,0,70.8333,363.533,225.9)">
                    <path d="M0.123,-0.314C0.123,-0.331 0.121,-0.343 0.117,-0.353C0.113,-0.362 0.107,-0.369 0.098,-0.374C0.088,-0.378 0.075,-0.382 0.058,-0.383L0.031,-0.386L0.031,-0.415C0.051,-0.414 0.07,-0.413 0.088,-0.413C0.134,-0.413 0.172,-0.417 0.201,-0.424L0.201,-0.207L0.123,-0.207L0.123,-0.314ZM0.162,0.184C0.138,0.184 0.108,0.184 0.071,0.185L0.031,0.186L0.031,0.157L0.06,0.155C0.076,0.153 0.089,0.15 0.098,0.146C0.107,0.142 0.113,0.135 0.117,0.126C0.121,0.117 0.123,0.105 0.123,0.089L0.123,-0.207L0.201,-0.207L0.201,0.089C0.201,0.105 0.203,0.117 0.208,0.126C0.213,0.135 0.22,0.141 0.231,0.146C0.241,0.15 0.257,0.153 0.277,0.154L0.317,0.157L0.317,0.186L0.27,0.185C0.226,0.184 0.191,0.184 0.162,0.184ZM0.337,-0.425C0.371,-0.425 0.402,-0.416 0.428,-0.398C0.455,-0.381 0.475,-0.356 0.49,-0.323C0.504,-0.291 0.511,-0.253 0.511,-0.209C0.511,-0.165 0.504,-0.125 0.488,-0.092C0.472,-0.058 0.449,-0.032 0.42,-0.014C0.391,0.004 0.357,0.013 0.319,0.013C0.298,0.013 0.279,0.01 0.262,0.004C0.244,-0.002 0.229,-0.011 0.217,-0.022C0.204,-0.034 0.195,-0.047 0.188,-0.061L0.196,-0.084C0.203,-0.065 0.216,-0.051 0.235,-0.039C0.254,-0.027 0.276,-0.022 0.301,-0.022C0.341,-0.022 0.373,-0.038 0.395,-0.07C0.417,-0.102 0.428,-0.147 0.428,-0.206C0.428,-0.244 0.423,-0.276 0.414,-0.303C0.404,-0.329 0.391,-0.35 0.373,-0.364C0.355,-0.378 0.334,-0.385 0.308,-0.385C0.282,-0.385 0.258,-0.377 0.237,-0.362C0.217,-0.347 0.202,-0.327 0.193,-0.301L0.186,-0.323C0.196,-0.354 0.215,-0.379 0.241,-0.397C0.268,-0.416 0.3,-0.425 0.337,-0.425Z" style="fill:white;fill-rule:nonzero;"/>
                </g>
                <g transform="matrix(70.8333,0,0,70.8333,404.033,225.9)">
                    <path d="M0.257,0.011C0.218,0.011 0.183,0.003 0.153,-0.015C0.124,-0.033 0.101,-0.058 0.084,-0.09C0.068,-0.123 0.06,-0.161 0.06,-0.206C0.06,-0.25 0.068,-0.289 0.085,-0.323C0.101,-0.356 0.124,-0.382 0.155,-0.4C0.185,-0.418 0.221,-0.427 0.262,-0.427C0.319,-0.427 0.362,-0.411 0.393,-0.378C0.423,-0.345 0.438,-0.296 0.436,-0.231L0.111,-0.231L0.111,-0.26L0.355,-0.26C0.356,-0.302 0.348,-0.335 0.332,-0.36C0.315,-0.385 0.291,-0.398 0.259,-0.398C0.228,-0.398 0.202,-0.386 0.181,-0.361C0.16,-0.336 0.147,-0.3 0.144,-0.253L0.145,-0.251C0.144,-0.239 0.144,-0.227 0.144,-0.213C0.144,-0.155 0.155,-0.11 0.179,-0.079C0.202,-0.047 0.236,-0.031 0.28,-0.031C0.308,-0.031 0.333,-0.038 0.355,-0.052C0.377,-0.065 0.395,-0.086 0.41,-0.114L0.436,-0.097C0.421,-0.062 0.398,-0.036 0.366,-0.017C0.335,0.002 0.299,0.011 0.257,0.011Z" style="fill:white;fill-rule:nonzero;"/>
                </g>
                <g transform="matrix(70.8333,0,0,70.8333,439.335,225.9)">
                    <path d="M0.162,-0.002C0.138,-0.002 0.107,-0.002 0.071,-0.001L0.031,-0L0.031,-0.029L0.06,-0.032C0.076,-0.033 0.089,-0.036 0.098,-0.04C0.107,-0.044 0.113,-0.051 0.117,-0.06C0.121,-0.069 0.123,-0.082 0.123,-0.097L0.123,-0.207L0.201,-0.207L0.201,-0.097C0.201,-0.081 0.203,-0.069 0.206,-0.059C0.21,-0.05 0.216,-0.043 0.224,-0.039C0.232,-0.034 0.243,-0.031 0.258,-0.03L0.27,-0.029L0.27,-0L0.236,-0.001C0.206,-0.002 0.181,-0.002 0.162,-0.002ZM0.123,-0.314C0.123,-0.331 0.121,-0.343 0.117,-0.353C0.113,-0.362 0.107,-0.369 0.097,-0.374C0.088,-0.378 0.075,-0.382 0.058,-0.383L0.031,-0.386L0.031,-0.415C0.05,-0.414 0.069,-0.413 0.088,-0.413C0.134,-0.413 0.171,-0.417 0.201,-0.424L0.201,-0.207L0.123,-0.207L0.123,-0.314ZM0.404,-0.277C0.404,-0.313 0.397,-0.341 0.382,-0.359C0.368,-0.377 0.346,-0.386 0.317,-0.386C0.287,-0.386 0.26,-0.377 0.237,-0.358C0.213,-0.34 0.193,-0.312 0.177,-0.274L0.173,-0.292C0.191,-0.337 0.215,-0.371 0.243,-0.393C0.271,-0.416 0.305,-0.427 0.344,-0.427C0.388,-0.427 0.422,-0.413 0.446,-0.386C0.47,-0.359 0.482,-0.32 0.482,-0.268L0.482,-0.207L0.404,-0.207L0.404,-0.277ZM0.443,-0.002C0.424,-0.002 0.4,-0.002 0.371,-0.001L0.338,-0L0.338,-0.029L0.348,-0.03C0.362,-0.031 0.373,-0.034 0.381,-0.039C0.389,-0.043 0.395,-0.05 0.399,-0.059C0.402,-0.069 0.404,-0.081 0.404,-0.097L0.404,-0.207L0.482,-0.207L0.482,-0.097C0.482,-0.082 0.484,-0.069 0.488,-0.06C0.492,-0.051 0.498,-0.044 0.507,-0.04C0.516,-0.036 0.529,-0.033 0.545,-0.032L0.574,-0.029L0.574,-0L0.534,-0.001C0.497,-0.002 0.467,-0.002 0.443,-0.002Z" style="fill:white;fill-rule:nonzero;"/>
                </g>
                <g transform="matrix(70.8333,0,0,70.8333,482.177,225.9)">
                </g>
                <g transform="matrix(70.8333,0,0,70.8333,497.543,225.9)">
                    <path d="M0.285,0.011C0.257,0.011 0.233,0.009 0.212,0.003C0.192,-0.002 0.171,-0.009 0.148,-0.018C0.141,-0.021 0.134,-0.023 0.128,-0.025C0.122,-0.027 0.117,-0.028 0.113,-0.028C0.105,-0.028 0.1,-0.025 0.095,-0.019C0.091,-0.014 0.088,-0.005 0.085,0.007L0.055,0.007C0.057,-0.01 0.058,-0.036 0.058,-0.071C0.059,-0.106 0.059,-0.15 0.059,-0.204L0.089,-0.204C0.092,-0.167 0.102,-0.134 0.118,-0.106C0.134,-0.078 0.155,-0.056 0.181,-0.041C0.208,-0.026 0.238,-0.019 0.272,-0.019C0.311,-0.019 0.342,-0.029 0.365,-0.048C0.388,-0.068 0.4,-0.095 0.4,-0.129C0.4,-0.149 0.395,-0.167 0.385,-0.183C0.375,-0.198 0.359,-0.212 0.337,-0.224C0.316,-0.236 0.287,-0.247 0.251,-0.258C0.188,-0.275 0.141,-0.298 0.112,-0.326C0.082,-0.354 0.068,-0.389 0.068,-0.431C0.068,-0.461 0.075,-0.488 0.089,-0.511C0.103,-0.534 0.124,-0.551 0.15,-0.564C0.176,-0.576 0.207,-0.582 0.242,-0.582C0.266,-0.582 0.287,-0.58 0.304,-0.575C0.322,-0.57 0.34,-0.564 0.359,-0.556C0.366,-0.553 0.373,-0.55 0.38,-0.548C0.386,-0.546 0.392,-0.545 0.397,-0.545C0.404,-0.545 0.41,-0.547 0.415,-0.553C0.419,-0.558 0.422,-0.566 0.425,-0.578L0.455,-0.578C0.453,-0.56 0.452,-0.537 0.451,-0.509C0.451,-0.481 0.451,-0.443 0.451,-0.397L0.42,-0.397C0.417,-0.428 0.408,-0.455 0.393,-0.479C0.378,-0.502 0.359,-0.521 0.335,-0.534C0.311,-0.546 0.285,-0.553 0.255,-0.553C0.22,-0.553 0.192,-0.544 0.171,-0.526C0.151,-0.509 0.141,-0.485 0.141,-0.455C0.141,-0.435 0.146,-0.418 0.157,-0.403C0.167,-0.388 0.184,-0.374 0.207,-0.362C0.23,-0.35 0.261,-0.338 0.299,-0.326C0.341,-0.314 0.375,-0.3 0.402,-0.284C0.429,-0.267 0.448,-0.248 0.461,-0.227C0.474,-0.205 0.48,-0.18 0.48,-0.151C0.48,-0.119 0.472,-0.09 0.456,-0.065C0.44,-0.041 0.418,-0.022 0.388,-0.009C0.359,0.005 0.324,0.011 0.285,0.011Z" style="fill:white;fill-rule:nonzero;"/>
                </g>
                <g transform="matrix(70.8333,0,0,70.8333,535.301,225.9)">
                    <path d="M0.262,0.011C0.223,0.011 0.188,0.003 0.158,-0.012C0.127,-0.028 0.103,-0.052 0.086,-0.085C0.069,-0.118 0.06,-0.159 0.06,-0.207C0.06,-0.256 0.069,-0.297 0.086,-0.33C0.103,-0.362 0.127,-0.387 0.158,-0.403C0.188,-0.419 0.223,-0.427 0.262,-0.427C0.302,-0.427 0.337,-0.419 0.367,-0.403C0.398,-0.387 0.421,-0.362 0.439,-0.33C0.456,-0.297 0.465,-0.256 0.465,-0.207C0.465,-0.159 0.456,-0.118 0.439,-0.085C0.421,-0.053 0.397,-0.028 0.367,-0.013C0.337,0.003 0.302,0.011 0.262,0.011ZM0.262,-0.018C0.286,-0.018 0.307,-0.025 0.324,-0.038C0.342,-0.052 0.356,-0.073 0.366,-0.101C0.376,-0.13 0.381,-0.165 0.381,-0.207C0.381,-0.25 0.376,-0.285 0.366,-0.314C0.356,-0.342 0.342,-0.363 0.324,-0.377C0.307,-0.391 0.286,-0.398 0.262,-0.398C0.239,-0.398 0.218,-0.391 0.201,-0.377C0.183,-0.363 0.169,-0.342 0.159,-0.314C0.149,-0.285 0.144,-0.25 0.144,-0.207C0.144,-0.165 0.149,-0.129 0.159,-0.101C0.169,-0.073 0.183,-0.052 0.201,-0.038C0.218,-0.025 0.239,-0.018 0.262,-0.018Z" style="fill:white;fill-rule:nonzero;"/>
                </g>
                <g transform="matrix(70.8333,0,0,70.8333,572.488,225.9)">
                    <path d="M0.201,-0.207L0.123,-0.207L0.123,-0.312C0.123,-0.329 0.121,-0.342 0.117,-0.351C0.113,-0.361 0.107,-0.368 0.098,-0.372C0.088,-0.377 0.075,-0.38 0.058,-0.382L0.031,-0.384L0.031,-0.413C0.051,-0.412 0.07,-0.412 0.088,-0.412C0.134,-0.412 0.172,-0.415 0.201,-0.423L0.201,-0.207ZM0.201,-0.133C0.201,-0.098 0.208,-0.071 0.222,-0.054C0.236,-0.036 0.257,-0.027 0.286,-0.027C0.315,-0.027 0.342,-0.037 0.364,-0.055C0.387,-0.074 0.407,-0.102 0.423,-0.14L0.426,-0.121C0.409,-0.076 0.386,-0.042 0.358,-0.02C0.331,0.002 0.297,0.013 0.259,0.013C0.215,0.013 0.182,0 0.158,-0.027C0.135,-0.053 0.123,-0.092 0.123,-0.142L0.123,-0.207L0.201,-0.207L0.201,-0.133ZM0.399,-0.207L0.477,-0.207L0.477,-0.101C0.477,-0.084 0.479,-0.071 0.483,-0.062C0.487,-0.053 0.493,-0.046 0.503,-0.041C0.512,-0.036 0.525,-0.033 0.542,-0.032L0.569,-0.029L0.569,-0C0.549,-0.001 0.531,-0.002 0.512,-0.002C0.466,-0.002 0.428,0.002 0.399,0.01L0.399,-0.207ZM0.477,-0.207L0.399,-0.207L0.399,-0.314C0.399,-0.33 0.397,-0.343 0.394,-0.352C0.39,-0.361 0.385,-0.368 0.376,-0.372C0.368,-0.377 0.356,-0.38 0.34,-0.382L0.323,-0.384L0.323,-0.413C0.341,-0.412 0.358,-0.412 0.373,-0.412C0.393,-0.412 0.412,-0.413 0.429,-0.415C0.447,-0.417 0.463,-0.419 0.477,-0.423L0.477,-0.207Z" style="fill:white;fill-rule:nonzero;"/>
                </g>
                <g transform="matrix(70.8333,0,0,70.8333,614.988,225.9)">
                    <path d="M0.162,-0.002C0.138,-0.002 0.107,-0.002 0.071,-0.001L0.031,-0L0.031,-0.029L0.06,-0.032C0.076,-0.033 0.089,-0.036 0.098,-0.04C0.107,-0.044 0.113,-0.051 0.117,-0.06C0.121,-0.069 0.123,-0.082 0.123,-0.097L0.123,-0.207L0.201,-0.207L0.201,-0.097C0.201,-0.082 0.203,-0.069 0.207,-0.06C0.212,-0.052 0.219,-0.045 0.229,-0.041C0.239,-0.036 0.253,-0.033 0.271,-0.032L0.306,-0.029L0.306,-0L0.262,-0.001C0.222,-0.002 0.189,-0.002 0.162,-0.002ZM0.123,-0.314C0.123,-0.331 0.121,-0.343 0.117,-0.353C0.113,-0.362 0.107,-0.369 0.097,-0.374C0.088,-0.378 0.075,-0.382 0.058,-0.383L0.031,-0.386L0.031,-0.415C0.05,-0.414 0.069,-0.413 0.088,-0.413C0.134,-0.413 0.172,-0.417 0.201,-0.424L0.201,-0.207L0.123,-0.207L0.123,-0.314ZM0.36,-0.285C0.348,-0.285 0.339,-0.289 0.332,-0.295C0.325,-0.301 0.321,-0.31 0.321,-0.32C0.321,-0.326 0.322,-0.331 0.324,-0.336C0.326,-0.341 0.328,-0.345 0.331,-0.35C0.333,-0.354 0.335,-0.357 0.336,-0.361C0.338,-0.365 0.339,-0.368 0.339,-0.372C0.339,-0.377 0.336,-0.381 0.332,-0.384C0.328,-0.387 0.321,-0.389 0.313,-0.389C0.299,-0.389 0.284,-0.385 0.269,-0.379C0.254,-0.372 0.24,-0.363 0.228,-0.352C0.215,-0.34 0.205,-0.327 0.198,-0.313L0.196,-0.344C0.212,-0.37 0.232,-0.391 0.255,-0.405C0.279,-0.42 0.304,-0.427 0.33,-0.427C0.356,-0.427 0.377,-0.42 0.392,-0.406C0.407,-0.392 0.415,-0.373 0.415,-0.349C0.415,-0.33 0.41,-0.315 0.399,-0.303C0.389,-0.291 0.376,-0.285 0.36,-0.285Z" style="fill:white;fill-rule:nonzero;"/>
                </g>
                <g transform="matrix(70.8333,0,0,70.8333,646.462,225.9)">
                    <path d="M0.258,0.011C0.218,0.011 0.183,0.003 0.153,-0.015C0.123,-0.032 0.1,-0.057 0.084,-0.09C0.068,-0.123 0.06,-0.161 0.06,-0.205C0.06,-0.25 0.068,-0.289 0.085,-0.322C0.102,-0.356 0.126,-0.382 0.157,-0.4C0.188,-0.418 0.224,-0.427 0.265,-0.427C0.296,-0.427 0.323,-0.422 0.347,-0.413C0.371,-0.404 0.39,-0.391 0.404,-0.375C0.418,-0.359 0.424,-0.341 0.424,-0.321C0.424,-0.303 0.419,-0.288 0.408,-0.276C0.397,-0.264 0.382,-0.259 0.365,-0.259C0.351,-0.259 0.34,-0.262 0.332,-0.269C0.324,-0.277 0.32,-0.286 0.32,-0.298C0.32,-0.305 0.321,-0.312 0.324,-0.318C0.327,-0.324 0.331,-0.331 0.336,-0.339C0.339,-0.344 0.342,-0.349 0.345,-0.353C0.347,-0.358 0.348,-0.362 0.348,-0.367C0.348,-0.376 0.342,-0.383 0.33,-0.389C0.317,-0.394 0.301,-0.397 0.282,-0.397C0.237,-0.397 0.203,-0.381 0.179,-0.35C0.156,-0.318 0.144,-0.273 0.144,-0.214C0.144,-0.155 0.155,-0.11 0.179,-0.079C0.202,-0.047 0.235,-0.031 0.279,-0.031C0.307,-0.031 0.331,-0.038 0.353,-0.052C0.374,-0.066 0.392,-0.087 0.406,-0.114L0.432,-0.097C0.417,-0.062 0.395,-0.036 0.364,-0.017C0.334,0.002 0.299,0.011 0.258,0.011Z" style="fill:white;fill-rule:nonzero;"/>
                </g>
                <g transform="matrix(70.8333,0,0,70.8333,679.993,225.9)">
                    <path d="M0.257,0.011C0.218,0.011 0.183,0.003 0.153,-0.015C0.124,-0.033 0.101,-0.058 0.084,-0.09C0.068,-0.123 0.06,-0.161 0.06,-0.206C0.06,-0.25 0.068,-0.289 0.085,-0.323C0.101,-0.356 0.124,-0.382 0.155,-0.4C0.185,-0.418 0.221,-0.427 0.262,-0.427C0.319,-0.427 0.362,-0.411 0.393,-0.378C0.423,-0.345 0.438,-0.296 0.436,-0.231L0.111,-0.231L0.111,-0.26L0.355,-0.26C0.356,-0.302 0.348,-0.335 0.332,-0.36C0.315,-0.385 0.291,-0.398 0.259,-0.398C0.228,-0.398 0.202,-0.386 0.181,-0.361C0.16,-0.336 0.147,-0.3 0.144,-0.253L0.145,-0.251C0.144,-0.239 0.144,-0.227 0.144,-0.213C0.144,-0.155 0.155,-0.11 0.179,-0.079C0.202,-0.047 0.236,-0.031 0.28,-0.031C0.308,-0.031 0.333,-0.038 0.355,-0.052C0.377,-0.065 0.395,-0.086 0.41,-0.114L0.436,-0.097C0.421,-0.062 0.398,-0.036 0.366,-0.017C0.335,0.002 0.299,0.011 0.257,0.011Z" style="fill:white;fill-rule:nonzero;"/>
                </g>
                <g transform="matrix(70.8333,0,0,70.8333,715.295,225.9)">
                </g>
                <g transform="matrix(70.8333,0,0,70.8333,730.661,225.9)">
                    <path d="M0.162,-0.002C0.138,-0.002 0.107,-0.002 0.071,-0.001L0.031,-0L0.031,-0.029L0.06,-0.032C0.076,-0.033 0.089,-0.036 0.098,-0.04C0.107,-0.044 0.113,-0.051 0.117,-0.06C0.121,-0.069 0.123,-0.082 0.123,-0.097L0.123,-0.207L0.201,-0.207L0.201,-0.097C0.201,-0.082 0.203,-0.069 0.207,-0.06C0.211,-0.051 0.217,-0.044 0.226,-0.04C0.235,-0.036 0.248,-0.033 0.264,-0.032L0.293,-0.029L0.293,-0L0.253,-0.001C0.217,-0.002 0.186,-0.002 0.162,-0.002ZM0.123,-0.522C0.123,-0.539 0.121,-0.552 0.117,-0.561C0.113,-0.571 0.107,-0.578 0.097,-0.582C0.088,-0.587 0.075,-0.59 0.058,-0.592L0.031,-0.594L0.031,-0.623C0.05,-0.622 0.069,-0.622 0.088,-0.622C0.134,-0.622 0.171,-0.625 0.201,-0.633L0.201,-0.207L0.123,-0.207L0.123,-0.522Z" style="fill:white;fill-rule:nonzero;"/>
                </g>
                <g transform="matrix(70.8333,0,0,70.8333,753.625,225.9)">
                    <path d="M0.123,-0.314C0.123,-0.33 0.121,-0.343 0.117,-0.353C0.113,-0.362 0.107,-0.369 0.097,-0.374C0.088,-0.378 0.074,-0.381 0.057,-0.383L0.031,-0.385L0.031,-0.415C0.051,-0.413 0.07,-0.413 0.088,-0.413C0.134,-0.413 0.171,-0.417 0.201,-0.424L0.201,-0.206L0.123,-0.206L0.123,-0.314ZM0.162,-0.002C0.138,-0.002 0.108,-0.002 0.071,-0.001L0.031,-0L0.031,-0.029L0.06,-0.031C0.076,-0.033 0.088,-0.036 0.098,-0.04C0.107,-0.045 0.113,-0.051 0.117,-0.06C0.121,-0.069 0.123,-0.081 0.123,-0.098L0.123,-0.206L0.201,-0.206L0.201,-0.098C0.201,-0.081 0.203,-0.069 0.207,-0.06C0.211,-0.051 0.217,-0.045 0.226,-0.04C0.235,-0.036 0.248,-0.033 0.265,-0.031L0.293,-0.029L0.293,-0L0.253,-0.001C0.217,-0.002 0.186,-0.002 0.162,-0.002ZM0.162,-0.51C0.147,-0.51 0.133,-0.516 0.123,-0.526C0.112,-0.537 0.106,-0.55 0.106,-0.565C0.106,-0.58 0.112,-0.593 0.123,-0.604C0.133,-0.614 0.147,-0.619 0.162,-0.619C0.178,-0.619 0.191,-0.614 0.202,-0.604C0.212,-0.593 0.218,-0.58 0.218,-0.565C0.218,-0.55 0.212,-0.537 0.202,-0.526C0.191,-0.516 0.178,-0.51 0.162,-0.51Z" style="fill:white;fill-rule:nonzero;"/>
                </g>
                <g transform="matrix(70.8333,0,0,70.8333,775.959,225.9)">
                    <path d="M0.258,0.011C0.218,0.011 0.183,0.003 0.153,-0.015C0.123,-0.032 0.1,-0.057 0.084,-0.09C0.068,-0.123 0.06,-0.161 0.06,-0.205C0.06,-0.25 0.068,-0.289 0.085,-0.322C0.102,-0.356 0.126,-0.382 0.157,-0.4C0.188,-0.418 0.224,-0.427 0.265,-0.427C0.296,-0.427 0.323,-0.422 0.347,-0.413C0.371,-0.404 0.39,-0.391 0.404,-0.375C0.418,-0.359 0.424,-0.341 0.424,-0.321C0.424,-0.303 0.419,-0.288 0.408,-0.276C0.397,-0.264 0.382,-0.259 0.365,-0.259C0.351,-0.259 0.34,-0.262 0.332,-0.269C0.324,-0.277 0.32,-0.286 0.32,-0.298C0.32,-0.305 0.321,-0.312 0.324,-0.318C0.327,-0.324 0.331,-0.331 0.336,-0.339C0.339,-0.344 0.342,-0.349 0.345,-0.353C0.347,-0.358 0.348,-0.362 0.348,-0.367C0.348,-0.376 0.342,-0.383 0.33,-0.389C0.317,-0.394 0.301,-0.397 0.282,-0.397C0.237,-0.397 0.203,-0.381 0.179,-0.35C0.156,-0.318 0.144,-0.273 0.144,-0.214C0.144,-0.155 0.155,-0.11 0.179,-0.079C0.202,-0.047 0.235,-0.031 0.279,-0.031C0.307,-0.031 0.331,-0.038 0.353,-0.052C0.374,-0.066 0.392,-0.087 0.406,-0.114L0.432,-0.097C0.417,-0.062 0.395,-0.036 0.364,-0.017C0.334,0.002 0.299,0.011 0.258,0.011Z" style="fill:white;fill-rule:nonzero;"/>
                </g>
                <g transform="matrix(70.8333,0,0,70.8333,809.49,225.9)">
                    <path d="M0.257,0.011C0.218,0.011 0.183,0.003 0.153,-0.015C0.124,-0.033 0.101,-0.058 0.084,-0.09C0.068,-0.123 0.06,-0.161 0.06,-0.206C0.06,-0.25 0.068,-0.289 0.085,-0.323C0.101,-0.356 0.124,-0.382 0.155,-0.4C0.185,-0.418 0.221,-0.427 0.262,-0.427C0.319,-0.427 0.362,-0.411 0.393,-0.378C0.423,-0.345 0.438,-0.296 0.436,-0.231L0.111,-0.231L0.111,-0.26L0.355,-0.26C0.356,-0.302 0.348,-0.335 0.332,-0.36C0.315,-0.385 0.291,-0.398 0.259,-0.398C0.228,-0.398 0.202,-0.386 0.181,-0.361C0.16,-0.336 0.147,-0.3 0.144,-0.253L0.145,-0.251C0.144,-0.239 0.144,-0.227 0.144,-0.213C0.144,-0.155 0.155,-0.11 0.179,-0.079C0.202,-0.047 0.236,-0.031 0.28,-0.031C0.308,-0.031 0.333,-0.038 0.355,-0.052C0.377,-0.065 0.395,-0.086 0.41,-0.114L0.436,-0.097C0.421,-0.062 0.398,-0.036 0.366,-0.017C0.335,0.002 0.299,0.011 0.257,0.011Z" style="fill:white;fill-rule:nonzero;"/>
                </g>
                <g transform="matrix(70.8333,0,0,70.8333,844.792,225.9)">
                    <path d="M0.162,-0.002C0.138,-0.002 0.107,-0.002 0.071,-0.001L0.031,-0L0.031,-0.029L0.06,-0.032C0.076,-0.033 0.089,-0.036 0.098,-0.04C0.107,-0.044 0.113,-0.051 0.117,-0.06C0.121,-0.069 0.123,-0.082 0.123,-0.097L0.123,-0.207L0.201,-0.207L0.201,-0.097C0.201,-0.081 0.203,-0.069 0.206,-0.059C0.21,-0.05 0.216,-0.043 0.224,-0.039C0.232,-0.034 0.243,-0.031 0.258,-0.03L0.27,-0.029L0.27,-0L0.236,-0.001C0.206,-0.002 0.181,-0.002 0.162,-0.002ZM0.123,-0.314C0.123,-0.331 0.121,-0.343 0.117,-0.353C0.113,-0.362 0.107,-0.369 0.097,-0.374C0.088,-0.378 0.075,-0.382 0.058,-0.383L0.031,-0.386L0.031,-0.415C0.05,-0.414 0.069,-0.413 0.088,-0.413C0.134,-0.413 0.171,-0.417 0.201,-0.424L0.201,-0.207L0.123,-0.207L0.123,-0.314ZM0.404,-0.277C0.404,-0.313 0.397,-0.341 0.382,-0.359C0.368,-0.377 0.346,-0.386 0.317,-0.386C0.287,-0.386 0.26,-0.377 0.237,-0.358C0.213,-0.34 0.193,-0.312 0.177,-0.274L0.173,-0.292C0.191,-0.337 0.215,-0.371 0.243,-0.393C0.271,-0.416 0.305,-0.427 0.344,-0.427C0.388,-0.427 0.422,-0.413 0.446,-0.386C0.47,-0.359 0.482,-0.32 0.482,-0.268L0.482,-0.207L0.404,-0.207L0.404,-0.277ZM0.443,-0.002C0.424,-0.002 0.4,-0.002 0.371,-0.001L0.338,-0L0.338,-0.029L0.348,-0.03C0.362,-0.031 0.373,-0.034 0.381,-0.039C0.389,-0.043 0.395,-0.05 0.399,-0.059C0.402,-0.069 0.404,-0.081 0.404,-0.097L0.404,-0.207L0.482,-0.207L0.482,-0.097C0.482,-0.082 0.484,-0.069 0.488,-0.06C0.492,-0.051 0.498,-0.044 0.507,-0.04C0.516,-0.036 0.529,-0.033 0.545,-0.032L0.574,-0.029L0.574,-0L0.534,-0.001C0.497,-0.002 0.467,-0.002 0.443,-0.002Z" style="fill:white;fill-rule:nonzero;"/>
                </g>
                <g transform="matrix(70.8333,0,0,70.8333,887.634,225.9)">
                    <path d="M0.245,0.011C0.225,0.011 0.207,0.009 0.192,0.006C0.176,0.002 0.161,-0.003 0.146,-0.009C0.14,-0.012 0.135,-0.014 0.129,-0.015C0.124,-0.017 0.119,-0.018 0.115,-0.018C0.109,-0.018 0.104,-0.016 0.099,-0.012C0.094,-0.007 0.09,-0.001 0.087,0.007L0.058,0.007C0.06,-0.011 0.061,-0.034 0.061,-0.061C0.062,-0.088 0.062,-0.12 0.062,-0.155L0.09,-0.155C0.098,-0.109 0.114,-0.075 0.138,-0.053C0.162,-0.03 0.195,-0.019 0.236,-0.019C0.266,-0.019 0.289,-0.025 0.306,-0.037C0.322,-0.05 0.33,-0.067 0.33,-0.09C0.33,-0.105 0.326,-0.117 0.319,-0.127C0.312,-0.138 0.3,-0.147 0.283,-0.155C0.267,-0.163 0.245,-0.171 0.217,-0.178C0.166,-0.191 0.129,-0.209 0.106,-0.23C0.083,-0.252 0.071,-0.279 0.071,-0.311C0.071,-0.347 0.083,-0.375 0.107,-0.396C0.131,-0.416 0.163,-0.427 0.203,-0.427C0.222,-0.427 0.237,-0.425 0.251,-0.421C0.265,-0.418 0.279,-0.413 0.294,-0.407C0.3,-0.405 0.306,-0.402 0.312,-0.4C0.318,-0.398 0.324,-0.397 0.328,-0.397C0.334,-0.397 0.339,-0.399 0.342,-0.403C0.346,-0.407 0.35,-0.413 0.353,-0.422L0.382,-0.422C0.38,-0.404 0.379,-0.383 0.379,-0.361C0.378,-0.338 0.378,-0.312 0.378,-0.283L0.349,-0.283C0.343,-0.318 0.328,-0.346 0.303,-0.367C0.279,-0.387 0.249,-0.398 0.214,-0.398C0.19,-0.398 0.171,-0.392 0.157,-0.381C0.144,-0.37 0.137,-0.354 0.137,-0.334C0.137,-0.32 0.141,-0.307 0.149,-0.297C0.157,-0.286 0.169,-0.277 0.187,-0.269C0.204,-0.26 0.228,-0.252 0.258,-0.244C0.291,-0.235 0.318,-0.225 0.338,-0.213C0.358,-0.202 0.373,-0.188 0.382,-0.172C0.391,-0.156 0.396,-0.137 0.396,-0.115C0.396,-0.076 0.382,-0.045 0.356,-0.022C0.329,0 0.292,0.011 0.245,0.011Z" style="fill:white;fill-rule:nonzero;"/>
                </g>
                <g transform="matrix(70.8333,0,0,70.8333,920.251,225.9)">
                    <path d="M0.257,0.011C0.218,0.011 0.183,0.003 0.153,-0.015C0.124,-0.033 0.101,-0.058 0.084,-0.09C0.068,-0.123 0.06,-0.161 0.06,-0.206C0.06,-0.25 0.068,-0.289 0.085,-0.323C0.101,-0.356 0.124,-0.382 0.155,-0.4C0.185,-0.418 0.221,-0.427 0.262,-0.427C0.319,-0.427 0.362,-0.411 0.393,-0.378C0.423,-0.345 0.438,-0.296 0.436,-0.231L0.111,-0.231L0.111,-0.26L0.355,-0.26C0.356,-0.302 0.348,-0.335 0.332,-0.36C0.315,-0.385 0.291,-0.398 0.259,-0.398C0.228,-0.398 0.202,-0.386 0.181,-0.361C0.16,-0.336 0.147,-0.3 0.144,-0.253L0.145,-0.251C0.144,-0.239 0.144,-0.227 0.144,-0.213C0.144,-0.155 0.155,-0.11 0.179,-0.079C0.202,-0.047 0.236,-0.031 0.28,-0.031C0.308,-0.031 0.333,-0.038 0.355,-0.052C0.377,-0.065 0.395,-0.086 0.41,-0.114L0.436,-0.097C0.421,-0.062 0.398,-0.036 0.366,-0.017C0.335,0.002 0.299,0.011 0.257,0.011Z" style="fill:white;fill-rule:nonzero;"/>
                </g>
                <g transform="matrix(70.8333,0,0,70.8333,955.553,225.9)">
                    <path d="M0.235,0.011C0.2,0.011 0.17,0.002 0.143,-0.015C0.117,-0.033 0.096,-0.058 0.082,-0.09C0.067,-0.123 0.06,-0.161 0.06,-0.204C0.06,-0.249 0.068,-0.288 0.084,-0.322C0.1,-0.355 0.122,-0.381 0.151,-0.4C0.18,-0.418 0.214,-0.427 0.252,-0.427C0.273,-0.427 0.292,-0.424 0.31,-0.417C0.327,-0.411 0.342,-0.402 0.355,-0.391C0.367,-0.38 0.377,-0.367 0.384,-0.352L0.375,-0.33C0.368,-0.348 0.355,-0.363 0.337,-0.374C0.318,-0.386 0.296,-0.392 0.271,-0.392C0.23,-0.392 0.199,-0.376 0.177,-0.344C0.155,-0.312 0.144,-0.266 0.144,-0.208C0.144,-0.17 0.148,-0.138 0.158,-0.111C0.167,-0.084 0.181,-0.064 0.199,-0.05C0.216,-0.035 0.238,-0.028 0.263,-0.028C0.29,-0.028 0.313,-0.036 0.334,-0.051C0.355,-0.066 0.37,-0.087 0.379,-0.112L0.385,-0.09C0.375,-0.059 0.357,-0.035 0.33,-0.016C0.303,0.002 0.272,0.011 0.235,0.011ZM0.37,-0.207L0.448,-0.207L0.448,-0.101C0.448,-0.084 0.45,-0.071 0.454,-0.062C0.458,-0.053 0.465,-0.046 0.474,-0.041C0.483,-0.036 0.496,-0.033 0.514,-0.032L0.54,-0.029L0.54,-0C0.521,-0.001 0.502,-0.002 0.484,-0.002C0.437,-0.002 0.4,0.002 0.37,0.01L0.37,-0.207ZM0.37,-0.522C0.37,-0.539 0.368,-0.552 0.364,-0.561C0.36,-0.571 0.354,-0.578 0.345,-0.582C0.335,-0.587 0.322,-0.59 0.305,-0.592L0.278,-0.594L0.278,-0.623C0.298,-0.622 0.317,-0.622 0.335,-0.622C0.381,-0.622 0.419,-0.625 0.448,-0.633L0.448,-0.207L0.37,-0.207L0.37,-0.522Z" style="fill:white;fill-rule:nonzero;"/>
                </g>
                <g transform="matrix(70.8333,0,0,70.8333,996.053,225.9)">
                </g>
                <g transform="matrix(70.8333,0,0,70.8333,1011.42,225.9)">
                    <path d="M0.239,0.011C0.197,0.011 0.166,-0.001 0.145,-0.025C0.124,-0.049 0.114,-0.085 0.114,-0.134L0.114,-0.207L0.192,-0.207L0.192,-0.11C0.192,-0.083 0.197,-0.062 0.208,-0.05C0.219,-0.037 0.235,-0.03 0.258,-0.03C0.279,-0.03 0.296,-0.036 0.309,-0.049C0.323,-0.061 0.333,-0.08 0.341,-0.106L0.364,-0.099C0.355,-0.061 0.341,-0.033 0.32,-0.016C0.3,0.002 0.273,0.011 0.239,0.011ZM0.114,-0.538C0.144,-0.539 0.17,-0.542 0.192,-0.549L0.192,-0.207L0.114,-0.207L0.114,-0.538ZM0.013,-0.413L0.339,-0.413L0.339,-0.384L0.013,-0.384L0.013,-0.413Z" style="fill:white;fill-rule:nonzero;"/>
                </g>
                <g transform="matrix(70.8333,0,0,70.8333,1038.72,225.9)">
                    <path d="M0.162,-0.002C0.138,-0.002 0.107,-0.002 0.071,-0.001L0.031,-0L0.031,-0.029L0.06,-0.032C0.076,-0.033 0.089,-0.036 0.098,-0.04C0.107,-0.044 0.113,-0.051 0.117,-0.06C0.121,-0.069 0.123,-0.082 0.123,-0.097L0.123,-0.207L0.201,-0.207L0.201,-0.097C0.201,-0.081 0.203,-0.069 0.206,-0.059C0.21,-0.05 0.215,-0.043 0.223,-0.039C0.231,-0.034 0.243,-0.031 0.257,-0.03L0.267,-0.029L0.267,-0L0.234,-0.001C0.205,-0.002 0.181,-0.002 0.162,-0.002ZM0.123,-0.522C0.123,-0.539 0.121,-0.552 0.117,-0.561C0.113,-0.571 0.107,-0.578 0.097,-0.582C0.088,-0.587 0.075,-0.59 0.058,-0.592L0.031,-0.594L0.031,-0.623C0.05,-0.622 0.069,-0.622 0.088,-0.622C0.134,-0.622 0.171,-0.625 0.201,-0.633L0.201,-0.207L0.123,-0.207L0.123,-0.522ZM0.404,-0.277C0.404,-0.313 0.397,-0.341 0.382,-0.359C0.368,-0.377 0.346,-0.386 0.317,-0.386C0.287,-0.386 0.26,-0.377 0.237,-0.358C0.213,-0.34 0.193,-0.312 0.177,-0.274L0.173,-0.292C0.191,-0.337 0.215,-0.371 0.243,-0.393C0.271,-0.416 0.305,-0.427 0.344,-0.427C0.388,-0.427 0.422,-0.413 0.446,-0.386C0.47,-0.359 0.482,-0.32 0.482,-0.268L0.482,-0.207L0.404,-0.207L0.404,-0.277ZM0.443,-0.002C0.424,-0.002 0.4,-0.002 0.371,-0.001L0.338,-0L0.338,-0.029L0.348,-0.03C0.362,-0.031 0.373,-0.034 0.381,-0.039C0.389,-0.043 0.395,-0.05 0.399,-0.059C0.402,-0.069 0.404,-0.081 0.404,-0.097L0.404,-0.207L0.482,-0.207L0.482,-0.097C0.482,-0.082 0.484,-0.069 0.488,-0.06C0.492,-0.051 0.498,-0.044 0.507,-0.04C0.516,-0.036 0.529,-0.033 0.545,-0.032L0.574,-0.029L0.574,-0L0.534,-0.001C0.497,-0.002 0.467,-0.002 0.443,-0.002Z" style="fill:white;fill-rule:nonzero;"/>
                </g>
                <g transform="matrix(70.8333,0,0,70.8333,1081.57,225.9)">
                    <path d="M0.162,-0.002C0.138,-0.002 0.107,-0.002 0.071,-0.001L0.031,-0L0.031,-0.029L0.06,-0.032C0.076,-0.033 0.089,-0.036 0.098,-0.04C0.107,-0.044 0.113,-0.051 0.117,-0.06C0.121,-0.069 0.123,-0.082 0.123,-0.097L0.123,-0.207L0.201,-0.207L0.201,-0.097C0.201,-0.082 0.203,-0.069 0.207,-0.06C0.212,-0.052 0.219,-0.045 0.229,-0.041C0.239,-0.036 0.253,-0.033 0.271,-0.032L0.306,-0.029L0.306,-0L0.262,-0.001C0.222,-0.002 0.189,-0.002 0.162,-0.002ZM0.123,-0.314C0.123,-0.331 0.121,-0.343 0.117,-0.353C0.113,-0.362 0.107,-0.369 0.097,-0.374C0.088,-0.378 0.075,-0.382 0.058,-0.383L0.031,-0.386L0.031,-0.415C0.05,-0.414 0.069,-0.413 0.088,-0.413C0.134,-0.413 0.172,-0.417 0.201,-0.424L0.201,-0.207L0.123,-0.207L0.123,-0.314ZM0.36,-0.285C0.348,-0.285 0.339,-0.289 0.332,-0.295C0.325,-0.301 0.321,-0.31 0.321,-0.32C0.321,-0.326 0.322,-0.331 0.324,-0.336C0.326,-0.341 0.328,-0.345 0.331,-0.35C0.333,-0.354 0.335,-0.357 0.336,-0.361C0.338,-0.365 0.339,-0.368 0.339,-0.372C0.339,-0.377 0.336,-0.381 0.332,-0.384C0.328,-0.387 0.321,-0.389 0.313,-0.389C0.299,-0.389 0.284,-0.385 0.269,-0.379C0.254,-0.372 0.24,-0.363 0.228,-0.352C0.215,-0.34 0.205,-0.327 0.198,-0.313L0.196,-0.344C0.212,-0.37 0.232,-0.391 0.255,-0.405C0.279,-0.42 0.304,-0.427 0.33,-0.427C0.356,-0.427 0.377,-0.42 0.392,-0.406C0.407,-0.392 0.415,-0.373 0.415,-0.349C0.415,-0.33 0.41,-0.315 0.399,-0.303C0.389,-0.291 0.376,-0.285 0.36,-0.285Z" style="fill:white;fill-rule:nonzero;"/>
                </g>
                <g transform="matrix(70.8333,0,0,70.8333,1112.07,225.9)">
                    <path d="M0.257,0.011C0.218,0.011 0.183,0.003 0.153,-0.015C0.124,-0.033 0.101,-0.058 0.084,-0.09C0.068,-0.123 0.06,-0.161 0.06,-0.206C0.06,-0.25 0.068,-0.289 0.085,-0.323C0.101,-0.356 0.124,-0.382 0.155,-0.4C0.185,-0.418 0.221,-0.427 0.262,-0.427C0.319,-0.427 0.362,-0.411 0.393,-0.378C0.423,-0.345 0.438,-0.296 0.436,-0.231L0.111,-0.231L0.111,-0.26L0.355,-0.26C0.356,-0.302 0.348,-0.335 0.332,-0.36C0.315,-0.385 0.291,-0.398 0.259,-0.398C0.228,-0.398 0.202,-0.386 0.181,-0.361C0.16,-0.336 0.147,-0.3 0.144,-0.253L0.145,-0.251C0.144,-0.239 0.144,-0.227 0.144,-0.213C0.144,-0.155 0.155,-0.11 0.179,-0.079C0.202,-0.047 0.236,-0.031 0.28,-0.031C0.308,-0.031 0.333,-0.038 0.355,-0.052C0.377,-0.065 0.395,-0.086 0.41,-0.114L0.436,-0.097C0.421,-0.062 0.398,-0.036 0.366,-0.017C0.335,0.002 0.299,0.011 0.257,0.011Z" style="fill:white;fill-rule:nonzero;"/>
                </g>
                <g transform="matrix(70.8333,0,0,70.8333,1147.37,225.9)">
                    <path d="M0.257,0.011C0.218,0.011 0.183,0.003 0.153,-0.015C0.124,-0.033 0.101,-0.058 0.084,-0.09C0.068,-0.123 0.06,-0.161 0.06,-0.206C0.06,-0.25 0.068,-0.289 0.085,-0.323C0.101,-0.356 0.124,-0.382 0.155,-0.4C0.185,-0.418 0.221,-0.427 0.262,-0.427C0.319,-0.427 0.362,-0.411 0.393,-0.378C0.423,-0.345 0.438,-0.296 0.436,-0.231L0.111,-0.231L0.111,-0.26L0.355,-0.26C0.356,-0.302 0.348,-0.335 0.332,-0.36C0.315,-0.385 0.291,-0.398 0.259,-0.398C0.228,-0.398 0.202,-0.386 0.181,-0.361C0.16,-0.336 0.147,-0.3 0.144,-0.253L0.145,-0.251C0.144,-0.239 0.144,-0.227 0.144,-0.213C0.144,-0.155 0.155,-0.11 0.179,-0.079C0.202,-0.047 0.236,-0.031 0.28,-0.031C0.308,-0.031 0.333,-0.038 0.355,-0.052C0.377,-0.065 0.395,-0.086 0.41,-0.114L0.436,-0.097C0.421,-0.062 0.398,-0.036 0.366,-0.017C0.335,0.002 0.299,0.011 0.257,0.011Z" style="fill:white;fill-rule:nonzero;"/>
                </g>
                <g transform="matrix(70.8333,0,0,70.8333,1182.67,225.9)">
                </g>
                <g transform="matrix(70.8333,0,0,70.8333,1198.04,225.9)">
                    <path d="M0.328,-0.313C0.328,-0.341 0.32,-0.361 0.304,-0.375C0.288,-0.389 0.263,-0.396 0.231,-0.396C0.21,-0.396 0.191,-0.393 0.177,-0.387C0.162,-0.381 0.155,-0.374 0.155,-0.365C0.155,-0.362 0.156,-0.358 0.158,-0.354C0.16,-0.35 0.162,-0.346 0.165,-0.342C0.169,-0.336 0.172,-0.33 0.174,-0.324C0.177,-0.319 0.178,-0.313 0.178,-0.307C0.178,-0.297 0.174,-0.288 0.165,-0.282C0.157,-0.275 0.146,-0.272 0.133,-0.272C0.118,-0.272 0.106,-0.277 0.096,-0.286C0.087,-0.296 0.082,-0.308 0.082,-0.324C0.082,-0.343 0.09,-0.361 0.105,-0.377C0.119,-0.392 0.14,-0.405 0.166,-0.414C0.192,-0.422 0.221,-0.427 0.254,-0.427C0.29,-0.427 0.319,-0.421 0.341,-0.411C0.363,-0.4 0.38,-0.383 0.39,-0.36C0.401,-0.338 0.406,-0.309 0.406,-0.273L0.406,-0.207L0.328,-0.207L0.328,-0.313ZM0.188,0.011C0.151,0.011 0.121,0.002 0.099,-0.017C0.077,-0.036 0.066,-0.062 0.066,-0.094C0.066,-0.122 0.074,-0.144 0.089,-0.16C0.105,-0.177 0.123,-0.19 0.145,-0.198C0.166,-0.207 0.194,-0.215 0.227,-0.223C0.251,-0.229 0.27,-0.234 0.283,-0.239C0.296,-0.243 0.307,-0.249 0.316,-0.257C0.325,-0.264 0.329,-0.273 0.329,-0.284L0.333,-0.246C0.328,-0.236 0.32,-0.228 0.308,-0.222C0.296,-0.216 0.279,-0.209 0.256,-0.201C0.233,-0.193 0.215,-0.186 0.201,-0.179C0.186,-0.172 0.175,-0.163 0.165,-0.15C0.155,-0.138 0.15,-0.122 0.15,-0.103C0.15,-0.082 0.156,-0.066 0.169,-0.054C0.181,-0.042 0.199,-0.036 0.222,-0.036C0.244,-0.036 0.265,-0.042 0.284,-0.053C0.304,-0.064 0.32,-0.08 0.335,-0.102L0.335,-0.07C0.317,-0.043 0.295,-0.022 0.271,-0.009C0.246,0.005 0.219,0.011 0.188,0.011ZM0.406,-0.065C0.406,-0.052 0.408,-0.042 0.413,-0.036C0.418,-0.03 0.425,-0.027 0.435,-0.027C0.442,-0.027 0.45,-0.029 0.458,-0.032C0.465,-0.035 0.474,-0.04 0.484,-0.046C0.486,-0.048 0.488,-0.049 0.491,-0.051L0.505,-0.027C0.49,-0.014 0.474,-0.004 0.459,0.002C0.444,0.008 0.426,0.011 0.407,0.011C0.38,0.011 0.361,0.005 0.348,-0.007C0.335,-0.019 0.328,-0.037 0.328,-0.062L0.328,-0.207L0.406,-0.207L0.406,-0.065Z" style="fill:white;fill-rule:nonzero;"/>
                </g>
                <g transform="matrix(70.8333,0,0,70.8333,1235.51,225.9)">
                    <path d="M0.312,-0.029C0.325,-0.03 0.334,-0.032 0.34,-0.035C0.346,-0.039 0.348,-0.043 0.348,-0.049C0.347,-0.055 0.344,-0.061 0.338,-0.069L0.118,-0.339C0.103,-0.355 0.089,-0.367 0.076,-0.374C0.062,-0.38 0.044,-0.384 0.021,-0.385L0.021,-0.415C0.031,-0.414 0.041,-0.414 0.05,-0.414C0.088,-0.412 0.113,-0.412 0.126,-0.412C0.139,-0.412 0.163,-0.412 0.198,-0.414C0.208,-0.414 0.218,-0.414 0.229,-0.415L0.229,-0.385C0.216,-0.385 0.207,-0.383 0.201,-0.38C0.195,-0.376 0.193,-0.372 0.193,-0.366C0.194,-0.361 0.197,-0.354 0.203,-0.346L0.422,-0.078C0.434,-0.063 0.449,-0.052 0.464,-0.044C0.48,-0.036 0.497,-0.031 0.517,-0.029L0.517,-0C0.508,-0 0.498,-0.001 0.487,-0.001C0.46,-0.003 0.436,-0.003 0.416,-0.003C0.395,-0.003 0.37,-0.003 0.341,-0.001C0.332,-0.001 0.322,-0.001 0.312,-0L0.312,-0.029ZM0.014,-0.029C0.04,-0.032 0.062,-0.039 0.082,-0.051C0.101,-0.063 0.124,-0.082 0.149,-0.11L0.244,-0.217L0.264,-0.199L0.202,-0.131C0.186,-0.112 0.177,-0.094 0.174,-0.079C0.172,-0.064 0.176,-0.053 0.187,-0.044C0.197,-0.035 0.212,-0.03 0.232,-0.029L0.232,-0C0.209,-0.002 0.172,-0.002 0.123,-0.002C0.087,-0.002 0.051,-0.002 0.014,-0L0.014,-0.029ZM0.273,-0.225L0.336,-0.301C0.349,-0.317 0.357,-0.331 0.359,-0.343C0.362,-0.356 0.359,-0.366 0.351,-0.373C0.343,-0.381 0.33,-0.385 0.313,-0.385L0.313,-0.415C0.352,-0.413 0.383,-0.412 0.407,-0.412C0.441,-0.412 0.471,-0.413 0.496,-0.415L0.496,-0.385C0.476,-0.384 0.456,-0.377 0.438,-0.365C0.42,-0.354 0.401,-0.336 0.38,-0.311L0.293,-0.207L0.273,-0.225Z" style="fill:white;fill-rule:nonzero;"/>
                </g>
                <g transform="matrix(70.8333,0,0,70.8333,1273.27,225.9)">
                    <path d="M0.257,0.011C0.218,0.011 0.183,0.003 0.153,-0.015C0.124,-0.033 0.101,-0.058 0.084,-0.09C0.068,-0.123 0.06,-0.161 0.06,-0.206C0.06,-0.25 0.068,-0.289 0.085,-0.323C0.101,-0.356 0.124,-0.382 0.155,-0.4C0.185,-0.418 0.221,-0.427 0.262,-0.427C0.319,-0.427 0.362,-0.411 0.393,-0.378C0.423,-0.345 0.438,-0.296 0.436,-0.231L0.111,-0.231L0.111,-0.26L0.355,-0.26C0.356,-0.302 0.348,-0.335 0.332,-0.36C0.315,-0.385 0.291,-0.398 0.259,-0.398C0.228,-0.398 0.202,-0.386 0.181,-0.361C0.16,-0.336 0.147,-0.3 0.144,-0.253L0.145,-0.251C0.144,-0.239 0.144,-0.227 0.144,-0.213C0.144,-0.155 0.155,-0.11 0.179,-0.079C0.202,-0.047 0.236,-0.031 0.28,-0.031C0.308,-0.031 0.333,-0.038 0.355,-0.052C0.377,-0.065 0.395,-0.086 0.41,-0.114L0.436,-0.097C0.421,-0.062 0.398,-0.036 0.366,-0.017C0.335,0.002 0.299,0.011 0.257,0.011Z" style="fill:white;fill-rule:nonzero;"/>
                </g>
                <g transform="matrix(70.8333,0,0,70.8333,1308.57,225.9)">
                    <path d="M0.245,0.011C0.225,0.011 0.207,0.009 0.192,0.006C0.176,0.002 0.161,-0.003 0.146,-0.009C0.14,-0.012 0.135,-0.014 0.129,-0.015C0.124,-0.017 0.119,-0.018 0.115,-0.018C0.109,-0.018 0.104,-0.016 0.099,-0.012C0.094,-0.007 0.09,-0.001 0.087,0.007L0.058,0.007C0.06,-0.011 0.061,-0.034 0.061,-0.061C0.062,-0.088 0.062,-0.12 0.062,-0.155L0.09,-0.155C0.098,-0.109 0.114,-0.075 0.138,-0.053C0.162,-0.03 0.195,-0.019 0.236,-0.019C0.266,-0.019 0.289,-0.025 0.306,-0.037C0.322,-0.05 0.33,-0.067 0.33,-0.09C0.33,-0.105 0.326,-0.117 0.319,-0.127C0.312,-0.138 0.3,-0.147 0.283,-0.155C0.267,-0.163 0.245,-0.171 0.217,-0.178C0.166,-0.191 0.129,-0.209 0.106,-0.23C0.083,-0.252 0.071,-0.279 0.071,-0.311C0.071,-0.347 0.083,-0.375 0.107,-0.396C0.131,-0.416 0.163,-0.427 0.203,-0.427C0.222,-0.427 0.237,-0.425 0.251,-0.421C0.265,-0.418 0.279,-0.413 0.294,-0.407C0.3,-0.405 0.306,-0.402 0.312,-0.4C0.318,-0.398 0.324,-0.397 0.328,-0.397C0.334,-0.397 0.339,-0.399 0.342,-0.403C0.346,-0.407 0.35,-0.413 0.353,-0.422L0.382,-0.422C0.38,-0.404 0.379,-0.383 0.379,-0.361C0.378,-0.338 0.378,-0.312 0.378,-0.283L0.349,-0.283C0.343,-0.318 0.328,-0.346 0.303,-0.367C0.279,-0.387 0.249,-0.398 0.214,-0.398C0.19,-0.398 0.171,-0.392 0.157,-0.381C0.144,-0.37 0.137,-0.354 0.137,-0.334C0.137,-0.32 0.141,-0.307 0.149,-0.297C0.157,-0.286 0.169,-0.277 0.187,-0.269C0.204,-0.26 0.228,-0.252 0.258,-0.244C0.291,-0.235 0.318,-0.225 0.338,-0.213C0.358,-0.202 0.373,-0.188 0.382,-0.172C0.391,-0.156 0.396,-0.137 0.396,-0.115C0.396,-0.076 0.382,-0.045 0.356,-0.022C0.329,0 0.292,0.011 0.245,0.011Z" style="fill:white;fill-rule:nonzero;"/>
                </g>
                <g transform="matrix(70.8333,0,0,70.8333,1341.19,225.9)">
                </g>
                <g transform="matrix(70.8333,0,0,70.8333,1356.56,225.9)">
                    <path d="M0.097,-0.326C0.09,-0.341 0.084,-0.352 0.079,-0.359C0.074,-0.366 0.068,-0.372 0.061,-0.375C0.054,-0.378 0.045,-0.381 0.033,-0.382L0.012,-0.384L0.012,-0.413C0.042,-0.412 0.07,-0.411 0.097,-0.411L0.101,-0.411C0.151,-0.411 0.195,-0.412 0.234,-0.414L0.234,-0.385L0.217,-0.382C0.202,-0.381 0.191,-0.377 0.185,-0.373C0.178,-0.368 0.175,-0.362 0.176,-0.353C0.176,-0.344 0.179,-0.331 0.186,-0.314L0.292,-0.08L0.279,-0.076L0.354,-0.254C0.366,-0.284 0.374,-0.308 0.376,-0.326C0.379,-0.344 0.377,-0.357 0.37,-0.366C0.363,-0.375 0.352,-0.38 0.337,-0.383L0.326,-0.384L0.326,-0.413C0.353,-0.412 0.383,-0.411 0.416,-0.411C0.445,-0.411 0.473,-0.412 0.502,-0.413L0.502,-0.384L0.489,-0.382C0.475,-0.379 0.463,-0.374 0.453,-0.367C0.443,-0.36 0.433,-0.348 0.424,-0.332C0.414,-0.316 0.403,-0.293 0.39,-0.263L0.276,0.008L0.248,0.008L0.097,-0.326Z" style="fill:white;fill-rule:nonzero;"/>
                </g>
                <g transform="matrix(70.8333,0,0,70.8333,1392.94,225.9)">
                    <path d="M0.328,-0.313C0.328,-0.341 0.32,-0.361 0.304,-0.375C0.288,-0.389 0.263,-0.396 0.231,-0.396C0.21,-0.396 0.191,-0.393 0.177,-0.387C0.162,-0.381 0.155,-0.374 0.155,-0.365C0.155,-0.362 0.156,-0.358 0.158,-0.354C0.16,-0.35 0.162,-0.346 0.165,-0.342C0.169,-0.336 0.172,-0.33 0.174,-0.324C0.177,-0.319 0.178,-0.313 0.178,-0.307C0.178,-0.297 0.174,-0.288 0.165,-0.282C0.157,-0.275 0.146,-0.272 0.133,-0.272C0.118,-0.272 0.106,-0.277 0.096,-0.286C0.087,-0.296 0.082,-0.308 0.082,-0.324C0.082,-0.343 0.09,-0.361 0.105,-0.377C0.119,-0.392 0.14,-0.405 0.166,-0.414C0.192,-0.422 0.221,-0.427 0.254,-0.427C0.29,-0.427 0.319,-0.421 0.341,-0.411C0.363,-0.4 0.38,-0.383 0.39,-0.36C0.401,-0.338 0.406,-0.309 0.406,-0.273L0.406,-0.207L0.328,-0.207L0.328,-0.313ZM0.188,0.011C0.151,0.011 0.121,0.002 0.099,-0.017C0.077,-0.036 0.066,-0.062 0.066,-0.094C0.066,-0.122 0.074,-0.144 0.089,-0.16C0.105,-0.177 0.123,-0.19 0.145,-0.198C0.166,-0.207 0.194,-0.215 0.227,-0.223C0.251,-0.229 0.27,-0.234 0.283,-0.239C0.296,-0.243 0.307,-0.249 0.316,-0.257C0.325,-0.264 0.329,-0.273 0.329,-0.284L0.333,-0.246C0.328,-0.236 0.32,-0.228 0.308,-0.222C0.296,-0.216 0.279,-0.209 0.256,-0.201C0.233,-0.193 0.215,-0.186 0.201,-0.179C0.186,-0.172 0.175,-0.163 0.165,-0.15C0.155,-0.138 0.15,-0.122 0.15,-0.103C0.15,-0.082 0.156,-0.066 0.169,-0.054C0.181,-0.042 0.199,-0.036 0.222,-0.036C0.244,-0.036 0.265,-0.042 0.284,-0.053C0.304,-0.064 0.32,-0.08 0.335,-0.102L0.335,-0.07C0.317,-0.043 0.295,-0.022 0.271,-0.009C0.246,0.005 0.219,0.011 0.188,0.011ZM0.406,-0.065C0.406,-0.052 0.408,-0.042 0.413,-0.036C0.418,-0.03 0.425,-0.027 0.435,-0.027C0.442,-0.027 0.45,-0.029 0.458,-0.032C0.465,-0.035 0.474,-0.04 0.484,-0.046C0.486,-0.048 0.488,-0.049 0.491,-0.051L0.505,-0.027C0.49,-0.014 0.474,-0.004 0.459,0.002C0.444,0.008 0.426,0.011 0.407,0.011C0.38,0.011 0.361,0.005 0.348,-0.007C0.335,-0.019 0.328,-0.037 0.328,-0.062L0.328,-0.207L0.406,-0.207L0.406,-0.065Z" style="fill:white;fill-rule:nonzero;"/>
                </g>
                <g transform="matrix(70.8333,0,0,70.8333,1430.42,225.9)">
                    <path d="M0.162,-0.002C0.138,-0.002 0.107,-0.002 0.071,-0.001L0.031,-0L0.031,-0.029L0.06,-0.032C0.076,-0.033 0.089,-0.036 0.098,-0.04C0.107,-0.044 0.113,-0.051 0.117,-0.06C0.121,-0.069 0.123,-0.082 0.123,-0.097L0.123,-0.207L0.201,-0.207L0.201,-0.097C0.201,-0.082 0.203,-0.069 0.207,-0.06C0.212,-0.052 0.219,-0.045 0.229,-0.041C0.239,-0.036 0.253,-0.033 0.271,-0.032L0.306,-0.029L0.306,-0L0.262,-0.001C0.222,-0.002 0.189,-0.002 0.162,-0.002ZM0.123,-0.314C0.123,-0.331 0.121,-0.343 0.117,-0.353C0.113,-0.362 0.107,-0.369 0.097,-0.374C0.088,-0.378 0.075,-0.382 0.058,-0.383L0.031,-0.386L0.031,-0.415C0.05,-0.414 0.069,-0.413 0.088,-0.413C0.134,-0.413 0.172,-0.417 0.201,-0.424L0.201,-0.207L0.123,-0.207L0.123,-0.314ZM0.36,-0.285C0.348,-0.285 0.339,-0.289 0.332,-0.295C0.325,-0.301 0.321,-0.31 0.321,-0.32C0.321,-0.326 0.322,-0.331 0.324,-0.336C0.326,-0.341 0.328,-0.345 0.331,-0.35C0.333,-0.354 0.335,-0.357 0.336,-0.361C0.338,-0.365 0.339,-0.368 0.339,-0.372C0.339,-0.377 0.336,-0.381 0.332,-0.384C0.328,-0.387 0.321,-0.389 0.313,-0.389C0.299,-0.389 0.284,-0.385 0.269,-0.379C0.254,-0.372 0.24,-0.363 0.228,-0.352C0.215,-0.34 0.205,-0.327 0.198,-0.313L0.196,-0.344C0.212,-0.37 0.232,-0.391 0.255,-0.405C0.279,-0.42 0.304,-0.427 0.33,-0.427C0.356,-0.427 0.377,-0.42 0.392,-0.406C0.407,-0.392 0.415,-0.373 0.415,-0.349C0.415,-0.33 0.41,-0.315 0.399,-0.303C0.389,-0.291 0.376,-0.285 0.36,-0.285Z" style="fill:white;fill-rule:nonzero;"/>
                </g>
                <g transform="matrix(70.8333,0,0,70.8333,1461.89,225.9)">
                    <path d="M0.123,-0.314C0.123,-0.33 0.121,-0.343 0.117,-0.353C0.113,-0.362 0.107,-0.369 0.097,-0.374C0.088,-0.378 0.074,-0.381 0.057,-0.383L0.031,-0.385L0.031,-0.415C0.051,-0.413 0.07,-0.413 0.088,-0.413C0.134,-0.413 0.171,-0.417 0.201,-0.424L0.201,-0.206L0.123,-0.206L0.123,-0.314ZM0.162,-0.002C0.138,-0.002 0.108,-0.002 0.071,-0.001L0.031,-0L0.031,-0.029L0.06,-0.031C0.076,-0.033 0.088,-0.036 0.098,-0.04C0.107,-0.045 0.113,-0.051 0.117,-0.06C0.121,-0.069 0.123,-0.081 0.123,-0.098L0.123,-0.206L0.201,-0.206L0.201,-0.098C0.201,-0.081 0.203,-0.069 0.207,-0.06C0.211,-0.051 0.217,-0.045 0.226,-0.04C0.235,-0.036 0.248,-0.033 0.265,-0.031L0.293,-0.029L0.293,-0L0.253,-0.001C0.217,-0.002 0.186,-0.002 0.162,-0.002ZM0.162,-0.51C0.147,-0.51 0.133,-0.516 0.123,-0.526C0.112,-0.537 0.106,-0.55 0.106,-0.565C0.106,-0.58 0.112,-0.593 0.123,-0.604C0.133,-0.614 0.147,-0.619 0.162,-0.619C0.178,-0.619 0.191,-0.614 0.202,-0.604C0.212,-0.593 0.218,-0.58 0.218,-0.565C0.218,-0.55 0.212,-0.537 0.202,-0.526C0.191,-0.516 0.178,-0.51 0.162,-0.51Z" style="fill:white;fill-rule:nonzero;"/>
                </g>
                <g transform="matrix(70.8333,0,0,70.8333,1484.22,225.9)">
                    <path d="M0.328,-0.313C0.328,-0.341 0.32,-0.361 0.304,-0.375C0.288,-0.389 0.263,-0.396 0.231,-0.396C0.21,-0.396 0.191,-0.393 0.177,-0.387C0.162,-0.381 0.155,-0.374 0.155,-0.365C0.155,-0.362 0.156,-0.358 0.158,-0.354C0.16,-0.35 0.162,-0.346 0.165,-0.342C0.169,-0.336 0.172,-0.33 0.174,-0.324C0.177,-0.319 0.178,-0.313 0.178,-0.307C0.178,-0.297 0.174,-0.288 0.165,-0.282C0.157,-0.275 0.146,-0.272 0.133,-0.272C0.118,-0.272 0.106,-0.277 0.096,-0.286C0.087,-0.296 0.082,-0.308 0.082,-0.324C0.082,-0.343 0.09,-0.361 0.105,-0.377C0.119,-0.392 0.14,-0.405 0.166,-0.414C0.192,-0.422 0.221,-0.427 0.254,-0.427C0.29,-0.427 0.319,-0.421 0.341,-0.411C0.363,-0.4 0.38,-0.383 0.39,-0.36C0.401,-0.338 0.406,-0.309 0.406,-0.273L0.406,-0.207L0.328,-0.207L0.328,-0.313ZM0.188,0.011C0.151,0.011 0.121,0.002 0.099,-0.017C0.077,-0.036 0.066,-0.062 0.066,-0.094C0.066,-0.122 0.074,-0.144 0.089,-0.16C0.105,-0.177 0.123,-0.19 0.145,-0.198C0.166,-0.207 0.194,-0.215 0.227,-0.223C0.251,-0.229 0.27,-0.234 0.283,-0.239C0.296,-0.243 0.307,-0.249 0.316,-0.257C0.325,-0.264 0.329,-0.273 0.329,-0.284L0.333,-0.246C0.328,-0.236 0.32,-0.228 0.308,-0.222C0.296,-0.216 0.279,-0.209 0.256,-0.201C0.233,-0.193 0.215,-0.186 0.201,-0.179C0.186,-0.172 0.175,-0.163 0.165,-0.15C0.155,-0.138 0.15,-0.122 0.15,-0.103C0.15,-0.082 0.156,-0.066 0.169,-0.054C0.181,-0.042 0.199,-0.036 0.222,-0.036C0.244,-0.036 0.265,-0.042 0.284,-0.053C0.304,-0.064 0.32,-0.08 0.335,-0.102L0.335,-0.07C0.317,-0.043 0.295,-0.022 0.271,-0.009C0.246,0.005 0.219,0.011 0.188,0.011ZM0.406,-0.065C0.406,-0.052 0.408,-0.042 0.413,-0.036C0.418,-0.03 0.425,-0.027 0.435,-0.027C0.442,-0.027 0.45,-0.029 0.458,-0.032C0.465,-0.035 0.474,-0.04 0.484,-0.046C0.486,-0.048 0.488,-0.049 0.491,-0.051L0.505,-0.027C0.49,-0.014 0.474,-0.004 0.459,0.002C0.444,0.008 0.426,0.011 0.407,0.011C0.38,0.011 0.361,0.005 0.348,-0.007C0.335,-0.019 0.328,-0.037 0.328,-0.062L0.328,-0.207L0.406,-0.207L0.406,-0.065Z" style="fill:white;fill-rule:nonzero;"/>
                </g>
                <g transform="matrix(70.8333,0,0,70.8333,1521.7,225.9)">
                    <path d="M0.123,-0.522C0.123,-0.539 0.121,-0.552 0.117,-0.561C0.113,-0.571 0.107,-0.578 0.097,-0.582C0.088,-0.587 0.075,-0.59 0.058,-0.592L0.031,-0.594L0.031,-0.623C0.05,-0.622 0.069,-0.622 0.088,-0.622C0.134,-0.622 0.171,-0.625 0.201,-0.633L0.201,-0.207L0.123,-0.207L0.123,-0.522ZM0.201,-0.043C0.184,-0.037 0.168,-0.029 0.153,-0.019C0.138,-0.01 0.125,0.001 0.115,0.013L0.094,-0.011C0.106,-0.022 0.113,-0.033 0.117,-0.044C0.121,-0.055 0.123,-0.071 0.123,-0.091L0.123,-0.207L0.201,-0.207L0.201,-0L0.201,-0.043ZM0.336,-0.425C0.371,-0.425 0.402,-0.416 0.428,-0.398C0.455,-0.381 0.475,-0.356 0.49,-0.323C0.504,-0.291 0.511,-0.253 0.511,-0.21C0.511,-0.165 0.503,-0.125 0.487,-0.092C0.471,-0.058 0.449,-0.032 0.419,-0.014C0.39,0.004 0.356,0.013 0.317,0.013C0.296,0.013 0.278,0.011 0.26,0.005C0.243,-0.001 0.228,-0.009 0.216,-0.019C0.203,-0.03 0.194,-0.041 0.188,-0.053L0.195,-0.08C0.203,-0.063 0.217,-0.049 0.236,-0.038C0.254,-0.027 0.276,-0.022 0.3,-0.022C0.34,-0.022 0.372,-0.038 0.394,-0.07C0.416,-0.101 0.427,-0.147 0.427,-0.206C0.427,-0.243 0.423,-0.276 0.413,-0.303C0.404,-0.329 0.391,-0.35 0.373,-0.364C0.355,-0.378 0.333,-0.385 0.308,-0.385C0.282,-0.385 0.258,-0.377 0.237,-0.362C0.216,-0.347 0.201,-0.327 0.192,-0.301L0.186,-0.323C0.196,-0.354 0.214,-0.379 0.241,-0.397C0.268,-0.416 0.3,-0.425 0.336,-0.425Z" style="fill:white;fill-rule:nonzero;"/>
                </g>
                <g transform="matrix(70.8333,0,0,70.8333,1562.14,225.9)">
                    <path d="M0.162,-0.002C0.138,-0.002 0.107,-0.002 0.071,-0.001L0.031,-0L0.031,-0.029L0.06,-0.032C0.076,-0.033 0.089,-0.036 0.098,-0.04C0.107,-0.044 0.113,-0.051 0.117,-0.06C0.121,-0.069 0.123,-0.082 0.123,-0.097L0.123,-0.207L0.201,-0.207L0.201,-0.097C0.201,-0.082 0.203,-0.069 0.207,-0.06C0.211,-0.051 0.217,-0.044 0.226,-0.04C0.235,-0.036 0.248,-0.033 0.264,-0.032L0.293,-0.029L0.293,-0L0.253,-0.001C0.217,-0.002 0.186,-0.002 0.162,-0.002ZM0.123,-0.522C0.123,-0.539 0.121,-0.552 0.117,-0.561C0.113,-0.571 0.107,-0.578 0.097,-0.582C0.088,-0.587 0.075,-0.59 0.058,-0.592L0.031,-0.594L0.031,-0.623C0.05,-0.622 0.069,-0.622 0.088,-0.622C0.134,-0.622 0.171,-0.625 0.201,-0.633L0.201,-0.207L0.123,-0.207L0.123,-0.522Z" style="fill:white;fill-rule:nonzero;"/>
                </g>
                <g transform="matrix(70.8333,0,0,70.8333,1585.1,225.9)">
                    <path d="M0.257,0.011C0.218,0.011 0.183,0.003 0.153,-0.015C0.124,-0.033 0.101,-0.058 0.084,-0.09C0.068,-0.123 0.06,-0.161 0.06,-0.206C0.06,-0.25 0.068,-0.289 0.085,-0.323C0.101,-0.356 0.124,-0.382 0.155,-0.4C0.185,-0.418 0.221,-0.427 0.262,-0.427C0.319,-0.427 0.362,-0.411 0.393,-0.378C0.423,-0.345 0.438,-0.296 0.436,-0.231L0.111,-0.231L0.111,-0.26L0.355,-0.26C0.356,-0.302 0.348,-0.335 0.332,-0.36C0.315,-0.385 0.291,-0.398 0.259,-0.398C0.228,-0.398 0.202,-0.386 0.181,-0.361C0.16,-0.336 0.147,-0.3 0.144,-0.253L0.145,-0.251C0.144,-0.239 0.144,-0.227 0.144,-0.213C0.144,-0.155 0.155,-0.11 0.179,-0.079C0.202,-0.047 0.236,-0.031 0.28,-0.031C0.308,-0.031 0.333,-0.038 0.355,-0.052C0.377,-0.065 0.395,-0.086 0.41,-0.114L0.436,-0.097C0.421,-0.062 0.398,-0.036 0.366,-0.017C0.335,0.002 0.299,0.011 0.257,0.011Z" style="fill:white;fill-rule:nonzero;"/>
                </g>
                <g transform="matrix(70.8333,0,0,70.8333,1620.41,225.9)">
                </g>
                <g transform="matrix(70.8333,0,0,70.8333,1635.77,225.9)">
                    <path d="M0.162,-0.002C0.138,-0.002 0.107,-0.002 0.071,-0.001L0.031,-0L0.031,-0.029L0.06,-0.032C0.076,-0.033 0.089,-0.036 0.098,-0.04C0.107,-0.044 0.113,-0.051 0.117,-0.06C0.121,-0.069 0.123,-0.082 0.123,-0.097L0.123,-0.207L0.201,-0.207L0.201,-0.097C0.201,-0.082 0.203,-0.069 0.207,-0.06C0.212,-0.052 0.219,-0.045 0.229,-0.041C0.239,-0.036 0.253,-0.033 0.271,-0.032L0.306,-0.029L0.306,-0L0.262,-0.001C0.222,-0.002 0.189,-0.002 0.162,-0.002ZM0.123,-0.432C0.123,-0.474 0.13,-0.51 0.144,-0.54C0.158,-0.57 0.178,-0.592 0.204,-0.608C0.23,-0.623 0.262,-0.631 0.299,-0.631C0.336,-0.631 0.366,-0.623 0.388,-0.608C0.41,-0.592 0.421,-0.572 0.421,-0.546C0.421,-0.529 0.416,-0.516 0.406,-0.506C0.396,-0.496 0.382,-0.491 0.366,-0.491C0.353,-0.491 0.343,-0.494 0.336,-0.5C0.328,-0.507 0.324,-0.515 0.324,-0.526C0.324,-0.532 0.325,-0.537 0.328,-0.542C0.33,-0.548 0.333,-0.553 0.337,-0.56C0.339,-0.563 0.341,-0.567 0.343,-0.571C0.345,-0.574 0.345,-0.578 0.345,-0.581C0.345,-0.588 0.342,-0.594 0.336,-0.597C0.33,-0.601 0.32,-0.603 0.307,-0.603C0.271,-0.603 0.244,-0.591 0.227,-0.567C0.21,-0.542 0.201,-0.504 0.201,-0.453L0.201,-0.207L0.123,-0.207L0.123,-0.432ZM0.027,-0.413L0.32,-0.413L0.32,-0.384L0.027,-0.384L0.027,-0.413Z" style="fill:white;fill-rule:nonzero;"/>
                </g>
                <g transform="matrix(70.8333,0,0,70.8333,1661.25,225.9)">
                    <path d="M0.262,0.011C0.223,0.011 0.188,0.003 0.158,-0.012C0.127,-0.028 0.103,-0.052 0.086,-0.085C0.069,-0.118 0.06,-0.159 0.06,-0.207C0.06,-0.256 0.069,-0.297 0.086,-0.33C0.103,-0.362 0.127,-0.387 0.158,-0.403C0.188,-0.419 0.223,-0.427 0.262,-0.427C0.302,-0.427 0.337,-0.419 0.367,-0.403C0.398,-0.387 0.421,-0.362 0.439,-0.33C0.456,-0.297 0.465,-0.256 0.465,-0.207C0.465,-0.159 0.456,-0.118 0.439,-0.085C0.421,-0.053 0.397,-0.028 0.367,-0.013C0.337,0.003 0.302,0.011 0.262,0.011ZM0.262,-0.018C0.286,-0.018 0.307,-0.025 0.324,-0.038C0.342,-0.052 0.356,-0.073 0.366,-0.101C0.376,-0.13 0.381,-0.165 0.381,-0.207C0.381,-0.25 0.376,-0.285 0.366,-0.314C0.356,-0.342 0.342,-0.363 0.324,-0.377C0.307,-0.391 0.286,-0.398 0.262,-0.398C0.239,-0.398 0.218,-0.391 0.201,-0.377C0.183,-0.363 0.169,-0.342 0.159,-0.314C0.149,-0.285 0.144,-0.25 0.144,-0.207C0.144,-0.165 0.149,-0.129 0.159,-0.101C0.169,-0.073 0.183,-0.052 0.201,-0.038C0.218,-0.025 0.239,-0.018 0.262,-0.018Z" style="fill:white;fill-rule:nonzero;"/>
                </g>
                <g transform="matrix(70.8333,0,0,70.8333,1698.43,225.9)">
                    <path d="M0.162,-0.002C0.138,-0.002 0.107,-0.002 0.071,-0.001L0.031,-0L0.031,-0.029L0.06,-0.032C0.076,-0.033 0.089,-0.036 0.098,-0.04C0.107,-0.044 0.113,-0.051 0.117,-0.06C0.121,-0.069 0.123,-0.082 0.123,-0.097L0.123,-0.207L0.201,-0.207L0.201,-0.097C0.201,-0.081 0.203,-0.069 0.206,-0.059C0.21,-0.05 0.216,-0.043 0.224,-0.039C0.232,-0.034 0.243,-0.031 0.258,-0.03L0.27,-0.029L0.27,-0L0.236,-0.001C0.206,-0.002 0.181,-0.002 0.162,-0.002ZM0.123,-0.314C0.123,-0.331 0.121,-0.343 0.117,-0.353C0.113,-0.362 0.107,-0.369 0.097,-0.374C0.088,-0.378 0.075,-0.382 0.058,-0.383L0.031,-0.386L0.031,-0.415C0.05,-0.414 0.069,-0.413 0.088,-0.413C0.134,-0.413 0.171,-0.417 0.201,-0.424L0.201,-0.207L0.123,-0.207L0.123,-0.314ZM0.404,-0.277C0.404,-0.313 0.397,-0.341 0.382,-0.359C0.368,-0.377 0.346,-0.386 0.317,-0.386C0.287,-0.386 0.26,-0.377 0.237,-0.358C0.213,-0.34 0.193,-0.312 0.177,-0.274L0.173,-0.292C0.191,-0.337 0.215,-0.371 0.243,-0.393C0.271,-0.416 0.305,-0.427 0.344,-0.427C0.388,-0.427 0.422,-0.413 0.446,-0.386C0.47,-0.359 0.482,-0.32 0.482,-0.268L0.482,-0.207L0.404,-0.207L0.404,-0.277ZM0.443,-0.002C0.424,-0.002 0.4,-0.002 0.371,-0.001L0.338,-0L0.338,-0.029L0.348,-0.03C0.362,-0.031 0.373,-0.034 0.381,-0.039C0.389,-0.043 0.395,-0.05 0.399,-0.059C0.402,-0.069 0.404,-0.081 0.404,-0.097L0.404,-0.207L0.482,-0.207L0.482,-0.097C0.482,-0.082 0.484,-0.069 0.488,-0.06C0.492,-0.051 0.498,-0.044 0.507,-0.04C0.516,-0.036 0.529,-0.033 0.545,-0.032L0.574,-0.029L0.574,-0L0.534,-0.001C0.497,-0.002 0.467,-0.002 0.443,-0.002Z" style="fill:white;fill-rule:nonzero;"/>
                </g>
                <g transform="matrix(70.8333,0,0,70.8333,1741.28,225.9)">
                    <path d="M0.239,0.011C0.197,0.011 0.166,-0.001 0.145,-0.025C0.124,-0.049 0.114,-0.085 0.114,-0.134L0.114,-0.207L0.192,-0.207L0.192,-0.11C0.192,-0.083 0.197,-0.062 0.208,-0.05C0.219,-0.037 0.235,-0.03 0.258,-0.03C0.279,-0.03 0.296,-0.036 0.309,-0.049C0.323,-0.061 0.333,-0.08 0.341,-0.106L0.364,-0.099C0.355,-0.061 0.341,-0.033 0.32,-0.016C0.3,0.002 0.273,0.011 0.239,0.011ZM0.114,-0.538C0.144,-0.539 0.17,-0.542 0.192,-0.549L0.192,-0.207L0.114,-0.207L0.114,-0.538ZM0.013,-0.413L0.339,-0.413L0.339,-0.384L0.013,-0.384L0.013,-0.413Z" style="fill:white;fill-rule:nonzero;"/>
                </g>
                <g transform="matrix(70.8333,0,0,70.8333,1768.58,225.9)">
                </g>
            </g>
        </g>
    </g>
</svg>
