<?xml version="1.0" encoding="UTF-8" standalone="no"?>
<!DOCTYPE svg PUBLIC "-//W3C//DTD SVG 1.1//EN" "http://www.w3.org/Graphics/SVG/1.1/DTD/svg11.dtd">
<svg width="100%" height="100%" viewBox="0 0 1196 243" version="1.1" xmlns="http://www.w3.org/2000/svg" xmlns:xlink="http://www.w3.org/1999/xlink" xml:space="preserve" xmlns:serif="http://www.serif.com/" style="fill-rule:evenodd;clip-rule:evenodd;stroke-linejoin:round;stroke-miterlimit:2;">
    <g id="Layer1">
        <path d="M2.067,166.713L2.067,169.715C11.072,169.5 22.866,169.071 38.09,169.071C55.888,169.071 71.327,169.5 79.475,169.715L79.475,166.713C56.96,165.855 53.744,163.496 53.744,147.629L53.744,106.887C57.818,107.531 62.321,107.745 67.252,107.745C108.422,107.745 132.653,90.377 132.653,61.214C132.653,33.124 111.639,17.9 71.97,17.9C65.323,17.9 53.1,18.115 34.874,18.115C15.575,18.115 6.998,18.115 2.067,17.9L2.067,20.902C18.577,21.76 21.151,24.333 21.151,39.343L21.151,148.272C21.151,163.496 18.792,165.855 2.067,166.713ZM53.744,104.1L53.744,21.117L68.11,20.902C89.124,20.902 98.559,33.553 98.559,62.072C98.559,91.663 88.052,104.743 64.465,104.743C60.605,104.743 57.174,104.529 53.744,104.1Z" style="fill:rgb(92,54,157);fill-rule:nonzero;"/>
        <path d="M135.183,166.713L135.183,169.715C141.402,169.5 155.339,168.857 167.347,168.857C179.355,168.857 192.435,169.5 198.439,169.715L198.439,166.713C186.217,166.284 181.714,163.282 181.714,151.274L181.714,1.818C172.708,3.962 162.201,4.82 150.408,4.82C145.69,4.82 140.33,4.606 135.183,4.177L135.183,7.179C148.049,7.822 151.909,13.397 151.909,26.048L151.909,151.274C151.909,163.067 147.62,166.284 135.183,166.713Z" style="fill:rgb(92,54,157);fill-rule:nonzero;"/>
        <path d="M293.817,172.717C304.538,172.717 312.472,169.715 319.119,164.14L317.833,161.781C314.187,164.354 310.542,166.498 306.897,166.498C302.823,166.498 301.107,163.925 301.107,157.278L301.107,99.811C301.107,68.505 289.099,55.854 259.08,55.854C231.418,55.854 211.906,67.218 211.906,83.3C211.906,92.306 217.91,98.096 227.344,98.096C235.921,98.096 241.711,93.593 241.711,87.16C241.711,79.226 233.348,73.222 233.348,67.862C233.348,62.93 240.853,59.499 250.717,59.499C264.869,59.499 271.302,67.004 271.302,84.158L271.302,98.31C265.727,116.966 206.759,109.675 206.759,146.342C206.759,162.639 218.553,172.717 237.422,172.717C251.575,172.717 263.154,166.927 271.302,155.348C271.945,167.142 279.236,172.717 293.817,172.717ZM237.851,142.268C237.851,117.18 265.941,115.25 271.302,102.599L271.302,152.132C266.585,157.921 261.009,160.923 254.148,160.923C243.855,160.923 237.851,154.061 237.851,142.268Z" style="fill:rgb(92,54,157);fill-rule:nonzero;"/>
        <path d="M326.796,74.509L373.541,179.364L365.607,200.592C360.89,212.815 353.814,218.604 345.022,218.604C342.235,218.604 340.734,217.532 340.734,215.173C340.734,210.241 345.88,204.881 345.88,198.019C345.88,192.015 341.377,188.37 334.301,188.37C324.652,188.37 318.004,194.588 318.004,204.237C318.004,215.173 327.01,222.249 341.163,222.249C355.529,222.249 363.249,214.959 368.609,200.592L376.114,181.079L376.329,181.079L409.565,91.878C416.427,73.437 422.645,65.717 432.509,61.858L432.509,58.856C428.006,59.285 420.072,59.499 413.853,59.499C406.348,59.499 398.629,59.285 390.266,58.856L390.266,61.858C406.348,64.216 411.28,79.012 402.489,102.385L387.908,140.553L360.89,79.87C355.315,67.433 358.746,62.715 371.611,61.858L371.611,58.856C360.461,59.499 351.67,59.713 340.519,59.713C329.798,59.713 320.578,59.499 310.499,58.856L310.499,61.858C317.79,62.287 322.936,66.146 326.796,74.509Z" style="fill:rgb(92,54,157);fill-rule:nonzero;"/>
        <path d="M432.252,166.713L432.252,169.715C438.256,169.5 450.263,168.857 464.201,168.857C478.139,168.857 494.65,169.5 502.584,169.715L502.584,166.713C485.43,166.284 478.782,161.566 478.782,149.344L478.782,61.858L504.728,61.858L504.728,58.856L478.782,58.856L478.782,42.988C478.782,17.042 486.073,5.249 502.155,5.249C508.373,5.249 511.804,7.179 511.804,10.61C511.804,15.756 504.728,22.189 504.728,29.908C504.728,36.341 509.66,40.415 517.165,40.415C526.6,40.415 532.818,34.197 532.818,24.976C532.818,10.824 518.88,2.033 497.223,2.033C466.345,2.033 449.191,20.688 449.191,54.996L449.191,58.856L431.394,58.856L431.394,61.858L449.191,61.858L449.191,150.416C449.191,162.424 445.117,166.284 432.252,166.713Z" style="fill:rgb(92,54,157);fill-rule:nonzero;"/>
        <path d="M599.248,172.717C609.969,172.717 617.903,169.715 624.55,164.14L623.264,161.781C619.618,164.354 615.973,166.498 612.328,166.498C608.254,166.498 606.538,163.925 606.538,157.278L606.538,99.811C606.538,68.505 594.53,55.854 564.51,55.854C536.849,55.854 517.336,67.218 517.336,83.3C517.336,92.306 523.34,98.096 532.775,98.096C541.352,98.096 547.142,93.593 547.142,87.16C547.142,79.226 538.779,73.222 538.779,67.862C538.779,62.93 546.284,59.499 556.148,59.499C570.3,59.499 576.733,67.004 576.733,84.158L576.733,98.31C571.158,116.966 512.19,109.675 512.19,146.342C512.19,162.639 523.984,172.717 542.853,172.717C557.006,172.717 568.585,166.927 576.733,155.348C577.376,167.142 584.667,172.717 599.248,172.717ZM543.282,142.268C543.282,117.18 571.372,115.25 576.733,102.599L576.733,152.132C572.015,157.921 566.44,160.923 559.579,160.923C549.286,160.923 543.282,154.061 543.282,142.268Z" style="fill:rgb(92,54,157);fill-rule:nonzero;"/>
        <path d="M624.936,166.713L624.936,169.715C630.94,169.5 644.878,168.857 656.886,168.857C668.894,168.857 682.188,169.5 687.978,169.715L687.978,166.713C675.97,166.284 671.253,163.282 671.253,151.274L671.253,56.497C662.461,58.641 651.954,59.499 640.161,59.499C635.014,59.499 629.868,59.285 624.936,58.856L624.936,61.858C637.802,62.715 641.662,68.076 641.662,80.727L641.662,151.274C641.662,163.067 637.373,166.284 624.936,166.713ZM655.814,36.126C664.605,36.126 672.968,29.908 672.968,20.044C672.968,9.966 664.605,3.962 655.814,3.962C647.022,3.962 638.66,9.966 638.66,20.044C638.66,29.908 647.022,36.126 655.814,36.126Z" style="fill:rgb(92,54,157);fill-rule:nonzero;"/>
        <path d="M690.723,166.713L690.723,169.715C696.512,169.5 709.378,168.857 722.887,168.857C736.61,168.857 752.907,169.5 760.626,169.715L760.626,166.713C743.043,166.284 737.039,161.781 737.039,149.344L737.039,77.297C742.185,68.719 751.406,63.359 759.554,63.359C763.628,63.359 765.987,65.074 765.987,68.291C765.987,73.866 760.84,78.154 760.84,84.801C760.84,91.449 765.558,95.737 772.848,95.737C782.712,95.737 789.359,88.018 789.359,76.439C789.359,63.573 781.426,55.854 768.56,55.854C756.338,55.854 743.901,62.93 737.039,74.08L737.039,56.497C728.891,58.427 718.384,59.499 707.448,59.499C701.659,59.499 697.799,59.285 690.723,58.856L690.723,61.858C702.945,62.715 707.448,67.433 707.448,80.727L707.448,151.274C707.448,162.639 703.588,166.284 690.723,166.713Z" style="fill:rgb(92,54,157);fill-rule:nonzero;"/>
        <path d="M980.635,170.787C982.653,160.696 984.96,152.047 995.05,115.144L991.014,115.144C986.689,124.947 982.653,126.965 968.238,126.965L891.261,126.965L891.261,126.1C957.859,101.306 994.185,82.854 994.185,55.177C994.185,31.248 964.778,15.68 918.938,15.68C866.467,15.68 823.51,41.627 823.51,73.052C823.51,90.927 838.213,102.171 861.277,102.171C879.441,102.171 895.586,94.963 906.541,82.278L905.676,78.53C900.198,84.008 892.703,86.891 884.053,86.891C867.332,86.891 858.683,79.106 858.683,64.115C858.683,39.609 878.287,22.022 904.811,22.022C925.569,22.022 939.408,36.726 939.408,57.484C939.408,93.81 896.45,122.352 810.536,165.309L809.671,169.345L952.958,169.345C967.661,169.345 978.04,169.922 980.635,170.787Z" style="fill:rgb(15,166,217);fill-rule:nonzero;"/>
        <path d="M1043.14,116.586C1061.3,116.586 1075.43,105.342 1075.43,90.639C1075.43,76.8 1062.74,66.998 1045.73,66.998C1027,66.998 1013.44,78.53 1013.44,92.945C1013.44,107.072 1025.55,116.586 1043.14,116.586Z" style="fill:rgb(15,166,217);fill-rule:nonzero;"/>
        <path d="M1131.59,45.375L1097,169.345L1150.91,169.345L1193.29,17.121L1188.67,17.121C1165.61,28.942 1139.09,41.915 1083.73,52.583L1082.58,56.619C1102.47,53.159 1114.29,50.276 1131.59,45.375Z" style="fill:rgb(15,166,217);fill-rule:nonzero;"/>
        <path d="M404.145,217.794L403.747,219.235C405.156,219.173 406.352,219.143 407.639,219.143C409.324,219.143 411.163,219.173 412.879,219.235L413.308,217.794C409.814,217.672 409.447,216.538 411.745,213.228L412.94,211.481L421.153,211.481L421.643,215.22C421.919,217.243 421.214,217.733 417.905,217.794L417.506,219.235C418.548,219.173 420.387,219.143 422.869,219.143C425.045,219.143 426.761,219.173 427.742,219.235L428.14,217.794C425.811,217.733 424.984,217.059 424.708,215.098L422.379,197.385L421.031,197.385L409.447,214.209C407.7,216.783 406.382,217.702 404.145,217.794ZM413.921,210.041L419.835,201.43L420.969,210.041L413.921,210.041Z" style="fill-rule:nonzero;"/>
        <path d="M445.148,219.664C447.232,219.664 448.642,218.254 449.868,215.894L450.572,214.577L449.102,214.577L448.519,215.68C447.845,216.967 447.079,217.672 446.16,217.672C444.995,217.672 444.689,216.569 445.179,214.822L446.803,209.03C447.845,205.414 446.497,203.054 443.524,203.054C441.593,203.054 439.939,204.065 438.621,206.057C438.56,204.249 437.579,203.054 435.556,203.054C433.503,203.054 432.063,204.433 430.806,206.823L430.132,208.141L431.603,208.141L432.185,207.007C432.86,205.72 433.626,205.046 434.545,205.046C435.71,205.046 435.985,206.149 435.526,207.865L432.308,219.235L435.219,219.235L438.284,208.294C438.376,207.957 438.468,207.62 438.498,207.314C439.51,205.843 440.766,205.077 442.114,205.077C443.984,205.077 444.627,206.517 443.892,209.183L442.421,214.423C441.563,217.427 442.36,219.664 445.148,219.664Z" style="fill-rule:nonzero;"/>
        <path d="M470.553,219.664C477.081,219.664 482.658,213.473 482.658,206.149C482.658,200.633 479.471,197.109 474.506,197.109C467.918,197.109 462.34,203.299 462.34,210.593C462.34,216.109 465.558,219.664 470.553,219.664ZM470.676,218.254C467.427,218.254 465.65,215.557 465.65,211.052C465.65,204.28 469.726,198.519 474.353,198.519C477.571,198.519 479.348,201.246 479.348,205.781C479.348,212.585 475.303,218.254 470.676,218.254Z" style="fill-rule:nonzero;"/>
        <path d="M481.984,224.843L481.585,226.314C482.597,226.283 484.619,226.191 486.703,226.191C488.756,226.191 491.055,226.283 492.158,226.314L492.587,224.843C489.308,224.751 488.297,224.107 488.787,222.391L490.135,217.58C490.779,218.867 492.097,219.664 493.721,219.664C497.827,219.664 501.75,214.393 501.75,208.907C501.75,205.291 500.064,203.054 497.337,203.054C495.56,203.054 494.058,204.035 493.016,205.873C492.924,204.065 491.852,203.054 489.982,203.054C487.929,203.054 486.489,204.433 485.232,206.823L484.558,208.141L486.029,208.141L486.611,207.007C487.285,205.69 488.082,205.046 488.971,205.046C490.074,205.046 490.442,206.027 489.952,207.865L485.876,222.422C485.355,224.199 484.405,224.751 481.984,224.843ZM490.534,216.139L492.71,208.294C492.802,207.927 492.893,207.559 492.955,207.222C493.782,205.873 494.885,205.138 496.081,205.138C497.858,205.138 498.808,206.578 498.808,209.244C498.808,213.719 496.203,217.733 493.261,217.733C492.127,217.733 491.147,217.151 490.534,216.139Z" style="fill-rule:nonzero;"/>
        <path d="M510.668,219.664C513.395,219.664 515.632,218.039 517.042,215.006L515.632,215.006C514.59,216.875 513.272,217.825 511.71,217.825C509.748,217.825 508.645,216.323 508.614,213.657C514.56,212.278 518.237,209.367 518.237,206.027C518.237,204.096 516.981,203.054 514.743,203.054C509.932,203.054 505.642,208.141 505.642,213.872C505.642,217.549 507.481,219.664 510.668,219.664ZM508.676,212.431C509.105,208.478 511.71,204.433 514.1,204.433C515.019,204.433 515.51,205.046 515.51,206.21C515.51,208.846 512.997,211.083 508.676,212.431Z" style="fill-rule:nonzero;"/>
        <path d="M535.919,219.664C538.003,219.664 539.413,218.254 540.639,215.894L541.343,214.577L539.872,214.577L539.29,215.68C538.616,216.967 537.85,217.672 536.931,217.672C535.766,217.672 535.46,216.569 535.95,214.822L537.574,209.03C538.616,205.414 537.268,203.054 534.295,203.054C532.364,203.054 530.71,204.065 529.392,206.057C529.331,204.249 528.35,203.054 526.327,203.054C524.274,203.054 522.834,204.433 521.577,206.823L520.903,208.141L522.374,208.141L522.956,207.007C523.631,205.72 524.397,205.046 525.316,205.046C526.481,205.046 526.756,206.149 526.297,207.865L523.079,219.235L525.99,219.235L529.055,208.294C529.147,207.957 529.239,207.62 529.269,207.314C530.281,205.843 531.537,205.077 532.885,205.077C534.755,205.077 535.398,206.517 534.663,209.183L533.192,214.423C532.334,217.427 533.131,219.664 535.919,219.664Z" style="fill-rule:nonzero;"/>
        <path d="M559.577,219.664C563.684,219.664 566.595,217.151 566.595,213.749C566.595,208.264 558.505,206.456 558.505,201.89C558.505,199.867 559.976,198.549 562.182,198.549C564.971,198.549 566.534,200.51 566.289,203.698L567.821,203.698C568.25,201.185 568.863,199.07 569.568,197.538L568.035,197.538C567.668,198.396 567.331,198.733 566.902,198.733C565.982,198.733 564.971,197.109 561.937,197.109C558.26,197.109 555.593,199.591 555.593,202.962C555.593,208.57 563.439,210.041 563.439,214.73C563.439,216.906 561.906,218.223 559.393,218.223C555.961,218.223 554.123,215.925 554.368,211.972L552.866,211.972C552.161,215.22 551.579,217.304 550.843,219.235L552.345,219.235C552.805,218.346 553.173,218.009 553.632,218.009C554.582,218.009 556.237,219.664 559.577,219.664Z" style="fill-rule:nonzero;"/>
        <path d="M576.831,219.664C581.519,219.664 585.656,214.669 585.656,209.03C585.656,205.291 583.787,203.054 580.6,203.054C575.911,203.054 571.805,208.019 571.805,213.688C571.805,217.457 573.674,219.664 576.831,219.664ZM577.076,218.223C575.574,218.223 574.716,216.844 574.716,214.178C574.716,209.306 577.505,204.494 580.385,204.494C581.918,204.494 582.745,205.873 582.745,208.54C582.745,213.381 579.956,218.223 577.076,218.223Z" style="fill-rule:nonzero;"/>
        <path d="M595.279,219.664C597.179,219.664 598.803,218.683 600.09,216.66C600.152,218.499 601.132,219.664 603.155,219.664C605.239,219.664 606.648,218.254 607.874,215.894L608.579,214.577L607.108,214.577L606.526,215.68C605.852,216.998 605.055,217.672 604.166,217.672C603.002,217.672 602.695,216.599 603.185,214.822L606.372,203.483L603.492,203.483L600.427,214.423C600.335,214.76 600.243,215.098 600.213,215.435C599.202,216.906 598.037,217.641 596.689,217.641C594.819,217.641 594.176,216.17 594.942,213.535L596.413,208.294C597.24,205.291 596.413,203.054 593.685,203.054C591.602,203.054 590.192,204.464 588.935,206.823L588.231,208.141L589.702,208.141L590.284,207.038C590.958,205.751 591.724,205.046 592.674,205.046C593.777,205.046 594.145,206.088 593.624,207.896L592,213.688C590.989,217.304 592.306,219.664 595.279,219.664Z" style="fill-rule:nonzero;"/>
        <path d="M615.198,207.865L611.981,219.235L614.892,219.235L617.956,208.294C618.048,207.957 618.14,207.62 618.171,207.314C619.121,205.904 620.469,204.985 621.603,204.985C622.124,204.985 622.4,205.169 622.4,205.506C622.4,206.18 621.45,207.069 621.45,208.049C621.45,208.723 621.879,209.183 622.614,209.183C623.963,209.183 625.25,207.283 625.25,205.383C625.25,203.881 624.392,203.054 622.829,203.054C621.052,203.054 619.458,204.096 618.263,205.965C618.202,204.188 617.221,203.054 615.229,203.054C613.176,203.054 611.735,204.433 610.479,206.823L609.805,208.141L611.276,208.141L611.858,207.007C612.532,205.72 613.298,205.046 614.218,205.046C615.352,205.046 615.689,206.119 615.198,207.865Z" style="fill-rule:nonzero;"/>
        <path d="M633.248,219.664C635.884,219.664 638.029,218.039 639.408,215.006L637.998,215.006C636.956,216.936 635.761,217.825 634.229,217.825C632.329,217.825 631.348,216.293 631.348,213.412C631.348,208.877 634.443,204.464 637.631,204.464C638.366,204.464 638.703,204.678 638.703,205.169C638.703,206.272 636.803,207.038 636.803,208.386C636.803,209.122 637.324,209.551 638.152,209.551C639.684,209.551 641.063,207.865 641.063,206.027C641.063,204.157 639.653,203.054 637.385,203.054C632.635,203.054 628.406,208.141 628.406,213.81C628.406,217.488 630.184,219.664 633.248,219.664Z" style="fill-rule:nonzero;"/>
        <path d="M649.613,219.664C652.34,219.664 654.577,218.039 655.987,215.006L654.577,215.006C653.535,216.875 652.218,217.825 650.655,217.825C648.693,217.825 647.59,216.323 647.56,213.657C653.505,212.278 657.182,209.367 657.182,206.027C657.182,204.096 655.926,203.054 653.689,203.054C648.877,203.054 644.587,208.141 644.587,213.872C644.587,217.549 646.426,219.664 649.613,219.664ZM647.621,212.431C648.05,208.478 650.655,204.433 653.045,204.433C653.964,204.433 654.455,205.046 654.455,206.21C654.455,208.846 651.942,211.083 647.621,212.431Z" style="fill-rule:nonzero;"/>
        <path d="M672.811,219.664C674.895,219.664 676.305,218.254 677.561,215.894L678.235,214.577L676.795,214.577L676.182,215.68C675.508,216.998 674.711,217.672 673.823,217.672C672.627,217.672 672.382,216.538 672.842,214.822L678.45,194.872C676.55,195.669 674.252,196.098 671.31,196.128L670.911,197.599C674.098,197.599 674.589,198.304 674.006,200.449L670.084,214.423C669.226,217.457 670.053,219.664 672.811,219.664Z" style="fill-rule:nonzero;"/>
        <path d="M685.468,219.664C687.398,219.664 688.777,218.591 690.187,215.894L690.892,214.577L689.421,214.577L688.839,215.68C688.164,216.998 687.368,217.672 686.479,217.672C685.284,217.672 684.855,216.477 685.529,214.822L687.95,208.294C689.145,205.322 687.919,203.054 685.253,203.054C683.323,203.054 681.882,204.157 680.503,206.823L679.798,208.141L681.269,208.141L681.852,207.007C682.526,205.72 683.323,205.046 684.211,205.046C685.437,205.046 685.835,206.241 685.192,207.896L682.74,214.393C681.576,217.365 682.771,219.664 685.468,219.664ZM687.735,199.898C689.022,199.898 690.095,198.856 690.095,197.66C690.095,196.496 689.206,195.638 688.042,195.638C686.785,195.638 685.713,196.649 685.713,197.875C685.713,199.009 686.602,199.898 687.735,199.898Z" style="fill-rule:nonzero;"/>
        <path d="M698.614,219.664C701.25,219.664 703.395,218.039 704.774,215.006L703.364,215.006C702.322,216.936 701.127,217.825 699.595,217.825C697.695,217.825 696.714,216.293 696.714,213.412C696.714,208.877 699.81,204.464 702.997,204.464C703.732,204.464 704.069,204.678 704.069,205.169C704.069,206.272 702.169,207.038 702.169,208.386C702.169,209.122 702.69,209.551 703.518,209.551C705.05,209.551 706.429,207.865 706.429,206.027C706.429,204.157 705.019,203.054 702.752,203.054C698.002,203.054 693.773,208.141 693.773,213.81C693.773,217.488 695.55,219.664 698.614,219.664Z" style="fill-rule:nonzero;"/>
        <path d="M714.979,219.664C717.706,219.664 719.943,218.039 721.353,215.006L719.943,215.006C718.902,216.875 717.584,217.825 716.021,217.825C714.06,217.825 712.956,216.323 712.926,213.657C718.871,212.278 722.548,209.367 722.548,206.027C722.548,204.096 721.292,203.054 719.055,203.054C714.243,203.054 709.953,208.141 709.953,213.872C709.953,217.549 711.792,219.664 714.979,219.664ZM712.987,212.431C713.416,208.478 716.021,204.433 718.411,204.433C719.331,204.433 719.821,205.046 719.821,206.21C719.821,208.846 717.308,211.083 712.987,212.431Z" style="fill-rule:nonzero;"/>
        <path d="M740.231,219.664C742.314,219.664 743.724,218.254 744.95,215.894L745.655,214.577L744.184,214.577L743.602,215.68C742.927,216.967 742.161,217.672 741.242,217.672C740.077,217.672 739.771,216.569 740.261,214.822L741.885,209.03C742.927,205.414 741.579,203.054 738.606,203.054C736.676,203.054 735.021,204.065 733.703,206.057C733.642,204.249 732.661,203.054 730.639,203.054C728.585,203.054 727.145,204.433 725.889,206.823L725.214,208.141L726.685,208.141L727.268,207.007C727.942,205.72 728.708,205.046 729.627,205.046C730.792,205.046 731.068,206.149 730.608,207.865L727.39,219.235L730.302,219.235L733.366,208.294C733.458,207.957 733.55,207.62 733.581,207.314C734.592,205.843 735.848,205.077 737.197,205.077C739.066,205.077 739.71,206.517 738.974,209.183L737.503,214.423C736.645,217.427 737.442,219.664 740.231,219.664Z" style="fill-rule:nonzero;"/>
        <path d="M752.764,219.664C756.564,219.664 759.292,217.672 759.292,214.852C759.292,210.317 752.55,210.133 752.55,206.67C752.55,205.322 753.653,204.464 755.584,204.464C757.147,204.464 757.974,204.923 758.035,205.812C758.066,206.088 757.974,206.609 758.005,207.007C758.066,207.865 758.618,208.386 759.476,208.386C760.426,208.386 761.039,207.681 761.039,206.609C761.039,204.586 758.679,203.054 755.553,203.054C752.121,203.054 749.731,204.862 749.731,207.498C749.731,211.972 756.472,212.033 756.472,215.619C756.472,217.243 755.063,218.254 752.734,218.254C751.018,218.254 750.098,217.794 750.037,216.783C750.006,216.446 750.098,215.894 750.068,215.465C750.037,214.423 749.516,213.841 748.566,213.841C747.493,213.841 746.819,214.607 746.819,215.802C746.819,218.039 749.302,219.664 752.764,219.664Z" style="fill-rule:nonzero;"/>
        <path d="M769.282,219.664C772.01,219.664 774.247,218.039 775.656,215.006L774.247,215.006C773.205,216.875 771.887,217.825 770.324,217.825C768.363,217.825 767.26,216.323 767.229,213.657C773.174,212.278 776.852,209.367 776.852,206.027C776.852,204.096 775.595,203.054 773.358,203.054C768.547,203.054 764.256,208.141 764.256,213.872C764.256,217.549 766.095,219.664 769.282,219.664ZM767.29,212.431C767.719,208.478 770.324,204.433 772.714,204.433C773.634,204.433 774.124,205.046 774.124,206.21C774.124,208.846 771.611,211.083 767.29,212.431Z" style="fill-rule:nonzero;"/>
        <path d="M792.634,219.664C794.718,219.664 796.127,218.254 797.384,215.894L798.058,214.577L796.618,214.577L796.005,215.68C795.331,216.998 794.534,217.672 793.645,217.672C792.481,217.672 792.205,216.538 792.664,214.822L798.272,194.872C796.495,195.669 794.35,196.098 791.561,196.128L791.132,197.599C793.982,197.599 794.411,198.304 793.829,200.449L792.787,204.219C791.714,203.452 790.55,203.054 789.324,203.054C784.942,203.054 780.866,208.233 780.866,213.841C780.866,217.427 782.582,219.664 785.279,219.664C787.087,219.664 788.558,218.683 789.6,216.844C789.692,218.56 790.703,219.664 792.634,219.664ZM783.808,213.504C783.808,208.815 786.505,204.494 789.416,204.494C790.642,204.494 791.592,205.26 792.082,206.701L789.906,214.423C789.814,214.791 789.722,215.128 789.661,215.465C788.803,216.875 787.731,217.61 786.505,217.61C784.758,217.61 783.808,216.17 783.808,213.504Z" style="fill-rule:nonzero;"/>
        <path d="M813.411,219.664C815.587,219.664 816.966,218.346 817.916,216.507L818.927,214.577L817.456,214.577L816.874,215.68C816.169,217.028 815.342,217.641 814.239,217.641C812.86,217.641 812.431,216.752 812.952,214.852L815.71,204.923L820.643,204.923L821.042,203.483L816.108,203.483L817.548,198.365C816.629,198.641 815.556,198.794 814.514,198.825L813.227,203.483L809.642,203.483L809.274,204.923L812.829,204.923L810.163,214.454C809.274,217.58 810.592,219.664 813.411,219.664Z" style="fill-rule:nonzero;"/>
        <path d="M827.539,200.449L822.298,219.235L825.179,219.235L828.489,207.375C829.5,205.873 830.695,205.077 832.074,205.077C834.005,205.077 834.587,206.548 833.852,209.183L832.381,214.423C831.553,217.427 832.319,219.664 835.108,219.664C837.192,219.664 838.602,218.254 839.827,215.894L840.532,214.577L839.061,214.577L838.479,215.68C837.805,216.998 837.008,217.672 836.119,217.672C834.955,217.672 834.648,216.569 835.139,214.822L836.793,209.03C837.805,205.414 836.456,203.054 833.514,203.054C831.737,203.054 830.235,203.912 828.979,205.598L831.982,194.872C830.082,195.669 827.784,196.098 824.842,196.128L824.443,197.599C827.631,197.599 828.121,198.304 827.539,200.449Z" style="fill-rule:nonzero;"/>
        <path d="M847.152,207.865L843.934,219.235L846.845,219.235L849.91,208.294C850.002,207.957 850.093,207.62 850.124,207.314C851.074,205.904 852.422,204.985 853.556,204.985C854.077,204.985 854.353,205.169 854.353,205.506C854.353,206.18 853.403,207.069 853.403,208.049C853.403,208.723 853.832,209.183 854.568,209.183C855.916,209.183 857.203,207.283 857.203,205.383C857.203,203.881 856.345,203.054 854.782,203.054C853.005,203.054 851.411,204.096 850.216,205.965C850.155,204.188 849.174,203.054 847.182,203.054C845.129,203.054 843.689,204.433 842.432,206.823L841.758,208.141L843.229,208.141L843.811,207.007C844.485,205.72 845.252,205.046 846.171,205.046C847.305,205.046 847.642,206.119 847.152,207.865Z" style="fill-rule:nonzero;"/>
        <path d="M865.355,219.664C868.082,219.664 870.319,218.039 871.729,215.006L870.319,215.006C869.277,216.875 867.96,217.825 866.397,217.825C864.435,217.825 863.332,216.323 863.302,213.657C869.247,212.278 872.924,209.367 872.924,206.027C872.924,204.096 871.668,203.054 869.431,203.054C864.619,203.054 860.329,208.141 860.329,213.872C860.329,217.549 862.168,219.664 865.355,219.664ZM863.363,212.431C863.792,208.478 866.397,204.433 868.787,204.433C869.706,204.433 870.197,205.046 870.197,206.21C870.197,208.846 867.684,211.083 863.363,212.431Z" style="fill-rule:nonzero;"/>
        <path d="M881.934,219.664C884.661,219.664 886.898,218.039 888.308,215.006L886.898,215.006C885.856,216.875 884.539,217.825 882.976,217.825C881.014,217.825 879.911,216.323 879.881,213.657C885.826,212.278 889.503,209.367 889.503,206.027C889.503,204.096 888.247,203.054 886.01,203.054C881.198,203.054 876.908,208.141 876.908,213.872C876.908,217.549 878.747,219.664 881.934,219.664ZM879.942,212.431C880.371,208.478 882.976,204.433 885.366,204.433C886.285,204.433 886.776,205.046 886.776,206.21C886.776,208.846 884.263,211.083 879.942,212.431Z" style="fill-rule:nonzero;"/>
        <path d="M906.113,219.664C907.89,219.664 909.392,218.683 910.434,216.844C910.526,218.622 911.629,219.664 913.468,219.664C915.582,219.664 916.961,218.285 918.064,216.201L918.892,214.577L917.452,214.577L916.839,215.68C916.256,216.814 915.521,217.672 914.51,217.672C913.376,217.672 913.008,216.63 913.498,214.822L915.582,207.436C916.042,205.781 916.44,205.077 917.605,204.096L916.808,202.993C916.011,203.698 915.153,204.31 914.295,204.77C913.069,203.667 911.66,203.054 910.158,203.054C905.776,203.054 901.7,208.233 901.7,213.81C901.7,217.396 903.416,219.664 906.113,219.664ZM904.642,213.504C904.642,208.815 907.339,204.494 910.25,204.494C911.476,204.494 912.426,205.26 912.916,206.67L910.74,214.423C910.648,214.791 910.556,215.128 910.495,215.465C909.637,216.875 908.564,217.61 907.339,217.61C905.592,217.61 904.642,216.17 904.642,213.504Z" style="fill-rule:nonzero;"/>
        <path d="M931.364,219.664C933.019,219.664 934.245,218.744 935.41,216.507L936.421,214.577L934.981,214.577L934.337,215.802C933.602,217.181 933.05,217.61 932.314,217.61C931.487,217.61 931.058,217.059 930.874,215.741L930.169,210.623C931.702,207.406 932.989,205.72 934.061,205.72C934.827,205.72 935.287,206.548 936.176,206.548C937.034,206.548 937.647,205.812 937.647,204.831C937.647,203.728 936.85,203.054 935.593,203.054C933.479,203.054 931.64,204.831 929.893,208.601L929.587,206.364C929.281,204.096 928.3,203.054 926.492,203.054C924.806,203.054 923.581,203.973 922.416,206.21L921.405,208.141L922.876,208.141L923.519,206.915C924.193,205.598 924.745,205.077 925.511,205.077C926.308,205.077 926.798,205.598 926.982,206.946L927.564,211.42C925.695,215.036 924.193,216.936 922.906,216.936C922.171,216.936 921.681,216.139 920.792,216.139C919.934,216.139 919.29,216.875 919.29,217.856C919.29,218.989 920.087,219.664 921.405,219.664C923.703,219.664 925.818,217.58 927.84,213.443L928.239,216.354C928.545,218.622 929.556,219.664 931.364,219.664Z" style="fill-rule:nonzero;"/>
        <path d="M944.94,219.664C947.668,219.664 949.905,218.039 951.314,215.006L949.905,215.006C948.863,216.875 947.545,217.825 945.982,217.825C944.021,217.825 942.918,216.323 942.887,213.657C948.832,212.278 952.51,209.367 952.51,206.027C952.51,204.096 951.253,203.054 949.016,203.054C944.205,203.054 939.914,208.141 939.914,213.872C939.914,217.549 941.753,219.664 944.94,219.664ZM942.948,212.431C943.377,208.478 945.982,204.433 948.372,204.433C949.292,204.433 949.782,205.046 949.782,206.21C949.782,208.846 947.269,211.083 942.948,212.431Z" style="fill-rule:nonzero;"/>
        <path d="M961.06,219.664C964.86,219.664 967.587,217.672 967.587,214.852C967.587,210.317 960.845,210.133 960.845,206.67C960.845,205.322 961.948,204.464 963.879,204.464C965.442,204.464 966.269,204.923 966.331,205.812C966.361,206.088 966.269,206.609 966.3,207.007C966.361,207.865 966.913,208.386 967.771,208.386C968.721,208.386 969.334,207.681 969.334,206.609C969.334,204.586 966.974,203.054 963.848,203.054C960.416,203.054 958.026,204.862 958.026,207.498C958.026,211.972 964.768,212.033 964.768,215.619C964.768,217.243 963.358,218.254 961.029,218.254C959.313,218.254 958.393,217.794 958.332,216.783C958.302,216.446 958.393,215.894 958.363,215.465C958.332,214.423 957.811,213.841 956.861,213.841C955.789,213.841 955.114,214.607 955.114,215.802C955.114,218.039 957.597,219.664 961.06,219.664Z" style="fill-rule:nonzero;"/>
        <path d="M986.863,219.664C992.103,219.664 996.822,213.351 996.822,206.915C996.822,204.188 995.995,203.054 994.555,203.054C993.421,203.054 992.777,203.759 992.777,204.74C992.777,206.486 994.922,207.16 994.922,209.919C994.922,213.106 991.95,217.028 988.671,217.028C987.108,217.028 986.281,215.925 986.281,213.872C986.281,211.727 986.863,209.091 988.303,205.751C989.989,205.598 991,204.954 991,204.004C991,203.422 990.571,203.054 989.805,203.054C989.222,203.054 988.64,203.33 987.997,204.035C986.924,203.575 985.882,203.054 984.197,203.054C981.653,203.054 979.447,204.678 979.447,207.069C979.447,208.356 980.121,209.152 981.224,209.152C982.235,209.152 982.91,208.448 982.91,207.406C982.91,206.486 982.143,205.843 982.143,205.169C982.143,204.74 982.389,204.586 982.94,204.586C984.074,204.586 985.147,205.536 986.832,205.751C984.442,209.03 983.032,212.125 983.032,214.975C983.032,218.009 984.473,219.664 986.863,219.664Z" style="fill-rule:nonzero;"/>
        <path d="M1005.13,219.664C1006.9,219.664 1008.41,218.683 1009.45,216.844C1009.54,218.622 1010.64,219.664 1012.48,219.664C1014.6,219.664 1015.98,218.285 1017.08,216.201L1017.91,214.577L1016.47,214.577L1015.85,215.68C1015.27,216.814 1014.53,217.672 1013.52,217.672C1012.39,217.672 1012.02,216.63 1012.51,214.822L1014.6,207.436C1015.06,205.781 1015.46,205.077 1016.62,204.096L1015.82,202.993C1015.03,203.698 1014.17,204.31 1013.31,204.77C1012.08,203.667 1010.67,203.054 1009.17,203.054C1004.79,203.054 1000.71,208.233 1000.71,213.81C1000.71,217.396 1002.43,219.664 1005.13,219.664ZM1003.66,213.504C1003.66,208.815 1006.35,204.494 1009.26,204.494C1010.49,204.494 1011.44,205.26 1011.93,206.67L1009.75,214.423C1009.66,214.791 1009.57,215.128 1009.51,215.465C1008.65,216.875 1007.58,217.61 1006.35,217.61C1004.61,217.61 1003.66,216.17 1003.66,213.504Z" style="fill-rule:nonzero;"/>
        <path d="M1024.53,207.865L1021.31,219.235L1024.22,219.235L1027.28,208.294C1027.38,207.957 1027.47,207.62 1027.5,207.314C1028.45,205.904 1029.8,204.985 1030.93,204.985C1031.45,204.985 1031.73,205.169 1031.73,205.506C1031.73,206.18 1030.78,207.069 1030.78,208.049C1030.78,208.723 1031.21,209.183 1031.94,209.183C1033.29,209.183 1034.58,207.283 1034.58,205.383C1034.58,203.881 1033.72,203.054 1032.16,203.054C1030.38,203.054 1028.79,204.096 1027.59,205.965C1027.53,204.188 1026.55,203.054 1024.56,203.054C1022.5,203.054 1021.06,204.433 1019.81,206.823L1019.13,208.141L1020.6,208.141L1021.19,207.007C1021.86,205.72 1022.63,205.046 1023.55,205.046C1024.68,205.046 1025.02,206.119 1024.53,207.865Z" style="fill-rule:nonzero;"/>
        <path d="M1042.39,219.664C1044.32,219.664 1045.7,218.591 1047.11,215.894L1047.82,214.577L1046.35,214.577L1045.76,215.68C1045.09,216.998 1044.29,217.672 1043.4,217.672C1042.21,217.672 1041.78,216.477 1042.45,214.822L1044.87,208.294C1046.07,205.322 1044.84,203.054 1042.18,203.054C1040.25,203.054 1038.81,204.157 1037.43,206.823L1036.72,208.141L1038.19,208.141L1038.78,207.007C1039.45,205.72 1040.25,205.046 1041.13,205.046C1042.36,205.046 1042.76,206.241 1042.12,207.896L1039.66,214.393C1038.5,217.365 1039.69,219.664 1042.39,219.664ZM1044.66,199.898C1045.95,199.898 1047.02,198.856 1047.02,197.66C1047.02,196.496 1046.13,195.638 1044.97,195.638C1043.71,195.638 1042.64,196.649 1042.64,197.875C1042.64,199.009 1043.53,199.898 1044.66,199.898Z" style="fill-rule:nonzero;"/>
        <path d="M1055.11,219.664C1056.89,219.664 1058.39,218.683 1059.43,216.844C1059.52,218.622 1060.63,219.664 1062.46,219.664C1064.58,219.664 1065.96,218.285 1067.06,216.201L1067.89,214.577L1066.45,214.577L1065.84,215.68C1065.25,216.814 1064.52,217.672 1063.51,217.672C1062.37,217.672 1062.01,216.63 1062.5,214.822L1064.58,207.436C1065.04,205.781 1065.44,205.077 1066.6,204.096L1065.81,202.993C1065.01,203.698 1064.15,204.31 1063.29,204.77C1062.07,203.667 1060.66,203.054 1059.15,203.054C1054.77,203.054 1050.7,208.233 1050.7,213.81C1050.7,217.396 1052.41,219.664 1055.11,219.664ZM1053.64,213.504C1053.64,208.815 1056.34,204.494 1059.25,204.494C1060.47,204.494 1061.42,205.26 1061.91,206.67L1059.74,214.423C1059.64,214.791 1059.55,215.128 1059.49,215.465C1058.63,216.875 1057.56,217.61 1056.34,217.61C1054.59,217.61 1053.64,216.17 1053.64,213.504Z" style="fill-rule:nonzero;"/>
        <path d="M1075.92,219.664C1080.79,219.664 1084.84,214.852 1084.84,208.999C1084.84,205.322 1083.15,203.054 1080.45,203.054C1078.98,203.054 1077.69,203.728 1076.71,204.954L1079.53,194.872C1077.66,195.669 1075.37,196.098 1072.39,196.128L1072,197.599C1075.15,197.599 1075.7,198.273 1075.09,200.449L1071.93,211.727C1070.52,216.722 1072.06,219.664 1075.92,219.664ZM1074.75,212.033L1076.16,207.007C1076.96,205.751 1078.03,205.046 1079.23,205.046C1080.94,205.046 1081.86,206.548 1081.86,209.306C1081.86,213.994 1079.17,218.223 1076.16,218.223C1074.14,218.223 1073.62,216.078 1074.75,212.033Z" style="fill-rule:nonzero;"/>
        <path d="M1092.22,219.664C1094.31,219.664 1095.71,218.254 1096.97,215.894L1097.64,214.577L1096.2,214.577L1095.59,215.68C1094.92,216.998 1094.12,217.672 1093.23,217.672C1092.04,217.672 1091.79,216.538 1092.25,214.822L1097.86,194.872C1095.96,195.669 1093.66,196.098 1090.72,196.128L1090.32,197.599C1093.51,197.599 1094,198.304 1093.42,200.449L1089.49,214.423C1088.63,217.457 1089.46,219.664 1092.22,219.664Z" style="fill-rule:nonzero;"/>
        <path d="M1105.21,219.664C1107.94,219.664 1110.18,218.039 1111.59,215.006L1110.18,215.006C1109.14,216.875 1107.82,217.825 1106.26,217.825C1104.3,217.825 1103.19,216.323 1103.16,213.657C1109.11,212.278 1112.78,209.367 1112.78,206.027C1112.78,204.096 1111.53,203.054 1109.29,203.054C1104.48,203.054 1100.19,208.141 1100.19,213.872C1100.19,217.549 1102.03,219.664 1105.21,219.664ZM1103.22,212.431C1103.65,208.478 1106.26,204.433 1108.65,204.433C1109.57,204.433 1110.06,205.046 1110.06,206.21C1110.06,208.846 1107.54,211.083 1103.22,212.431Z" style="fill-rule:nonzero;"/>
        <path d="M1120.05,226.559C1123.82,226.559 1126.94,222.759 1128.35,216.936L1131.17,204.923L1135.46,204.923L1135.86,203.483L1131.51,203.483L1131.94,201.675C1132.76,198.304 1134.02,196.649 1136.07,196.649C1136.84,196.649 1137.27,196.925 1137.27,197.415C1137.27,198.181 1136.35,198.917 1136.35,199.806C1136.35,200.419 1136.81,200.817 1137.55,200.817C1138.86,200.817 1139.87,199.622 1139.87,198.12C1139.87,196.343 1138.43,195.27 1135.98,195.27C1132.31,195.27 1130.01,197.691 1128.87,202.472L1128.63,203.483L1125.1,203.483L1124.7,204.923L1128.29,204.923L1124.21,222.207C1123.88,223.678 1123.42,224.23 1122.65,224.23C1121.67,224.23 1120.69,223.004 1119.4,223.004C1118.33,223.004 1117.56,223.739 1117.56,224.781C1117.56,225.885 1118.48,226.559 1120.05,226.559Z" style="fill-rule:nonzero;"/>
        <path d="M1142.85,219.664C1147.54,219.664 1151.67,214.669 1151.67,209.03C1151.67,205.291 1149.8,203.054 1146.62,203.054C1141.93,203.054 1137.82,208.019 1137.82,213.688C1137.82,217.457 1139.69,219.664 1142.85,219.664ZM1143.09,218.223C1141.59,218.223 1140.73,216.844 1140.73,214.178C1140.73,209.306 1143.52,204.494 1146.4,204.494C1147.93,204.494 1148.76,205.873 1148.76,208.54C1148.76,213.381 1145.97,218.223 1143.09,218.223Z" style="fill-rule:nonzero;"/>
        <path d="M1169.29,219.664C1171.38,219.664 1172.79,218.254 1174.01,215.894L1174.72,214.577L1173.25,214.577L1172.66,215.68C1171.99,216.967 1171.22,217.672 1170.31,217.672C1169.14,217.672 1168.83,216.569 1169.32,214.822L1170.95,209.03C1171.99,205.414 1170.64,203.054 1167.67,203.054C1165.74,203.054 1164.08,204.065 1162.77,206.057C1162.7,204.249 1161.72,203.054 1159.7,203.054C1157.65,203.054 1156.21,204.433 1154.95,206.823L1154.28,208.141L1155.75,208.141L1156.33,207.007C1157.01,205.72 1157.77,205.046 1158.69,205.046C1159.86,205.046 1160.13,206.149 1159.67,207.865L1156.45,219.235L1159.36,219.235L1162.43,208.294C1162.52,207.957 1162.61,207.62 1162.64,207.314C1163.65,205.843 1164.91,205.077 1166.26,205.077C1168.13,205.077 1168.77,206.517 1168.04,209.183L1166.57,214.423C1165.71,217.427 1166.51,219.664 1169.29,219.664Z" style="fill-rule:nonzero;"/>
        <path d="M1181.89,219.664C1184.06,219.664 1185.44,218.346 1186.39,216.507L1187.4,214.577L1185.93,214.577L1185.35,215.68C1184.65,217.028 1183.82,217.641 1182.72,217.641C1181.34,217.641 1180.91,216.752 1181.43,214.852L1184.19,204.923L1189.12,204.923L1189.52,203.483L1184.59,203.483L1186.03,198.365C1185.11,198.641 1184.03,198.794 1182.99,198.825L1181.7,203.483L1178.12,203.483L1177.75,204.923L1181.31,204.923L1178.64,214.454C1177.75,217.58 1179.07,219.664 1181.89,219.664Z" style="fill-rule:nonzero;"/>
    </g>
</svg>
