<?xml version="1.0" encoding="UTF-8" standalone="no"?>
<!DOCTYPE svg PUBLIC "-//W3C//DTD SVG 1.1//EN" "http://www.w3.org/Graphics/SVG/1.1/DTD/svg11.dtd">
<svg width="100%" height="100%" viewBox="0 0 2741 850" version="1.1" xmlns="http://www.w3.org/2000/svg" xmlns:xlink="http://www.w3.org/1999/xlink" xml:space="preserve" xmlns:serif="http://www.serif.com/" style="fill-rule:evenodd;clip-rule:evenodd;stroke-linejoin:round;stroke-miterlimit:2;">
    <rect id="Artboard2" x="0" y="0" width="2740.29" height="849.339" style="fill:none;"/>
    <clipPath id="_clip1">
        <rect id="Artboard21" serif:id="Artboard2" x="0" y="0" width="2740.29" height="849.339"/>
    </clipPath>
    <g clip-path="url(#_clip1)">
        <g transform="matrix(1.49132,0,0,1.40484,-1302.15,-1077.68)">
            <rect x="295.276" y="295.276" width="2917.32" height="1830.71"/>
        </g>
        <g transform="matrix(0.488856,0,0,0.488856,-37.163,-123.296)">
            <g transform="matrix(1039.84,0,0,1039.84,347.783,1195.38)">
                <path d="M0.12,-0.489C0.12,-0.507 0.118,-0.52 0.115,-0.529C0.112,-0.537 0.107,-0.544 0.099,-0.548C0.091,-0.552 0.078,-0.554 0.062,-0.556L0.039,-0.559L0.039,-0.571C0.094,-0.569 0.14,-0.569 0.177,-0.569C0.196,-0.569 0.218,-0.569 0.241,-0.57C0.255,-0.571 0.268,-0.571 0.28,-0.571L0.314,-0.571C0.39,-0.571 0.448,-0.557 0.489,-0.529C0.53,-0.5 0.55,-0.46 0.55,-0.407C0.55,-0.371 0.54,-0.34 0.519,-0.314C0.499,-0.288 0.469,-0.268 0.431,-0.254C0.392,-0.239 0.347,-0.232 0.294,-0.232C0.277,-0.232 0.26,-0.233 0.245,-0.235C0.229,-0.237 0.215,-0.239 0.202,-0.243L0.202,-0.255C0.204,-0.254 0.207,-0.254 0.209,-0.253C0.221,-0.25 0.233,-0.248 0.245,-0.247C0.258,-0.246 0.27,-0.245 0.283,-0.245C0.335,-0.245 0.372,-0.258 0.397,-0.284C0.421,-0.309 0.433,-0.35 0.433,-0.404C0.433,-0.457 0.422,-0.496 0.4,-0.521C0.377,-0.545 0.342,-0.558 0.294,-0.557L0.231,-0.557L0.231,-0.202L0.12,-0.202L0.12,-0.489ZM0.166,-0.002C0.149,-0.002 0.132,-0.002 0.117,-0.002C0.101,-0.002 0.087,-0.001 0.073,-0.001L0.039,-0L0.039,-0.012L0.062,-0.015C0.079,-0.017 0.091,-0.02 0.099,-0.024C0.107,-0.028 0.112,-0.034 0.116,-0.043C0.119,-0.051 0.12,-0.064 0.12,-0.082L0.12,-0.202L0.231,-0.202L0.231,-0.082C0.231,-0.064 0.233,-0.052 0.236,-0.043C0.239,-0.034 0.245,-0.028 0.253,-0.024C0.261,-0.021 0.274,-0.018 0.291,-0.016L0.329,-0.012L0.329,-0C0.27,-0.002 0.222,-0.002 0.184,-0.002L0.166,-0.002Z" style="fill:white;fill-rule:nonzero;"/>
            </g>
            <g transform="matrix(1039.84,0,0,1039.84,917.842,1195.38)">
                <path d="M0.151,-0.002C0.127,-0.002 0.1,-0.002 0.07,-0.001L0.026,-0L0.026,-0.012L0.043,-0.014C0.057,-0.015 0.069,-0.017 0.077,-0.021C0.085,-0.025 0.091,-0.032 0.094,-0.04C0.098,-0.048 0.099,-0.059 0.099,-0.074L0.099,-0.208L0.202,-0.208L0.202,-0.074C0.202,-0.059 0.203,-0.048 0.207,-0.04C0.211,-0.032 0.216,-0.025 0.224,-0.021C0.233,-0.017 0.244,-0.015 0.258,-0.014L0.275,-0.012L0.275,-0L0.231,-0.001C0.201,-0.002 0.174,-0.002 0.151,-0.002ZM0.099,-0.544C0.099,-0.559 0.098,-0.571 0.094,-0.58C0.091,-0.589 0.085,-0.596 0.076,-0.6C0.068,-0.605 0.056,-0.608 0.04,-0.609L0.026,-0.611L0.026,-0.623C0.047,-0.621 0.069,-0.621 0.091,-0.621C0.134,-0.621 0.171,-0.625 0.202,-0.632L0.202,-0.208L0.099,-0.208L0.099,-0.544Z" style="fill:white;fill-rule:nonzero;"/>
            </g>
            <g transform="matrix(1039.84,0,0,1039.84,1200.27,1195.38)">
                <path d="M0.318,-0.31C0.318,-0.344 0.31,-0.37 0.294,-0.387C0.278,-0.404 0.254,-0.413 0.223,-0.413C0.203,-0.413 0.187,-0.41 0.174,-0.403C0.161,-0.397 0.154,-0.389 0.154,-0.38C0.154,-0.376 0.155,-0.372 0.158,-0.367C0.16,-0.362 0.164,-0.357 0.168,-0.351C0.173,-0.343 0.178,-0.336 0.181,-0.33C0.184,-0.323 0.186,-0.317 0.186,-0.31C0.186,-0.298 0.181,-0.289 0.171,-0.282C0.161,-0.274 0.148,-0.271 0.132,-0.271C0.115,-0.271 0.101,-0.276 0.091,-0.286C0.081,-0.295 0.076,-0.308 0.076,-0.325C0.076,-0.344 0.084,-0.362 0.099,-0.378C0.114,-0.394 0.136,-0.406 0.163,-0.415C0.19,-0.423 0.221,-0.428 0.256,-0.428C0.295,-0.428 0.326,-0.422 0.35,-0.41C0.374,-0.398 0.392,-0.38 0.403,-0.355C0.415,-0.331 0.42,-0.299 0.42,-0.26L0.42,-0.208L0.318,-0.208L0.318,-0.31ZM0.177,0.011C0.14,0.011 0.11,0.002 0.088,-0.016C0.066,-0.034 0.055,-0.059 0.055,-0.09C0.055,-0.116 0.063,-0.137 0.078,-0.154C0.093,-0.17 0.11,-0.182 0.131,-0.19C0.152,-0.198 0.179,-0.207 0.213,-0.216C0.237,-0.222 0.257,-0.228 0.271,-0.232C0.284,-0.237 0.296,-0.244 0.305,-0.251C0.314,-0.259 0.319,-0.269 0.319,-0.281L0.321,-0.262C0.318,-0.25 0.311,-0.241 0.301,-0.234C0.29,-0.227 0.275,-0.218 0.254,-0.209C0.235,-0.199 0.219,-0.191 0.207,-0.183C0.195,-0.175 0.185,-0.165 0.176,-0.152C0.167,-0.139 0.163,-0.122 0.163,-0.103C0.163,-0.079 0.169,-0.062 0.182,-0.049C0.194,-0.036 0.212,-0.03 0.235,-0.03C0.253,-0.03 0.269,-0.033 0.283,-0.041C0.298,-0.048 0.311,-0.06 0.322,-0.075L0.322,-0.062C0.305,-0.037 0.284,-0.019 0.259,-0.007C0.235,0.005 0.207,0.011 0.177,0.011ZM0.42,-0.048C0.42,-0.035 0.422,-0.026 0.427,-0.021C0.431,-0.015 0.438,-0.012 0.447,-0.012C0.453,-0.012 0.46,-0.013 0.466,-0.016C0.473,-0.018 0.48,-0.022 0.488,-0.027C0.491,-0.029 0.493,-0.03 0.495,-0.032L0.501,-0.022C0.486,-0.01 0.471,-0.002 0.456,0.003C0.441,0.009 0.423,0.011 0.404,0.011C0.375,0.011 0.353,0.005 0.339,-0.006C0.325,-0.018 0.318,-0.036 0.318,-0.06L0.318,-0.208L0.42,-0.208L0.42,-0.048Z" style="fill:white;fill-rule:nonzero;"/>
            </g>
            <g transform="matrix(1039.84,0,0,1039.84,1709.95,1195.38)">
                <path d="M0.075,-0.354C0.069,-0.366 0.064,-0.375 0.06,-0.382C0.055,-0.388 0.05,-0.392 0.044,-0.395C0.038,-0.398 0.03,-0.4 0.021,-0.402L0.006,-0.403L0.006,-0.416C0.044,-0.414 0.075,-0.413 0.099,-0.413L0.107,-0.413C0.154,-0.413 0.201,-0.414 0.247,-0.415L0.247,-0.403L0.229,-0.401C0.213,-0.399 0.202,-0.396 0.195,-0.392C0.188,-0.387 0.185,-0.381 0.185,-0.371C0.185,-0.362 0.189,-0.349 0.196,-0.332L0.31,-0.089L0.3,-0.079L0.37,-0.249C0.384,-0.282 0.392,-0.309 0.394,-0.33C0.397,-0.351 0.395,-0.368 0.387,-0.38C0.379,-0.391 0.367,-0.399 0.349,-0.402L0.34,-0.403L0.34,-0.416C0.369,-0.414 0.399,-0.413 0.429,-0.413C0.45,-0.413 0.473,-0.414 0.499,-0.416L0.499,-0.403L0.489,-0.401C0.476,-0.397 0.465,-0.39 0.455,-0.382C0.446,-0.373 0.436,-0.359 0.426,-0.34C0.415,-0.321 0.403,-0.293 0.387,-0.257L0.267,0.036L0.258,0.036L0.075,-0.354ZM0.126,0.193C0.099,0.193 0.078,0.187 0.062,0.174C0.046,0.162 0.038,0.145 0.038,0.124C0.038,0.107 0.044,0.093 0.055,0.082C0.066,0.071 0.081,0.066 0.1,0.066C0.113,0.066 0.124,0.069 0.132,0.075C0.14,0.082 0.144,0.09 0.144,0.101C0.144,0.107 0.143,0.113 0.141,0.119C0.139,0.124 0.135,0.131 0.132,0.138C0.129,0.142 0.127,0.147 0.125,0.151C0.123,0.156 0.122,0.16 0.122,0.164C0.122,0.168 0.123,0.172 0.126,0.174C0.129,0.177 0.134,0.178 0.14,0.178C0.158,0.178 0.174,0.172 0.188,0.16C0.202,0.148 0.214,0.131 0.223,0.108L0.263,0.012L0.275,0.017L0.237,0.108C0.229,0.127 0.22,0.142 0.21,0.154C0.201,0.166 0.189,0.176 0.175,0.183C0.162,0.189 0.145,0.193 0.126,0.193Z" style="fill:white;fill-rule:nonzero;"/>
            </g>
            <g transform="matrix(1039.84,0,0,1039.84,2203.71,1195.38)">
                <path d="M0.151,-0.002C0.127,-0.002 0.1,-0.002 0.07,-0.001L0.026,-0L0.026,-0.012L0.043,-0.014C0.058,-0.015 0.069,-0.017 0.077,-0.021C0.085,-0.025 0.091,-0.032 0.094,-0.04C0.098,-0.048 0.1,-0.059 0.1,-0.074L0.1,-0.208L0.202,-0.208L0.202,-0.074C0.202,-0.059 0.204,-0.048 0.207,-0.04C0.211,-0.032 0.218,-0.026 0.226,-0.022C0.235,-0.018 0.248,-0.015 0.264,-0.014L0.29,-0.012L0.29,-0L0.241,-0.001C0.207,-0.002 0.177,-0.002 0.151,-0.002ZM0.1,-0.433C0.1,-0.475 0.107,-0.51 0.122,-0.54C0.136,-0.569 0.158,-0.592 0.185,-0.607C0.213,-0.623 0.246,-0.631 0.284,-0.631C0.326,-0.631 0.359,-0.623 0.383,-0.607C0.408,-0.591 0.42,-0.57 0.42,-0.543C0.42,-0.527 0.414,-0.513 0.404,-0.503C0.393,-0.492 0.378,-0.487 0.36,-0.487C0.346,-0.487 0.334,-0.491 0.326,-0.498C0.317,-0.505 0.313,-0.514 0.313,-0.526C0.313,-0.532 0.314,-0.539 0.317,-0.545C0.319,-0.551 0.323,-0.559 0.328,-0.567C0.331,-0.572 0.334,-0.577 0.336,-0.582C0.338,-0.586 0.339,-0.59 0.339,-0.594C0.339,-0.602 0.336,-0.608 0.329,-0.612C0.323,-0.616 0.314,-0.618 0.301,-0.618C0.267,-0.618 0.242,-0.605 0.226,-0.58C0.21,-0.555 0.202,-0.517 0.202,-0.464L0.202,-0.208L0.1,-0.208L0.1,-0.433ZM0.023,-0.416L0.308,-0.416L0.308,-0.403L0.023,-0.403L0.023,-0.416Z" style="fill:white;fill-rule:nonzero;"/>
            </g>
            <g transform="matrix(1039.84,0,0,1039.84,2511.29,1195.38)">
                <path d="M0.318,-0.31C0.318,-0.344 0.31,-0.37 0.294,-0.387C0.278,-0.404 0.254,-0.413 0.223,-0.413C0.203,-0.413 0.187,-0.41 0.174,-0.403C0.161,-0.397 0.154,-0.389 0.154,-0.38C0.154,-0.376 0.155,-0.372 0.158,-0.367C0.16,-0.362 0.164,-0.357 0.168,-0.351C0.173,-0.343 0.178,-0.336 0.181,-0.33C0.184,-0.323 0.186,-0.317 0.186,-0.31C0.186,-0.298 0.181,-0.289 0.171,-0.282C0.161,-0.274 0.148,-0.271 0.132,-0.271C0.115,-0.271 0.101,-0.276 0.091,-0.286C0.081,-0.295 0.076,-0.308 0.076,-0.325C0.076,-0.344 0.084,-0.362 0.099,-0.378C0.114,-0.394 0.136,-0.406 0.163,-0.415C0.19,-0.423 0.221,-0.428 0.256,-0.428C0.295,-0.428 0.326,-0.422 0.35,-0.41C0.374,-0.398 0.392,-0.38 0.403,-0.355C0.415,-0.331 0.42,-0.299 0.42,-0.26L0.42,-0.208L0.318,-0.208L0.318,-0.31ZM0.177,0.011C0.14,0.011 0.11,0.002 0.088,-0.016C0.066,-0.034 0.055,-0.059 0.055,-0.09C0.055,-0.116 0.063,-0.137 0.078,-0.154C0.093,-0.17 0.11,-0.182 0.131,-0.19C0.152,-0.198 0.179,-0.207 0.213,-0.216C0.237,-0.222 0.257,-0.228 0.271,-0.232C0.284,-0.237 0.296,-0.244 0.305,-0.251C0.314,-0.259 0.319,-0.269 0.319,-0.281L0.321,-0.262C0.318,-0.25 0.311,-0.241 0.301,-0.234C0.29,-0.227 0.275,-0.218 0.254,-0.209C0.235,-0.199 0.219,-0.191 0.207,-0.183C0.195,-0.175 0.185,-0.165 0.176,-0.152C0.167,-0.139 0.163,-0.122 0.163,-0.103C0.163,-0.079 0.169,-0.062 0.182,-0.049C0.194,-0.036 0.212,-0.03 0.235,-0.03C0.253,-0.03 0.269,-0.033 0.283,-0.041C0.298,-0.048 0.311,-0.06 0.322,-0.075L0.322,-0.062C0.305,-0.037 0.284,-0.019 0.259,-0.007C0.235,0.005 0.207,0.011 0.177,0.011ZM0.42,-0.048C0.42,-0.035 0.422,-0.026 0.427,-0.021C0.431,-0.015 0.438,-0.012 0.447,-0.012C0.453,-0.012 0.46,-0.013 0.466,-0.016C0.473,-0.018 0.48,-0.022 0.488,-0.027C0.491,-0.029 0.493,-0.03 0.495,-0.032L0.501,-0.022C0.486,-0.01 0.471,-0.002 0.456,0.003C0.441,0.009 0.423,0.011 0.404,0.011C0.375,0.011 0.353,0.005 0.339,-0.006C0.325,-0.018 0.318,-0.036 0.318,-0.06L0.318,-0.208L0.42,-0.208L0.42,-0.048Z" style="fill:white;fill-rule:nonzero;"/>
            </g>
            <g transform="matrix(1039.84,0,0,1039.84,3020.98,1195.38)">
                <path d="M0.1,-0.337C0.1,-0.353 0.098,-0.365 0.094,-0.374C0.091,-0.383 0.085,-0.389 0.076,-0.394C0.068,-0.398 0.056,-0.401 0.04,-0.402L0.027,-0.404L0.027,-0.416C0.048,-0.415 0.069,-0.415 0.09,-0.415C0.134,-0.415 0.171,-0.418 0.202,-0.426L0.202,-0.208L0.1,-0.208L0.1,-0.337ZM0.151,-0.002C0.127,-0.002 0.1,-0.002 0.07,-0.001L0.027,-0L0.027,-0.012L0.044,-0.014C0.058,-0.015 0.069,-0.017 0.077,-0.021C0.085,-0.025 0.091,-0.032 0.094,-0.04C0.098,-0.048 0.1,-0.059 0.1,-0.073L0.1,-0.208L0.202,-0.208L0.202,-0.073C0.202,-0.059 0.203,-0.048 0.207,-0.04C0.21,-0.032 0.216,-0.025 0.224,-0.021C0.232,-0.017 0.244,-0.015 0.258,-0.014L0.275,-0.012L0.275,-0L0.231,-0.001C0.201,-0.002 0.174,-0.002 0.151,-0.002ZM0.151,-0.505C0.133,-0.505 0.118,-0.51 0.106,-0.521C0.093,-0.532 0.087,-0.547 0.087,-0.564C0.087,-0.581 0.093,-0.595 0.106,-0.606C0.118,-0.617 0.133,-0.623 0.151,-0.623C0.169,-0.623 0.184,-0.617 0.196,-0.606C0.208,-0.596 0.215,-0.581 0.215,-0.564C0.215,-0.547 0.208,-0.532 0.196,-0.521C0.184,-0.51 0.169,-0.505 0.151,-0.505Z" style="fill:white;fill-rule:nonzero;"/>
            </g>
            <g transform="matrix(1039.84,0,0,1039.84,3296.69,1195.38)">
                <path d="M0.151,-0.002C0.127,-0.002 0.1,-0.002 0.07,-0.001L0.026,-0L0.026,-0.012L0.043,-0.014C0.058,-0.015 0.069,-0.017 0.077,-0.021C0.085,-0.025 0.091,-0.032 0.094,-0.04C0.098,-0.048 0.1,-0.059 0.1,-0.074L0.1,-0.208L0.202,-0.208L0.202,-0.074C0.202,-0.059 0.204,-0.048 0.207,-0.04C0.211,-0.032 0.218,-0.026 0.226,-0.022C0.235,-0.018 0.248,-0.015 0.264,-0.014L0.29,-0.012L0.29,-0L0.241,-0.001C0.207,-0.002 0.177,-0.002 0.151,-0.002ZM0.1,-0.337C0.1,-0.352 0.098,-0.365 0.094,-0.374C0.091,-0.382 0.085,-0.389 0.076,-0.394C0.068,-0.398 0.056,-0.401 0.041,-0.403L0.026,-0.404L0.026,-0.416C0.047,-0.415 0.069,-0.414 0.091,-0.414C0.134,-0.414 0.171,-0.418 0.202,-0.426L0.202,-0.208L0.1,-0.208L0.1,-0.337ZM0.355,-0.283C0.342,-0.283 0.331,-0.286 0.323,-0.293C0.315,-0.3 0.311,-0.31 0.311,-0.322C0.311,-0.328 0.312,-0.333 0.314,-0.339C0.316,-0.344 0.318,-0.35 0.322,-0.356C0.324,-0.361 0.327,-0.366 0.328,-0.37C0.33,-0.375 0.331,-0.38 0.331,-0.384C0.331,-0.39 0.329,-0.394 0.325,-0.398C0.32,-0.401 0.314,-0.403 0.306,-0.403C0.293,-0.403 0.28,-0.4 0.267,-0.394C0.254,-0.389 0.241,-0.381 0.23,-0.371C0.218,-0.36 0.208,-0.348 0.2,-0.334L0.2,-0.347C0.214,-0.373 0.234,-0.393 0.258,-0.407C0.282,-0.422 0.308,-0.429 0.335,-0.429C0.36,-0.429 0.381,-0.422 0.396,-0.409C0.41,-0.395 0.418,-0.376 0.418,-0.353C0.418,-0.332 0.412,-0.315 0.4,-0.302C0.389,-0.289 0.374,-0.283 0.355,-0.283Z" style="fill:white;fill-rule:nonzero;"/>
            </g>
            <g transform="matrix(1227.36,0,0,1227.36,3941.36,1195.38)">
                <path d="M0.397,0.004C0.39,0.001 0.367,-0 0.327,-0L0.017,-0L0.02,-0.012C0.035,-0.021 0.047,-0.028 0.056,-0.033C0.065,-0.039 0.077,-0.046 0.092,-0.054C0.144,-0.086 0.186,-0.114 0.22,-0.14C0.253,-0.165 0.28,-0.193 0.302,-0.223C0.323,-0.254 0.333,-0.285 0.333,-0.319C0.333,-0.347 0.326,-0.369 0.311,-0.385C0.296,-0.401 0.276,-0.409 0.25,-0.409C0.229,-0.409 0.209,-0.404 0.191,-0.393C0.173,-0.382 0.158,-0.367 0.148,-0.349C0.137,-0.33 0.132,-0.31 0.132,-0.289C0.132,-0.268 0.137,-0.252 0.148,-0.241C0.159,-0.23 0.174,-0.225 0.194,-0.225C0.205,-0.225 0.215,-0.227 0.223,-0.231C0.232,-0.235 0.241,-0.242 0.249,-0.251L0.252,-0.24C0.238,-0.222 0.222,-0.209 0.204,-0.2C0.186,-0.19 0.167,-0.186 0.147,-0.186C0.119,-0.186 0.097,-0.193 0.081,-0.207C0.066,-0.221 0.058,-0.241 0.058,-0.265C0.058,-0.294 0.068,-0.32 0.089,-0.345C0.11,-0.37 0.138,-0.39 0.173,-0.405C0.208,-0.42 0.246,-0.427 0.286,-0.427C0.317,-0.427 0.344,-0.423 0.367,-0.414C0.39,-0.405 0.408,-0.393 0.42,-0.377C0.433,-0.361 0.439,-0.342 0.439,-0.32C0.439,-0.295 0.43,-0.271 0.414,-0.249C0.397,-0.227 0.374,-0.206 0.344,-0.186C0.315,-0.165 0.277,-0.144 0.23,-0.121C0.211,-0.112 0.187,-0.1 0.159,-0.087L0.159,-0.085L0.345,-0.085C0.36,-0.085 0.372,-0.086 0.381,-0.089C0.39,-0.091 0.397,-0.095 0.403,-0.101C0.408,-0.107 0.414,-0.115 0.418,-0.127L0.43,-0.127C0.412,-0.061 0.401,-0.017 0.397,0.004Z" style="fill:white;fill-rule:nonzero;"/>
            </g>
            <g transform="matrix(1227.36,0,0,1227.36,4513.26,1195.38)">
                <path d="M0.121,-0.158C0.103,-0.158 0.089,-0.163 0.077,-0.174C0.065,-0.184 0.06,-0.197 0.06,-0.213C0.06,-0.231 0.066,-0.246 0.08,-0.258C0.093,-0.27 0.11,-0.277 0.129,-0.277C0.147,-0.277 0.162,-0.271 0.173,-0.261C0.185,-0.25 0.19,-0.237 0.19,-0.221C0.19,-0.204 0.184,-0.189 0.17,-0.177C0.157,-0.164 0.14,-0.158 0.121,-0.158Z" style="fill:white;fill-rule:nonzero;"/>
            </g>
            <g transform="matrix(1227.36,0,0,1227.36,4776.35,1195.38)">
                <path d="M0.397,0.004C0.39,0.001 0.367,-0 0.327,-0L0.017,-0L0.02,-0.012C0.035,-0.021 0.047,-0.028 0.056,-0.033C0.065,-0.039 0.077,-0.046 0.092,-0.054C0.144,-0.086 0.186,-0.114 0.22,-0.14C0.253,-0.165 0.28,-0.193 0.302,-0.223C0.323,-0.254 0.333,-0.285 0.333,-0.319C0.333,-0.347 0.326,-0.369 0.311,-0.385C0.296,-0.401 0.276,-0.409 0.25,-0.409C0.229,-0.409 0.209,-0.404 0.191,-0.393C0.173,-0.382 0.158,-0.367 0.148,-0.349C0.137,-0.33 0.132,-0.31 0.132,-0.289C0.132,-0.268 0.137,-0.252 0.148,-0.241C0.159,-0.23 0.174,-0.225 0.194,-0.225C0.205,-0.225 0.215,-0.227 0.223,-0.231C0.232,-0.235 0.241,-0.242 0.249,-0.251L0.252,-0.24C0.238,-0.222 0.222,-0.209 0.204,-0.2C0.186,-0.19 0.167,-0.186 0.147,-0.186C0.119,-0.186 0.097,-0.193 0.081,-0.207C0.066,-0.221 0.058,-0.241 0.058,-0.265C0.058,-0.294 0.068,-0.32 0.089,-0.345C0.11,-0.37 0.138,-0.39 0.173,-0.405C0.208,-0.42 0.246,-0.427 0.286,-0.427C0.317,-0.427 0.344,-0.423 0.367,-0.414C0.39,-0.405 0.408,-0.393 0.42,-0.377C0.433,-0.361 0.439,-0.342 0.439,-0.32C0.439,-0.295 0.43,-0.271 0.414,-0.249C0.397,-0.227 0.374,-0.206 0.344,-0.186C0.315,-0.165 0.277,-0.144 0.23,-0.121C0.211,-0.112 0.187,-0.1 0.159,-0.087L0.159,-0.085L0.345,-0.085C0.36,-0.085 0.372,-0.086 0.381,-0.089C0.39,-0.091 0.397,-0.095 0.403,-0.101C0.408,-0.107 0.414,-0.115 0.418,-0.127L0.43,-0.127C0.412,-0.061 0.401,-0.017 0.397,0.004Z" style="fill:white;fill-rule:nonzero;"/>
            </g>
            <g transform="matrix(1227.36,0,0,1227.36,5385.06,1195.38)">
            </g>
        </g>
        <g transform="matrix(0.974286,0,0,1.27353,70.4644,-82.0375)">
            <g id="Layer1">
                <rect x="-72.324" y="573.052" width="2812.62" height="203.739" style="fill:rgb(251,167,0);"/>
            </g>
        </g>
        <g transform="matrix(1,0,0,1,-219.329,542.788)">
            <g transform="matrix(75,0,0,75,492.495,228.499)">
                <path d="M0.165,-0.153C0.147,-0.115 0.142,-0.086 0.15,-0.066C0.158,-0.045 0.18,-0.033 0.217,-0.028L0.234,-0.026L0.234,-0C0.192,-0.002 0.146,-0.002 0.098,-0.002C0.065,-0.002 0.03,-0.002 -0.005,-0L-0.005,-0.026L0.01,-0.029C0.028,-0.032 0.044,-0.037 0.057,-0.044C0.069,-0.052 0.081,-0.063 0.093,-0.079C0.104,-0.094 0.117,-0.116 0.131,-0.145L0.305,-0.497L0.34,-0.497L0.547,-0.088C0.554,-0.073 0.561,-0.062 0.567,-0.054C0.573,-0.046 0.58,-0.04 0.589,-0.036C0.597,-0.033 0.608,-0.03 0.622,-0.029L0.648,-0.026L0.648,-0C0.605,-0.002 0.568,-0.002 0.539,-0.002L0.538,-0.002L0.538,-0.002C0.492,-0.002 0.437,-0.002 0.373,0L0.373,-0.026L0.401,-0.029C0.418,-0.031 0.43,-0.034 0.437,-0.039C0.444,-0.044 0.448,-0.051 0.447,-0.06C0.447,-0.07 0.442,-0.083 0.434,-0.099L0.277,-0.414L0.297,-0.422L0.165,-0.153ZM0.172,-0.194L0.428,-0.194L0.441,-0.168L0.159,-0.168L0.172,-0.194Z" style="fill-rule:nonzero;"/>
            </g>
            <g transform="matrix(75,0,0,75,492.495,228.499)">
            </g>
            <g transform="matrix(75,0,0,75,544.668,228.499)">
                <path d="M0.138,-0.395C0.138,-0.412 0.136,-0.425 0.133,-0.433C0.13,-0.442 0.124,-0.448 0.115,-0.452C0.106,-0.456 0.093,-0.459 0.074,-0.461L0.045,-0.464L0.045,-0.49C0.053,-0.49 0.06,-0.49 0.066,-0.49C0.106,-0.489 0.143,-0.488 0.179,-0.488L0.192,-0.488C0.218,-0.488 0.238,-0.489 0.252,-0.49L0.518,-0.155L0.528,-0.155L0.528,-0.395C0.528,-0.412 0.527,-0.424 0.524,-0.433C0.521,-0.442 0.515,-0.448 0.506,-0.452C0.497,-0.456 0.484,-0.459 0.465,-0.461L0.433,-0.464L0.433,-0.49C0.478,-0.489 0.514,-0.488 0.542,-0.488C0.574,-0.488 0.61,-0.489 0.649,-0.49L0.649,-0.464L0.619,-0.461C0.6,-0.459 0.587,-0.456 0.578,-0.452C0.57,-0.448 0.564,-0.442 0.561,-0.433C0.558,-0.425 0.556,-0.412 0.556,-0.395L0.556,0.007L0.523,0.007L0.176,-0.428L0.166,-0.428L0.166,-0.202L0.138,-0.202L0.138,-0.395ZM0.166,-0.096C0.166,-0.079 0.167,-0.066 0.171,-0.057C0.174,-0.049 0.18,-0.043 0.189,-0.038C0.198,-0.034 0.212,-0.031 0.231,-0.03L0.266,-0.026L0.266,0C0.22,-0.001 0.182,-0.002 0.152,-0.002C0.12,-0.002 0.084,-0.001 0.045,0L0.045,-0.026L0.075,-0.029C0.094,-0.031 0.107,-0.034 0.116,-0.038C0.124,-0.042 0.13,-0.048 0.133,-0.057C0.137,-0.065 0.138,-0.078 0.138,-0.096L0.138,-0.202L0.166,-0.202L0.166,-0.096Z" style="fill-rule:nonzero;"/>
            </g>
            <g transform="matrix(75,0,0,75,544.668,228.499)">
            </g>
            <g transform="matrix(75,0,0,75,599.744,228.499)">
            </g>
            <g transform="matrix(75,0,0,75,623.634,228.499)">
                <path d="M0.342,0.011C0.284,0.011 0.233,0.001 0.189,-0.019C0.146,-0.04 0.112,-0.069 0.089,-0.108C0.065,-0.146 0.053,-0.191 0.053,-0.242C0.053,-0.294 0.065,-0.339 0.089,-0.378C0.114,-0.417 0.147,-0.448 0.191,-0.469C0.235,-0.491 0.286,-0.502 0.344,-0.502C0.402,-0.502 0.453,-0.491 0.496,-0.471C0.54,-0.45 0.573,-0.421 0.597,-0.383C0.62,-0.345 0.632,-0.3 0.632,-0.248C0.632,-0.196 0.62,-0.151 0.596,-0.112C0.572,-0.073 0.538,-0.042 0.494,-0.021C0.451,0.001 0.4,0.011 0.342,0.011ZM0.345,-0.014C0.382,-0.014 0.414,-0.024 0.442,-0.043C0.47,-0.062 0.491,-0.09 0.506,-0.125C0.521,-0.16 0.529,-0.2 0.529,-0.246C0.529,-0.292 0.521,-0.332 0.505,-0.367C0.489,-0.402 0.467,-0.429 0.438,-0.448C0.41,-0.467 0.378,-0.476 0.341,-0.476C0.304,-0.476 0.272,-0.466 0.244,-0.447C0.216,-0.428 0.195,-0.401 0.179,-0.366C0.164,-0.331 0.157,-0.29 0.157,-0.245C0.157,-0.199 0.165,-0.158 0.181,-0.124C0.197,-0.089 0.219,-0.062 0.248,-0.043C0.276,-0.024 0.309,-0.014 0.345,-0.014Z" style="fill-rule:nonzero;"/>
            </g>
            <g transform="matrix(75,0,0,75,623.634,228.499)">
            </g>
            <g transform="matrix(75,0,0,75,678.045,228.499)">
                <path d="M0.179,-0.002C0.139,-0.002 0.095,-0.002 0.045,-0L0.045,-0.026L0.075,-0.029C0.093,-0.031 0.106,-0.035 0.115,-0.038C0.124,-0.042 0.13,-0.049 0.133,-0.057C0.137,-0.066 0.138,-0.079 0.138,-0.096L0.138,-0.395C0.138,-0.412 0.137,-0.425 0.134,-0.433C0.13,-0.442 0.124,-0.448 0.116,-0.452C0.107,-0.456 0.094,-0.459 0.075,-0.461L0.045,-0.464L0.045,-0.49C0.098,-0.489 0.146,-0.488 0.189,-0.488C0.208,-0.488 0.229,-0.489 0.251,-0.489C0.265,-0.49 0.279,-0.49 0.293,-0.49L0.323,-0.49C0.391,-0.49 0.443,-0.478 0.48,-0.453C0.516,-0.429 0.534,-0.393 0.534,-0.347C0.534,-0.314 0.525,-0.286 0.506,-0.263C0.488,-0.239 0.461,-0.221 0.426,-0.208C0.391,-0.196 0.35,-0.19 0.301,-0.19C0.282,-0.19 0.265,-0.191 0.249,-0.192C0.233,-0.194 0.218,-0.197 0.204,-0.2L0.204,-0.227C0.217,-0.223 0.23,-0.221 0.244,-0.219C0.258,-0.218 0.273,-0.217 0.287,-0.217C0.334,-0.217 0.37,-0.228 0.394,-0.249C0.418,-0.271 0.43,-0.303 0.43,-0.345C0.43,-0.385 0.42,-0.414 0.399,-0.434C0.379,-0.453 0.347,-0.463 0.305,-0.463L0.236,-0.463L0.236,-0.096C0.236,-0.079 0.238,-0.066 0.241,-0.058C0.244,-0.049 0.25,-0.043 0.259,-0.039C0.268,-0.035 0.281,-0.032 0.299,-0.03L0.348,-0.026L0.348,-0C0.288,-0.002 0.237,-0.002 0.193,-0.002L0.179,-0.002Z" style="fill-rule:nonzero;"/>
            </g>
            <g transform="matrix(75,0,0,75,678.045,228.499)">
            </g>
            <g transform="matrix(75,0,0,75,723.564,228.499)">
                <path d="M0.179,-0.002C0.139,-0.002 0.095,-0.002 0.045,-0L0.045,-0.026L0.074,-0.029C0.093,-0.031 0.106,-0.035 0.115,-0.038C0.124,-0.042 0.13,-0.049 0.133,-0.057C0.136,-0.066 0.138,-0.079 0.138,-0.096L0.138,-0.395C0.138,-0.412 0.136,-0.425 0.133,-0.433C0.13,-0.442 0.124,-0.448 0.115,-0.452C0.106,-0.456 0.093,-0.459 0.074,-0.461L0.045,-0.464L0.045,-0.49C0.095,-0.489 0.139,-0.488 0.179,-0.488L0.314,-0.488C0.396,-0.488 0.46,-0.489 0.506,-0.49C0.505,-0.441 0.508,-0.387 0.514,-0.329L0.486,-0.329C0.476,-0.365 0.464,-0.392 0.45,-0.411C0.436,-0.429 0.418,-0.443 0.397,-0.45C0.376,-0.458 0.347,-0.462 0.312,-0.462L0.236,-0.462L0.236,-0.091C0.236,-0.073 0.237,-0.059 0.24,-0.051C0.243,-0.042 0.249,-0.036 0.258,-0.033C0.266,-0.03 0.28,-0.029 0.298,-0.029L0.33,-0.029C0.367,-0.029 0.396,-0.033 0.419,-0.043C0.442,-0.052 0.462,-0.068 0.477,-0.09C0.493,-0.113 0.507,-0.145 0.521,-0.186L0.548,-0.186C0.54,-0.121 0.536,-0.058 0.537,-0C0.489,-0.002 0.421,-0.002 0.334,-0.002L0.179,-0.002ZM0.198,-0.26L0.365,-0.26L0.365,-0.234L0.198,-0.234L0.198,-0.26ZM0.379,-0.138C0.376,-0.161 0.371,-0.18 0.364,-0.194C0.357,-0.208 0.346,-0.218 0.334,-0.224C0.321,-0.23 0.304,-0.234 0.283,-0.234L0.283,-0.26C0.312,-0.26 0.334,-0.268 0.349,-0.283C0.364,-0.298 0.373,-0.322 0.378,-0.355L0.405,-0.355C0.402,-0.32 0.401,-0.29 0.401,-0.264L0.401,-0.247C0.401,-0.216 0.403,-0.18 0.406,-0.138L0.379,-0.138Z" style="fill-rule:nonzero;"/>
            </g>
            <g transform="matrix(75,0,0,75,723.564,228.499)">
            </g>
            <g transform="matrix(75,0,0,75,771.019,228.499)">
                <path d="M0.138,-0.395C0.138,-0.412 0.136,-0.425 0.133,-0.433C0.13,-0.442 0.124,-0.448 0.115,-0.452C0.106,-0.456 0.093,-0.459 0.074,-0.461L0.045,-0.464L0.045,-0.49C0.053,-0.49 0.06,-0.49 0.066,-0.49C0.106,-0.489 0.143,-0.488 0.179,-0.488L0.192,-0.488C0.218,-0.488 0.238,-0.489 0.252,-0.49L0.518,-0.155L0.528,-0.155L0.528,-0.395C0.528,-0.412 0.527,-0.424 0.524,-0.433C0.521,-0.442 0.515,-0.448 0.506,-0.452C0.497,-0.456 0.484,-0.459 0.465,-0.461L0.433,-0.464L0.433,-0.49C0.478,-0.489 0.514,-0.488 0.542,-0.488C0.574,-0.488 0.61,-0.489 0.649,-0.49L0.649,-0.464L0.619,-0.461C0.6,-0.459 0.587,-0.456 0.578,-0.452C0.57,-0.448 0.564,-0.442 0.561,-0.433C0.558,-0.425 0.556,-0.412 0.556,-0.395L0.556,0.007L0.523,0.007L0.176,-0.428L0.166,-0.428L0.166,-0.202L0.138,-0.202L0.138,-0.395ZM0.166,-0.096C0.166,-0.079 0.167,-0.066 0.171,-0.057C0.174,-0.049 0.18,-0.043 0.189,-0.038C0.198,-0.034 0.212,-0.031 0.231,-0.03L0.266,-0.026L0.266,0C0.22,-0.001 0.182,-0.002 0.152,-0.002C0.12,-0.002 0.084,-0.001 0.045,0L0.045,-0.026L0.075,-0.029C0.094,-0.031 0.107,-0.034 0.116,-0.038C0.124,-0.042 0.13,-0.048 0.133,-0.057C0.137,-0.065 0.138,-0.078 0.138,-0.096L0.138,-0.202L0.166,-0.202L0.166,-0.096Z" style="fill-rule:nonzero;"/>
            </g>
            <g transform="matrix(75,0,0,75,771.019,228.499)">
            </g>
            <g transform="matrix(75,0,0,75,826.095,228.499)">
            </g>
            <g transform="matrix(75,0,0,75,849.985,228.499)">
                <path d="M0.299,0.011C0.27,0.011 0.244,0.009 0.223,0.004C0.202,-0.001 0.18,-0.008 0.157,-0.016C0.149,-0.019 0.142,-0.022 0.134,-0.024C0.127,-0.026 0.121,-0.027 0.116,-0.027C0.108,-0.027 0.102,-0.024 0.098,-0.019C0.094,-0.013 0.09,-0.004 0.088,0.008L0.061,0.008C0.062,-0.012 0.063,-0.038 0.064,-0.07C0.064,-0.102 0.064,-0.142 0.064,-0.191L0.092,-0.191C0.098,-0.154 0.109,-0.122 0.126,-0.096C0.142,-0.07 0.164,-0.05 0.191,-0.037C0.217,-0.023 0.248,-0.017 0.284,-0.017C0.323,-0.017 0.353,-0.024 0.375,-0.04C0.397,-0.055 0.409,-0.076 0.409,-0.103C0.409,-0.12 0.404,-0.134 0.394,-0.146C0.385,-0.158 0.369,-0.169 0.348,-0.18C0.326,-0.19 0.296,-0.2 0.258,-0.21C0.215,-0.221 0.18,-0.234 0.153,-0.249C0.126,-0.263 0.106,-0.28 0.093,-0.299C0.08,-0.319 0.074,-0.341 0.074,-0.366C0.074,-0.408 0.09,-0.441 0.121,-0.465C0.153,-0.49 0.196,-0.502 0.251,-0.502C0.278,-0.502 0.301,-0.499 0.32,-0.494C0.339,-0.49 0.359,-0.483 0.38,-0.475C0.387,-0.471 0.395,-0.469 0.402,-0.466C0.409,-0.464 0.415,-0.463 0.42,-0.463C0.428,-0.463 0.434,-0.466 0.438,-0.471C0.443,-0.476 0.446,-0.485 0.448,-0.498L0.476,-0.498C0.474,-0.48 0.473,-0.458 0.472,-0.435C0.471,-0.411 0.471,-0.376 0.471,-0.329L0.444,-0.329C0.439,-0.359 0.428,-0.384 0.412,-0.406C0.396,-0.428 0.376,-0.445 0.351,-0.457C0.326,-0.468 0.298,-0.474 0.267,-0.474C0.233,-0.474 0.207,-0.468 0.187,-0.454C0.168,-0.441 0.158,-0.422 0.158,-0.399C0.158,-0.383 0.163,-0.369 0.173,-0.357C0.183,-0.345 0.2,-0.334 0.223,-0.324C0.246,-0.313 0.277,-0.303 0.317,-0.292C0.36,-0.28 0.395,-0.267 0.422,-0.252C0.448,-0.238 0.467,-0.221 0.48,-0.202C0.492,-0.183 0.498,-0.16 0.498,-0.135C0.498,-0.09 0.481,-0.054 0.445,-0.028C0.41,-0.002 0.361,0.011 0.299,0.011Z" style="fill-rule:nonzero;"/>
            </g>
            <g transform="matrix(75,0,0,75,849.985,228.499)">
            </g>
            <g transform="matrix(75,0,0,75,894.356,228.499)">
                <path d="M0.342,0.011C0.284,0.011 0.233,0.001 0.189,-0.019C0.146,-0.04 0.112,-0.069 0.089,-0.108C0.065,-0.146 0.053,-0.191 0.053,-0.242C0.053,-0.294 0.065,-0.339 0.089,-0.378C0.114,-0.417 0.147,-0.448 0.191,-0.469C0.235,-0.491 0.286,-0.502 0.344,-0.502C0.402,-0.502 0.453,-0.491 0.496,-0.471C0.54,-0.45 0.573,-0.421 0.597,-0.383C0.62,-0.345 0.632,-0.3 0.632,-0.248C0.632,-0.196 0.62,-0.151 0.596,-0.112C0.572,-0.073 0.538,-0.042 0.494,-0.021C0.451,0.001 0.4,0.011 0.342,0.011ZM0.345,-0.014C0.382,-0.014 0.414,-0.024 0.442,-0.043C0.47,-0.062 0.491,-0.09 0.506,-0.125C0.521,-0.16 0.529,-0.2 0.529,-0.246C0.529,-0.292 0.521,-0.332 0.505,-0.367C0.489,-0.402 0.467,-0.429 0.438,-0.448C0.41,-0.467 0.378,-0.476 0.341,-0.476C0.304,-0.476 0.272,-0.466 0.244,-0.447C0.216,-0.428 0.195,-0.401 0.179,-0.366C0.164,-0.331 0.157,-0.29 0.157,-0.245C0.157,-0.199 0.165,-0.158 0.181,-0.124C0.197,-0.089 0.219,-0.062 0.248,-0.043C0.276,-0.024 0.309,-0.014 0.345,-0.014Z" style="fill-rule:nonzero;"/>
            </g>
            <g transform="matrix(75,0,0,75,894.356,228.499)">
            </g>
            <g transform="matrix(75,0,0,75,948.766,228.499)">
                <path d="M0.138,-0.395C0.138,-0.412 0.136,-0.425 0.133,-0.433C0.13,-0.442 0.124,-0.448 0.115,-0.452C0.106,-0.456 0.093,-0.459 0.074,-0.461L0.045,-0.464L0.045,-0.49C0.095,-0.489 0.139,-0.488 0.179,-0.488L0.193,-0.488C0.227,-0.488 0.267,-0.489 0.313,-0.49L0.313,-0.464L0.292,-0.462C0.275,-0.459 0.264,-0.456 0.256,-0.452C0.248,-0.448 0.243,-0.442 0.24,-0.433C0.237,-0.425 0.236,-0.412 0.236,-0.395L0.236,-0.345L0.138,-0.345L0.138,-0.395ZM0.359,0.011C0.311,0.011 0.27,0.003 0.238,-0.014C0.205,-0.031 0.18,-0.057 0.163,-0.09C0.146,-0.123 0.138,-0.165 0.138,-0.214L0.138,-0.345L0.236,-0.345L0.236,-0.211C0.236,-0.168 0.241,-0.132 0.251,-0.105C0.262,-0.078 0.278,-0.057 0.3,-0.044C0.322,-0.031 0.35,-0.025 0.384,-0.025C0.434,-0.025 0.472,-0.04 0.497,-0.07C0.523,-0.101 0.536,-0.147 0.536,-0.207L0.536,-0.345L0.563,-0.345L0.563,-0.207C0.563,-0.134 0.546,-0.08 0.512,-0.043C0.478,-0.007 0.427,0.011 0.359,0.011ZM0.536,-0.395C0.536,-0.412 0.535,-0.425 0.532,-0.434C0.529,-0.442 0.524,-0.449 0.516,-0.453C0.508,-0.457 0.496,-0.46 0.48,-0.462L0.455,-0.464L0.455,-0.49C0.491,-0.489 0.522,-0.488 0.549,-0.488C0.582,-0.488 0.618,-0.489 0.656,-0.49L0.656,-0.464L0.626,-0.461C0.608,-0.459 0.594,-0.456 0.586,-0.452C0.577,-0.448 0.571,-0.442 0.568,-0.433C0.565,-0.425 0.563,-0.412 0.563,-0.395L0.563,-0.345L0.536,-0.345L0.536,-0.395Z" style="fill-rule:nonzero;"/>
            </g>
            <g transform="matrix(75,0,0,75,948.766,228.499)">
            </g>
            <g transform="matrix(75,0,0,75,1004.39,228.499)">
                <path d="M0.138,-0.395C0.138,-0.412 0.137,-0.425 0.133,-0.433C0.13,-0.442 0.124,-0.448 0.116,-0.452C0.107,-0.456 0.094,-0.459 0.075,-0.461L0.045,-0.464L0.045,-0.49C0.098,-0.489 0.146,-0.488 0.189,-0.488C0.208,-0.488 0.228,-0.489 0.251,-0.489C0.265,-0.49 0.279,-0.49 0.293,-0.49L0.323,-0.49C0.39,-0.49 0.442,-0.48 0.478,-0.458C0.514,-0.437 0.531,-0.406 0.531,-0.365C0.531,-0.337 0.522,-0.313 0.503,-0.292C0.484,-0.272 0.457,-0.256 0.421,-0.245C0.385,-0.234 0.342,-0.228 0.293,-0.228L0.214,-0.228L0.214,-0.247L0.298,-0.247C0.341,-0.247 0.375,-0.256 0.398,-0.276C0.421,-0.295 0.433,-0.322 0.433,-0.359C0.433,-0.393 0.422,-0.419 0.402,-0.437C0.381,-0.454 0.35,-0.463 0.308,-0.463L0.236,-0.463L0.236,-0.202L0.138,-0.202L0.138,-0.395ZM0.526,0.011C0.505,0.011 0.488,0.008 0.474,0.002C0.46,-0.005 0.448,-0.015 0.439,-0.029C0.429,-0.043 0.421,-0.061 0.414,-0.084L0.398,-0.139C0.392,-0.161 0.385,-0.178 0.377,-0.189C0.369,-0.201 0.359,-0.209 0.346,-0.214C0.334,-0.218 0.317,-0.221 0.295,-0.221L0.209,-0.221L0.209,-0.24L0.281,-0.24C0.33,-0.24 0.369,-0.237 0.397,-0.231C0.425,-0.225 0.448,-0.215 0.464,-0.2C0.481,-0.184 0.494,-0.162 0.503,-0.133L0.517,-0.09C0.524,-0.07 0.531,-0.056 0.539,-0.048C0.547,-0.04 0.558,-0.036 0.571,-0.036C0.579,-0.036 0.586,-0.037 0.593,-0.04C0.599,-0.043 0.606,-0.048 0.614,-0.055L0.626,-0.038C0.612,-0.021 0.597,-0.008 0.581,-0.001C0.565,0.007 0.546,0.011 0.526,0.011ZM0.179,-0.002C0.139,-0.002 0.095,-0.002 0.045,-0L0.045,-0.026L0.075,-0.029C0.093,-0.031 0.106,-0.035 0.115,-0.038C0.124,-0.042 0.13,-0.049 0.133,-0.057C0.136,-0.066 0.138,-0.079 0.138,-0.096L0.138,-0.202L0.236,-0.202L0.236,-0.096C0.236,-0.078 0.237,-0.065 0.24,-0.057C0.243,-0.048 0.248,-0.042 0.256,-0.038C0.264,-0.034 0.275,-0.031 0.292,-0.029L0.313,-0.026L0.313,-0C0.267,-0.002 0.227,-0.002 0.193,-0.002L0.179,-0.002Z" style="fill-rule:nonzero;"/>
            </g>
            <g transform="matrix(75,0,0,75,1004.39,228.499)">
            </g>
            <g transform="matrix(75,0,0,75,1053.84,228.499)">
                <path d="M0.324,0.011C0.269,0.011 0.222,0.001 0.181,-0.019C0.14,-0.04 0.109,-0.069 0.086,-0.107C0.064,-0.145 0.053,-0.19 0.053,-0.241C0.053,-0.293 0.065,-0.338 0.087,-0.378C0.11,-0.417 0.142,-0.448 0.183,-0.469C0.224,-0.491 0.271,-0.502 0.325,-0.502C0.357,-0.502 0.384,-0.498 0.407,-0.492C0.43,-0.485 0.453,-0.476 0.476,-0.465C0.486,-0.461 0.494,-0.458 0.501,-0.455C0.508,-0.452 0.514,-0.451 0.52,-0.451C0.528,-0.451 0.534,-0.455 0.539,-0.462C0.544,-0.47 0.547,-0.482 0.55,-0.498L0.577,-0.498C0.576,-0.481 0.575,-0.457 0.574,-0.426C0.574,-0.396 0.573,-0.356 0.573,-0.308L0.546,-0.308C0.534,-0.361 0.51,-0.401 0.474,-0.43C0.439,-0.459 0.395,-0.474 0.344,-0.474C0.305,-0.474 0.272,-0.465 0.243,-0.447C0.215,-0.428 0.194,-0.402 0.179,-0.368C0.164,-0.334 0.157,-0.293 0.157,-0.246C0.157,-0.198 0.164,-0.157 0.179,-0.123C0.194,-0.088 0.216,-0.062 0.245,-0.044C0.273,-0.025 0.307,-0.016 0.347,-0.016C0.4,-0.016 0.443,-0.031 0.477,-0.06C0.512,-0.089 0.534,-0.132 0.546,-0.188L0.573,-0.188C0.573,-0.138 0.574,-0.097 0.574,-0.066C0.575,-0.034 0.576,-0.01 0.577,0.008L0.55,0.008C0.547,-0.009 0.544,-0.021 0.539,-0.028C0.535,-0.035 0.528,-0.039 0.52,-0.039C0.515,-0.039 0.509,-0.038 0.502,-0.035C0.495,-0.032 0.487,-0.029 0.477,-0.025C0.454,-0.014 0.431,-0.005 0.408,0.002C0.386,0.008 0.358,0.011 0.324,0.011Z" style="fill-rule:nonzero;"/>
            </g>
            <g transform="matrix(75,0,0,75,1053.84,228.499)">
            </g>
            <g transform="matrix(75,0,0,75,1105.47,228.499)">
                <path d="M0.179,-0.002C0.139,-0.002 0.095,-0.002 0.045,-0L0.045,-0.026L0.074,-0.029C0.093,-0.031 0.106,-0.035 0.115,-0.038C0.124,-0.042 0.13,-0.049 0.133,-0.057C0.136,-0.066 0.138,-0.079 0.138,-0.096L0.138,-0.395C0.138,-0.412 0.136,-0.425 0.133,-0.433C0.13,-0.442 0.124,-0.448 0.115,-0.452C0.106,-0.456 0.093,-0.459 0.074,-0.461L0.045,-0.464L0.045,-0.49C0.095,-0.489 0.139,-0.488 0.179,-0.488L0.314,-0.488C0.396,-0.488 0.46,-0.489 0.506,-0.49C0.505,-0.441 0.508,-0.387 0.514,-0.329L0.486,-0.329C0.476,-0.365 0.464,-0.392 0.45,-0.411C0.436,-0.429 0.418,-0.443 0.397,-0.45C0.376,-0.458 0.347,-0.462 0.312,-0.462L0.236,-0.462L0.236,-0.091C0.236,-0.073 0.237,-0.059 0.24,-0.051C0.243,-0.042 0.249,-0.036 0.258,-0.033C0.266,-0.03 0.28,-0.029 0.298,-0.029L0.33,-0.029C0.367,-0.029 0.396,-0.033 0.419,-0.043C0.442,-0.052 0.462,-0.068 0.477,-0.09C0.493,-0.113 0.507,-0.145 0.521,-0.186L0.548,-0.186C0.54,-0.121 0.536,-0.058 0.537,-0C0.489,-0.002 0.421,-0.002 0.334,-0.002L0.179,-0.002ZM0.198,-0.26L0.365,-0.26L0.365,-0.234L0.198,-0.234L0.198,-0.26ZM0.379,-0.138C0.376,-0.161 0.371,-0.18 0.364,-0.194C0.357,-0.208 0.346,-0.218 0.334,-0.224C0.321,-0.23 0.304,-0.234 0.283,-0.234L0.283,-0.26C0.312,-0.26 0.334,-0.268 0.349,-0.283C0.364,-0.298 0.373,-0.322 0.378,-0.355L0.405,-0.355C0.402,-0.32 0.401,-0.29 0.401,-0.264L0.401,-0.247C0.401,-0.216 0.403,-0.18 0.406,-0.138L0.379,-0.138Z" style="fill-rule:nonzero;"/>
            </g>
            <g transform="matrix(75,0,0,75,1105.47,228.499)">
            </g>
            <g transform="matrix(75,0,0,75,1152.92,228.499)">
            </g>
            <g transform="matrix(75,0,0,75,1176.81,228.499)">
                <path d="M0.179,-0.002C0.139,-0.002 0.095,-0.002 0.045,-0L0.045,-0.026L0.074,-0.029C0.093,-0.031 0.106,-0.035 0.115,-0.038C0.124,-0.042 0.13,-0.049 0.133,-0.057C0.136,-0.066 0.138,-0.079 0.138,-0.096L0.138,-0.395C0.138,-0.412 0.136,-0.425 0.133,-0.433C0.13,-0.442 0.124,-0.448 0.115,-0.452C0.106,-0.456 0.093,-0.459 0.074,-0.461L0.045,-0.464L0.045,-0.49C0.095,-0.489 0.139,-0.488 0.179,-0.488L0.191,-0.488C0.238,-0.488 0.294,-0.489 0.361,-0.49L0.361,-0.464L0.3,-0.459C0.282,-0.457 0.268,-0.454 0.259,-0.45C0.25,-0.447 0.244,-0.44 0.241,-0.432C0.237,-0.424 0.236,-0.411 0.236,-0.395L0.236,-0.091C0.236,-0.073 0.237,-0.059 0.24,-0.051C0.243,-0.042 0.249,-0.036 0.257,-0.033C0.266,-0.03 0.279,-0.029 0.297,-0.029L0.323,-0.029C0.36,-0.029 0.39,-0.034 0.413,-0.044C0.436,-0.054 0.455,-0.071 0.471,-0.095C0.487,-0.119 0.502,-0.153 0.516,-0.198L0.544,-0.198C0.535,-0.128 0.531,-0.062 0.531,-0C0.482,-0.002 0.412,-0.002 0.323,-0.002L0.179,-0.002Z" style="fill-rule:nonzero;"/>
            </g>
            <g transform="matrix(75,0,0,75,1176.81,228.499)">
            </g>
            <g transform="matrix(75,0,0,75,1222.87,228.499)">
                <path d="M0.179,-0.002C0.139,-0.002 0.095,-0.002 0.045,-0L0.045,-0.026L0.074,-0.029C0.093,-0.031 0.106,-0.035 0.115,-0.038C0.124,-0.042 0.13,-0.049 0.133,-0.057C0.136,-0.066 0.138,-0.079 0.138,-0.096L0.138,-0.395C0.138,-0.412 0.136,-0.425 0.133,-0.433C0.13,-0.442 0.124,-0.448 0.115,-0.452C0.106,-0.456 0.093,-0.459 0.074,-0.461L0.045,-0.464L0.045,-0.49C0.095,-0.489 0.139,-0.488 0.179,-0.488L0.195,-0.488C0.235,-0.488 0.279,-0.489 0.329,-0.49L0.329,-0.464L0.299,-0.461C0.281,-0.459 0.268,-0.456 0.259,-0.452C0.25,-0.448 0.244,-0.442 0.241,-0.433C0.237,-0.425 0.236,-0.412 0.236,-0.395L0.236,-0.096C0.236,-0.079 0.237,-0.066 0.241,-0.057C0.244,-0.049 0.25,-0.042 0.259,-0.038C0.268,-0.035 0.281,-0.031 0.299,-0.029L0.329,-0.026L0.329,-0C0.279,-0.002 0.235,-0.002 0.195,-0.002L0.179,-0.002Z" style="fill-rule:nonzero;"/>
            </g>
            <g transform="matrix(75,0,0,75,1222.87,228.499)">
            </g>
            <g transform="matrix(75,0,0,75,1253.94,228.499)">
                <path d="M0.324,0.011C0.269,0.011 0.222,0.001 0.181,-0.019C0.14,-0.04 0.109,-0.069 0.086,-0.107C0.064,-0.145 0.053,-0.19 0.053,-0.241C0.053,-0.293 0.065,-0.338 0.087,-0.378C0.11,-0.417 0.142,-0.448 0.183,-0.469C0.224,-0.491 0.271,-0.502 0.325,-0.502C0.357,-0.502 0.384,-0.498 0.407,-0.492C0.43,-0.485 0.453,-0.476 0.476,-0.465C0.486,-0.461 0.494,-0.458 0.501,-0.455C0.508,-0.452 0.514,-0.451 0.52,-0.451C0.528,-0.451 0.534,-0.455 0.539,-0.462C0.544,-0.47 0.547,-0.482 0.55,-0.498L0.577,-0.498C0.576,-0.481 0.575,-0.457 0.574,-0.426C0.574,-0.396 0.573,-0.356 0.573,-0.308L0.546,-0.308C0.534,-0.361 0.51,-0.401 0.474,-0.43C0.439,-0.459 0.395,-0.474 0.344,-0.474C0.305,-0.474 0.272,-0.465 0.243,-0.447C0.215,-0.428 0.194,-0.402 0.179,-0.368C0.164,-0.334 0.157,-0.293 0.157,-0.246C0.157,-0.198 0.164,-0.157 0.179,-0.123C0.194,-0.088 0.216,-0.062 0.245,-0.044C0.273,-0.025 0.307,-0.016 0.347,-0.016C0.4,-0.016 0.443,-0.031 0.477,-0.06C0.512,-0.089 0.534,-0.132 0.546,-0.188L0.573,-0.188C0.573,-0.138 0.574,-0.097 0.574,-0.066C0.575,-0.034 0.576,-0.01 0.577,0.008L0.55,0.008C0.547,-0.009 0.544,-0.021 0.539,-0.028C0.535,-0.035 0.528,-0.039 0.52,-0.039C0.515,-0.039 0.509,-0.038 0.502,-0.035C0.495,-0.032 0.487,-0.029 0.477,-0.025C0.454,-0.014 0.431,-0.005 0.408,0.002C0.386,0.008 0.358,0.011 0.324,0.011Z" style="fill-rule:nonzero;"/>
            </g>
            <g transform="matrix(75,0,0,75,1253.94,228.499)">
            </g>
            <g transform="matrix(75,0,0,75,1305.57,228.499)">
                <path d="M0.179,-0.002C0.139,-0.002 0.095,-0.002 0.045,-0L0.045,-0.026L0.074,-0.029C0.093,-0.031 0.106,-0.035 0.115,-0.038C0.124,-0.042 0.13,-0.049 0.133,-0.057C0.136,-0.066 0.138,-0.079 0.138,-0.096L0.138,-0.395C0.138,-0.412 0.136,-0.425 0.133,-0.433C0.13,-0.442 0.124,-0.448 0.115,-0.452C0.106,-0.456 0.093,-0.459 0.074,-0.461L0.045,-0.464L0.045,-0.49C0.095,-0.489 0.139,-0.488 0.179,-0.488L0.314,-0.488C0.396,-0.488 0.46,-0.489 0.506,-0.49C0.505,-0.441 0.508,-0.387 0.514,-0.329L0.486,-0.329C0.476,-0.365 0.464,-0.392 0.45,-0.411C0.436,-0.429 0.418,-0.443 0.397,-0.45C0.376,-0.458 0.347,-0.462 0.312,-0.462L0.236,-0.462L0.236,-0.091C0.236,-0.073 0.237,-0.059 0.24,-0.051C0.243,-0.042 0.249,-0.036 0.258,-0.033C0.266,-0.03 0.28,-0.029 0.298,-0.029L0.33,-0.029C0.367,-0.029 0.396,-0.033 0.419,-0.043C0.442,-0.052 0.462,-0.068 0.477,-0.09C0.493,-0.113 0.507,-0.145 0.521,-0.186L0.548,-0.186C0.54,-0.121 0.536,-0.058 0.537,-0C0.489,-0.002 0.421,-0.002 0.334,-0.002L0.179,-0.002ZM0.198,-0.26L0.365,-0.26L0.365,-0.234L0.198,-0.234L0.198,-0.26ZM0.379,-0.138C0.376,-0.161 0.371,-0.18 0.364,-0.194C0.357,-0.208 0.346,-0.218 0.334,-0.224C0.321,-0.23 0.304,-0.234 0.283,-0.234L0.283,-0.26C0.312,-0.26 0.334,-0.268 0.349,-0.283C0.364,-0.298 0.373,-0.322 0.378,-0.355L0.405,-0.355C0.402,-0.32 0.401,-0.29 0.401,-0.264L0.401,-0.247C0.401,-0.216 0.403,-0.18 0.406,-0.138L0.379,-0.138Z" style="fill-rule:nonzero;"/>
            </g>
            <g transform="matrix(75,0,0,75,1305.57,228.499)">
            </g>
            <g transform="matrix(75,0,0,75,1353.02,228.499)">
                <path d="M0.138,-0.395C0.138,-0.412 0.136,-0.425 0.133,-0.433C0.13,-0.442 0.124,-0.448 0.115,-0.452C0.106,-0.456 0.093,-0.459 0.074,-0.461L0.045,-0.464L0.045,-0.49C0.053,-0.49 0.06,-0.49 0.066,-0.49C0.106,-0.489 0.143,-0.488 0.179,-0.488L0.192,-0.488C0.218,-0.488 0.238,-0.489 0.252,-0.49L0.518,-0.155L0.528,-0.155L0.528,-0.395C0.528,-0.412 0.527,-0.424 0.524,-0.433C0.521,-0.442 0.515,-0.448 0.506,-0.452C0.497,-0.456 0.484,-0.459 0.465,-0.461L0.433,-0.464L0.433,-0.49C0.478,-0.489 0.514,-0.488 0.542,-0.488C0.574,-0.488 0.61,-0.489 0.649,-0.49L0.649,-0.464L0.619,-0.461C0.6,-0.459 0.587,-0.456 0.578,-0.452C0.57,-0.448 0.564,-0.442 0.561,-0.433C0.558,-0.425 0.556,-0.412 0.556,-0.395L0.556,0.007L0.523,0.007L0.176,-0.428L0.166,-0.428L0.166,-0.202L0.138,-0.202L0.138,-0.395ZM0.166,-0.096C0.166,-0.079 0.167,-0.066 0.171,-0.057C0.174,-0.049 0.18,-0.043 0.189,-0.038C0.198,-0.034 0.212,-0.031 0.231,-0.03L0.266,-0.026L0.266,0C0.22,-0.001 0.182,-0.002 0.152,-0.002C0.12,-0.002 0.084,-0.001 0.045,0L0.045,-0.026L0.075,-0.029C0.094,-0.031 0.107,-0.034 0.116,-0.038C0.124,-0.042 0.13,-0.048 0.133,-0.057C0.137,-0.065 0.138,-0.078 0.138,-0.096L0.138,-0.202L0.166,-0.202L0.166,-0.096Z" style="fill-rule:nonzero;"/>
            </g>
            <g transform="matrix(75,0,0,75,1353.02,228.499)">
            </g>
            <g transform="matrix(75,0,0,75,1408.1,228.499)">
                <path d="M0.299,0.011C0.27,0.011 0.244,0.009 0.223,0.004C0.202,-0.001 0.18,-0.008 0.157,-0.016C0.149,-0.019 0.142,-0.022 0.134,-0.024C0.127,-0.026 0.121,-0.027 0.116,-0.027C0.108,-0.027 0.102,-0.024 0.098,-0.019C0.094,-0.013 0.09,-0.004 0.088,0.008L0.061,0.008C0.062,-0.012 0.063,-0.038 0.064,-0.07C0.064,-0.102 0.064,-0.142 0.064,-0.191L0.092,-0.191C0.098,-0.154 0.109,-0.122 0.126,-0.096C0.142,-0.07 0.164,-0.05 0.191,-0.037C0.217,-0.023 0.248,-0.017 0.284,-0.017C0.323,-0.017 0.353,-0.024 0.375,-0.04C0.397,-0.055 0.409,-0.076 0.409,-0.103C0.409,-0.12 0.404,-0.134 0.394,-0.146C0.385,-0.158 0.369,-0.169 0.348,-0.18C0.326,-0.19 0.296,-0.2 0.258,-0.21C0.215,-0.221 0.18,-0.234 0.153,-0.249C0.126,-0.263 0.106,-0.28 0.093,-0.299C0.08,-0.319 0.074,-0.341 0.074,-0.366C0.074,-0.408 0.09,-0.441 0.121,-0.465C0.153,-0.49 0.196,-0.502 0.251,-0.502C0.278,-0.502 0.301,-0.499 0.32,-0.494C0.339,-0.49 0.359,-0.483 0.38,-0.475C0.387,-0.471 0.395,-0.469 0.402,-0.466C0.409,-0.464 0.415,-0.463 0.42,-0.463C0.428,-0.463 0.434,-0.466 0.438,-0.471C0.443,-0.476 0.446,-0.485 0.448,-0.498L0.476,-0.498C0.474,-0.48 0.473,-0.458 0.472,-0.435C0.471,-0.411 0.471,-0.376 0.471,-0.329L0.444,-0.329C0.439,-0.359 0.428,-0.384 0.412,-0.406C0.396,-0.428 0.376,-0.445 0.351,-0.457C0.326,-0.468 0.298,-0.474 0.267,-0.474C0.233,-0.474 0.207,-0.468 0.187,-0.454C0.168,-0.441 0.158,-0.422 0.158,-0.399C0.158,-0.383 0.163,-0.369 0.173,-0.357C0.183,-0.345 0.2,-0.334 0.223,-0.324C0.246,-0.313 0.277,-0.303 0.317,-0.292C0.36,-0.28 0.395,-0.267 0.422,-0.252C0.448,-0.238 0.467,-0.221 0.48,-0.202C0.492,-0.183 0.498,-0.16 0.498,-0.135C0.498,-0.09 0.481,-0.054 0.445,-0.028C0.41,-0.002 0.361,0.011 0.299,0.011Z" style="fill-rule:nonzero;"/>
            </g>
            <g transform="matrix(75,0,0,75,1408.1,228.499)">
            </g>
            <g transform="matrix(75,0,0,75,1452.47,228.499)">
                <path d="M0.179,-0.002C0.139,-0.002 0.095,-0.002 0.045,-0L0.045,-0.026L0.074,-0.029C0.093,-0.031 0.106,-0.035 0.115,-0.038C0.124,-0.042 0.13,-0.049 0.133,-0.057C0.136,-0.066 0.138,-0.079 0.138,-0.096L0.138,-0.395C0.138,-0.412 0.136,-0.425 0.133,-0.433C0.13,-0.442 0.124,-0.448 0.115,-0.452C0.106,-0.456 0.093,-0.459 0.074,-0.461L0.045,-0.464L0.045,-0.49C0.095,-0.489 0.139,-0.488 0.179,-0.488L0.314,-0.488C0.396,-0.488 0.46,-0.489 0.506,-0.49C0.505,-0.441 0.508,-0.387 0.514,-0.329L0.486,-0.329C0.476,-0.365 0.464,-0.392 0.45,-0.411C0.436,-0.429 0.418,-0.443 0.397,-0.45C0.376,-0.458 0.347,-0.462 0.312,-0.462L0.236,-0.462L0.236,-0.091C0.236,-0.073 0.237,-0.059 0.24,-0.051C0.243,-0.042 0.249,-0.036 0.258,-0.033C0.266,-0.03 0.28,-0.029 0.298,-0.029L0.33,-0.029C0.367,-0.029 0.396,-0.033 0.419,-0.043C0.442,-0.052 0.462,-0.068 0.477,-0.09C0.493,-0.113 0.507,-0.145 0.521,-0.186L0.548,-0.186C0.54,-0.121 0.536,-0.058 0.537,-0C0.489,-0.002 0.421,-0.002 0.334,-0.002L0.179,-0.002ZM0.198,-0.26L0.365,-0.26L0.365,-0.234L0.198,-0.234L0.198,-0.26ZM0.379,-0.138C0.376,-0.161 0.371,-0.18 0.364,-0.194C0.357,-0.208 0.346,-0.218 0.334,-0.224C0.321,-0.23 0.304,-0.234 0.283,-0.234L0.283,-0.26C0.312,-0.26 0.334,-0.268 0.349,-0.283C0.364,-0.298 0.373,-0.322 0.378,-0.355L0.405,-0.355C0.402,-0.32 0.401,-0.29 0.401,-0.264L0.401,-0.247C0.401,-0.216 0.403,-0.18 0.406,-0.138L0.379,-0.138Z" style="fill-rule:nonzero;"/>
            </g>
            <g transform="matrix(75,0,0,75,1452.47,228.499)">
            </g>
            <g transform="matrix(75,0,0,75,1499.92,228.499)">
                <path d="M0.293,-0C0.279,-0.001 0.265,-0.001 0.251,-0.001C0.228,-0.002 0.208,-0.002 0.189,-0.002C0.146,-0.002 0.098,-0.002 0.045,-0L0.045,-0.026L0.075,-0.029C0.094,-0.031 0.107,-0.034 0.116,-0.038C0.124,-0.042 0.13,-0.048 0.133,-0.057C0.137,-0.065 0.138,-0.078 0.138,-0.096L0.138,-0.395C0.138,-0.412 0.137,-0.425 0.133,-0.433C0.13,-0.442 0.124,-0.448 0.116,-0.452C0.107,-0.456 0.094,-0.459 0.075,-0.461L0.045,-0.464L0.045,-0.49C0.098,-0.489 0.146,-0.488 0.189,-0.488C0.208,-0.488 0.228,-0.489 0.251,-0.489C0.265,-0.49 0.279,-0.49 0.293,-0.49L0.318,-0.49C0.421,-0.49 0.499,-0.471 0.551,-0.431C0.603,-0.391 0.629,-0.332 0.629,-0.253C0.629,-0.2 0.617,-0.154 0.592,-0.116C0.568,-0.078 0.532,-0.049 0.485,-0.029C0.438,-0.01 0.381,-0 0.314,-0L0.293,-0ZM0.309,-0.026C0.36,-0.026 0.402,-0.033 0.434,-0.049C0.465,-0.064 0.489,-0.087 0.504,-0.119C0.519,-0.152 0.526,-0.194 0.526,-0.245C0.526,-0.297 0.519,-0.339 0.504,-0.37C0.489,-0.402 0.466,-0.426 0.434,-0.441C0.403,-0.456 0.361,-0.464 0.31,-0.464L0.236,-0.464L0.236,-0.094C0.236,-0.074 0.238,-0.059 0.241,-0.05C0.245,-0.041 0.252,-0.034 0.262,-0.031C0.272,-0.027 0.288,-0.026 0.309,-0.026Z" style="fill-rule:nonzero;"/>
            </g>
            <g transform="matrix(75,0,0,75,1499.92,228.499)">
            </g>
            <g transform="matrix(75,0,0,75,1554.09,228.499)">
            </g>
            <g transform="matrix(75,0,0,75,1577.98,228.499)">
                <path d="M0.35,-0.488C0.431,-0.488 0.494,-0.489 0.54,-0.49C0.539,-0.427 0.543,-0.359 0.552,-0.288L0.525,-0.288C0.514,-0.334 0.503,-0.369 0.49,-0.393C0.477,-0.418 0.461,-0.435 0.442,-0.446C0.424,-0.456 0.399,-0.462 0.368,-0.462L0.214,-0.462C0.184,-0.462 0.159,-0.456 0.14,-0.446C0.122,-0.435 0.106,-0.418 0.093,-0.393C0.08,-0.369 0.068,-0.334 0.058,-0.288L0.03,-0.288C0.039,-0.359 0.044,-0.427 0.043,-0.49C0.088,-0.489 0.151,-0.488 0.232,-0.488L0.35,-0.488ZM0.243,-0.473L0.34,-0.473L0.34,-0.202L0.243,-0.202L0.243,-0.473ZM0.286,-0.002C0.242,-0.002 0.19,-0.002 0.131,-0L0.131,-0.026L0.18,-0.031C0.198,-0.033 0.211,-0.035 0.22,-0.039C0.228,-0.043 0.234,-0.049 0.238,-0.058C0.241,-0.066 0.243,-0.079 0.243,-0.096L0.243,-0.202L0.34,-0.202L0.34,-0.096C0.34,-0.079 0.342,-0.066 0.345,-0.058C0.348,-0.049 0.354,-0.043 0.363,-0.039C0.372,-0.035 0.385,-0.032 0.403,-0.03L0.452,-0.026L0.452,-0C0.392,-0.002 0.341,-0.002 0.297,-0.002L0.286,-0.002Z" style="fill-rule:nonzero;"/>
            </g>
            <g transform="matrix(75,0,0,75,1577.98,228.499)">
            </g>
            <g transform="matrix(75,0,0,75,1624.71,228.499)">
                <path d="M0.138,-0.395C0.138,-0.412 0.136,-0.425 0.133,-0.433C0.13,-0.442 0.124,-0.448 0.115,-0.452C0.106,-0.456 0.093,-0.459 0.074,-0.461L0.045,-0.464L0.045,-0.49C0.095,-0.489 0.139,-0.488 0.179,-0.488L0.193,-0.488C0.227,-0.488 0.267,-0.489 0.313,-0.49L0.313,-0.464L0.292,-0.462C0.275,-0.459 0.264,-0.456 0.256,-0.452C0.248,-0.448 0.243,-0.442 0.24,-0.433C0.237,-0.425 0.236,-0.412 0.236,-0.395L0.236,-0.289L0.138,-0.289L0.138,-0.395ZM0.523,-0.395C0.523,-0.412 0.522,-0.425 0.519,-0.433C0.516,-0.442 0.511,-0.448 0.503,-0.452C0.495,-0.456 0.483,-0.459 0.467,-0.462L0.446,-0.464L0.446,-0.49C0.492,-0.489 0.532,-0.488 0.566,-0.488L0.58,-0.488C0.62,-0.488 0.664,-0.489 0.714,-0.49L0.714,-0.464L0.684,-0.461C0.666,-0.459 0.652,-0.456 0.644,-0.452C0.635,-0.448 0.629,-0.442 0.626,-0.433C0.622,-0.425 0.621,-0.412 0.621,-0.395L0.621,-0.202L0.523,-0.202L0.523,-0.395ZM0.179,-0.002C0.139,-0.002 0.095,-0.002 0.045,-0L0.045,-0.026L0.074,-0.029C0.093,-0.031 0.106,-0.035 0.115,-0.038C0.124,-0.042 0.13,-0.049 0.133,-0.057C0.136,-0.066 0.138,-0.079 0.138,-0.096L0.138,-0.289L0.236,-0.289L0.236,-0.096C0.236,-0.078 0.237,-0.065 0.24,-0.057C0.243,-0.048 0.248,-0.042 0.256,-0.038C0.264,-0.034 0.275,-0.031 0.292,-0.029L0.313,-0.026L0.313,-0C0.267,-0.002 0.227,-0.002 0.193,-0.002L0.179,-0.002ZM0.198,-0.268L0.563,-0.268L0.563,-0.241L0.198,-0.241L0.198,-0.268ZM0.566,-0.002C0.53,-0.002 0.491,-0.002 0.449,-0L0.449,-0.026L0.47,-0.029C0.485,-0.031 0.496,-0.034 0.504,-0.038C0.511,-0.042 0.516,-0.048 0.519,-0.057C0.522,-0.066 0.523,-0.078 0.523,-0.096L0.523,-0.202L0.621,-0.202L0.621,-0.096C0.621,-0.079 0.622,-0.066 0.626,-0.057C0.629,-0.049 0.635,-0.042 0.644,-0.038C0.652,-0.035 0.666,-0.031 0.684,-0.029L0.714,-0.026L0.714,-0C0.664,-0.002 0.62,-0.002 0.58,-0.002L0.566,-0.002Z" style="fill-rule:nonzero;"/>
            </g>
            <g transform="matrix(75,0,0,75,1624.71,228.499)">
            </g>
            <g transform="matrix(75,0,0,75,1684.63,228.499)">
                <path d="M0.138,-0.395C0.138,-0.412 0.137,-0.425 0.133,-0.433C0.13,-0.442 0.124,-0.448 0.116,-0.452C0.107,-0.456 0.094,-0.459 0.075,-0.461L0.045,-0.464L0.045,-0.49C0.098,-0.489 0.146,-0.488 0.189,-0.488C0.208,-0.488 0.228,-0.489 0.251,-0.489C0.265,-0.49 0.279,-0.49 0.293,-0.49L0.323,-0.49C0.39,-0.49 0.442,-0.48 0.478,-0.458C0.514,-0.437 0.531,-0.406 0.531,-0.365C0.531,-0.337 0.522,-0.313 0.503,-0.292C0.484,-0.272 0.457,-0.256 0.421,-0.245C0.385,-0.234 0.342,-0.228 0.293,-0.228L0.214,-0.228L0.214,-0.247L0.298,-0.247C0.341,-0.247 0.375,-0.256 0.398,-0.276C0.421,-0.295 0.433,-0.322 0.433,-0.359C0.433,-0.393 0.422,-0.419 0.402,-0.437C0.381,-0.454 0.35,-0.463 0.308,-0.463L0.236,-0.463L0.236,-0.202L0.138,-0.202L0.138,-0.395ZM0.526,0.011C0.505,0.011 0.488,0.008 0.474,0.002C0.46,-0.005 0.448,-0.015 0.439,-0.029C0.429,-0.043 0.421,-0.061 0.414,-0.084L0.398,-0.139C0.392,-0.161 0.385,-0.178 0.377,-0.189C0.369,-0.201 0.359,-0.209 0.346,-0.214C0.334,-0.218 0.317,-0.221 0.295,-0.221L0.209,-0.221L0.209,-0.24L0.281,-0.24C0.33,-0.24 0.369,-0.237 0.397,-0.231C0.425,-0.225 0.448,-0.215 0.464,-0.2C0.481,-0.184 0.494,-0.162 0.503,-0.133L0.517,-0.09C0.524,-0.07 0.531,-0.056 0.539,-0.048C0.547,-0.04 0.558,-0.036 0.571,-0.036C0.579,-0.036 0.586,-0.037 0.593,-0.04C0.599,-0.043 0.606,-0.048 0.614,-0.055L0.626,-0.038C0.612,-0.021 0.597,-0.008 0.581,-0.001C0.565,0.007 0.546,0.011 0.526,0.011ZM0.179,-0.002C0.139,-0.002 0.095,-0.002 0.045,-0L0.045,-0.026L0.075,-0.029C0.093,-0.031 0.106,-0.035 0.115,-0.038C0.124,-0.042 0.13,-0.049 0.133,-0.057C0.136,-0.066 0.138,-0.079 0.138,-0.096L0.138,-0.202L0.236,-0.202L0.236,-0.096C0.236,-0.078 0.237,-0.065 0.24,-0.057C0.243,-0.048 0.248,-0.042 0.256,-0.038C0.264,-0.034 0.275,-0.031 0.292,-0.029L0.313,-0.026L0.313,-0C0.267,-0.002 0.227,-0.002 0.193,-0.002L0.179,-0.002Z" style="fill-rule:nonzero;"/>
            </g>
            <g transform="matrix(75,0,0,75,1684.63,228.499)">
            </g>
            <g transform="matrix(75,0,0,75,1734.08,228.499)">
                <path d="M0.179,-0.002C0.139,-0.002 0.095,-0.002 0.045,-0L0.045,-0.026L0.074,-0.029C0.093,-0.031 0.106,-0.035 0.115,-0.038C0.124,-0.042 0.13,-0.049 0.133,-0.057C0.136,-0.066 0.138,-0.079 0.138,-0.096L0.138,-0.395C0.138,-0.412 0.136,-0.425 0.133,-0.433C0.13,-0.442 0.124,-0.448 0.115,-0.452C0.106,-0.456 0.093,-0.459 0.074,-0.461L0.045,-0.464L0.045,-0.49C0.095,-0.489 0.139,-0.488 0.179,-0.488L0.314,-0.488C0.396,-0.488 0.46,-0.489 0.506,-0.49C0.505,-0.441 0.508,-0.387 0.514,-0.329L0.486,-0.329C0.476,-0.365 0.464,-0.392 0.45,-0.411C0.436,-0.429 0.418,-0.443 0.397,-0.45C0.376,-0.458 0.347,-0.462 0.312,-0.462L0.236,-0.462L0.236,-0.091C0.236,-0.073 0.237,-0.059 0.24,-0.051C0.243,-0.042 0.249,-0.036 0.258,-0.033C0.266,-0.03 0.28,-0.029 0.298,-0.029L0.33,-0.029C0.367,-0.029 0.396,-0.033 0.419,-0.043C0.442,-0.052 0.462,-0.068 0.477,-0.09C0.493,-0.113 0.507,-0.145 0.521,-0.186L0.548,-0.186C0.54,-0.121 0.536,-0.058 0.537,-0C0.489,-0.002 0.421,-0.002 0.334,-0.002L0.179,-0.002ZM0.198,-0.26L0.365,-0.26L0.365,-0.234L0.198,-0.234L0.198,-0.26ZM0.379,-0.138C0.376,-0.161 0.371,-0.18 0.364,-0.194C0.357,-0.208 0.346,-0.218 0.334,-0.224C0.321,-0.23 0.304,-0.234 0.283,-0.234L0.283,-0.26C0.312,-0.26 0.334,-0.268 0.349,-0.283C0.364,-0.298 0.373,-0.322 0.378,-0.355L0.405,-0.355C0.402,-0.32 0.401,-0.29 0.401,-0.264L0.401,-0.247C0.401,-0.216 0.403,-0.18 0.406,-0.138L0.379,-0.138Z" style="fill-rule:nonzero;"/>
            </g>
            <g transform="matrix(75,0,0,75,1734.08,228.499)">
            </g>
            <g transform="matrix(75,0,0,75,1781.53,228.499)">
                <path d="M0.179,-0.002C0.139,-0.002 0.095,-0.002 0.045,-0L0.045,-0.026L0.074,-0.029C0.093,-0.031 0.106,-0.035 0.115,-0.038C0.124,-0.042 0.13,-0.049 0.133,-0.057C0.136,-0.066 0.138,-0.079 0.138,-0.096L0.138,-0.395C0.138,-0.412 0.136,-0.425 0.133,-0.433C0.13,-0.442 0.124,-0.448 0.115,-0.452C0.106,-0.456 0.093,-0.459 0.074,-0.461L0.045,-0.464L0.045,-0.49C0.095,-0.489 0.139,-0.488 0.179,-0.488L0.314,-0.488C0.396,-0.488 0.46,-0.489 0.506,-0.49C0.505,-0.441 0.508,-0.387 0.514,-0.329L0.486,-0.329C0.476,-0.365 0.464,-0.392 0.45,-0.411C0.436,-0.429 0.418,-0.443 0.397,-0.45C0.376,-0.458 0.347,-0.462 0.312,-0.462L0.236,-0.462L0.236,-0.091C0.236,-0.073 0.237,-0.059 0.24,-0.051C0.243,-0.042 0.249,-0.036 0.258,-0.033C0.266,-0.03 0.28,-0.029 0.298,-0.029L0.33,-0.029C0.367,-0.029 0.396,-0.033 0.419,-0.043C0.442,-0.052 0.462,-0.068 0.477,-0.09C0.493,-0.113 0.507,-0.145 0.521,-0.186L0.548,-0.186C0.54,-0.121 0.536,-0.058 0.537,-0C0.489,-0.002 0.421,-0.002 0.334,-0.002L0.179,-0.002ZM0.198,-0.26L0.365,-0.26L0.365,-0.234L0.198,-0.234L0.198,-0.26ZM0.379,-0.138C0.376,-0.161 0.371,-0.18 0.364,-0.194C0.357,-0.208 0.346,-0.218 0.334,-0.224C0.321,-0.23 0.304,-0.234 0.283,-0.234L0.283,-0.26C0.312,-0.26 0.334,-0.268 0.349,-0.283C0.364,-0.298 0.373,-0.322 0.378,-0.355L0.405,-0.355C0.402,-0.32 0.401,-0.29 0.401,-0.264L0.401,-0.247C0.401,-0.216 0.403,-0.18 0.406,-0.138L0.379,-0.138Z" style="fill-rule:nonzero;"/>
            </g>
            <g transform="matrix(75,0,0,75,1781.53,228.499)">
            </g>
            <g transform="matrix(75,0,0,75,1828.99,228.499)">
            </g>
            <g transform="matrix(75,0,0,75,1852.88,228.499)">
                <path d="M0.165,-0.153C0.147,-0.115 0.142,-0.086 0.15,-0.066C0.158,-0.045 0.18,-0.033 0.217,-0.028L0.234,-0.026L0.234,-0C0.192,-0.002 0.146,-0.002 0.098,-0.002C0.065,-0.002 0.03,-0.002 -0.005,-0L-0.005,-0.026L0.01,-0.029C0.028,-0.032 0.044,-0.037 0.057,-0.044C0.069,-0.052 0.081,-0.063 0.093,-0.079C0.104,-0.094 0.117,-0.116 0.131,-0.145L0.305,-0.497L0.34,-0.497L0.547,-0.088C0.554,-0.073 0.561,-0.062 0.567,-0.054C0.573,-0.046 0.58,-0.04 0.589,-0.036C0.597,-0.033 0.608,-0.03 0.622,-0.029L0.648,-0.026L0.648,-0C0.605,-0.002 0.568,-0.002 0.539,-0.002L0.538,-0.002L0.538,-0.002C0.492,-0.002 0.437,-0.002 0.373,0L0.373,-0.026L0.401,-0.029C0.418,-0.031 0.43,-0.034 0.437,-0.039C0.444,-0.044 0.448,-0.051 0.447,-0.06C0.447,-0.07 0.442,-0.083 0.434,-0.099L0.277,-0.414L0.297,-0.422L0.165,-0.153ZM0.172,-0.194L0.428,-0.194L0.441,-0.168L0.159,-0.168L0.172,-0.194Z" style="fill-rule:nonzero;"/>
            </g>
            <g transform="matrix(75,0,0,75,1852.88,228.499)">
            </g>
            <g transform="matrix(75,0,0,75,1905.05,228.499)">
                <path d="M0.348,-0.026C0.371,-0.027 0.388,-0.03 0.4,-0.035C0.411,-0.039 0.416,-0.046 0.415,-0.055C0.414,-0.065 0.408,-0.076 0.395,-0.091L0.12,-0.409C0.108,-0.423 0.097,-0.433 0.087,-0.441C0.078,-0.448 0.068,-0.454 0.056,-0.457C0.045,-0.461 0.032,-0.463 0.016,-0.464L0.016,-0.49C0.025,-0.49 0.035,-0.49 0.046,-0.49C0.093,-0.488 0.128,-0.488 0.152,-0.488C0.208,-0.488 0.256,-0.489 0.294,-0.49L0.294,-0.464C0.271,-0.463 0.253,-0.46 0.242,-0.456C0.231,-0.451 0.226,-0.444 0.227,-0.435C0.228,-0.426 0.235,-0.414 0.248,-0.399L0.524,-0.081C0.536,-0.067 0.547,-0.056 0.556,-0.049C0.565,-0.042 0.575,-0.037 0.586,-0.033C0.596,-0.03 0.609,-0.027 0.624,-0.026L0.624,-0C0.615,-0.001 0.605,-0.001 0.594,-0.001C0.549,-0.002 0.515,-0.003 0.492,-0.003C0.436,-0.003 0.388,-0.002 0.348,-0L0.348,-0.026ZM0.015,-0.026C0.042,-0.031 0.066,-0.039 0.086,-0.052C0.107,-0.064 0.131,-0.085 0.158,-0.113L0.294,-0.254L0.309,-0.234L0.221,-0.142C0.2,-0.12 0.186,-0.1 0.182,-0.083C0.177,-0.066 0.18,-0.053 0.192,-0.043C0.204,-0.033 0.224,-0.028 0.253,-0.026L0.253,-0C0.216,-0.002 0.173,-0.002 0.124,-0.002C0.089,-0.002 0.053,-0.002 0.015,-0L0.015,-0.026ZM0.324,-0.27L0.403,-0.352C0.424,-0.373 0.436,-0.392 0.441,-0.409C0.446,-0.425 0.443,-0.438 0.432,-0.448C0.421,-0.457 0.402,-0.463 0.377,-0.464L0.377,-0.49C0.424,-0.489 0.464,-0.488 0.497,-0.488C0.531,-0.488 0.567,-0.489 0.604,-0.49L0.604,-0.464C0.577,-0.46 0.554,-0.451 0.533,-0.439C0.513,-0.426 0.49,-0.406 0.463,-0.378L0.34,-0.251L0.324,-0.27Z" style="fill-rule:nonzero;"/>
            </g>
            <g transform="matrix(75,0,0,75,1905.05,228.499)">
            </g>
            <g transform="matrix(75,0,0,75,1955.71,228.499)">
                <path d="M0.179,-0.002C0.139,-0.002 0.095,-0.002 0.045,-0L0.045,-0.026L0.074,-0.029C0.093,-0.031 0.106,-0.035 0.115,-0.038C0.124,-0.042 0.13,-0.049 0.133,-0.057C0.136,-0.066 0.138,-0.079 0.138,-0.096L0.138,-0.395C0.138,-0.412 0.136,-0.425 0.133,-0.433C0.13,-0.442 0.124,-0.448 0.115,-0.452C0.106,-0.456 0.093,-0.459 0.074,-0.461L0.045,-0.464L0.045,-0.49C0.095,-0.489 0.139,-0.488 0.179,-0.488L0.314,-0.488C0.396,-0.488 0.46,-0.489 0.506,-0.49C0.505,-0.441 0.508,-0.387 0.514,-0.329L0.486,-0.329C0.476,-0.365 0.464,-0.392 0.45,-0.411C0.436,-0.429 0.418,-0.443 0.397,-0.45C0.376,-0.458 0.347,-0.462 0.312,-0.462L0.236,-0.462L0.236,-0.091C0.236,-0.073 0.237,-0.059 0.24,-0.051C0.243,-0.042 0.249,-0.036 0.258,-0.033C0.266,-0.03 0.28,-0.029 0.298,-0.029L0.33,-0.029C0.367,-0.029 0.396,-0.033 0.419,-0.043C0.442,-0.052 0.462,-0.068 0.477,-0.09C0.493,-0.113 0.507,-0.145 0.521,-0.186L0.548,-0.186C0.54,-0.121 0.536,-0.058 0.537,-0C0.489,-0.002 0.421,-0.002 0.334,-0.002L0.179,-0.002ZM0.198,-0.26L0.365,-0.26L0.365,-0.234L0.198,-0.234L0.198,-0.26ZM0.379,-0.138C0.376,-0.161 0.371,-0.18 0.364,-0.194C0.357,-0.208 0.346,-0.218 0.334,-0.224C0.321,-0.23 0.304,-0.234 0.283,-0.234L0.283,-0.26C0.312,-0.26 0.334,-0.268 0.349,-0.283C0.364,-0.298 0.373,-0.322 0.378,-0.355L0.405,-0.355C0.402,-0.32 0.401,-0.29 0.401,-0.264L0.401,-0.247C0.401,-0.216 0.403,-0.18 0.406,-0.138L0.379,-0.138Z" style="fill-rule:nonzero;"/>
            </g>
            <g transform="matrix(75,0,0,75,1955.71,228.499)">
            </g>
            <g transform="matrix(75,0,0,75,2003.17,228.499)">
                <path d="M0.299,0.011C0.27,0.011 0.244,0.009 0.223,0.004C0.202,-0.001 0.18,-0.008 0.157,-0.016C0.149,-0.019 0.142,-0.022 0.134,-0.024C0.127,-0.026 0.121,-0.027 0.116,-0.027C0.108,-0.027 0.102,-0.024 0.098,-0.019C0.094,-0.013 0.09,-0.004 0.088,0.008L0.061,0.008C0.062,-0.012 0.063,-0.038 0.064,-0.07C0.064,-0.102 0.064,-0.142 0.064,-0.191L0.092,-0.191C0.098,-0.154 0.109,-0.122 0.126,-0.096C0.142,-0.07 0.164,-0.05 0.191,-0.037C0.217,-0.023 0.248,-0.017 0.284,-0.017C0.323,-0.017 0.353,-0.024 0.375,-0.04C0.397,-0.055 0.409,-0.076 0.409,-0.103C0.409,-0.12 0.404,-0.134 0.394,-0.146C0.385,-0.158 0.369,-0.169 0.348,-0.18C0.326,-0.19 0.296,-0.2 0.258,-0.21C0.215,-0.221 0.18,-0.234 0.153,-0.249C0.126,-0.263 0.106,-0.28 0.093,-0.299C0.08,-0.319 0.074,-0.341 0.074,-0.366C0.074,-0.408 0.09,-0.441 0.121,-0.465C0.153,-0.49 0.196,-0.502 0.251,-0.502C0.278,-0.502 0.301,-0.499 0.32,-0.494C0.339,-0.49 0.359,-0.483 0.38,-0.475C0.387,-0.471 0.395,-0.469 0.402,-0.466C0.409,-0.464 0.415,-0.463 0.42,-0.463C0.428,-0.463 0.434,-0.466 0.438,-0.471C0.443,-0.476 0.446,-0.485 0.448,-0.498L0.476,-0.498C0.474,-0.48 0.473,-0.458 0.472,-0.435C0.471,-0.411 0.471,-0.376 0.471,-0.329L0.444,-0.329C0.439,-0.359 0.428,-0.384 0.412,-0.406C0.396,-0.428 0.376,-0.445 0.351,-0.457C0.326,-0.468 0.298,-0.474 0.267,-0.474C0.233,-0.474 0.207,-0.468 0.187,-0.454C0.168,-0.441 0.158,-0.422 0.158,-0.399C0.158,-0.383 0.163,-0.369 0.173,-0.357C0.183,-0.345 0.2,-0.334 0.223,-0.324C0.246,-0.313 0.277,-0.303 0.317,-0.292C0.36,-0.28 0.395,-0.267 0.422,-0.252C0.448,-0.238 0.467,-0.221 0.48,-0.202C0.492,-0.183 0.498,-0.16 0.498,-0.135C0.498,-0.09 0.481,-0.054 0.445,-0.028C0.41,-0.002 0.361,0.011 0.299,0.011Z" style="fill-rule:nonzero;"/>
            </g>
            <g transform="matrix(75,0,0,75,2003.17,228.499)">
            </g>
            <g transform="matrix(75,0,0,75,2047.54,228.499)">
            </g>
            <g transform="matrix(75,0,0,75,2071.43,228.499)">
                <path d="M0.109,-0.402C0.101,-0.417 0.094,-0.429 0.088,-0.436C0.082,-0.444 0.075,-0.45 0.067,-0.454C0.059,-0.458 0.048,-0.46 0.034,-0.462L0.008,-0.464L0.008,-0.49C0.051,-0.489 0.087,-0.488 0.117,-0.488L0.118,-0.488L0.118,-0.488C0.163,-0.488 0.218,-0.489 0.282,-0.49L0.282,-0.464L0.254,-0.461C0.238,-0.46 0.226,-0.456 0.218,-0.452C0.211,-0.447 0.208,-0.44 0.208,-0.43C0.209,-0.421 0.213,-0.408 0.221,-0.391L0.379,-0.076L0.359,-0.068L0.49,-0.338C0.509,-0.375 0.514,-0.404 0.506,-0.425C0.498,-0.445 0.476,-0.457 0.441,-0.462L0.423,-0.464L0.423,-0.49C0.465,-0.489 0.51,-0.488 0.557,-0.488C0.59,-0.488 0.623,-0.489 0.658,-0.49L0.658,-0.464L0.644,-0.462C0.625,-0.458 0.61,-0.453 0.597,-0.446C0.585,-0.438 0.573,-0.427 0.562,-0.412C0.551,-0.396 0.538,-0.374 0.524,-0.346L0.35,0.007L0.316,0.007L0.109,-0.402Z" style="fill-rule:nonzero;"/>
            </g>
            <g transform="matrix(75,0,0,75,2071.43,228.499)">
            </g>
            <g transform="matrix(75,0,0,75,2119.67,228.499)">
                <path d="M0.165,-0.153C0.147,-0.115 0.142,-0.086 0.15,-0.066C0.158,-0.045 0.18,-0.033 0.217,-0.028L0.234,-0.026L0.234,-0C0.192,-0.002 0.146,-0.002 0.098,-0.002C0.065,-0.002 0.03,-0.002 -0.005,-0L-0.005,-0.026L0.01,-0.029C0.028,-0.032 0.044,-0.037 0.057,-0.044C0.069,-0.052 0.081,-0.063 0.093,-0.079C0.104,-0.094 0.117,-0.116 0.131,-0.145L0.305,-0.497L0.34,-0.497L0.547,-0.088C0.554,-0.073 0.561,-0.062 0.567,-0.054C0.573,-0.046 0.58,-0.04 0.589,-0.036C0.597,-0.033 0.608,-0.03 0.622,-0.029L0.648,-0.026L0.648,-0C0.605,-0.002 0.568,-0.002 0.539,-0.002L0.538,-0.002L0.538,-0.002C0.492,-0.002 0.437,-0.002 0.373,0L0.373,-0.026L0.401,-0.029C0.418,-0.031 0.43,-0.034 0.437,-0.039C0.444,-0.044 0.448,-0.051 0.447,-0.06C0.447,-0.07 0.442,-0.083 0.434,-0.099L0.277,-0.414L0.297,-0.422L0.165,-0.153ZM0.172,-0.194L0.428,-0.194L0.441,-0.168L0.159,-0.168L0.172,-0.194Z" style="fill-rule:nonzero;"/>
            </g>
            <g transform="matrix(75,0,0,75,2119.67,228.499)">
            </g>
            <g transform="matrix(75,0,0,75,2170.34,228.499)">
                <path d="M0.138,-0.395C0.138,-0.412 0.137,-0.425 0.133,-0.433C0.13,-0.442 0.124,-0.448 0.116,-0.452C0.107,-0.456 0.094,-0.459 0.075,-0.461L0.045,-0.464L0.045,-0.49C0.098,-0.489 0.146,-0.488 0.189,-0.488C0.208,-0.488 0.228,-0.489 0.251,-0.489C0.265,-0.49 0.279,-0.49 0.293,-0.49L0.323,-0.49C0.39,-0.49 0.442,-0.48 0.478,-0.458C0.514,-0.437 0.531,-0.406 0.531,-0.365C0.531,-0.337 0.522,-0.313 0.503,-0.292C0.484,-0.272 0.457,-0.256 0.421,-0.245C0.385,-0.234 0.342,-0.228 0.293,-0.228L0.214,-0.228L0.214,-0.247L0.298,-0.247C0.341,-0.247 0.375,-0.256 0.398,-0.276C0.421,-0.295 0.433,-0.322 0.433,-0.359C0.433,-0.393 0.422,-0.419 0.402,-0.437C0.381,-0.454 0.35,-0.463 0.308,-0.463L0.236,-0.463L0.236,-0.202L0.138,-0.202L0.138,-0.395ZM0.526,0.011C0.505,0.011 0.488,0.008 0.474,0.002C0.46,-0.005 0.448,-0.015 0.439,-0.029C0.429,-0.043 0.421,-0.061 0.414,-0.084L0.398,-0.139C0.392,-0.161 0.385,-0.178 0.377,-0.189C0.369,-0.201 0.359,-0.209 0.346,-0.214C0.334,-0.218 0.317,-0.221 0.295,-0.221L0.209,-0.221L0.209,-0.24L0.281,-0.24C0.33,-0.24 0.369,-0.237 0.397,-0.231C0.425,-0.225 0.448,-0.215 0.464,-0.2C0.481,-0.184 0.494,-0.162 0.503,-0.133L0.517,-0.09C0.524,-0.07 0.531,-0.056 0.539,-0.048C0.547,-0.04 0.558,-0.036 0.571,-0.036C0.579,-0.036 0.586,-0.037 0.593,-0.04C0.599,-0.043 0.606,-0.048 0.614,-0.055L0.626,-0.038C0.612,-0.021 0.597,-0.008 0.581,-0.001C0.565,0.007 0.546,0.011 0.526,0.011ZM0.179,-0.002C0.139,-0.002 0.095,-0.002 0.045,-0L0.045,-0.026L0.075,-0.029C0.093,-0.031 0.106,-0.035 0.115,-0.038C0.124,-0.042 0.13,-0.049 0.133,-0.057C0.136,-0.066 0.138,-0.079 0.138,-0.096L0.138,-0.202L0.236,-0.202L0.236,-0.096C0.236,-0.078 0.237,-0.065 0.24,-0.057C0.243,-0.048 0.248,-0.042 0.256,-0.038C0.264,-0.034 0.275,-0.031 0.292,-0.029L0.313,-0.026L0.313,-0C0.267,-0.002 0.227,-0.002 0.193,-0.002L0.179,-0.002Z" style="fill-rule:nonzero;"/>
            </g>
            <g transform="matrix(75,0,0,75,2170.34,228.499)">
            </g>
            <g transform="matrix(75,0,0,75,2219.79,228.499)">
                <path d="M0.179,-0.002C0.139,-0.002 0.095,-0.002 0.045,-0L0.045,-0.026L0.074,-0.029C0.093,-0.031 0.106,-0.035 0.115,-0.038C0.124,-0.042 0.13,-0.049 0.133,-0.057C0.136,-0.066 0.138,-0.079 0.138,-0.096L0.138,-0.395C0.138,-0.412 0.136,-0.425 0.133,-0.433C0.13,-0.442 0.124,-0.448 0.115,-0.452C0.106,-0.456 0.093,-0.459 0.074,-0.461L0.045,-0.464L0.045,-0.49C0.095,-0.489 0.139,-0.488 0.179,-0.488L0.195,-0.488C0.235,-0.488 0.279,-0.489 0.329,-0.49L0.329,-0.464L0.299,-0.461C0.281,-0.459 0.268,-0.456 0.259,-0.452C0.25,-0.448 0.244,-0.442 0.241,-0.433C0.237,-0.425 0.236,-0.412 0.236,-0.395L0.236,-0.096C0.236,-0.079 0.237,-0.066 0.241,-0.057C0.244,-0.049 0.25,-0.042 0.259,-0.038C0.268,-0.035 0.281,-0.031 0.299,-0.029L0.329,-0.026L0.329,-0C0.279,-0.002 0.235,-0.002 0.195,-0.002L0.179,-0.002Z" style="fill-rule:nonzero;"/>
            </g>
            <g transform="matrix(75,0,0,75,2219.79,228.499)">
            </g>
            <g transform="matrix(75,0,0,75,2250.86,228.499)">
                <path d="M0.165,-0.153C0.147,-0.115 0.142,-0.086 0.15,-0.066C0.158,-0.045 0.18,-0.033 0.217,-0.028L0.234,-0.026L0.234,-0C0.192,-0.002 0.146,-0.002 0.098,-0.002C0.065,-0.002 0.03,-0.002 -0.005,-0L-0.005,-0.026L0.01,-0.029C0.028,-0.032 0.044,-0.037 0.057,-0.044C0.069,-0.052 0.081,-0.063 0.093,-0.079C0.104,-0.094 0.117,-0.116 0.131,-0.145L0.305,-0.497L0.34,-0.497L0.547,-0.088C0.554,-0.073 0.561,-0.062 0.567,-0.054C0.573,-0.046 0.58,-0.04 0.589,-0.036C0.597,-0.033 0.608,-0.03 0.622,-0.029L0.648,-0.026L0.648,-0C0.605,-0.002 0.568,-0.002 0.539,-0.002L0.538,-0.002L0.538,-0.002C0.492,-0.002 0.437,-0.002 0.373,0L0.373,-0.026L0.401,-0.029C0.418,-0.031 0.43,-0.034 0.437,-0.039C0.444,-0.044 0.448,-0.051 0.447,-0.06C0.447,-0.07 0.442,-0.083 0.434,-0.099L0.277,-0.414L0.297,-0.422L0.165,-0.153ZM0.172,-0.194L0.428,-0.194L0.441,-0.168L0.159,-0.168L0.172,-0.194Z" style="fill-rule:nonzero;"/>
            </g>
            <g transform="matrix(75,0,0,75,2250.86,228.499)">
            </g>
            <g transform="matrix(75,0,0,75,2302.28,228.499)">
                <path d="M0.293,-0C0.279,-0.001 0.265,-0.001 0.251,-0.001C0.228,-0.002 0.208,-0.002 0.189,-0.002C0.146,-0.002 0.098,-0.002 0.045,-0L0.045,-0.026L0.075,-0.029C0.094,-0.031 0.107,-0.034 0.116,-0.038C0.124,-0.042 0.13,-0.048 0.133,-0.057C0.137,-0.065 0.138,-0.078 0.138,-0.096L0.138,-0.395C0.138,-0.412 0.137,-0.425 0.133,-0.433C0.13,-0.442 0.124,-0.448 0.116,-0.452C0.107,-0.456 0.094,-0.459 0.075,-0.461L0.045,-0.464L0.045,-0.49C0.098,-0.489 0.146,-0.488 0.189,-0.488C0.208,-0.488 0.228,-0.489 0.251,-0.489C0.265,-0.49 0.279,-0.49 0.293,-0.49L0.315,-0.49C0.378,-0.49 0.426,-0.481 0.458,-0.462C0.49,-0.443 0.506,-0.415 0.506,-0.379C0.506,-0.348 0.495,-0.323 0.473,-0.303C0.451,-0.283 0.418,-0.269 0.376,-0.261L0.376,-0.26C0.435,-0.257 0.479,-0.245 0.509,-0.224C0.539,-0.203 0.554,-0.174 0.554,-0.135C0.554,-0.091 0.535,-0.058 0.496,-0.035C0.458,-0.012 0.402,-0 0.329,-0L0.293,-0ZM0.302,-0.028C0.353,-0.028 0.39,-0.037 0.414,-0.055C0.438,-0.073 0.451,-0.1 0.451,-0.137C0.451,-0.173 0.44,-0.199 0.42,-0.217C0.4,-0.235 0.369,-0.244 0.328,-0.244L0.214,-0.244L0.214,-0.269L0.313,-0.269C0.344,-0.269 0.368,-0.277 0.385,-0.295C0.401,-0.312 0.41,-0.336 0.41,-0.367C0.41,-0.399 0.401,-0.423 0.383,-0.439C0.365,-0.455 0.338,-0.463 0.3,-0.463L0.236,-0.463L0.236,-0.095C0.236,-0.075 0.237,-0.061 0.241,-0.051C0.244,-0.042 0.25,-0.036 0.259,-0.033C0.268,-0.029 0.282,-0.028 0.302,-0.028Z" style="fill-rule:nonzero;"/>
            </g>
            <g transform="matrix(75,0,0,75,2302.28,228.499)">
            </g>
            <g transform="matrix(75,0,0,75,2350.58,228.499)">
                <path d="M0.179,-0.002C0.139,-0.002 0.095,-0.002 0.045,-0L0.045,-0.026L0.074,-0.029C0.093,-0.031 0.106,-0.035 0.115,-0.038C0.124,-0.042 0.13,-0.049 0.133,-0.057C0.136,-0.066 0.138,-0.079 0.138,-0.096L0.138,-0.395C0.138,-0.412 0.136,-0.425 0.133,-0.433C0.13,-0.442 0.124,-0.448 0.115,-0.452C0.106,-0.456 0.093,-0.459 0.074,-0.461L0.045,-0.464L0.045,-0.49C0.095,-0.489 0.139,-0.488 0.179,-0.488L0.191,-0.488C0.238,-0.488 0.294,-0.489 0.361,-0.49L0.361,-0.464L0.3,-0.459C0.282,-0.457 0.268,-0.454 0.259,-0.45C0.25,-0.447 0.244,-0.44 0.241,-0.432C0.237,-0.424 0.236,-0.411 0.236,-0.395L0.236,-0.091C0.236,-0.073 0.237,-0.059 0.24,-0.051C0.243,-0.042 0.249,-0.036 0.257,-0.033C0.266,-0.03 0.279,-0.029 0.297,-0.029L0.323,-0.029C0.36,-0.029 0.39,-0.034 0.413,-0.044C0.436,-0.054 0.455,-0.071 0.471,-0.095C0.487,-0.119 0.502,-0.153 0.516,-0.198L0.544,-0.198C0.535,-0.128 0.531,-0.062 0.531,-0C0.482,-0.002 0.412,-0.002 0.323,-0.002L0.179,-0.002Z" style="fill-rule:nonzero;"/>
            </g>
            <g transform="matrix(75,0,0,75,2350.58,228.499)">
            </g>
            <g transform="matrix(75,0,0,75,2396.64,228.499)">
                <path d="M0.179,-0.002C0.139,-0.002 0.095,-0.002 0.045,-0L0.045,-0.026L0.074,-0.029C0.093,-0.031 0.106,-0.035 0.115,-0.038C0.124,-0.042 0.13,-0.049 0.133,-0.057C0.136,-0.066 0.138,-0.079 0.138,-0.096L0.138,-0.395C0.138,-0.412 0.136,-0.425 0.133,-0.433C0.13,-0.442 0.124,-0.448 0.115,-0.452C0.106,-0.456 0.093,-0.459 0.074,-0.461L0.045,-0.464L0.045,-0.49C0.095,-0.489 0.139,-0.488 0.179,-0.488L0.314,-0.488C0.396,-0.488 0.46,-0.489 0.506,-0.49C0.505,-0.441 0.508,-0.387 0.514,-0.329L0.486,-0.329C0.476,-0.365 0.464,-0.392 0.45,-0.411C0.436,-0.429 0.418,-0.443 0.397,-0.45C0.376,-0.458 0.347,-0.462 0.312,-0.462L0.236,-0.462L0.236,-0.091C0.236,-0.073 0.237,-0.059 0.24,-0.051C0.243,-0.042 0.249,-0.036 0.258,-0.033C0.266,-0.03 0.28,-0.029 0.298,-0.029L0.33,-0.029C0.367,-0.029 0.396,-0.033 0.419,-0.043C0.442,-0.052 0.462,-0.068 0.477,-0.09C0.493,-0.113 0.507,-0.145 0.521,-0.186L0.548,-0.186C0.54,-0.121 0.536,-0.058 0.537,-0C0.489,-0.002 0.421,-0.002 0.334,-0.002L0.179,-0.002ZM0.198,-0.26L0.365,-0.26L0.365,-0.234L0.198,-0.234L0.198,-0.26ZM0.379,-0.138C0.376,-0.161 0.371,-0.18 0.364,-0.194C0.357,-0.208 0.346,-0.218 0.334,-0.224C0.321,-0.23 0.304,-0.234 0.283,-0.234L0.283,-0.26C0.312,-0.26 0.334,-0.268 0.349,-0.283C0.364,-0.298 0.373,-0.322 0.378,-0.355L0.405,-0.355C0.402,-0.32 0.401,-0.29 0.401,-0.264L0.401,-0.247C0.401,-0.216 0.403,-0.18 0.406,-0.138L0.379,-0.138Z" style="fill-rule:nonzero;"/>
            </g>
            <g transform="matrix(75,0,0,75,2396.64,228.499)">
            </g>
            <g transform="matrix(75,0,0,75,2444.1,228.499)">
            </g>
            <g transform="matrix(75,0,0,75,2467.99,228.499)">
                <path d="M0.138,-0.395C0.138,-0.412 0.136,-0.425 0.133,-0.433C0.13,-0.442 0.124,-0.448 0.115,-0.452C0.106,-0.456 0.093,-0.459 0.074,-0.461L0.045,-0.464L0.045,-0.49C0.095,-0.489 0.139,-0.488 0.179,-0.488L0.311,-0.488C0.393,-0.488 0.457,-0.489 0.503,-0.49C0.502,-0.441 0.505,-0.387 0.511,-0.329L0.484,-0.329C0.473,-0.365 0.461,-0.392 0.447,-0.411C0.433,-0.429 0.416,-0.443 0.395,-0.45C0.373,-0.458 0.345,-0.462 0.309,-0.462L0.236,-0.462L0.236,-0.202L0.138,-0.202L0.138,-0.395ZM0.206,-0.253L0.368,-0.253L0.368,-0.226L0.206,-0.226L0.206,-0.253ZM0.38,-0.119C0.377,-0.145 0.372,-0.166 0.364,-0.181C0.356,-0.197 0.346,-0.208 0.332,-0.215C0.318,-0.223 0.299,-0.226 0.277,-0.226L0.277,-0.253C0.298,-0.253 0.316,-0.256 0.329,-0.264C0.343,-0.271 0.354,-0.283 0.362,-0.299C0.37,-0.314 0.376,-0.334 0.379,-0.36L0.405,-0.36C0.403,-0.321 0.402,-0.287 0.402,-0.259L0.402,-0.239C0.402,-0.207 0.404,-0.167 0.407,-0.119L0.38,-0.119ZM0.179,-0.002C0.139,-0.002 0.095,-0.002 0.045,-0L0.045,-0.026L0.074,-0.029C0.093,-0.031 0.106,-0.035 0.115,-0.038C0.124,-0.042 0.13,-0.049 0.133,-0.057C0.136,-0.066 0.138,-0.079 0.138,-0.096L0.138,-0.202L0.236,-0.202L0.236,-0.096C0.236,-0.079 0.237,-0.066 0.241,-0.058C0.244,-0.049 0.25,-0.043 0.259,-0.039C0.267,-0.035 0.281,-0.032 0.299,-0.031L0.347,-0.026L0.347,-0C0.288,-0.002 0.236,-0.002 0.192,-0.002L0.179,-0.002Z" style="fill-rule:nonzero;"/>
            </g>
            <g transform="matrix(75,0,0,75,2467.99,228.499)">
            </g>
            <g transform="matrix(75,0,0,75,2512.24,228.499)">
                <path d="M0.342,0.011C0.284,0.011 0.233,0.001 0.189,-0.019C0.146,-0.04 0.112,-0.069 0.089,-0.108C0.065,-0.146 0.053,-0.191 0.053,-0.242C0.053,-0.294 0.065,-0.339 0.089,-0.378C0.114,-0.417 0.147,-0.448 0.191,-0.469C0.235,-0.491 0.286,-0.502 0.344,-0.502C0.402,-0.502 0.453,-0.491 0.496,-0.471C0.54,-0.45 0.573,-0.421 0.597,-0.383C0.62,-0.345 0.632,-0.3 0.632,-0.248C0.632,-0.196 0.62,-0.151 0.596,-0.112C0.572,-0.073 0.538,-0.042 0.494,-0.021C0.451,0.001 0.4,0.011 0.342,0.011ZM0.345,-0.014C0.382,-0.014 0.414,-0.024 0.442,-0.043C0.47,-0.062 0.491,-0.09 0.506,-0.125C0.521,-0.16 0.529,-0.2 0.529,-0.246C0.529,-0.292 0.521,-0.332 0.505,-0.367C0.489,-0.402 0.467,-0.429 0.438,-0.448C0.41,-0.467 0.378,-0.476 0.341,-0.476C0.304,-0.476 0.272,-0.466 0.244,-0.447C0.216,-0.428 0.195,-0.401 0.179,-0.366C0.164,-0.331 0.157,-0.29 0.157,-0.245C0.157,-0.199 0.165,-0.158 0.181,-0.124C0.197,-0.089 0.219,-0.062 0.248,-0.043C0.276,-0.024 0.309,-0.014 0.345,-0.014Z" style="fill-rule:nonzero;"/>
            </g>
            <g transform="matrix(75,0,0,75,2512.24,228.499)">
            </g>
            <g transform="matrix(75,0,0,75,2566.65,228.499)">
                <path d="M0.138,-0.395C0.138,-0.412 0.136,-0.425 0.133,-0.433C0.13,-0.442 0.124,-0.448 0.115,-0.452C0.106,-0.456 0.093,-0.459 0.074,-0.461L0.045,-0.464L0.045,-0.49C0.053,-0.49 0.06,-0.49 0.066,-0.49C0.106,-0.489 0.143,-0.488 0.179,-0.488L0.192,-0.488C0.218,-0.488 0.238,-0.489 0.252,-0.49L0.518,-0.155L0.528,-0.155L0.528,-0.395C0.528,-0.412 0.527,-0.424 0.524,-0.433C0.521,-0.442 0.515,-0.448 0.506,-0.452C0.497,-0.456 0.484,-0.459 0.465,-0.461L0.433,-0.464L0.433,-0.49C0.478,-0.489 0.514,-0.488 0.542,-0.488C0.574,-0.488 0.61,-0.489 0.649,-0.49L0.649,-0.464L0.619,-0.461C0.6,-0.459 0.587,-0.456 0.578,-0.452C0.57,-0.448 0.564,-0.442 0.561,-0.433C0.558,-0.425 0.556,-0.412 0.556,-0.395L0.556,0.007L0.523,0.007L0.176,-0.428L0.166,-0.428L0.166,-0.202L0.138,-0.202L0.138,-0.395ZM0.166,-0.096C0.166,-0.079 0.167,-0.066 0.171,-0.057C0.174,-0.049 0.18,-0.043 0.189,-0.038C0.198,-0.034 0.212,-0.031 0.231,-0.03L0.266,-0.026L0.266,0C0.22,-0.001 0.182,-0.002 0.152,-0.002C0.12,-0.002 0.084,-0.001 0.045,0L0.045,-0.026L0.075,-0.029C0.094,-0.031 0.107,-0.034 0.116,-0.038C0.124,-0.042 0.13,-0.048 0.133,-0.057C0.137,-0.065 0.138,-0.078 0.138,-0.096L0.138,-0.202L0.166,-0.202L0.166,-0.096Z" style="fill-rule:nonzero;"/>
            </g>
            <g transform="matrix(75,0,0,75,2566.65,228.499)">
            </g>
            <g transform="matrix(75,0,0,75,2621.73,228.499)">
                <path d="M0.35,-0.488C0.431,-0.488 0.494,-0.489 0.54,-0.49C0.539,-0.427 0.543,-0.359 0.552,-0.288L0.525,-0.288C0.514,-0.334 0.503,-0.369 0.49,-0.393C0.477,-0.418 0.461,-0.435 0.442,-0.446C0.424,-0.456 0.399,-0.462 0.368,-0.462L0.214,-0.462C0.184,-0.462 0.159,-0.456 0.14,-0.446C0.122,-0.435 0.106,-0.418 0.093,-0.393C0.08,-0.369 0.068,-0.334 0.058,-0.288L0.03,-0.288C0.039,-0.359 0.044,-0.427 0.043,-0.49C0.088,-0.489 0.151,-0.488 0.232,-0.488L0.35,-0.488ZM0.243,-0.473L0.34,-0.473L0.34,-0.202L0.243,-0.202L0.243,-0.473ZM0.286,-0.002C0.242,-0.002 0.19,-0.002 0.131,-0L0.131,-0.026L0.18,-0.031C0.198,-0.033 0.211,-0.035 0.22,-0.039C0.228,-0.043 0.234,-0.049 0.238,-0.058C0.241,-0.066 0.243,-0.079 0.243,-0.096L0.243,-0.202L0.34,-0.202L0.34,-0.096C0.34,-0.079 0.342,-0.066 0.345,-0.058C0.348,-0.049 0.354,-0.043 0.363,-0.039C0.372,-0.035 0.385,-0.032 0.403,-0.03L0.452,-0.026L0.452,-0C0.392,-0.002 0.341,-0.002 0.297,-0.002L0.286,-0.002Z" style="fill-rule:nonzero;"/>
            </g>
            <g transform="matrix(75,0,0,75,2621.73,228.499)">
            </g>
            <g transform="matrix(75,0,0,75,2668.45,228.499)">
            </g>
        </g>
    </g>
</svg>
