<svg xmlns="http://www.w3.org/2000/svg" viewBox="0 0 1195.31 254.16">
  <defs>
    <style>
      .a {
        fill: #5c369d;
      }

      .b {
        fill: #0fa6d9;
      }

      .c {
        fill: #c54747;
      }
    </style>
  </defs>
  <g>
    <g>
      <path class="a" d="M13.45,185.1a8.65,8.65,0,0,0,5.41-5.53q1.32-4,1.32-12.85V39.88Q20.18,31,18.86,27a8.63,8.63,0,0,0-5.41-5.53Q9.37,19.94,0,19.22v-1q5.28.24,28.59.24,20.66,0,27.86-.24H66.78q26.91,0,42.16,12.73T124.2,66.06q0,15.61-7.81,27.39t-22.1,18.14Q80,118,61,118a112.38,112.38,0,0,1-12.49-.6,70.11,70.11,0,0,1-10.57-2v-1l1.92.48a64.08,64.08,0,0,0,8.89,1.32q4.56.36,9.85.36,21.38,0,31.47-11.89T100.18,67.5q0-24.73-9.73-36.39T60.3,19.46H42.52V166.72q0,8.88,1.8,12.85t6.85,5.53q5,1.56,16.33,2.28v1l-8.88-.24q-12.75-.48-26.67-.48-13.45,0-31.95.72v-1Q9.38,186.66,13.45,185.1Z"/>
      <path class="a" d="M138.93,185.58a10.48,10.48,0,0,0,5.76-5.17q1.8-3.6,1.8-10.33V24.74q0-11-4.08-15.73T127.52,3.6v-1q7.92.72,15.37.72,15.38,0,25.22-3.36V170.08q0,9.85,4.21,13.33t14.77,4v1q-22.58-1-29.79-1-7,0-29.78,1v-1Q135,187.14,138.93,185.58Z"/>
      <path class="a" d="M206.74,183.89q-8.4-7.8-8.4-21,0-11,5.88-18.37a40.15,40.15,0,0,1,14.18-11.29,180.91,180.91,0,0,1,21.5-8.29q8.88-2.88,14.17-5a27.18,27.18,0,0,0,8.65-5.4,10.21,10.21,0,0,0,3.36-7.57V86.24q0-11.76-5.52-17.66T244,62.7a40.06,40.06,0,0,0-17.06,3.36q-7.2,3.38-7.2,7.69a9.26,9.26,0,0,0,.84,3.48,39.34,39.34,0,0,0,2,4.21,52.16,52.16,0,0,1,3,6A14.53,14.53,0,0,1,226.68,93a9.17,9.17,0,0,1-3,7.08,11.05,11.05,0,0,1-7.81,2.77,11.48,11.48,0,0,1-8.77-3.73,13.33,13.33,0,0,1-3.48-9.49q0-7.68,6.13-14.29T226.32,65a68,68,0,0,1,22.94-3.72q13.69,0,22.11,4.44a27,27,0,0,1,12.37,13.82q4,9.36,4,24.5v73.27c0,3.84.56,6.69,1.68,8.53a5.75,5.75,0,0,0,5.29,2.76,11.37,11.37,0,0,0,5.52-1.44,74.44,74.44,0,0,0,6.73-4.33l1.44-1.2.72,1a59.87,59.87,0,0,1-10.93,7,27.14,27.14,0,0,1-11.41,2.16q-20.67,0-20.66-21.38-6.48,10.81-15.37,16.1a39.71,39.71,0,0,1-20.66,5.28Q215.14,191.7,206.74,183.89Zm48.41-3.84a34.78,34.78,0,0,0,10.93-11.17V110a13.71,13.71,0,0,1-5.16,7.09,99.13,99.13,0,0,1-11.9,7.33,137,137,0,0,0-14.53,9A37.45,37.45,0,0,0,225,143.9a28.26,28.26,0,0,0-4.08,15.37q0,11.53,5.4,18.14t15.26,6.6A25.28,25.28,0,0,0,255.15,180.05Z"/>
      <path class="a" d="M307.71,69.55a18.44,18.44,0,0,0-10-3.73v-1q16.1.72,24,.72,16.8,0,32.43-.72v1q-8.65.72-12.5,2.52t-4.2,5.41q-.36,3.6,2.52,10.57l32,78.07-1.68,3.37L390,112.67q5.76-15.61,6.49-25.71T393,71.71q-4.2-5.16-14.05-5.89v-1q10.1.48,23.06.48,9.6,0,18.74-.48v1q-6.74.5-12.13,7.21t-10.93,22.1l-35.8,96.81h-1.2L314.56,79.27A22.86,22.86,0,0,0,307.71,69.55Zm1.44,173.2Q304,238.3,304,230.62a15,15,0,0,1,3.6-10.33,12.16,12.16,0,0,1,9.61-4.09,8.57,8.57,0,0,1,6.49,2.53,9.17,9.17,0,0,1,2.4,6.6,20.12,20.12,0,0,1-.72,5.29q-.72,2.64-1.44,4.8a29.59,29.59,0,0,0-1.2,3.25,9.87,9.87,0,0,0-.48,3,2.85,2.85,0,0,0,1.2,2.52,6.3,6.3,0,0,0,3.6.84,16,16,0,0,0,11.77-5.16q5-5.18,9.13-15.74L361.4,190l.48,1.92-12.73,31.95-.48,1a67.55,67.55,0,0,1-6.85,13.1A21.2,21.2,0,0,1,333.9,245a23.69,23.69,0,0,1-10.45,2.16Q314.32,247.19,309.15,242.75Z"/>
      <path class="a" d="M419.25,64.86H487v1H419.25ZM431.5,185.22a11.19,11.19,0,0,0,5.77-6c1.11-2.72,1.68-6.57,1.68-11.53v-110q0-18.49,5.52-31.35T460.81,7Q471.61.47,486.75.48,500.45.48,509,6.37t8.53,15.25a13.4,13.4,0,0,1-3.6,9.73,12.17,12.17,0,0,1-9.13,3.72,10.61,10.61,0,0,1-7.45-2.64,9,9,0,0,1-2.88-7,16,16,0,0,1,1-5.52,31.41,31.41,0,0,1,3.12-6,22.82,22.82,0,0,0,2.05-3.48,7.63,7.63,0,0,0,.84-3c0-1.76-1.05-3.16-3.13-4.21a19,19,0,0,0-8.4-1.56q-15.13,0-22.23,11.17t-7.08,35.44V167.68q0,7,2.64,11.17a15.63,15.63,0,0,0,8.41,6.25q5.76,2,15.13,2.28v1l-6.24-.24q-24.27-.72-30-.72-7.69,0-30.27,1v-1Q427.41,187.14,431.5,185.22Z"/>
      <path class="a" d="M507.6,183.89q-8.42-7.8-8.41-21,0-11,5.89-18.37a40.21,40.21,0,0,1,14.17-11.29,181.6,181.6,0,0,1,21.5-8.29q8.89-2.88,14.18-5a27.18,27.18,0,0,0,8.65-5.4,10.21,10.21,0,0,0,3.36-7.57V86.24q0-11.76-5.53-17.66T544.84,62.7a40.06,40.06,0,0,0-17.06,3.36q-7.2,3.38-7.21,7.69a9.3,9.3,0,0,0,.85,3.48,35.87,35.87,0,0,0,2,4.21,52.16,52.16,0,0,1,3,6A14.53,14.53,0,0,1,527.54,93a9.17,9.17,0,0,1-3,7.08,11.07,11.07,0,0,1-7.81,2.77A11.48,11.48,0,0,1,508,99.09a13.33,13.33,0,0,1-3.48-9.49q0-7.68,6.12-14.29T527.18,65a68,68,0,0,1,22.94-3.72q13.7,0,22.1,4.44A26.93,26.93,0,0,1,584.6,79.52q4,9.36,4,24.5v73.27c0,3.84.56,6.69,1.68,8.53a5.74,5.74,0,0,0,5.29,2.76,11.37,11.37,0,0,0,5.52-1.44,74.44,74.44,0,0,0,6.73-4.33l1.44-1.2.72,1a59.87,59.87,0,0,1-10.93,7,27.14,27.14,0,0,1-11.41,2.16q-20.67,0-20.66-21.38-6.5,10.81-15.38,16.1a39.66,39.66,0,0,1-20.66,5.28Q516,191.7,507.6,183.89ZM556,180.05a34.88,34.88,0,0,0,10.93-11.17V110a13.67,13.67,0,0,1-5.17,7.09,98,98,0,0,1-11.89,7.33,136,136,0,0,0-14.53,9,37.45,37.45,0,0,0-9.49,10.45,28.17,28.17,0,0,0-4.08,15.37q0,11.53,5.4,18.14t15.26,6.6A25.28,25.28,0,0,0,556,180.05Z"/>
      <path class="a" d="M620.34,185.58a10.48,10.48,0,0,0,5.76-5.17q1.8-3.6,1.8-10.33V86.72q0-10.8-4.08-15.49t-14.65-5.65v-1q7.68.72,15.13.72,15.38,0,25.22-3.36v108.1q0,9.85,4.21,13.33t14.77,4v1q-22.57-1-29.79-1-7,0-29.54,1v-1A34.87,34.87,0,0,0,620.34,185.58Zm9.85-156.39a12.67,12.67,0,0,1-4-9.25,12.54,12.54,0,0,1,4-9.37,12.86,12.86,0,0,1,9.25-3.84,12.28,12.28,0,0,1,9.12,4,12.89,12.89,0,0,1,3.85,9.25,13.12,13.12,0,0,1-3.73,9.25,12.16,12.16,0,0,1-9.24,4A12.67,12.67,0,0,1,630.19,29.19Z"/>
      <path class="a" d="M683.71,185.46a10.46,10.46,0,0,0,5.64-5.29q1.68-3.6,1.68-10.09V86.72q0-11-4.08-15.49T672.3,65.58v-1l5.28.24c4.48.32,7.85.48,10.09.48a94,94,0,0,0,25-3.36v105.7q0,7,2.65,11.17a15.65,15.65,0,0,0,8.4,6.25q5.77,2,15.14,2.28v1l-6.49-.24q-24-.72-29.79-.72-7.68,0-30.26,1v-1Q679.74,187.14,683.71,185.46Zm65.7-92.61a9.4,9.4,0,0,1-2.88-7.09,12.53,12.53,0,0,1,.72-4.2,23.24,23.24,0,0,1,1.68-3.73,32.89,32.89,0,0,0,1.68-3.36,8.47,8.47,0,0,0,.72-3.36A4.82,4.82,0,0,0,749.41,67a9.58,9.58,0,0,0-5.77-1.44,35,35,0,0,0-12,2.28,43,43,0,0,0-11.41,6.25,28.5,28.5,0,0,0-7.81,8.77v-1.2q5.05-8.9,15.38-14.66a42.07,42.07,0,0,1,20.66-5.76q9.6,0,15.37,5.28t5.77,13.94q0,7-3.61,11a11.63,11.63,0,0,1-9.12,4.08A10.32,10.32,0,0,1,749.41,92.85Z"/>
      <path class="b" d="M926,188.34H812.1l.24-1.2q7-3.12,12.73-6.25t11.78-6q29.77-16.09,47.08-28.59t26.43-25.47q9.12-13,9.12-26.66,0-14.17-8.16-22.7T889.7,62.94a42.32,42.32,0,0,0-20.42,4.92A35.67,35.67,0,0,0,855.1,81.44a37.91,37.91,0,0,0-5,19.46q0,10.08,5.64,15.13t16.22,5a30.64,30.64,0,0,0,11.41-2,33.39,33.39,0,0,0,10-6.36l.24,1a49.53,49.53,0,0,1-17.9,13.93,53,53,0,0,1-22.46,4.81q-13.7,0-21.74-6.13t-8.05-17.42q0-13,10.57-24t28.35-17.66a109.56,109.56,0,0,1,38.44-6.6q18,0,31.35,4t20.54,11.29a23.46,23.46,0,0,1,7.2,16.94q0,10.33-7.92,19.58t-23.31,18q-15.37,8.77-40.11,19.34Q879.61,153,871,156.39v.24h67.26a58.29,58.29,0,0,0,10.45-.72,11,11,0,0,0,5.89-2.89,21.17,21.17,0,0,0,4.08-6.72h1.2q-9.14,33.63-10.81,43.24Q945,188.34,926,188.34Z"/>
      <path class="b" d="M980.45,138.85a15.92,15.92,0,0,1-6-12.73,17.77,17.77,0,0,1,6.72-14.41q6.74-5.53,17.3-5.53,10.1,0,16.46,4.8a15.67,15.67,0,0,1,6.36,13.22q0,8.16-7.21,13.93a27.2,27.2,0,0,1-17.53,5.77Q986.46,143.9,980.45,138.85Z"/>
      <path class="b" d="M1073.28,184.61q-15.13-7.08-23.43-19.81t-8.28-29.55a64.86,64.86,0,0,1,11.65-37.6q11.64-16.94,31.71-27a96.1,96.1,0,0,1,43.84-10.09q20.18,0,35.19,7t23.18,19.58q8.17,12.61,8.17,29.67a66.42,66.42,0,0,1-11.53,37.84q-11.54,17.17-31.59,27.14a97.08,97.08,0,0,1-43.84,10Q1088.42,191.7,1073.28,184.61Zm58.49-5.4q10.7-11.29,17.06-30a123.22,123.22,0,0,0,6.36-39.88q0-22.1-7.08-34.83t-19.82-12.73q-12.26,0-23.06,11.29t-17.18,30a121.72,121.72,0,0,0-6.37,39.4q0,22.57,7.33,35.31t20.06,12.73Q1121.09,190.5,1131.77,179.21Z"/>
    </g>
    <g>
      <path class="c" d="M374.51,244.09a5.75,5.75,0,0,0,1.79-1.23,13.34,13.34,0,0,0,1.82-2.34l12.19-18.43h1.45L394,241.6a5.4,5.4,0,0,0,.54,1.75,2.11,2.11,0,0,0,1.1.91,6.34,6.34,0,0,0,2,.3l-.47,1.55c-1.35-.07-3.1-.1-5.25-.1-2.45,0-4.37,0-5.77.1l.44-1.55a11.4,11.4,0,0,0,2.65-.27,1.67,1.67,0,0,0,1.14-.82,3.27,3.27,0,0,0,.15-1.74l-1.71-15.39.94-.78-9.3,14a9.92,9.92,0,0,0-1.48,2.9,1.33,1.33,0,0,0,.5,1.54,5.48,5.48,0,0,0,2.63.55l-.44,1.55c-2-.07-3.85-.1-5.55-.1-1.42,0-2.79,0-4.11.1l.43-1.55A7.06,7.06,0,0,0,374.51,244.09Zm7.25-8h9.77l.23,1.55h-11Z"/>
      <path class="c" d="M405.46,231.3a1.06,1.06,0,0,0-1.1-.79,2,2,0,0,0-1.31.54,5.51,5.51,0,0,0-1.22,1.62l-.6,1.21h-1.59l.75-1.41.06-.1a9.39,9.39,0,0,1,2.24-3.05,4.33,4.33,0,0,1,2.88-1,3.24,3.24,0,0,1,2.24.74,3.13,3.13,0,0,1,1,2,7.15,7.15,0,0,1-.31,2.9l-3.4,12.19h-3.3l3.5-12.7A3.72,3.72,0,0,0,405.46,231.3Zm7,13.73a5.83,5.83,0,0,1,0-4.07l1.75-6.2a4.8,4.8,0,0,0,.15-3.14,1.78,1.78,0,0,0-1.83-1.11,3.76,3.76,0,0,0-2.18.69,6.52,6.52,0,0,0-1.8,2l-.07-1a8.88,8.88,0,0,1,2.48-2.92,5.26,5.26,0,0,1,3.12-1,3.86,3.86,0,0,1,2.54.79,3.65,3.65,0,0,1,1.23,2.22,7.22,7.22,0,0,1-.3,3.36l-1.92,6.8a4.06,4.06,0,0,0-.14,2.16,1,1,0,0,0,1.08.77,2,2,0,0,0,1.38-.54,5.76,5.76,0,0,0,1.18-1.65l.64-1.21h1.55l-.74,1.45,0,.1a9.89,9.89,0,0,1-2.25,3,4.26,4.26,0,0,1-2.83,1A3,3,0,0,1,412.41,245Z"/>
      <path class="c" d="M437.44,245.37a8,8,0,0,1-3-3.44,11.86,11.86,0,0,1-1.06-5.18,15.89,15.89,0,0,1,1.79-7.4,14.88,14.88,0,0,1,4.76-5.51,11.06,11.06,0,0,1,6.39-2.05A8.21,8.21,0,0,1,450.8,223a7.91,7.91,0,0,1,3,3.42,11.82,11.82,0,0,1,1.05,5.14,16.08,16.08,0,0,1-1.77,7.43,14.78,14.78,0,0,1-4.75,5.52,11,11,0,0,1-6.35,2.07A8.28,8.28,0,0,1,437.44,245.37Zm9.07-2.22a13.41,13.41,0,0,0,3.33-5.16,19,19,0,0,0,1.25-6.9,13.44,13.44,0,0,0-.58-4.2,5.63,5.63,0,0,0-1.66-2.68,4.1,4.1,0,0,0-2.68-.91,6.4,6.4,0,0,0-4.38,1.94,13.55,13.55,0,0,0-3.34,5.19,19.27,19.27,0,0,0-1.24,7,13.57,13.57,0,0,0,.55,4.12,5.54,5.54,0,0,0,1.65,2.65,4.06,4.06,0,0,0,2.65.91A6.52,6.52,0,0,0,446.51,243.15Z"/>
      <path class="c" d="M457.17,252.07a2.63,2.63,0,0,0,1.26-.74,3.1,3.1,0,0,0,.71-1.35l4.61-16.57a3.92,3.92,0,0,0,.16-2.16,1.05,1.05,0,0,0-1.1-.74,2,2,0,0,0-1.31.54,5.51,5.51,0,0,0-1.22,1.62l-.6,1.21h-1.59l.75-1.41.06-.1a9.39,9.39,0,0,1,2.24-3.05,4.33,4.33,0,0,1,2.88-1,3.27,3.27,0,0,1,2.19.69,3.08,3.08,0,0,1,1,2,7,7,0,0,1-.27,3l-4.44,16a1.62,1.62,0,0,0,.1,1.37,2.16,2.16,0,0,0,1.3.79,10,10,0,0,0,2.61.27l-.44,1.58-1,0c-2.6-.07-4.23-.1-4.88-.1s-2.32,0-4.65.1l-.88,0,.44-1.58A7.21,7.21,0,0,0,457.17,252.07Zm8.12-6.21a3.5,3.5,0,0,1-1.47-2l.47-1.28a3.3,3.3,0,0,0,1.23,1.4,3.24,3.24,0,0,0,1.7.48,4.09,4.09,0,0,0,2.88-1.33,9.28,9.28,0,0,0,2.18-3.55,13.37,13.37,0,0,0,.81-4.62,6.45,6.45,0,0,0-.68-3.3,2.23,2.23,0,0,0-2.05-1.11,3.19,3.19,0,0,0-2,.69,5.5,5.5,0,0,0-1.55,2l-.06-1.15a7.27,7.27,0,0,1,2.08-2.86,4.66,4.66,0,0,1,2.94-1,4.07,4.07,0,0,1,2.44.77,4.89,4.89,0,0,1,1.62,2.19,9.26,9.26,0,0,1,.55,3.37,14.28,14.28,0,0,1-1.21,5.76,12,12,0,0,1-3.22,4.5,6.38,6.38,0,0,1-4.19,1.7A4.45,4.45,0,0,1,465.29,245.86Z"/>
      <path class="c" d="M482.06,244.93a7.1,7.1,0,0,1-1.36-4.65,13.07,13.07,0,0,1,1.36-5.84A12.13,12.13,0,0,1,485.7,230a8,8,0,0,1,4.84-1.68,3.92,3.92,0,0,1,2.69.84,3,3,0,0,1,.95,2.39,5.83,5.83,0,0,1-1.3,3.56,11.16,11.16,0,0,1-3.71,3,22.71,22.71,0,0,1-5.64,2l0-1.28a16.22,16.22,0,0,0,4.16-1.84,8.73,8.73,0,0,0,2.6-2.42,5.12,5.12,0,0,0,.89-2.88,2.42,2.42,0,0,0-.35-1.42,1.19,1.19,0,0,0-1-.47,3.77,3.77,0,0,0-2.69,1.57,12.28,12.28,0,0,0-2.26,3.92,13.46,13.46,0,0,0-.88,4.65,6,6,0,0,0,.83,3.45,2.71,2.71,0,0,0,2.38,1.2,3.61,3.61,0,0,0,2.22-.79,7.43,7.43,0,0,0,1.89-2.34h1.51a10.15,10.15,0,0,1-2.91,3.84,6.43,6.43,0,0,1-4,1.31A4.81,4.81,0,0,1,482.06,244.93Z"/>
      <path class="c" d="M502.45,231.3a1.06,1.06,0,0,0-1.1-.79,2,2,0,0,0-1.31.54,5.51,5.51,0,0,0-1.22,1.62l-.6,1.21h-1.59l.75-1.41.06-.1a9.39,9.39,0,0,1,2.24-3.05,4.33,4.33,0,0,1,2.88-1,3.24,3.24,0,0,1,2.24.74,3.13,3.13,0,0,1,1,2,7.15,7.15,0,0,1-.31,2.9l-3.4,12.19h-3.3l3.5-12.7A3.72,3.72,0,0,0,502.45,231.3ZM509.4,245a5.83,5.83,0,0,1,0-4.07l1.75-6.2a4.86,4.86,0,0,0,.15-3.14,1.78,1.78,0,0,0-1.83-1.11,3.76,3.76,0,0,0-2.18.69,6.52,6.52,0,0,0-1.8,2l-.07-1a8.88,8.88,0,0,1,2.48-2.92,5.26,5.26,0,0,1,3.12-1,3.86,3.86,0,0,1,2.54.79,3.65,3.65,0,0,1,1.23,2.22,7.22,7.22,0,0,1-.3,3.36l-1.92,6.8a4.06,4.06,0,0,0-.14,2.16,1,1,0,0,0,1.08.77,2,2,0,0,0,1.38-.54A5.76,5.76,0,0,0,516,242.2l.64-1.21h1.55l-.74,1.45,0,.1a9.89,9.89,0,0,1-2.25,3,4.26,4.26,0,0,1-2.83,1A3,3,0,0,1,509.4,245Z"/>
      <path class="c" d="M534.58,246.23a13.48,13.48,0,0,1-2.2-1,4.78,4.78,0,0,0-.76-.37,1.8,1.8,0,0,0-.62-.14,1,1,0,0,0-.73.31,4,4,0,0,0-.69,1H528c.38-1.05.75-2.19,1.09-3.42s.72-2.7,1.1-4.43h1.58a9,9,0,0,0,.42,3.67,4.52,4.52,0,0,0,1.77,2.31,5.42,5.42,0,0,0,3,.79,4.47,4.47,0,0,0,3.1-1,3.59,3.59,0,0,0,1.15-2.82,4.76,4.76,0,0,0-.49-2.14,7.44,7.44,0,0,0-1.25-1.8c-.5-.54-1.18-1.19-2-1.95s-1.67-1.59-2.25-2.21a8.49,8.49,0,0,1-1.43-2.12,6.23,6.23,0,0,1-.57-2.71,6.39,6.39,0,0,1,.88-3.34,6,6,0,0,1,2.42-2.31,7.4,7.4,0,0,1,3.54-.82,6.28,6.28,0,0,1,2.21.33,12.69,12.69,0,0,1,1.8.91,2.38,2.38,0,0,0,.6.41,1.52,1.52,0,0,0,.61.13.84.84,0,0,0,.62-.3,4.25,4.25,0,0,0,.63-1h1.61a30.05,30.05,0,0,0-1.88,6.64h-1.62a7.2,7.2,0,0,0-.32-3,3.71,3.71,0,0,0-1.48-1.91,4.71,4.71,0,0,0-2.55-.65,3.78,3.78,0,0,0-2.72,1,3.56,3.56,0,0,0-1.05,2.71,4.46,4.46,0,0,0,.52,2.09,8.71,8.71,0,0,0,1.28,1.79c.51.54,1.2,1.21,2.08,2s1.7,1.63,2.29,2.27a10.27,10.27,0,0,1,1.5,2.18,5.76,5.76,0,0,1,.62,2.66,6,6,0,0,1-1,3.35,6.76,6.76,0,0,1-2.72,2.34,8.66,8.66,0,0,1-3.87.84A8.91,8.91,0,0,1,534.58,246.23Z"/>
      <path class="c" d="M551.36,244.88a7.25,7.25,0,0,1-1.4-4.73,13.15,13.15,0,0,1,1.33-5.8,12,12,0,0,1,3.54-4.39,7.64,7.64,0,0,1,4.67-1.67,4.82,4.82,0,0,1,4,1.72,7.38,7.38,0,0,1,1.39,4.78,12.82,12.82,0,0,1-1.34,5.76,12,12,0,0,1-3.56,4.38,7.65,7.65,0,0,1-4.66,1.65A4.78,4.78,0,0,1,551.36,244.88Zm7-1.45a12,12,0,0,0,2.26-4.16,16.41,16.41,0,0,0,.86-5.22,6.86,6.86,0,0,0-.57-3.15,1.83,1.83,0,0,0-1.69-1.06,3.84,3.84,0,0,0-2.86,1.62,12.76,12.76,0,0,0-2.26,4.17,16.15,16.15,0,0,0-.87,5.22,6.75,6.75,0,0,0,.57,3.12,1.83,1.83,0,0,0,1.72,1.06A3.87,3.87,0,0,0,558.4,243.43Z"/>
      <path class="c" d="M572.1,245.81a3.45,3.45,0,0,1-1.22-2.23,8,8,0,0,1,.31-3.36l1.88-6.81a3.86,3.86,0,0,0,.16-2.17,1.07,1.07,0,0,0-1.13-.76,2,2,0,0,0-1.32.55,5.81,5.81,0,0,0-1.21,1.67l-.61,1.18h-1.58l.74-1.41.07-.1a10.07,10.07,0,0,1,2.26-3,4.31,4.31,0,0,1,2.86-1,2.86,2.86,0,0,1,2.88,1.57,6,6,0,0,1,0,4.06l-1.72,6.2a4.84,4.84,0,0,0-.15,3.11,1.8,1.8,0,0,0,1.87,1.13,3.48,3.48,0,0,0,2.07-.69,6.71,6.71,0,0,0,1.77-2l.07,1a8.73,8.73,0,0,1-2.44,2.94,5.13,5.13,0,0,1-3.05,1A4,4,0,0,1,572.1,245.81Zm8.59.05a3,3,0,0,1-1-2A8,8,0,0,1,580,241l3.47-12.2h3.31l-3.61,12.7a3.84,3.84,0,0,0-.15,2.17,1,1,0,0,0,1.09.76,2.12,2.12,0,0,0,1.39-.54,5.08,5.08,0,0,0,1.18-1.65l.6-1.21h1.59l-.75,1.45-.06.1a9.71,9.71,0,0,1-2.23,3,4.26,4.26,0,0,1-2.83,1A3.38,3.38,0,0,1,580.69,245.86Z"/>
      <path class="c" d="M595.92,231.29a1.08,1.08,0,0,0-1.12-.78,2,2,0,0,0-1.31.54,5.33,5.33,0,0,0-1.21,1.62l-.61,1.21h-1.58l.74-1.41.07-.1a9.25,9.25,0,0,1,2.24-3.05,4.33,4.33,0,0,1,2.88-1,3.21,3.21,0,0,1,2.25.74,3.16,3.16,0,0,1,1,2,7.31,7.31,0,0,1-.3,2.9l-3.4,12.19h-3.31l3.51-12.7A3.46,3.46,0,0,0,595.92,231.29Zm6.92,3.4a1.18,1.18,0,0,1-.36-.91,2,2,0,0,1,.16-.77,9.41,9.41,0,0,1,.42-.88,5.45,5.45,0,0,0,.35-.62,1.38,1.38,0,0,0,.15-.56.44.44,0,0,0-.23-.4,1.22,1.22,0,0,0-.61-.14,3.51,3.51,0,0,0-2.07.83,6.41,6.41,0,0,0-1.8,2.14l0-1.22a8.12,8.12,0,0,1,2.33-2.84,4.8,4.8,0,0,1,2.93-1,2.53,2.53,0,0,1,1.9.67,2.59,2.59,0,0,1,.66,1.89,5,5,0,0,1-.42,2,4.71,4.71,0,0,1-1.06,1.57,2,2,0,0,1-1.38.59A1.29,1.29,0,0,1,602.84,234.69Z"/>
      <path class="c" d="M610.18,244.93a7.33,7.33,0,0,1-1.33-4.68,13.08,13.08,0,0,1,1.35-5.85,12.06,12.06,0,0,1,3.61-4.43,7.91,7.91,0,0,1,4.81-1.68,4.2,4.2,0,0,1,2.82.88,2.94,2.94,0,0,1,1,2.35,4.23,4.23,0,0,1-.45,1.94,4,4,0,0,1-1.18,1.43,2.58,2.58,0,0,1-1.57.54,1.55,1.55,0,0,1-1-.34,1.14,1.14,0,0,1-.41-.94,1.79,1.79,0,0,1,.29-1,6.53,6.53,0,0,1,.89-1,3.91,3.91,0,0,0,.71-.86,1.41,1.41,0,0,0,.2-.75.68.68,0,0,0-.23-.54,1.23,1.23,0,0,0-.81-.2,4.61,4.61,0,0,0-3.18,1.43,10.55,10.55,0,0,0-2.51,3.77,12.12,12.12,0,0,0-1,4.77,6.77,6.77,0,0,0,.76,3.57,2.43,2.43,0,0,0,2.2,1.21,3.41,3.41,0,0,0,2.18-.76,7.12,7.12,0,0,0,1.8-2.37h1.48a10,10,0,0,1-2.83,3.84,6.05,6.05,0,0,1-3.81,1.31A4.59,4.59,0,0,1,610.18,244.93Z"/>
      <path class="c" d="M626.62,244.93a7.16,7.16,0,0,1-1.36-4.65,13.2,13.2,0,0,1,1.36-5.84,12.13,12.13,0,0,1,3.64-4.47,8,8,0,0,1,4.84-1.68,3.91,3.91,0,0,1,2.69.84,3,3,0,0,1,1,2.39,5.83,5.83,0,0,1-1.3,3.56,11.16,11.16,0,0,1-3.71,3,22.71,22.71,0,0,1-5.64,2l0-1.28a16.22,16.22,0,0,0,4.16-1.84,8.73,8.73,0,0,0,2.6-2.42,5.12,5.12,0,0,0,.89-2.88,2.42,2.42,0,0,0-.35-1.42,1.19,1.19,0,0,0-1-.47,3.77,3.77,0,0,0-2.69,1.57,12.47,12.47,0,0,0-2.26,3.92,13.44,13.44,0,0,0-.87,4.65,6,6,0,0,0,.82,3.45,2.71,2.71,0,0,0,2.38,1.2,3.61,3.61,0,0,0,2.22-.79,7.3,7.3,0,0,0,1.89-2.34h1.51a10.05,10.05,0,0,1-2.91,3.84,6.43,6.43,0,0,1-4,1.31A4.81,4.81,0,0,1,626.62,244.93Z"/>
      <path class="c" d="M652.6,245.86a3,3,0,0,1-1-2,7.89,7.89,0,0,1,.29-2.91l4.44-15.84a3.38,3.38,0,0,0,.16-1.68,1.29,1.29,0,0,0-1-.88,8.22,8.22,0,0,0-2.47-.27l.47-1.58a27.1,27.1,0,0,0,4.24-.37,16.37,16.37,0,0,0,3.51-1l-6.2,22.13a4.19,4.19,0,0,0-.15,2.16,1,1,0,0,0,1.09.77,2.09,2.09,0,0,0,1.33-.54,4.83,4.83,0,0,0,1.2-1.65l.64-1.21h1.55l-.74,1.45,0,.1a9.42,9.42,0,0,1-2.24,3,4.37,4.37,0,0,1-2.88,1A3.34,3.34,0,0,1,652.6,245.86Z"/>
      <path class="c" d="M666,245.84a3.08,3.08,0,0,1-1.08-2.05,5.38,5.38,0,0,1,.42-2.83l2.8-7.55a3.36,3.36,0,0,0,.18-2.07,1.1,1.1,0,0,0-1.16-.83,2.08,2.08,0,0,0-1.35.54,5.33,5.33,0,0,0-1.21,1.62l-.61,1.21h-1.58l.74-1.41a10,10,0,0,1,2.39-3.19,4.38,4.38,0,0,1,2.8-1,3.37,3.37,0,0,1,2.29.76,3.17,3.17,0,0,1,1.06,2,5.67,5.67,0,0,1-.42,2.83l-2.76,7.54a3.16,3.16,0,0,0-.24,2.11,1.12,1.12,0,0,0,1.18.82,2.09,2.09,0,0,0,1.33-.54,4.83,4.83,0,0,0,1.2-1.65l.6-1.21h1.59l-.75,1.45a9.22,9.22,0,0,1-2.34,3.18,4.34,4.34,0,0,1-2.74,1A3.49,3.49,0,0,1,666,245.84Zm3.43-21.61a2.26,2.26,0,0,1-.62-1.6,2.39,2.39,0,0,1,.76-1.74,2.42,2.42,0,0,1,1.77-.75,2.22,2.22,0,0,1,2.25,2.25,2.39,2.39,0,0,1-.77,1.74,2.56,2.56,0,0,1-1.82.76A2.08,2.08,0,0,1,669.44,224.23Z"/>
      <path class="c" d="M678.47,244.93a7.27,7.27,0,0,1-1.33-4.68,13.08,13.08,0,0,1,1.35-5.85,12,12,0,0,1,3.6-4.43,7.94,7.94,0,0,1,4.82-1.68,4.15,4.15,0,0,1,2.81.88,2.92,2.92,0,0,1,1,2.35,4.11,4.11,0,0,1-.46,1.94,4,4,0,0,1-1.17,1.43,2.6,2.6,0,0,1-1.57.54,1.56,1.56,0,0,1-1-.34,1.14,1.14,0,0,1-.4-.94,1.79,1.79,0,0,1,.29-1,6.53,6.53,0,0,1,.89-1,4.22,4.22,0,0,0,.71-.86,1.5,1.5,0,0,0,.2-.75A.66.66,0,0,0,688,230a1.19,1.19,0,0,0-.8-.2,4.62,4.62,0,0,0-3.19,1.43,10.68,10.68,0,0,0-2.51,3.77,12.3,12.3,0,0,0-1,4.77,6.87,6.87,0,0,0,.76,3.57,2.45,2.45,0,0,0,2.21,1.21,3.38,3.38,0,0,0,2.17-.76,7.12,7.12,0,0,0,1.8-2.37h1.49a10.12,10.12,0,0,1-2.83,3.84,6.09,6.09,0,0,1-3.81,1.31A4.59,4.59,0,0,1,678.47,244.93Z"/>
      <path class="c" d="M694.91,244.93a7.1,7.1,0,0,1-1.36-4.65,13.07,13.07,0,0,1,1.36-5.84,12,12,0,0,1,3.64-4.47,8,8,0,0,1,4.83-1.68,3.93,3.93,0,0,1,2.7.84,3,3,0,0,1,.94,2.39,5.82,5.82,0,0,1-1.29,3.56,11.26,11.26,0,0,1-3.71,3,23,23,0,0,1-5.64,2l0-1.28a16.22,16.22,0,0,0,4.16-1.84,8.69,8.69,0,0,0,2.59-2.42,5.05,5.05,0,0,0,.9-2.88,2.34,2.34,0,0,0-.36-1.42,1.16,1.16,0,0,0-1-.47,3.79,3.79,0,0,0-2.7,1.57,12.26,12.26,0,0,0-2.25,3.92,13.23,13.23,0,0,0-.88,4.65,6,6,0,0,0,.83,3.45,2.7,2.7,0,0,0,2.37,1.2,3.62,3.62,0,0,0,2.23-.79,7.28,7.28,0,0,0,1.88-2.34h1.52a10.07,10.07,0,0,1-2.92,3.84,6.38,6.38,0,0,1-3.95,1.31A4.81,4.81,0,0,1,694.91,244.93Z"/>
      <path class="c" d="M715.29,231.3a1.05,1.05,0,0,0-1.09-.79,2,2,0,0,0-1.32.54,5.5,5.5,0,0,0-1.21,1.62l-.61,1.21h-1.58l.74-1.41.07-.1a9.25,9.25,0,0,1,2.24-3.05,4.33,4.33,0,0,1,2.88-1,3.25,3.25,0,0,1,2.24.74,3.12,3.12,0,0,1,1,2,7,7,0,0,1-.3,2.9l-3.4,12.19h-3.3l3.5-12.7A3.62,3.62,0,0,0,715.29,231.3Zm7,13.73a5.72,5.72,0,0,1,0-4.07l1.75-6.2a4.93,4.93,0,0,0,.15-3.14,1.79,1.79,0,0,0-1.84-1.11,3.73,3.73,0,0,0-2.17.69,6.52,6.52,0,0,0-1.8,2l-.07-1a8.77,8.77,0,0,1,2.48-2.92,5.26,5.26,0,0,1,3.11-1,3.87,3.87,0,0,1,2.55.79,3.65,3.65,0,0,1,1.23,2.22,7.24,7.24,0,0,1-.31,3.36l-1.92,6.8a4.14,4.14,0,0,0-.13,2.16,1,1,0,0,0,1.08.77,2,2,0,0,0,1.38-.54,6,6,0,0,0,1.18-1.65l.64-1.21h1.55l-.75,1.45,0,.1a10.07,10.07,0,0,1-2.26,3,4.26,4.26,0,0,1-2.83,1A2.94,2.94,0,0,1,722.25,245Z"/>
      <path class="c" d="M735.35,246a5.39,5.39,0,0,1-2.24-1.5,3.26,3.26,0,0,1-.79-2.16,2.36,2.36,0,0,1,.52-1.63,1.83,1.83,0,0,1,1.43-.59,1.62,1.62,0,0,1,1.22.45,1.78,1.78,0,0,1,.44,1.27c0,.15,0,.31,0,.47s0,.31,0,.47a1.13,1.13,0,0,1,0,.34,1.77,1.77,0,0,0,0,.37,1.31,1.31,0,0,0,.3.86,1.87,1.87,0,0,0,.91.52,5.76,5.76,0,0,0,1.49.17,4.69,4.69,0,0,0,2.88-.78,2.49,2.49,0,0,0,1-2.09,3,3,0,0,0-.42-1.58,4.5,4.5,0,0,0-1-1.21c-.42-.34-1-.76-1.7-1.25a21.51,21.51,0,0,1-2-1.41,5.94,5.94,0,0,1-1.25-1.47,4,4,0,0,1-.52-2.11,4.22,4.22,0,0,1,.79-2.52,5.22,5.22,0,0,1,2.24-1.74,8.16,8.16,0,0,1,3.23-.62,7.8,7.8,0,0,1,3,.52,5.33,5.33,0,0,1,2.06,1.4,3,3,0,0,1,.75,2,2.2,2.2,0,0,1-.47,1.45,1.53,1.53,0,0,1-1.24.57,1.66,1.66,0,0,1-1.18-.44,1.5,1.5,0,0,1-.47-1.18,1,1,0,0,1,.05-.35,1.37,1.37,0,0,0,0-.39,1.39,1.39,0,0,1,0-.3,1.24,1.24,0,0,0,0-.27,1.18,1.18,0,0,0-.62-1.08,3.55,3.55,0,0,0-1.8-.37,3.84,3.84,0,0,0-2.39.64,2.09,2.09,0,0,0-.85,1.75,2.91,2.91,0,0,0,.41,1.52,4.55,4.55,0,0,0,1,1.18,17.89,17.89,0,0,0,1.72,1.21c.83.58,1.49,1.09,2,1.51a5.8,5.8,0,0,1,1.27,1.57,4.13,4.13,0,0,1,.52,2.07,4.53,4.53,0,0,1-.89,2.73,5.83,5.83,0,0,1-2.48,1.89,9,9,0,0,1-3.57.67A9.12,9.12,0,0,1,735.35,246Z"/>
      <path class="c" d="M752.15,244.93a7.1,7.1,0,0,1-1.37-4.65,13.08,13.08,0,0,1,1.37-5.84,12.1,12.1,0,0,1,3.63-4.47,8,8,0,0,1,4.84-1.68,3.89,3.89,0,0,1,2.69.84,3,3,0,0,1,1,2.39,5.83,5.83,0,0,1-1.3,3.56,11.06,11.06,0,0,1-3.71,3,22.71,22.71,0,0,1-5.64,2l0-1.28a16.54,16.54,0,0,0,4.16-1.84,8.81,8.81,0,0,0,2.59-2.42,5.12,5.12,0,0,0,.89-2.88,2.42,2.42,0,0,0-.35-1.42,1.19,1.19,0,0,0-1-.47,3.77,3.77,0,0,0-2.69,1.57,12.47,12.47,0,0,0-2.26,3.92,13.44,13.44,0,0,0-.87,4.65,6,6,0,0,0,.82,3.45,2.71,2.71,0,0,0,2.38,1.2,3.61,3.61,0,0,0,2.22-.79,7.17,7.17,0,0,0,1.89-2.34h1.51a10,10,0,0,1-2.91,3.84,6.43,6.43,0,0,1-4,1.31A4.79,4.79,0,0,1,752.15,244.93Z"/>
      <path class="c" d="M769.8,245.82a4.61,4.61,0,0,1-1.62-2.17,9.08,9.08,0,0,1-.55-3.33,13.64,13.64,0,0,1,1.29-5.81,12.43,12.43,0,0,1,3.41-4.5,6.82,6.82,0,0,1,4.39-1.72,5.94,5.94,0,0,1,2.85.74,8.66,8.66,0,0,1,2.51,2.12l-2.39,1.65a4.69,4.69,0,0,0-1.08-2.15,2.39,2.39,0,0,0-1.79-.78A4,4,0,0,0,774,231.3,10.38,10.38,0,0,0,771.8,235,15,15,0,0,0,771,240a6.5,6.5,0,0,0,.65,3.26,2.19,2.19,0,0,0,2,1.12,3.11,3.11,0,0,0,2-.7,6.21,6.21,0,0,0,1.6-2l0,1.14a6.81,6.81,0,0,1-2.07,2.85,4.7,4.7,0,0,1-2.91,1A4.12,4.12,0,0,1,769.8,245.82Zm8,0a3,3,0,0,1-1-2,7.87,7.87,0,0,1,.28-2.91l4.45-15.84a4.11,4.11,0,0,0,.19-1.7,1.14,1.14,0,0,0-.8-.87,6.4,6.4,0,0,0-2.12-.26l.47-1.58a23.4,23.4,0,0,0,4-.37,14.53,14.53,0,0,0,3.25-1l-6.23,22.13a4.11,4.11,0,0,0-.1,2.14,1,1,0,0,0,1,.79,2.15,2.15,0,0,0,1.37-.54,4.81,4.81,0,0,0,1.19-1.65l.61-1.21h1.55l-.71,1.45,0,.1a9.57,9.57,0,0,1-2.24,3,4.37,4.37,0,0,1-2.88,1A3.35,3.35,0,0,1,777.78,245.86Z"/>
      <path class="c" d="M798.15,228.76h12l-.44,1.55h-12Zm1.31,17.13a3.17,3.17,0,0,1-1.23-1.92,6.1,6.1,0,0,1,.12-2.85l4.92-17.45a15.6,15.6,0,0,0,3.44-.5l-5.16,18.49a3,3,0,0,0-.08,2,1.3,1.3,0,0,0,1.33.69,2.39,2.39,0,0,0,1.51-.52,4.72,4.72,0,0,0,1.25-1.67l.61-1.21h1.55l-1.05,2.12-.07.07a6.85,6.85,0,0,1-1.92,2.49,4.37,4.37,0,0,1-2.83.91A4,4,0,0,1,799.46,245.89Z"/>
      <path class="c" d="M816.54,223.44a1.24,1.24,0,0,0-.94-.88,8.47,8.47,0,0,0-2.49-.27l.47-1.58a27.1,27.1,0,0,0,4.24-.37,16.37,16.37,0,0,0,3.51-1l-7.48,26.78h-3.3l5.82-21A3.54,3.54,0,0,0,816.54,223.44ZM821.19,245a5.81,5.81,0,0,1,0-4.06l1.75-6.2a5,5,0,0,0,.12-3.14,1.84,1.84,0,0,0-1.91-1.11,3.51,3.51,0,0,0-2,.69,6.72,6.72,0,0,0-1.79,2v-1.05a8.63,8.63,0,0,1,2.46-2.89,5.15,5.15,0,0,1,3.07-1,3.76,3.76,0,0,1,2.48.79,3.51,3.51,0,0,1,1.19,2.22,8.05,8.05,0,0,1-.27,3.36l-1.89,6.8a4,4,0,0,0-.16,2.16,1,1,0,0,0,1.11.77,2.09,2.09,0,0,0,1.33-.54,4.83,4.83,0,0,0,1.2-1.65l.64-1.21H830l-.74,1.45-.07.1a10.07,10.07,0,0,1-2.26,3,4.3,4.3,0,0,1-2.86,1A2.9,2.9,0,0,1,821.19,245Z"/>
      <path class="c" d="M837,231.29a1.07,1.07,0,0,0-1.11-.78,2,2,0,0,0-1.31.54,5.33,5.33,0,0,0-1.21,1.62l-.61,1.21H831.2l.74-1.41.07-.1a9.25,9.25,0,0,1,2.24-3.05,4.29,4.29,0,0,1,2.88-1,3.23,3.23,0,0,1,2.25.74,3.16,3.16,0,0,1,1,2,7.31,7.31,0,0,1-.3,2.9l-3.41,12.19h-3.3l3.51-12.7A3.44,3.44,0,0,0,837,231.29Zm6.93,3.4a1.18,1.18,0,0,1-.36-.91,2,2,0,0,1,.16-.77,9.41,9.41,0,0,1,.42-.88,5.45,5.45,0,0,0,.35-.62,1.38,1.38,0,0,0,.15-.56.44.44,0,0,0-.23-.4,1.22,1.22,0,0,0-.61-.14,3.51,3.51,0,0,0-2.07.83,6.41,6.41,0,0,0-1.8,2.14l0-1.22a8.12,8.12,0,0,1,2.33-2.84,4.78,4.78,0,0,1,2.93-1,2.53,2.53,0,0,1,1.9.67,2.59,2.59,0,0,1,.66,1.89,5,5,0,0,1-.42,2,4.71,4.71,0,0,1-1.06,1.57,2,2,0,0,1-1.39.59A1.29,1.29,0,0,1,844,234.69Z"/>
      <path class="c" d="M851.33,244.93a7.1,7.1,0,0,1-1.37-4.65,13.08,13.08,0,0,1,1.37-5.84A12,12,0,0,1,855,230a8,8,0,0,1,4.83-1.68,3.89,3.89,0,0,1,2.69.84,3,3,0,0,1,1,2.39,5.77,5.77,0,0,1-1.3,3.56,11.11,11.11,0,0,1-3.7,3,22.94,22.94,0,0,1-5.65,2l0-1.28A16.38,16.38,0,0,0,857,237a8.81,8.81,0,0,0,2.59-2.42,5,5,0,0,0,.89-2.88,2.42,2.42,0,0,0-.35-1.42,1.19,1.19,0,0,0-1-.47,3.77,3.77,0,0,0-2.7,1.57,12.47,12.47,0,0,0-2.26,3.92,13.44,13.44,0,0,0-.87,4.65,6,6,0,0,0,.82,3.45,2.71,2.71,0,0,0,2.38,1.2,3.61,3.61,0,0,0,2.22-.79,7.17,7.17,0,0,0,1.89-2.34h1.51a10,10,0,0,1-2.91,3.84,6.43,6.43,0,0,1-4,1.31A4.79,4.79,0,0,1,851.33,244.93Z"/>
      <path class="c" d="M868.17,244.93a7.1,7.1,0,0,1-1.36-4.65,13.07,13.07,0,0,1,1.36-5.84,12,12,0,0,1,3.64-4.47,8,8,0,0,1,4.83-1.68,3.93,3.93,0,0,1,2.7.84,3,3,0,0,1,.94,2.39,5.82,5.82,0,0,1-1.29,3.56,11.16,11.16,0,0,1-3.71,3,23,23,0,0,1-5.64,2l0-1.28a16.22,16.22,0,0,0,4.16-1.84,8.73,8.73,0,0,0,2.6-2.42,5.12,5.12,0,0,0,.89-2.88,2.34,2.34,0,0,0-.36-1.42,1.16,1.16,0,0,0-1-.47,3.79,3.79,0,0,0-2.7,1.57,12.26,12.26,0,0,0-2.25,3.92,13.23,13.23,0,0,0-.88,4.65,6,6,0,0,0,.83,3.45,2.7,2.7,0,0,0,2.37,1.2,3.62,3.62,0,0,0,2.23-.79,7.28,7.28,0,0,0,1.88-2.34H879a10.07,10.07,0,0,1-2.92,3.84,6.38,6.38,0,0,1-3.95,1.31A4.81,4.81,0,0,1,868.17,244.93Z"/>
      <path class="c" d="M895,245.82a4.61,4.61,0,0,1-1.62-2.17,9.07,9.07,0,0,1-.56-3.33,13.65,13.65,0,0,1,1.3-5.81,12.52,12.52,0,0,1,3.4-4.5,6.87,6.87,0,0,1,4.4-1.72,5.94,5.94,0,0,1,2.85.74,8.66,8.66,0,0,1,2.51,2.12l-2.39,1.65a4.69,4.69,0,0,0-1.08-2.15,2.39,2.39,0,0,0-1.79-.78,3.93,3.93,0,0,0-2.84,1.43A10.38,10.38,0,0,0,897,235a14.75,14.75,0,0,0-.81,4.91,6.49,6.49,0,0,0,.66,3.26,2.19,2.19,0,0,0,2,1.12,3.13,3.13,0,0,0,2-.7,6.34,6.34,0,0,0,1.6-2l0,1.14a7,7,0,0,1-2.07,2.83,4.65,4.65,0,0,1-3,1A4,4,0,0,1,895,245.82Zm7.38-.74a5.67,5.67,0,0,1-.09-4.12l2.9-10.21a14.24,14.24,0,0,0,1.88-1,13.64,13.64,0,0,0,2-1.5l.84,1.18a8.26,8.26,0,0,0-1.25,1.48,7.94,7.94,0,0,0-.8,2.09l-2.36,8.49a4,4,0,0,0-.12,2.17,1.06,1.06,0,0,0,1.13.76,1.86,1.86,0,0,0,1.31-.54,6.4,6.4,0,0,0,1.11-1.48l.07-.17.61-1.21h1.55l-.84,1.79a8.37,8.37,0,0,1-2.13,2.83,4.47,4.47,0,0,1-2.89,1A3,3,0,0,1,902.37,245.08Z"/>
      <path class="c" d="M922.53,245.74a5.18,5.18,0,0,1-1.15-2.14,13,13,0,0,1-.44-2.88h-.23a17.27,17.27,0,0,1-1.4,3.05,6.64,6.64,0,0,1-1.82,2.07,3.69,3.69,0,0,1-2.24.74,2.56,2.56,0,0,1-2.53-1.36,6.7,6.7,0,0,1-.37-3.76h1.59a5.15,5.15,0,0,0,.18,2.56,1.5,1.5,0,0,0,1.54,1,3,3,0,0,0,2.37-1.47,11.06,11.06,0,0,0,1.72-3.75,18.26,18.26,0,0,0,.62-4.75,8.33,8.33,0,0,0-.54-3.29c-.36-.82-.85-1.23-1.48-1.23a1.79,1.79,0,0,0-1.18.52,5.53,5.53,0,0,0-1.11,1.64l-.61,1.21h-1.58l.74-1.41.07-.1a10.33,10.33,0,0,1,2.1-3,3.65,3.65,0,0,1,2.51-1,2.52,2.52,0,0,1,2,.84,5.68,5.68,0,0,1,1.13,2.16,11.67,11.67,0,0,1,.45,2.9h.21a13.64,13.64,0,0,1,2.3-4.3,4.09,4.09,0,0,1,3.19-1.6,2.56,2.56,0,0,1,2.53,1.38,6.76,6.76,0,0,1,.37,3.74h-1.59a5.46,5.46,0,0,0-.22-2.56,1.49,1.49,0,0,0-1.53-1,3,3,0,0,0-2.39,1.47,11.14,11.14,0,0,0-1.7,3.75,17.9,17.9,0,0,0-.63,4.75,8.39,8.39,0,0,0,.54,3.32c.36.82.86,1.23,1.49,1.23a1.69,1.69,0,0,0,1.19-.54,6.4,6.4,0,0,0,1.13-1.65l.61-1.21h1.55l-.71,1.45-.07.1a11.13,11.13,0,0,1-2.12,3,3.66,3.66,0,0,1-2.56,1A2.5,2.5,0,0,1,922.53,245.74Z"/>
      <path class="c" d="M935.21,244.93a7.1,7.1,0,0,1-1.36-4.65,13.07,13.07,0,0,1,1.36-5.84,12,12,0,0,1,3.64-4.47,8,8,0,0,1,4.83-1.68,3.93,3.93,0,0,1,2.7.84,3,3,0,0,1,.94,2.39,5.82,5.82,0,0,1-1.29,3.56,11.16,11.16,0,0,1-3.71,3,23,23,0,0,1-5.64,2l0-1.28a16.22,16.22,0,0,0,4.16-1.84,8.73,8.73,0,0,0,2.6-2.42,5.12,5.12,0,0,0,.89-2.88,2.34,2.34,0,0,0-.36-1.42,1.16,1.16,0,0,0-1-.47,3.79,3.79,0,0,0-2.7,1.57,12.26,12.26,0,0,0-2.25,3.92,13.23,13.23,0,0,0-.88,4.65,6,6,0,0,0,.83,3.45,2.7,2.7,0,0,0,2.37,1.2,3.62,3.62,0,0,0,2.23-.79,7.28,7.28,0,0,0,1.88-2.34H946a10.07,10.07,0,0,1-2.92,3.84,6.38,6.38,0,0,1-4,1.31A4.81,4.81,0,0,1,935.21,244.93Z"/>
      <path class="c" d="M952.38,246a5.26,5.26,0,0,1-2.24-1.5,3.27,3.27,0,0,1-.8-2.16,2.37,2.37,0,0,1,.53-1.63,1.8,1.8,0,0,1,1.43-.59,1.61,1.61,0,0,1,1.21.45,1.78,1.78,0,0,1,.44,1.27c0,.15,0,.31,0,.47s0,.31,0,.47a1.65,1.65,0,0,1,0,.34,1.66,1.66,0,0,0,0,.37,1.31,1.31,0,0,0,.31.86,1.78,1.78,0,0,0,.91.52,5.68,5.68,0,0,0,1.48.17,4.69,4.69,0,0,0,2.88-.78,2.5,2.5,0,0,0,1-2.09,3,3,0,0,0-.42-1.58,4.37,4.37,0,0,0-1-1.21c-.41-.34-1-.76-1.7-1.25a21.51,21.51,0,0,1-2-1.41,6.16,6.16,0,0,1-1.25-1.47,4,4,0,0,1-.52-2.11,4.22,4.22,0,0,1,.79-2.52,5.28,5.28,0,0,1,2.24-1.74,8.24,8.24,0,0,1,3.24-.62,7.84,7.84,0,0,1,3,.52,5.36,5.36,0,0,1,2,1.4,2.93,2.93,0,0,1,.76,2,2.25,2.25,0,0,1-.47,1.45,1.55,1.55,0,0,1-1.25.57,1.67,1.67,0,0,1-1.18-.44,1.54,1.54,0,0,1-.47-1.18,1.23,1.23,0,0,1,.05-.35,1.37,1.37,0,0,0,0-.39,1.39,1.39,0,0,1,0-.3.84.84,0,0,0,0-.27,1.19,1.19,0,0,0-.63-1.08,3.5,3.5,0,0,0-1.8-.37,3.86,3.86,0,0,0-2.39.64,2.09,2.09,0,0,0-.84,1.75,2.9,2.9,0,0,0,.4,1.52,4.75,4.75,0,0,0,1,1.18,19.27,19.27,0,0,0,1.72,1.21c.83.58,1.49,1.09,2,1.51a6,6,0,0,1,1.26,1.57,4.13,4.13,0,0,1,.52,2.07,4.46,4.46,0,0,1-.89,2.73,5.8,5.8,0,0,1-2.47,1.89,9.92,9.92,0,0,1-6.84.12Z"/>
      <path class="c" d="M979.06,245.44A4.47,4.47,0,0,1,978,242.2a7.93,7.93,0,0,1,.42-2.49A14.66,14.66,0,0,1,979.6,237a36.93,36.93,0,0,1,2.09-3.21c.42-.65.88-1.31,1.38-2s1-1.39,1.58-2.11a6.32,6.32,0,0,1-1.35.36,9.42,9.42,0,0,1-1.51.12,5.88,5.88,0,0,1-.8-.05,4.54,4.54,0,0,1-.69-.19c-.22,0-.47,0-.74,0s-.64.22-.64.67a1.13,1.13,0,0,0,.09.4q.07.24.18.54c.07.16.14.36.22.59a2,2,0,0,1,.12.63A1.65,1.65,0,0,1,979,234a1.62,1.62,0,0,1-1.21.5,1.37,1.37,0,0,1-1.13-.47,2,2,0,0,1-.39-1.34,3.86,3.86,0,0,1,.66-2.16,4.46,4.46,0,0,1,1.84-1.58,5.81,5.81,0,0,1,2.63-.58c.6,0,1.23,0,1.87.1a13.31,13.31,0,0,1,2,.37l.54-.84,1.07.57a49.18,49.18,0,0,0-3.79,6.64,13,13,0,0,0-1.36,5.29,4.2,4.2,0,0,0,.66,2.54,2.23,2.23,0,0,0,1.93.9,5.25,5.25,0,0,0,3.25-1.25,9.56,9.56,0,0,0,2.61-3.17,7.77,7.77,0,0,0,1-3.63,4.61,4.61,0,0,0-.34-1.84,8.12,8.12,0,0,0-1-1.6,7.18,7.18,0,0,1-.72-1.18,2.36,2.36,0,0,1-.22-1,1.93,1.93,0,0,1,.5-1.35,1.89,1.89,0,0,1,1.45-.54,2,2,0,0,1,1.79,1,6.14,6.14,0,0,1,.64,3.17,15.45,15.45,0,0,1-1.57,6.73,14.49,14.49,0,0,1-4.14,5.34,8.66,8.66,0,0,1-5.44,2A4.12,4.12,0,0,1,979.06,245.44Z"/>
      <path class="c" d="M999.42,245.82a4.66,4.66,0,0,1-1.61-2.17,9.07,9.07,0,0,1-.56-3.33,13.5,13.5,0,0,1,1.3-5.81,12.41,12.41,0,0,1,3.4-4.5,6.85,6.85,0,0,1,4.4-1.72,5.93,5.93,0,0,1,2.84.74,8.53,8.53,0,0,1,2.51,2.12l-2.39,1.65a4.5,4.5,0,0,0-1.08-2.15,2.37,2.37,0,0,0-1.78-.78,4,4,0,0,0-2.85,1.43,10.37,10.37,0,0,0-2.17,3.74,14.75,14.75,0,0,0-.81,4.91,6.49,6.49,0,0,0,.66,3.26,2.16,2.16,0,0,0,2,1.12,3.09,3.09,0,0,0,2-.7,6.08,6.08,0,0,0,1.6-2l0,1.14a6.93,6.93,0,0,1-2.08,2.83,4.6,4.6,0,0,1-2.94,1A4.07,4.07,0,0,1,999.42,245.82Zm7.38-.74a5.68,5.68,0,0,1-.08-4.12l2.89-10.21a13.72,13.72,0,0,0,1.89-1,14.15,14.15,0,0,0,2-1.5l.85,1.18a7.86,7.86,0,0,0-1.25,1.48,8.26,8.26,0,0,0-.81,2.09l-2.36,8.49a4,4,0,0,0-.11,2.17,1.05,1.05,0,0,0,1.12.76,1.86,1.86,0,0,0,1.32-.54,6.4,6.4,0,0,0,1.11-1.48l.07-.17.6-1.21h1.55l-.84,1.79a8.23,8.23,0,0,1-2.12,2.83,4.49,4.49,0,0,1-2.9,1A3,3,0,0,1,1006.8,245.08Z"/>
      <path class="c" d="M1022.79,231.29a1.09,1.09,0,0,0-1.12-.78,2,2,0,0,0-1.31.54,5.33,5.33,0,0,0-1.21,1.62l-.61,1.21H1017l.74-1.41.07-.1a9.25,9.25,0,0,1,2.24-3.05,4.33,4.33,0,0,1,2.88-1,3.23,3.23,0,0,1,2.25.74,3.16,3.16,0,0,1,1,2,7.31,7.31,0,0,1-.3,2.9l-3.4,12.19h-3.31l3.51-12.7A3.46,3.46,0,0,0,1022.79,231.29Zm6.92,3.4a1.18,1.18,0,0,1-.36-.91,2,2,0,0,1,.16-.77,9.41,9.41,0,0,1,.42-.88,5.45,5.45,0,0,0,.35-.62,1.38,1.38,0,0,0,.15-.56.44.44,0,0,0-.23-.4,1.22,1.22,0,0,0-.61-.14,3.51,3.51,0,0,0-2.07.83,6.41,6.41,0,0,0-1.8,2.14l0-1.22a8.12,8.12,0,0,1,2.33-2.84,4.78,4.78,0,0,1,2.93-1,2.53,2.53,0,0,1,1.9.67,2.59,2.59,0,0,1,.66,1.89,5,5,0,0,1-.42,2,4.71,4.71,0,0,1-1.06,1.57,2,2,0,0,1-1.38.59A1.29,1.29,0,0,1,1029.71,234.69Z"/>
      <path class="c" d="M1039.07,245.84a3.12,3.12,0,0,1-1.07-2.05,5.38,5.38,0,0,1,.42-2.83l2.79-7.55a3.3,3.3,0,0,0,.19-2.07,1.1,1.1,0,0,0-1.16-.83,2.08,2.08,0,0,0-1.35.54,5.33,5.33,0,0,0-1.21,1.62l-.61,1.21h-1.58l.74-1.41a10,10,0,0,1,2.39-3.19,4.38,4.38,0,0,1,2.8-1,3.37,3.37,0,0,1,2.29.76,3.17,3.17,0,0,1,1.06,2,5.67,5.67,0,0,1-.42,2.83l-2.76,7.54a3.16,3.16,0,0,0-.24,2.11,1.12,1.12,0,0,0,1.18.82,2.09,2.09,0,0,0,1.33-.54,4.83,4.83,0,0,0,1.2-1.65l.6-1.21h1.58l-.74,1.45a9.22,9.22,0,0,1-2.34,3.18,4.34,4.34,0,0,1-2.74,1A3.54,3.54,0,0,1,1039.07,245.84Zm3.44-21.61a2.26,2.26,0,0,1-.62-1.6,2.58,2.58,0,0,1,2.52-2.49,2.22,2.22,0,0,1,2.26,2.25,2.39,2.39,0,0,1-.77,1.74,2.56,2.56,0,0,1-1.82.76A2.08,2.08,0,0,1,1042.51,224.23Z"/>
      <path class="c" d="M1052.38,245.82a4.67,4.67,0,0,1-1.62-2.17,9.08,9.08,0,0,1-.55-3.33,13.5,13.5,0,0,1,1.3-5.81,12.3,12.3,0,0,1,3.4-4.5,6.84,6.84,0,0,1,4.39-1.72,5.94,5.94,0,0,1,2.85.74,8.53,8.53,0,0,1,2.51,2.12l-2.39,1.65a4.59,4.59,0,0,0-1.08-2.15,2.37,2.37,0,0,0-1.78-.78,4,4,0,0,0-2.85,1.43,10.37,10.37,0,0,0-2.17,3.74,14.75,14.75,0,0,0-.81,4.91,6.61,6.61,0,0,0,.65,3.26,2.19,2.19,0,0,0,2,1.12,3.11,3.11,0,0,0,2-.7,6.21,6.21,0,0,0,1.6-2l0,1.14a6.82,6.82,0,0,1-2.07,2.83,4.63,4.63,0,0,1-3,1A4.07,4.07,0,0,1,1052.38,245.82Zm7.38-.74a5.63,5.63,0,0,1-.08-4.12l2.89-10.21a13.72,13.72,0,0,0,1.89-1,14.15,14.15,0,0,0,2-1.5l.85,1.18a7.86,7.86,0,0,0-1.25,1.48,8.26,8.26,0,0,0-.81,2.09l-2.36,8.49a4.06,4.06,0,0,0-.12,2.17,1.07,1.07,0,0,0,1.13.76,1.88,1.88,0,0,0,1.32-.54,6.4,6.4,0,0,0,1.11-1.48l.07-.17.6-1.21h1.55l-.84,1.79a8.36,8.36,0,0,1-2.12,2.83,4.49,4.49,0,0,1-2.9,1A3,3,0,0,1,1059.76,245.08Z"/>
      <path class="c" d="M1073.55,245.57a4.47,4.47,0,0,1-1.46-3,11.27,11.27,0,0,1,.52-4.6l3.57-12.87a3.73,3.73,0,0,0,.17-1.7,1.22,1.22,0,0,0-1-.87,9,9,0,0,0-2.48-.26l.48-1.58a27.1,27.1,0,0,0,4.24-.37,16.11,16.11,0,0,0,3.5-1l-5.35,19.17a10.4,10.4,0,0,0-.54,4.83,1.83,1.83,0,0,0,1.89,1.7,4.13,4.13,0,0,0,3-1.43,10.2,10.2,0,0,0,2.26-3.76,14.09,14.09,0,0,0,.84-4.85,6.89,6.89,0,0,0-.67-3.37,2.21,2.21,0,0,0-2-1.14,3.12,3.12,0,0,0-2,.71,5.66,5.66,0,0,0-1.53,2.08l0-1.28a7,7,0,0,1,2-2.72,4.48,4.48,0,0,1,2.85-1,4.1,4.1,0,0,1,2.49.77,4.74,4.74,0,0,1,1.59,2.23,10,10,0,0,1,.53,3.43,13.41,13.41,0,0,1-1.31,5.93,11.11,11.11,0,0,1-3.54,4.33,8.15,8.15,0,0,1-4.88,1.6A4.87,4.87,0,0,1,1073.55,245.57Z"/>
      <path class="c" d="M1091.49,245.86a3,3,0,0,1-1-2,7.87,7.87,0,0,1,.28-2.91l4.45-15.84a3.48,3.48,0,0,0,.15-1.68,1.27,1.27,0,0,0-.94-.88,8.34,8.34,0,0,0-2.48-.27l.47-1.58a27.23,27.23,0,0,0,4.25-.37,16.11,16.11,0,0,0,3.5-1l-6.2,22.13a4.42,4.42,0,0,0-.15,2.16,1,1,0,0,0,1.1.77,2.09,2.09,0,0,0,1.33-.54,4.81,4.81,0,0,0,1.19-1.65l.64-1.21h1.55l-.74,1.45,0,.1a9.42,9.42,0,0,1-2.24,3,4.37,4.37,0,0,1-2.88,1A3.35,3.35,0,0,1,1091.49,245.86Z"/>
      <path class="c" d="M1103.69,244.93a7.1,7.1,0,0,1-1.37-4.65,13.08,13.08,0,0,1,1.37-5.84,12,12,0,0,1,3.64-4.47,8,8,0,0,1,4.83-1.68,3.93,3.93,0,0,1,2.7.84,3,3,0,0,1,.94,2.39,5.77,5.77,0,0,1-1.3,3.56,11.11,11.11,0,0,1-3.7,3,22.94,22.94,0,0,1-5.65,2l0-1.28a16.38,16.38,0,0,0,4.16-1.84,8.69,8.69,0,0,0,2.59-2.42,5.05,5.05,0,0,0,.9-2.88,2.34,2.34,0,0,0-.36-1.42,1.17,1.17,0,0,0-1-.47,3.77,3.77,0,0,0-2.7,1.57,12.26,12.26,0,0,0-2.25,3.92,13.23,13.23,0,0,0-.88,4.65,6.1,6.1,0,0,0,.82,3.45,2.73,2.73,0,0,0,2.38,1.2,3.57,3.57,0,0,0,2.22-.79,7.17,7.17,0,0,0,1.89-2.34h1.52a10.07,10.07,0,0,1-2.92,3.84,6.39,6.39,0,0,1-4,1.31A4.8,4.8,0,0,1,1103.69,244.93Z"/>
      <path class="c" d="M1121.16,253.62a1.7,1.7,0,0,1-.71-1.41,1.87,1.87,0,0,1,.54-1.38,1.91,1.91,0,0,1,1.41-.54,1.87,1.87,0,0,1,.69.13c.24.09.46.19.68.29a5.45,5.45,0,0,1,.62.35,3.24,3.24,0,0,0,.78.46,1.78,1.78,0,0,0,.67.15,1.11,1.11,0,0,0,.67-.2,2,2,0,0,0,.49-.61,4.42,4.42,0,0,0,.39-1.08l5.29-22.37a11.57,11.57,0,0,1,2.78-5.74,6.54,6.54,0,0,1,4.83-1.9,5.2,5.2,0,0,1,3.1.82,2.67,2.67,0,0,1,1.15,2.28,2.94,2.94,0,0,1-.78,2.08,2.38,2.38,0,0,1-1.82.85,1.5,1.5,0,0,1-1-.29,1,1,0,0,1-.35-.79,2,2,0,0,1,.13-.68,3.24,3.24,0,0,1,.41-.74l.33-.65a1.22,1.22,0,0,0,.17-.59.67.67,0,0,0-.32-.61,1.77,1.77,0,0,0-.92-.2,3.24,3.24,0,0,0-2.6,1.28,9.88,9.88,0,0,0-1.68,3.87l-4,17.22a22.44,22.44,0,0,1-2.12,5.56,11.56,11.56,0,0,1-3.12,3.69,6.31,6.31,0,0,1-3.79,1.29A3.14,3.14,0,0,1,1121.16,253.62Zm7.44-24.86h11.63l-.44,1.55h-11.63Z"/>
      <path class="c" d="M1142.06,244.88a7.25,7.25,0,0,1-1.4-4.73,13,13,0,0,1,1.33-5.8,12,12,0,0,1,3.54-4.39,7.64,7.64,0,0,1,4.67-1.67,4.79,4.79,0,0,1,4,1.72,7.32,7.32,0,0,1,1.4,4.78,12.83,12.83,0,0,1-1.35,5.76,11.88,11.88,0,0,1-3.55,4.38,7.67,7.67,0,0,1-4.67,1.65A4.77,4.77,0,0,1,1142.06,244.88Zm7-1.45a12,12,0,0,0,2.26-4.16,16.41,16.41,0,0,0,.86-5.22,6.86,6.86,0,0,0-.57-3.15,1.83,1.83,0,0,0-1.69-1.06,3.84,3.84,0,0,0-2.86,1.62,12.58,12.58,0,0,0-2.26,4.17,16.16,16.16,0,0,0-.88,5.22,6.61,6.61,0,0,0,.58,3.12,1.83,1.83,0,0,0,1.71,1.06A3.87,3.87,0,0,0,1149.1,243.43Z"/>
      <path class="c" d="M1163.92,231.3a1,1,0,0,0-1.09-.79,2,2,0,0,0-1.31.54,5.35,5.35,0,0,0-1.22,1.62l-.6,1.21h-1.59l.74-1.41.07-.1a9.39,9.39,0,0,1,2.24-3.05,4.33,4.33,0,0,1,2.88-1,3.25,3.25,0,0,1,2.24.74,3.18,3.18,0,0,1,1,2,7.15,7.15,0,0,1-.31,2.9l-3.4,12.19h-3.3l3.5-12.7A3.62,3.62,0,0,0,1163.92,231.3Zm7,13.73a5.83,5.83,0,0,1,0-4.07l1.75-6.2a4.93,4.93,0,0,0,.15-3.14,1.78,1.78,0,0,0-1.84-1.11,3.73,3.73,0,0,0-2.17.69,6.52,6.52,0,0,0-1.8,2l-.07-1a8.88,8.88,0,0,1,2.48-2.92,5.26,5.26,0,0,1,3.11-1,3.87,3.87,0,0,1,2.55.79,3.65,3.65,0,0,1,1.23,2.22,7.11,7.11,0,0,1-.31,3.36l-1.92,6.8a4.14,4.14,0,0,0-.13,2.16,1,1,0,0,0,1.08.77,2,2,0,0,0,1.38-.54,5.76,5.76,0,0,0,1.18-1.65l.64-1.21h1.55l-.74,1.45,0,.1a10.06,10.06,0,0,1-2.25,3,4.28,4.28,0,0,1-2.83,1A2.94,2.94,0,0,1,1170.88,245Z"/>
      <path class="c" d="M1183.08,228.76h12l-.43,1.55h-12Zm1.31,17.13a3.17,3.17,0,0,1-1.23-1.92,6.1,6.1,0,0,1,.12-2.85l4.92-17.45a15.43,15.43,0,0,0,3.43-.5l-5.15,18.49a3,3,0,0,0-.08,2,1.3,1.3,0,0,0,1.33.69,2.39,2.39,0,0,0,1.51-.52,4.72,4.72,0,0,0,1.25-1.67l.6-1.21h1.55l-1,2.12-.07.07a6.85,6.85,0,0,1-1.92,2.49,4.39,4.39,0,0,1-2.83.91A4,4,0,0,1,1184.39,245.89Z"/>
    </g>
  </g>
</svg>
