<?xml version="1.0" encoding="utf-8"?>
<!-- Generator: Adobe Illustrator 16.0.4, SVG Export Plug-In . SVG Version: 6.00 Build 0)  -->
<!DOCTYPE svg PUBLIC "-//W3C//DTD SVG 1.1//EN" "http://www.w3.org/Graphics/SVG/1.1/DTD/svg11.dtd">
<svg version="1.1" id="Layer_1" xmlns="http://www.w3.org/2000/svg" xmlns:xlink="http://www.w3.org/1999/xlink" x="0px" y="0px"
	 width="932.289px" height="1358.36px" viewBox="-1.847 -7.609 932.289 1358.36"
	 enable-background="new -1.847 -7.609 932.289 1358.36" xml:space="preserve">
<g>
	<path d="M32.576,90.089c0,9.664,2.27,11.026,13.427,11.415v2.659c-4.606-0.26-12.323-0.391-19.524-0.391
		c-6.875,0-13.295,0.131-16.994,0.391v-2.659c9.016-0.388,10.767-1.75,10.767-11.415V24.191c0-9.664-1.75-11.025-10.767-11.415
		v-2.658c3.699,0.26,10.38,0.389,16.218,0.389c8.366,0,16.861-0.26,20.042-0.26c21.404,0,32.042,10.767,32.042,26.202
		c0,12.843-7.46,29.706-34.962,29.706H32.576V90.089z M41.526,63.499c18.811,0,22.961-12.065,22.961-25.619
		c0-16.734-5.969-25.101-22.054-25.101c-8.108,0-9.857,2.271-9.857,11.416v39.308L41.526,63.499L41.526,63.499z"/>
	<path d="M105.519,91.843c0,7.392,2.788,9.534,10.116,9.534v2.788c-3.049-0.13-9.987-0.521-16.084-0.521
		c-6.098,0-13.036,0.391-16.085,0.521v-2.788c7.329,0,10.118-2.142,10.118-9.534V15.955c0-7.977-2.399-11.675-10.118-11.675V1.491
		c2.788,0.26,5.581,0.391,8.239,0.391c5.188,0,9.987-0.521,13.814-1.882V91.843z"/>
	<path d="M161.038,49.942c0-11.154-5.447-13.361-12.323-13.361c-4.542,0-10.116,0.906-13.165,4.733
		c3.308,0.844,6.225,3.762,6.225,8.109c0,4.54-3.049,7.198-7.782,7.198c-4.541,0-7.199-3.435-7.199-8.235
		c0-3.894,2.532-6.939,6.226-9.471c3.762-2.465,10.116-4.995,18.616-4.995c7.458,0,13.036,1.945,16.084,4.995
		c4.213,4.281,5.317,9.21,5.317,18.617v36.903c0,4.281,1.038,6.292,4.086,6.292c2.402,0,4.15-1.231,5.969-2.79l1.492,2.268
		c-3.695,2.79-6.483,4.865-12.128,4.865c-9.273,0-11.414-5.578-11.414-11.806c-5.708,9.403-14.074,11.806-20.431,11.806
		c-8.887,0-16.866-4.475-16.866-14.852c0-10.507,8.11-15.177,21.405-20.755c8.883-3.696,15.892-5.967,15.892-11.288L161.038,49.942
		L161.038,49.942z M161.038,63.629c-1.428,2.139-4.346,3.503-12.713,7.589c-5.834,2.788-12.905,6.617-12.905,16.864
		c0,7.976,4.539,11.676,10.637,11.676c5.317,0,10.507-2.789,14.984-10.052L161.038,63.629L161.038,63.629z"/>
	<path d="M228.415,35.736c4.67,0.26,7.069,0.391,11.154,0.391c4.15,0,7.331-0.131,10.122-0.391v2.659
		c-3.309,0.391-6.099,2.528-8.628,9.34l-21.792,57.075l-4.541,11.546c-1.753,4.541-3.567,7.458-5.709,9.34
		c-2.919,2.659-7.198,3.438-10.378,3.438c-5.056,0-9.014-2.788-9.014-7.979c0-4.215,2.659-7.005,7.072-7.005
		c3.696,0,6.745,2.075,6.745,6.228c0,3.053-1.752,4.93-3.569,5.968c0.26,0.13,0.521,0.13,0.777,0.13
		c4.802,0,8.497-3.047,11.288-10.378l4.733-12.128L192.55,45.984c-3.438-6.938-6.876-7.459-9.017-7.459v-2.789
		c3.826,0.52,7.979,0.845,13.036,0.845c5.384,0,11.936-0.454,17.253-0.845v2.789c-4.995,0-9.276,0-9.276,4.604
		c0,1.558,0.52,3.696,1.685,6.552l16.021,39.696l14.659-38.462c0.908-2.465,1.428-4.475,1.428-6.097
		c0-4.217-3.178-5.968-9.924-6.422V35.736L228.415,35.736z"/>
	<path d="M264.263,35.865c0-15.63,1.751-22.958,6.812-28.927c3.439-4.15,9.275-6.682,15.76-6.682c4.932,0,8.757,1.492,11.546,3.631
		c2.659,2.137,4.15,5.06,4.15,8.238c0,4.086-2.919,7.005-7.071,7.005c-3.956,0-7.263-2.658-7.263-7.136
		c0-3.759,2.269-6.161,5.577-6.808c-0.521-1.558-2.789-2.92-6.552-2.92c-4.086,0-7.004,2.012-8.625,4.931
		c-2.075,3.696-2.401,10.117-2.401,25.228v3.439h14.27v2.659h-14.27v51.955c0,8.627,5.319,10.895,14.073,10.895v2.788
		c-4.086-0.13-12.191-0.52-20.431-0.52c-6.098,0-12.583,0.39-15.699,0.52v-2.788c7.329,0,10.118-2.142,10.118-9.533V38.527h-10.639
		v-2.659L264.263,35.865L264.263,35.865z"/>
	<path d="M336.777,49.942c0-11.154-5.447-13.361-12.325-13.361c-4.54,0-10.117,0.906-13.165,4.733
		c3.308,0.844,6.227,3.762,6.227,8.109c0,4.54-3.048,7.198-7.782,7.198c-4.54,0-7.199-3.435-7.199-8.235
		c0-3.894,2.529-6.939,6.226-9.471c3.759-2.465,10.116-4.995,18.616-4.995c7.458,0,13.036,1.945,16.085,4.995
		c4.217,4.281,5.316,9.21,5.316,18.617v36.903c0,4.281,1.038,6.292,4.088,6.292c2.4,0,4.149-1.231,5.968-2.79l1.491,2.268
		c-3.698,2.79-6.489,4.865-12.13,4.865c-9.275,0-11.415-5.578-11.415-11.806c-5.708,9.403-14.073,11.806-20.432,11.806
		c-8.886,0-16.864-4.475-16.864-14.852c0-10.507,8.106-15.177,21.401-20.755c8.887-3.696,15.892-5.967,15.892-11.288L336.777,49.942
		L336.777,49.942z M336.777,63.629c-1.428,2.139-4.346,3.503-12.713,7.589c-5.837,2.788-12.909,6.617-12.909,16.864
		c0,7.976,4.54,11.676,10.639,11.676c5.317,0,10.507-2.789,14.983-10.052V63.629z"/>
	<path d="M386.331,91.843c0,7.392,2.788,9.534,10.116,9.534v2.788c-3.049-0.13-9.986-0.521-16.085-0.521
		c-6.096,0-13.035,0.391-16.085,0.521v-2.788c7.328,0,10.117-2.142,10.117-9.534V50.266c0-7.978-2.4-11.739-10.117-11.739v-2.788
		c2.789,0.259,5.578,0.391,8.236,0.391c5.187,0,9.987-0.52,13.817-1.818V91.843L386.331,91.843z M387.951,11.025
		c0,4.67-3.89,8.497-8.495,8.497c-4.671,0-8.497-3.827-8.497-8.497c0-4.607,3.826-8.496,8.497-8.496
		C384.062,2.532,387.951,6.422,387.951,11.025z"/>
	<path d="M425.247,50.913c2.789-7.717,9.987-16.993,19.265-16.993c7.201,0,12.129,4.735,12.129,10.443
		c0,4.539-2.919,8.366-7.59,8.366c-3.695,0-7.07-2.465-7.07-6.871c0-3.31,2.141-5.709,4.543-7.202
		c-0.65-0.908-1.622-1.298-2.789-1.298c-11.155,0-18.487,15.111-18.487,24.972v28.149c0,8.627,5.317,10.895,14.074,10.895v2.788
		c-4.087-0.13-12.194-0.52-20.431-0.52c-6.096,0-12.647,0.39-15.695,0.52v-2.788c7.328,0,10.117-2.142,10.117-9.533V50.266
		c0-7.978-2.401-11.739-10.117-11.739v-2.788c2.789,0.259,5.577,0.391,8.235,0.391c5.188,0,9.989-0.52,13.816-1.818V50.913z"/>
	<path d="M494.32,10.118c3.048,0.193,8.044,0.454,12.97,0.454c1.106,0,2.145-0.064,3.25-0.064c6.094-0.129,14.98-0.389,20.033-0.389
		c31.653,0,46.896,16.344,46.896,45.986c0,28.93-17.512,48.061-48.063,48.061c-4.021,0-12.909-0.391-18.615-0.391
		c-6.226,0-12.777,0.131-16.474,0.391v-2.659c9.017-0.388,10.767-1.751,10.767-11.415v-65.9c0-9.664-1.75-11.025-10.767-11.415
		L494.32,10.118L494.32,10.118z M517.41,90.349c0,9.275,1.75,11.416,9.988,11.416c28.928,0,36.776-16.214,36.776-45.144
		c0-29.771-9.404-44.105-36.906-44.105c-8.108,0-9.858,2.271-9.858,11.415V90.349z"/>
	<path d="M610.68,91.843c0,7.392,2.791,9.534,10.121,9.534v2.788c-3.053-0.13-9.988-0.521-16.083-0.521
		c-6.099,0-13.039,0.391-16.084,0.521v-2.788c7.326,0,10.115-2.142,10.115-9.534V50.266c0-7.978-2.398-11.739-10.115-11.739v-2.788
		c2.788,0.259,5.579,0.391,8.24,0.391c5.187,0,9.985-0.52,13.812-1.818v57.532H610.68z M612.301,11.025
		c0,4.67-3.888,8.497-8.494,8.497c-4.668,0-8.494-3.827-8.494-8.497c0-4.607,3.826-8.496,8.494-8.496
		C608.413,2.532,612.301,6.422,612.301,11.025z"/>
	<path d="M634.612,78.546c1.756,14.853,5.189,24.842,18.485,24.842c5.325,0,11.812-3.18,11.812-12.647
		c0-7.719-6.358-11.935-15.044-17.381c-9.666-6.098-18.291-11.288-18.291-22.31c0-11.808,9.145-17.123,19.652-17.123
		c7.006,0,12.066,2.918,14.468,4.864c0.905,0.715,1.684,1.101,2.335,1.101c1.554,0,2.529-1.88,2.982-5.837h3.051
		c-0.39,4.866-0.52,11.157-0.52,22.572h-3.052c-1.622-9.854-6.096-20.171-18.097-20.171c-6.226,0-10.894,3.568-10.894,10.184
		c0,7.978,7.979,11.676,17.059,17.577c10.054,6.485,18.161,12.326,18.161,23.22c0,12.192-10.643,18.617-22.7,18.617
		c-3.831,0-7.329-0.583-10.51-1.882c-1.883-0.907-3.696-2.142-5.452-3.565c-0.39-0.39-0.846-0.521-1.227-0.521
		c-1.173,0-2.21,1.686-2.726,4.995h-3.051c0.392-5.708,0.519-13.1,0.519-26.526h3.04v-0.006H634.612z"/>
	<path d="M707.905,48.318c4.021-9.21,11.869-14.398,21.273-14.398c13.946,0,24.713,11.546,24.713,32.951
		c0,19.198-8.821,39.176-30.419,39.176c-6.94,0-12.585-3.05-15.567-7.202v16.996c0,7.589,4.798,9.599,12.779,9.599v2.79
		c-3.893-0.128-11.417-0.583-19.137-0.583c-5.579,0-11.544,0.455-14.338,0.583v-2.79c6.359,0,8.759-1.88,8.759-8.237V50.266
		c0-7.978-2.399-11.739-10.115-11.739v-2.788c2.788,0.259,5.577,0.391,8.237,0.391c5.188,0,9.989-0.52,13.814-1.818V48.318
		L707.905,48.318z M707.905,94.434c2.464,4.931,7.073,8.563,14.073,8.563c14.725,0,19.005-15.437,19.005-34.311
		c0-21.079-5.317-30.809-15.436-30.809c-7.72,0-14.79,5.578-17.643,16.798V94.434L707.905,94.434z"/>
	<path d="M785.089,91.843c0,7.392,2.794,9.534,10.12,9.534v2.788c-3.052-0.13-9.99-0.521-16.083-0.521
		c-6.098,0-13.041,0.391-16.084,0.521v-2.788c7.325,0,10.116-2.142,10.116-9.534V15.955c0-7.977-2.399-11.675-10.116-11.675V1.491
		c2.789,0.26,5.577,0.391,8.241,0.391c5.187,0,9.985-0.521,13.812-1.882v91.843H785.089z"/>
	<path d="M840.61,49.942c0-11.154-5.449-13.361-12.322-13.361c-4.543,0-10.119,0.906-13.169,4.733
		c3.31,0.844,6.227,3.762,6.227,8.109c0,4.54-3.052,7.198-7.78,7.198c-4.544,0-7.203-3.435-7.203-8.235
		c0-3.894,2.531-6.939,6.228-9.471c3.761-2.465,10.118-4.995,18.618-4.995c7.454,0,13.035,1.945,16.081,4.995
		c4.215,4.281,5.316,9.21,5.316,18.617v36.903c0,4.281,1.038,6.292,4.091,6.292c2.401,0,4.153-1.231,5.969-2.79l1.488,2.268
		c-3.699,2.79-6.486,4.865-12.131,4.865c-9.275,0-11.415-5.578-11.415-11.806c-5.704,9.403-14.073,11.806-20.431,11.806
		c-8.889,0-16.867-4.475-16.867-14.852c0-10.507,8.111-15.177,21.4-20.755c8.886-3.696,15.892-5.967,15.892-11.288L840.61,49.942
		L840.61,49.942z M840.61,63.629c-1.427,2.139-4.348,3.503-12.715,7.589c-5.836,2.788-12.906,6.617-12.906,16.864
		c0,7.976,4.541,11.676,10.637,11.676c5.317,0,10.508-2.789,14.984-10.052V63.629L840.61,63.629z"/>
	<path d="M907.986,35.736c4.669,0.26,7.071,0.391,11.155,0.391c4.15,0,7.324-0.131,10.113-0.391v2.659
		c-3.302,0.391-6.099,2.528-8.627,9.34l-21.793,57.075l-4.538,11.546c-1.754,4.541-3.569,7.458-5.707,9.34
		c-2.923,2.659-7.202,3.438-10.375,3.438c-5.06,0-9.022-2.788-9.022-7.979c0-4.215,2.661-7.005,7.076-7.005
		c3.698,0,6.742,2.075,6.742,6.228c0,3.053-1.75,4.93-3.565,5.968c0.259,0.13,0.521,0.13,0.777,0.13
		c4.802,0,8.498-3.047,11.286-10.378l4.733-12.128l-24.128-57.985c-3.438-6.938-6.872-7.459-9.021-7.459v-2.789
		c3.829,0.52,7.984,0.845,13.039,0.845c5.382,0,11.934-0.454,17.251-0.845v2.789c-4.996,0-9.275,0-9.275,4.604
		c0,1.558,0.519,3.696,1.681,6.552l16.021,39.696l14.659-38.462c0.908-2.465,1.432-4.475,1.432-6.097
		c0-4.217-3.177-5.968-9.923-6.422v-2.659H907.986z"/>
</g>
<g>
	<path d="M42.553,134.914c21.383,0.639,50.109,0.639,63.195,0.639c12.659,0,30.534,0,43.407-0.639
		c-3.724,10.214-7.021,20.747-8.299,25.746c-1.492,5.212-2.659,10.21-3.085,13.512h-5.001c1.17-7.127,1.915-12.875,1.915-17.555
		c0-12.233-5.213-16.703-21.918-16.703H96.809c-14.788,0-18.088,2.234-22.449,18.084l-13.722,51.387h14.361
		c19.043,0,23.406-18.301,27.982-28.726h4.998c-5.425,16.597-7.021,23.727-8.936,30.959c-2.022,7.128-3.723,14.361-7.021,30.958
		h-5.002c0.744-5.107,1.701-10.211,1.701-14.787c0-7.979-2.979-14.044-15-14.044H59.465l-14.043,52.344
		c-1.275,4.576-1.915,7.979-1.915,10.532c0,6.386,4.255,7.553,14.787,7.553h15.853c27.235,0,35.321-9.788,45.959-38.618h5.106
		c-1.595,3.937-3.297,9.683-4.893,15.745c-1.491,5.425-4.043,16.81-5.852,27.873c-14.788-0.636-35.321-0.636-49.896-0.636
		c-13.086,0-41.811,0-62.983,0.636l1.17-4.362c14.787-0.638,18.086-2.871,22.448-18.729l28.938-108.09
		c1.276-4.573,1.916-7.979,1.916-10.638c0-6.384-4.15-7.66-14.575-8.086L42.553,134.914z"/>
	<path d="M218.201,173.958c-23.087,28.513-36.599,56.812-39.258,87.557c-0.104,1.811-0.213,3.511-0.213,5.108
		c0,13.085,3.829,18.405,9.575,18.405c34.469,0,55.747-51.6,57.13-78.408c-8.3-4.15-16.81-12.024-15.961-23.514
		c0.427-6.808,5.639-9.149,9.577-9.149c8.403,0,12.341,8.833,12.341,22.022c0,2.658-0.213,5.533-0.532,8.619
		c-4.998,42.769-28.3,87.666-68.832,87.666c-18.511,0-25.002-12.129-25.002-24.683c0-0.742,0.105-1.595,0.105-2.34
		c1.811-24.471,22.022-55.642,50.535-82.876c-9.575,3.511-20.852,13.831-28.726,13.831c-5.426,0-8.935-5.534-13.723-5.534
		c-4.576,0-7.129,3.298-10.64,13.512l-2.446,8.087h-4.15l4.786-15.853c4.788-17.449,12.874-22.235,20.534-22.235
		c8.301,0,11.276,8.513,19.79,8.513c7.021,0,13.3-2.236,18.299-6.808l2.234-4.15L218.201,173.958z"/>
	<path d="M325.869,174.171c18.089,0,29.791,11.066,29.791,34.15c0,32.024-22.13,83.942-62.877,83.942
		c-18.088,0-29.896-11.173-29.896-34.257C262.884,225.981,285.123,174.171,325.869,174.171z M281.611,268.962
		c0,12.979,4.15,18.938,12.448,18.938c23.513,0,42.876-51.492,42.876-90.432c0-13.3-4.149-18.937-12.342-18.937
		C301.186,178.532,281.611,230.131,281.611,268.962z"/>
	<path d="M441.089,263.003c-8.513,14.578-25.318,29.259-43.834,29.259c-17.447,0-28.725-10.747-28.725-32.025
		c0-33.619,25.001-86.068,65.748-86.068c12.872,0,23.617,6.917,23.617,18.511c0,8.3-5.956,17.449-15.53,17.449
		c-6.064,0-8.937-3.936-8.937-8.513c0-8.511,7.874-14.895,16.384-16.383c-2.875-4.15-7.447-6.703-14.787-6.703
		c-22.235,0-46.279,39.364-46.279,83.622c0,14.787,6.169,20.96,15.32,20.96c10.427,0,21.491-5.533,32.663-21.809L441.089,263.003z"
		/>
	<path d="M562.054,253.645l-5.425,15.958c-6.388,17.448-16.598,22.661-25.107,22.661c-5.426,0-9.788-2.236-12.026-5.744
		c-1.274-2.235-1.807-4.789-1.807-7.661c0-5.319,1.807-11.383,3.401-17.342l3.938-15.852c-14.362,33.62-28.725,46.599-43.832,46.599
		c-13.729,0-20.537-10.96-20.537-26.386c0-34.894,31.387-91.707,64.369-91.707c7.66,0,13.082,5.852,13.937,16.278l3.401-13.298
		c7.021-0.214,14.252-1.063,20.114-2.98l-27.241,96.282c-0.527,1.916-1.592,5.214-1.592,8.088c0,2.979,1.168,5.425,4.896,5.425
		c5.635,0,11.276-5.425,16.701-22.234l2.659-8.085L562.054,253.645L562.054,253.645z M536.096,202.045
		c0.103-1.702,0.21-3.299,0.21-4.787c0-11.489-4.258-18.937-12.025-18.937c-19.149,0-44.365,51.597-44.365,90.11
		c0,12.447,2.767,16.811,7.554,16.811c12.234,0,33.724-31.067,44.573-67.346L536.096,202.045z"/>
	<path d="M599.079,270.664c-0.53,1.811-0.746,3.511-0.746,4.894c0,6.064,4.15,8.618,9.467,8.618c6.279,0,12.869-3.723,19.361-21.809
		l3.085-8.513h4.149l-4.57,13.724c-6.39,18.939-16.601,24.684-29.898,24.684c-13.408,0-19.469-7.022-19.469-18.087
		c0-3.724,0.746-7.874,2.019-12.449l23.087-80.218h-19.572l1.065-4.362h19.787l9.467-33.087c6.916-0.212,13.936-1.062,19.571-3.084
		l-10.315,36.174h28.83l-0.634,4.362h-29.363L599.079,270.664z"/>
	<path d="M680.356,195.662c1.063-3.193,1.596-5.852,1.596-7.979c0-3.615-1.596-5.533-4.683-5.533
		c-6.808,0-11.593,7.235-17.231,22.235l-3.085,8.083h-4.042l5.639-15.85c6.489-18.297,18.086-22.447,27.022-22.447
		c10.959,0,14.468,5.958,14.468,13.617c0,5.212-1.702,11.277-3.617,16.81l-23.303,66.069c-1.172,3.193-1.699,5.852-1.699,7.979
		c0,3.515,1.699,5.533,5.215,5.533c5.852,0,10.64-5.425,17.021-22.235l2.975-8.086h4.15l-5.634,15.96
		c-6.067,16.915-16.811,22.448-26.81,22.448c-11.385,0-15.213-5.533-15.213-13.299c0-5.106,1.593-11.066,3.828-17.235
		L680.356,195.662z"/>
	<path d="M787.704,173.958c-23.086,28.513-36.598,56.812-39.253,87.557c-0.105,1.811-0.214,3.511-0.214,5.108
		c0,13.085,3.831,18.405,9.574,18.405c34.473,0,55.743-51.6,57.126-78.408c-8.294-4.15-16.802-12.024-15.956-23.514
		c0.424-6.808,5.639-9.149,9.575-9.149c8.405,0,12.341,8.833,12.341,22.022c0,2.658-0.21,5.533-0.529,8.619
		c-5.004,42.769-28.298,87.666-68.835,87.666c-18.51,0-25.002-12.129-25.002-24.683c0-0.742,0.107-1.595,0.107-2.34
		c1.806-24.471,22.02-55.642,50.537-82.876c-9.575,3.511-20.852,13.831-28.728,13.831c-5.426,0-8.935-5.534-13.726-5.534
		c-4.571,0-7.125,3.298-10.64,13.512l-2.447,8.087h-4.15l4.788-15.853c4.782-17.449,12.871-22.235,20.533-22.235
		c8.3,0,11.276,8.513,19.787,8.513c7.02,0,13.302-2.236,18.297-6.808l2.236-4.15L787.704,173.958z"/>
	<path d="M903.031,263.003c-8.511,14.578-25.321,29.259-43.831,29.259c-17.666,0-28.729-10.534-28.729-30.747
		c0-31.597,30.427-87.346,71.812-87.346c8.935,0,16.175,4.786,16.175,14.361c0,26.597-40.002,44.044-65.109,52.557
		c-1.597,6.916-2.447,14.042-2.447,21.064c0,14.787,5.846,20.96,15,20.96c10.534,0,22.443-5.533,33.615-21.809L903.031,263.003z
		 M854.303,236.939c12.768-4.469,23.3-8.936,29.684-14.044c10.532-8.191,17.017-20.428,17.017-34.789
		c0-8.299-1.276-9.788-3.511-9.788C883.241,178.321,862.389,205.66,854.303,236.939z"/>
</g>
<path d="M45.17,368.758c0,7.829-6.283,13.135-14.881,13.135c-7.291,0-13.842-3.795-13.842-11.557
	c0-6.753,4.873-11.624,11.053-14.682c-4.604-3.693-8.767-7.592-8.767-13.673c0-6.415,5.511-10.751,12.6-10.751
	c6.18,0,11.354,3.259,11.354,9.439c0,5.208-3.564,9.207-8.738,12.699C39.424,357.366,45.17,361.397,45.17,368.758z M39.292,371.645
	c0-6.889-5.476-10.985-10.752-15.186c-4.401,3.226-6.014,7.76-6.014,12.834c0,5.846,2.186,11.354,8.163,11.354
	C35.327,380.65,39.292,377.491,39.292,371.645z M24.105,339.83c0,5.745,4.166,9.34,8.804,12.768
	c3.057-2.925,4.266-6.754,4.266-11.021c0-5.44-2.352-9.105-6.621-9.105C26.927,332.472,24.105,335.294,24.105,339.83z
	 M50.512,353.134c2.085-4.333,6.151-8.601,13.574-8.601c6.315,0,10.314,3.089,10.314,8.667c0,9.137-12.262,15.623-17.27,22.41
	h13.978c3.762,0,4.266-0.871,4.604-3.495h1.175c0,4.873,0.066,7.021,0.269,9.139c-1.245-0.27-6.114-0.338-10.248-0.338H50.781
	v-1.177c5.578-5.98,16.935-13.672,16.935-25.028c0-5.243-2.621-7.426-6.887-7.426c-3.63,0-6.786,2.116-9.206,6.451L50.512,353.134z
	 M91.744,332.741c0,5.174-3.931,8.334-8.4,8.334c-4.401,0-8.331-3.16-8.331-8.334c0-5.073,3.93-8.231,8.331-8.231
	C87.812,324.51,91.744,327.668,91.744,332.741z M76.723,332.808c0,4.839,3.527,7.088,6.618,7.088c3.093,0,6.687-2.249,6.687-7.088
	c0-4.67-3.594-7.157-6.687-7.157C80.25,325.65,76.723,328.138,76.723,332.808z M129.369,373.831c0,4.4,1.848,5.645,6.617,5.645
	v1.442c-1.88-0.064-5.779-0.268-9.508-0.268c-4.267,0-8.465,0.203-10.582,0.268v-1.442c4.534,0,7.289-1.176,7.289-5.645v-16.664
	c0-6.585-1.782-7.425-7.995-7.425v-1.51c6.617-0.133,10.682-1.041,14.179-3.495V373.831z M164.803,346.986
	c-3.931,9.373-12.028,19.419-11.893,35.174c0,2.186,0.269,3.998,0.269,5.442c0,2.05-1.312,3.495-3.226,3.495
	c-2.151,0-3.091-1.845-3.091-3.863c0-13.673,8.667-25.195,14.781-35.909h-16.294c-3.799,0-4.267,0.84-4.638,3.522h-1.175
	c0-4.9-0.066-7.491-0.269-9.641c1.243,0.269,6.148,0.335,10.248,0.335H164.8L164.803,346.986L164.803,346.986z M203.32,365.766
	c-0.875,4.773-3.764,16.127-10.314,16.127c-3.325,0-4.333-2.721-4.333-6.181c0-0.973,0.067-2.016,0.202-3.054l0.066-0.64
	c-2.049,4.806-5.646,9.877-11.121,9.877c-4.097,0-5.24-3.024-5.442-6.35c-1.443,8.6-2.958,13.103-3.998,15.62
	c-0.605,1.511-1.98,2.689-3.997,2.689c-1.848,0-2.822-1.109-2.822-2.62c0-2.116,1.951-3.828,4.2-6.887
	c2.756-3.662,5.912-9.34,6.886-20.09c0.137-10.517,0.137-14.683,0.337-16.024c0.404-2.888,2.22-3.696,3.799-3.696
	c1.577,0,2.62,0.809,2.62,2.889c0,3.395-3.259,5.609-5.141,15.219l-0.705,6.719c0.338,3.933,2.822,5.174,5.408,5.174
	c5.041,0,8.467-2.483,10.818-9.036l0.201-1.613c0.132-10.248,0.132-14.312,0.335-15.656c0.438-2.889,2.218-3.697,3.799-3.697
	c1.58,0,2.619,0.809,2.619,2.889c0,3.494-3.493,5.71-5.341,15.99c-0.372,2.822-0.606,4.973-0.606,6.621
	c0,3.458,0.977,4.501,3.395,4.501c3.63,0,6.048-2.485,7.829-9.038L203.32,365.766z M205.676,332.205
	c6.756,0.2,15.826,0.2,19.957,0.2c4.199,0,10.111,0,14.38-0.2c-0.338,3.492-0.471,7.088-0.471,8.802c0,2.217,0.066,4.2,0.203,5.645
	h-1.581c-0.976-9.576-2.016-12.868-10.614-12.868h-4.334c-4.672,0-5.579,0.706-5.579,5.711v16.932h5.038
	c5.981,0,5.846-5.776,6.386-9.073h1.58c-0.202,2.891-0.235,4.873-0.235,6.487c0,1.245,0.033,2.251,0.033,3.259
	c0,2.285,0.065,4.567,0.438,9.776h-1.612c-0.538-4.401-0.607-9.071-6.586-9.071h-5.038v15.824c0,5.008,1.176,5.712,6.956,5.913
	v1.377c-2.386-0.136-6.384-0.201-10.113-0.201c-3.56,0-6.885,0.065-8.804,0.201v-1.377c4.672-0.201,5.578-0.908,5.578-5.913v-34.134
	c0-5.008-0.906-5.711-5.578-5.911L205.676,332.205L205.676,332.205z M286.805,340.468c0.573,1.144,0.874,2.421,0.874,3.763
	c0,6.217-5.441,11.089-14.582,13.104c7.224,0.47,11.826,3.226,12.935,9.34l1.31,7.022c0.606,3.425,1.512,5.644,3.862,5.644
	c1.782,0,2.756-2.219,2.689-6.755h1.275c0.103,6.283-1.444,9.308-6.519,9.308c-4.534,0-7.088-2.888-7.996-7.66l-1.31-6.653
	c-1.276-6.688-2.386-9.173-8.804-9.777c-1.378,0.47-2.249,0.807-3.292,0.807s-1.646-0.47-1.646-1.075
	c0-0.772,0.738-1.109,1.51-1.109c1.177,0,2.187,0.267,3.63,0.604c7.525-1.78,10.047-6.65,10.047-12.028
	c0-1.68-0.203-3.19-0.674-4.535h-15.755v-1.378h15.186c-1.848-3.561-5.912-5.507-12.901-5.507h-2.284v-1.378h31.58v1.378h-22.174
	c6.012,0.871,10.046,2.82,12.162,5.507h10.145v1.378L286.805,340.468L286.805,340.468z M302.343,379.541
	c6.954-7.83,19.822-22.51,19.822-36.115c0-7.157-3.528-10.685-8.334-10.685c-3.226,0-6.686,1.612-7.829,4.703
	c2.116,0.334,3.965,1.445,3.965,3.631c0,2.148-1.646,3.593-3.762,3.593c-2.421,0-3.664-1.882-3.664-3.799
	c0-1.444,0.771-3.357,2.421-5.239c2.888-3.226,7.021-4.401,11.02-4.401c7.224,0,12.868,3.862,12.868,11.085
	c0,9.708-10.954,18.578-21.2,33.294h15.419c2.889,0,4.536-1.444,5.072-6.383h1.58c-0.134,1.039-0.202,2.62-0.202,3.931
	c0,1.848,0.134,4.804,0.47,7.761h-14.782c-4.03,0-6.819-0.065-9.273-0.065c-1.242,0-2.386,0.032-3.593,0.065L302.343,379.541
	L302.343,379.541z M368.188,354.074c0,17.133-7.492,27.818-18.446,27.818c-2.453,0-4.804-0.572-6.518-1.443
	c-1.882-0.977-3.931-2.757-3.931-5.108c0-2.05,1.646-3.693,3.799-3.693c1.979,0,3.693,1.444,3.693,3.495
	c0,1.645-1.107,3.089-2.822,3.862c1.108,1.241,3.997,1.716,5.845,1.716c6.082,0,11.692-5.175,11.692-25.534l-0.034-1.914
	c-1.914,7.153-6.349,9.777-11.289,9.777c-6.887,0-13.238-5.041-13.238-15.355c0-10.886,7.022-16.461,15.49-16.461
	C362.543,331.23,368.188,339.227,368.188,354.074z M361.3,349.201c-0.906-13.434-5.004-16.595-9.138-16.595
	c-4.67,0-8.532,3.996-8.532,14.949c0,9.978,3.227,14.11,7.694,14.11C354.448,361.669,359.588,359.618,361.3,349.201z
	 M429.894,333.583c-4.67,0.2-5.546,0.906-5.546,5.911v41.763h-1.612l-19.25-44.651v37.022c0,5.008,0.907,5.712,5.577,5.913v1.377
	c-1.645-0.136-3.996-0.201-6.314-0.201c-2.352,0-4.907,0.065-6.417,0.201v-1.377c4.67-0.201,5.577-0.908,5.577-5.913v-34.134
	c0-5.008-0.907-5.711-5.577-5.911v-1.378c1.51,0.133,4.065,0.2,6.417,0.2c2.249,0,4.604-0.065,6.314-0.2l13.676,31.918v-24.627
	c0-5.007-0.874-5.709-5.544-5.911v-1.378c1.646,0.133,3.964,0.201,6.316,0.201c2.352,0,4.871-0.065,6.383-0.201V333.583
	L429.894,333.583z M431.238,360.258h23.685v1.343h-23.685V360.258z M431.238,365.263h23.685v1.344h-23.685V365.263z
	 M456.167,343.694c0,8.197-6.114,12.463-12.162,12.463s-12.195-4.266-12.195-12.463s6.147-12.464,12.195-12.464
	C450.05,331.23,456.167,335.497,456.167,343.694z M437.521,343.694c0,7.995,2.955,11.221,6.484,11.221
	c3.495,0,6.451-3.226,6.451-11.221c0-7.999-2.956-11.223-6.451-11.223C440.476,332.472,437.521,335.695,437.521,343.694z
	 M471.343,389.723c6.451-1.816,14.246-5.577,16.362-19.117c-2.386,3.762-6.552,5.005-9.576,5.005
	c-6.384,0-12.364-5.344-12.364-14.984c0-10.314,6.886-16.093,15.117-16.093c8.737,0,14.044,6.583,14.044,18.143
	c0,18.846-14.044,26.91-23.318,28.422L471.343,389.723z M487.972,368.22c0.168-1.676,0.27-3.462,0.27-5.408
	c0-13.407-4.268-16.897-8.025-16.897c-4.067,0-7.796,3.963-7.796,14.244c0,9.877,3.399,13.473,7.46,13.473
	C482.493,373.628,486.188,372.351,487.972,368.22z"/>
<path d="M554.103,383.036c0,6.414-4.736,10.816-12.096,10.816c-2.753,0-4.736-0.605-6.114-1.176
	c-3.326-1.378-5.309-3.763-5.309-6.181c0-2.017,1.311-3.729,3.629-3.729c2.082,0,3.799,1.443,3.799,3.662
	c0,1.577-0.81,3.09-2.959,3.631c0.846,1.946,4.604,2.48,6.755,2.48c5.576,0,7.49-3.697,7.49-6.82c0-5.408-6.049-9.137-11.422-12.866
	c-6.622-4.538-10.112-7.693-10.112-13.405c0-4.335,1.88-8.567,7.897-11.894c-2.992-2.722-4.872-5.646-4.872-9.641
	c0-6.383,4.733-10.817,12.128-10.817c2.721,0,4.739,0.637,6.114,1.176c3.291,1.378,5.274,3.795,5.274,6.216
	c0,1.982-1.275,3.697-3.631,3.697c-2.049,0-3.797-1.445-3.797-3.631c0-1.58,0.841-3.123,2.956-3.662
	c-0.943-1.982-4.672-2.484-6.651-2.484c-5.709,0-7.595,3.728-7.595,6.818c0,5.442,6.081,9.172,11.428,12.869
	c6.619,4.533,10.107,7.693,10.107,13.403c0,4.369-2.019,8.466-8.062,11.758C552.154,376.014,554.103,378.969,554.103,383.036z
	 M548.324,372.621c3.596-2.016,5.106-4.804,5.106-7.66c0-4.604-4.669-7.995-9.911-11.556c-2.589-1.786-4.971-3.395-6.986-5.071
	c-3.523,1.946-5.041,4.872-5.041,7.693c0,4.604,4.671,7.963,9.878,11.557C543.958,369.359,546.341,370.973,548.324,372.621z
	 M562.848,379.541c6.955-7.83,19.82-22.51,19.82-36.115c0-7.157-3.526-10.685-8.332-10.685c-3.226,0-6.685,1.612-7.824,4.703
	c2.115,0.334,3.963,1.445,3.963,3.631c0,2.148-1.645,3.593-3.764,3.593c-2.418,0-3.657-1.882-3.657-3.799
	c0-1.444,0.77-3.357,2.415-5.239c2.892-3.226,7.025-4.401,11.021-4.401c7.222,0,12.869,3.862,12.869,11.085
	c0,9.708-10.953,18.578-21.204,33.294h15.422c2.891,0,4.538-1.444,5.073-6.383h1.576c-0.136,1.039-0.198,2.62-0.198,3.931
	c0,1.848,0.136,4.804,0.471,7.761h-14.787c-4.028,0-6.819-0.065-9.272-0.065c-1.243,0-2.386,0.032-3.602,0.065v-1.375H562.848z
	 M604.802,356.562c0,2.386-1.983,4.401-4.399,4.401c-2.421,0-4.407-2.016-4.407-4.401c0-2.421,1.986-4.401,4.407-4.401
	C602.818,352.16,604.802,354.141,604.802,356.562z M638.181,328.776c-0.135,1.008-0.202,2.756-0.202,3.83
	c0,1.376,0.135,3.023,0.475,4.905h-21.268l-0.605,16.496c2.826-1.848,5.977-2.553,9.44-2.553c7.555,0,15.184,4.567,15.184,14.311
	c0,10.549-7.557,16.127-17.132,16.127c-3.291,0-5.784-0.975-7.626-2.083c-2.692-1.58-3.935-3.63-3.935-5.276
	c0-2.148,1.514-3.661,3.661-3.661c2.051,0,3.764,1.378,3.764,3.73c0,1.914-1.143,3.159-2.892,3.495
	c0.773,1.378,3.932,2.62,6.822,2.62c6.114,0,10.681-3.799,10.681-14.886c0-9.34-4.566-13.002-9.641-13.002
	c-2.083,0-5.711,0.639-8.667,2.756l-1.108-0.472l0.905-23.181c1.008,0.201,1.916,0.269,3.092,0.269h12.8
	c3.159,0,4.604-0.841,5.074-3.429L638.181,328.776L638.181,328.776z"/>
<path d="M699.438,367.009c4.4,0.635,8.802,3.327,8.802,7.928c0,3.496-2.554,6.956-7.491,6.956c-5.109,0-8.971-3.931-13.236-5.242
	c-0.943-0.27-2.118-0.536-3.361-0.536c-1.849,0-4.333,0.739-6.249,2.186c-1.646,2.351-3.158,3.593-5.038,3.593
	c-0.471,0-0.741-0.132-0.741-0.572c0-0.94,1.78-2.521,5.579-3.966c1.141-2.082,1.375-3.799,1.375-9.775v-7.09h-5.306v-1.378h5.306
	v-5.51h-5.306v-1.378h5.306c0.136-7.224,3.631-14.113,14.585-14.113c3.157,0,5.506,0.842,7.019,1.914
	c1.443,1.042,2.183,2.419,2.183,3.73c0,1.983-1.513,3.358-3.22,3.358c-1.583,0-3.164-1.209-3.164-3.089
	c0-1.513,0.805-2.688,2.245-3.226c-0.199-0.978-2.688-1.647-4.938-1.647c-8.127,0-8.332,6.182-8.332,12.665v0.404h9.977v1.378
	h-9.977v5.51h9.977v1.378h-9.977v3.025c0,6.181-1.781,8.732-6.447,13.271c2.38-1.646,4.802-2.619,7.898-2.619
	c4.536,0,8.469,2.421,13.403,2.421c3.325,0,4.703-1.514,4.703-3.226c0-2.822-2.353-4.604-5.842-5.243L699.438,367.009z"/>
<g>
	<path d="M713.396,353.134c2.08-4.501,5.778-8.601,12.599-8.601c5.708,0,9.911,2.956,9.911,7.829c0,5.375-5.041,9.508-10.246,11.353
		c6.384,0.137,12.732,3.36,12.732,10.451c0,10.482-13.709,17.133-25.466,17.133v-1.241c9.407-0.203,18.917-5.712,18.917-15.892
		c0-5.343-2.823-9.273-7.289-9.608c-1.378,0.535-2.421,1.005-3.226,1.005c-0.771,0-1.105-0.337-1.105-0.873
		c0-0.838,0.805-1.312,1.785-1.312c0.769,0,1.508,0.203,2.416,0.271c3.695-2.823,5.271-6.418,5.271-9.912
		c0-4.335-2.318-6.181-5.979-6.181c-3.762,0-7.022,1.981-9.142,6.114L713.396,353.134z"/>
	<path d="M768.795,332.54c-6.854,2.183-15.187,6.753-16.699,23.886c2.285-4.266,6.754-5.644,9.877-5.644
		c6.42,0,12.396,5.375,12.396,14.983c0,10.349-6.884,16.127-15.154,16.127c-8.729,0-14.008-7.153-14.008-19.553
		c0-20.763,14.008-29.364,23.318-31.178L768.795,332.54z M767.684,366.271c0-9.911-3.354-13.505-7.427-13.505
		c-2.715,0-6.619,1.411-8.297,5.946c-0.064,1.106-0.098,2.284-0.098,3.493c0,14.514,4.27,18.31,8.062,18.31
		C763.988,380.515,767.684,376.517,767.684,366.271z"/>
	<path d="M827.914,369.092c0,4.536,0.068,6.452,0.271,8.468c-0.902-0.235-3.799-0.298-6.887-0.337v13.403h-5.507v-13.438h-17.934
		v-1.443l22.336-31.212h1.104v28.052h0.844c3.764,0,4.268-0.874,4.604-3.493H827.914z M815.789,352.968l-13.879,19.62h13.879
		V352.968z"/>
	<path d="M863.224,375.879c1.58,2.149,2.756,3.324,4.806,3.594v1.443c-1.042-0.065-3.495-0.269-5.578-0.269
		c-2.889,0-6.183,0.203-7.624,0.269v-1.443c1.31,0,2.115-0.538,2.115-1.312c0-0.301-0.136-0.671-0.405-1.039l-7.895-11.559
		c-1.681-2.351-2.756-2.922-5.174-3.022v11.993c0,3.831,1.242,4.939,4.533,4.939v1.443c-1.44-0.065-4.736-0.269-7.624-0.269
		c-3.159,0-6.749,0.203-8.333,0.269v-1.443c3.796,0,5.239-1.108,5.239-4.939v-39.309c0-4.133-1.237-6.047-5.239-6.047v-1.443
		c1.44,0.134,2.889,0.202,4.267,0.202c2.688,0,5.174-0.269,7.157-0.975v34.168c2.721-0.369,4.334-1.214,5.911-2.856l5.111-5.273
		c1.546-1.612,2.187-2.854,2.187-3.799c0-1.675-2.187-2.35-5.075-2.35v-1.379c2.381,0.133,5.78,0.269,7.761,0.269
		c2.285,0,4.604-0.136,5.981-0.269v1.379c-2.251,0.201-4.267,1.245-6.182,3.226l-8.362,8.803L863.224,375.879z"/>
	<path d="M888.525,379.34c-6.387-12.063-15.286-18.579-15.286-30.909c0-10.719,7.021-17.2,19.823-17.2
		c12.8,0,19.822,6.484,19.822,17.2c0,12.33-8.87,18.846-15.281,30.909h3.323c6.722,0,9.14-2.89,9.908-11.49h1.579
		c-0.135,1.242-0.237,3.022-0.237,4.938c0,1.579,0.173,4.904,0.508,8.13c-2.016-0.2-5.109-0.2-7.019-0.2
		c-2.826,0-5.92,0.133-9.778,0.2v-1.108c3.361-5.007,10.107-16.564,10.107-30.002c0-10.85-3.421-17.336-12.933-17.336
		c-9.476,0-12.938,6.486-12.938,17.336c0,13.438,6.756,24.998,10.114,30.002v1.108c-3.864-0.064-6.957-0.2-9.775-0.2
		c-1.915,0-5.007,0-7.021,0.2c0.37-3.226,0.505-6.551,0.505-8.13c0-1.916-0.064-3.696-0.197-4.938h1.575
		c0.742,8.601,3.161,11.49,9.909,11.49H888.525z"/>
</g>
<g>
	<path d="M136.089,554.95c0,16.755-25.085,33.238-46.946,33.238c-19.262,0-32.522-12.9-43.901-24.903
		c-9.854,3.494-18.904,5.464-26.161,5.464C6.985,568.749,0,563.642,0,555.132c0-9.678,9.498-16.311,22.399-16.311
		c13.888,0,23.651,7.794,34.224,16.216c35.569-18.007,70.508-57.694,70.508-94.698c0-21.321-11.021-35.835-31.356-35.835
		c-28.223,0-46.588,27.953-46.588,54.114c0,18.364,8.959,26.251,20.875,26.251c16.931,0,28.847-15.95,28.847-28.94
		c0-2.421-0.357-5.734-1.344-7.345c-2.51,5.106-8.242,8.242-13.529,8.242c-5.555,0-8.601-3.675-8.601-8.602
		c0-6.452,5.286-11.2,12.632-11.2c8.781,0,14.514,7.169,14.514,17.919c0,18.188-16.216,34.135-39.51,34.135
		c-21.053,0-32.613-13.169-32.613-32.072c0-32.521,34.136-55.816,68.449-55.816c29.295,0,47.304,14.333,47.304,37.984
		c0,39.243-46.499,79.108-86.725,98.192c11.557,9.14,24.548,18.365,44.886,18.365c11.198,0,20.605-2.777,26.428-12.544
		c-1.79,0.808-3.85,1.165-5.644,1.165c-5.734,0-9.049-3.858-9.049-8.869c0-5.645,4.569-10.932,10.84-10.932
		C132.235,544.561,136.089,548.411,136.089,554.95z M43.093,560.955c-9.139-9.587-17.111-18.098-26.25-18.098
		c-6.54,0-13.348,4.388-13.348,11.917c0,7.704,6.809,10.839,17.559,10.839C27.682,565.613,35.298,563.82,43.093,560.955z"/>
	<path d="M246.557,523.954l-4.571,13.438c-5.375,15.409-14.692,18.904-22.218,18.904c-3.854,0-7.706-1.703-9.406-5.018
		c-0.717-1.523-1.077-3.314-1.077-5.643c0-3.584,0.897-8.334,2.599-15.05l5.82-23.027c-14.693,35.746-27.413,48.739-42.912,48.739
		c-11.02,0-15.501-5.557-15.501-14.156c0-3.943,0.985-8.602,2.688-13.618l17.739-53.575c0.897-2.774,1.437-5.106,1.437-6.897
		c0-2.957-1.344-4.479-4.303-4.479c-4.658,0-9.049,4.032-14.156,18.725l-2.417,6.81h-3.495l4.659-13.351
		c5.287-15.409,14.602-18.903,22.129-18.903c9.767,0,12.901,4.748,12.901,11.376c0,4.211-1.341,9.228-2.954,14.245l-17.472,52.502
		c-1.253,3.763-1.791,6.81-1.791,9.138c0,4.3,1.972,6.271,5.824,6.271c14.155,0,34.136-32.969,46.946-80.092l2.777-10.932
		c6.093-0.179,12.184-0.896,16.755-2.509l-22.758,81.26c-0.808,2.778-1.344,5.287-1.344,7.165c0,2.6,1.075,4.212,3.942,4.212
		c5.284,0,9.497-5.107,14.241-18.725l2.421-6.81L246.557,523.954L246.557,523.954z"/>
	<path d="M318.853,531.658c-7.165,12.273-21.322,24.639-36.91,24.639c-14.871,0-24.19-8.87-24.19-25.895
		c0-26.607,25.622-73.552,60.473-73.552c7.526,0,13.617,4.03,13.617,12.096c0,22.398-33.686,37.092-54.828,44.257
		c-1.345,5.823-2.062,11.827-2.062,17.74c0,12.452,4.928,17.647,12.633,17.647c8.869,0,18.904-4.659,28.311-18.368L318.853,531.658z
		 M277.821,509.71c10.751-3.764,19.621-7.526,24.997-11.825c8.869-6.9,14.332-17.202,14.332-29.295c0-6.988-1.075-8.242-2.954-8.242
		C302.192,460.345,284.63,483.368,277.821,509.71z"/>
	<path d="M353.527,552.622c10.839,0,18.543-6.628,18.543-18.904c0-7.524-2.42-14.514-9.586-24.279
		c-5.646-7.706-11.915-15.411-11.915-26.609c0-15.591,12.9-25.981,28.49-25.981c10.392,0,22.397,2.867,22.397,15.947
		c0,3.494-2.241,9.498-8.509,9.498c-4.034,0-7.349-3.046-7.349-7.705c0-4.391,2.062-8.422,5.195-12.276
		c-2.421-1.433-5.555-2.148-9.227-2.148c-9.137,0-15.947,6.359-15.947,17.378c0,8.423,3.854,12.275,11.021,22.936
		c6.091,9.406,10.839,17.469,10.839,26.966c0,17.115-14.514,28.852-31.536,28.852c-12.722,0-24.817-5.018-24.817-18.188
		c0-3.493,1.701-8.242,7.168-8.242c5.913,0,8.064,5.645,8.064,11.557c0,3.853-0.716,6.81-1.255,9.497
		C347.078,551.906,348.956,552.622,353.527,552.622z"/>
	<path d="M491.138,523.775l-4.568,13.433c-5.373,14.698-13.976,19.086-21.146,19.086c-4.567,0-8.241-1.882-10.123-4.839
		c-1.075-1.882-1.524-4.03-1.524-6.452c0-4.479,1.524-9.586,2.87-14.604l3.313-13.347c-12.096,28.31-24.191,39.241-36.911,39.241
		c-11.557,0-17.292-9.227-17.292-22.22c0-29.387,26.43-77.227,54.203-77.227c6.451,0,11.018,4.928,11.736,13.708l2.867-11.198
		c5.911-0.18,12.003-0.897,16.931-2.51l-22.937,81.081c-0.446,1.612-1.341,4.39-1.341,6.808c0,2.511,0.983,4.57,4.12,4.57
		c4.747,0,9.497-4.57,14.065-18.723l2.24-6.809H491.138L491.138,523.775z M469.278,480.322c0.09-1.433,0.182-2.778,0.182-4.033
		c0-9.675-3.585-15.947-10.131-15.947c-16.125,0-37.357,43.453-37.357,75.887c0,10.48,2.33,14.152,6.361,14.152
		c10.303,0,28.401-26.161,37.539-56.709L469.278,480.322z"/>
	<path d="M590.226,523.954l-4.302,13.438c-4.568,14.87-13.89,18.904-21.233,18.904c-7.526,0-11.559-4.034-11.559-11.469
		c0-3.762,0.892-8.513,2.329-14.244l2.421-9.227c-11.922,25.174-23.473,34.939-36.468,34.939c-11.556,0-19.08-7.706-19.08-24.281
		c0-29.295,25.268-75.165,59.223-75.165c4.562,0,9.402,3.046,11.196,8.778l9.143-34.314c0.535-1.881,0.806-3.495,0.806-4.927
		c0-4.839-3.315-7.169-12.542-7.169l1.164-3.854c13.35-0.174,23.114-2.777,32.436-7.524l-35.923,130.265
		c-0.633,2.149-1.081,4.388-1.081,6.272c0,2.957,1.081,5.105,4.388,5.105c4.755,0,8.602-4.747,13.352-18.725l2.243-6.808
		L590.226,523.954L590.226,523.954z M571.502,470.38c-1.613-6.63-5.558-9.318-9.764-9.318c-23.471,0-43.097,43.987-43.097,73.372
		c0,10.839,2.777,15.947,8.065,15.947c10.75,0,28.579-25.084,37.983-54.561L571.502,470.38z"/>
	<path d="M628.571,474.946c0.897-2.685,1.346-4.927,1.346-6.72c0-3.046-1.346-4.658-3.948-4.658c-5.73,0-9.761,6.091-14.511,18.725
		l-2.596,6.809h-3.402l4.744-13.35c5.471-15.41,15.232-18.904,22.763-18.904c9.229,0,12.182,5.016,12.182,11.467
		c0,4.389-1.437,9.499-3.05,14.155l-19.62,55.636c-0.98,2.687-1.435,4.928-1.435,6.721c0,2.954,1.435,4.659,4.393,4.659
		c4.923,0,8.959-4.568,14.334-18.729l2.509-6.808h3.494l-4.747,13.438c-5.112,14.246-14.158,18.904-22.579,18.904
		c-9.585,0-12.812-4.658-12.812-11.199c0-4.304,1.343-9.318,3.227-14.513L628.571,474.946z M647.651,414.295
		c5.646,0,9.318,4.211,9.318,9.585c0,7.258-6.628,13.887-13.799,13.887c-5.463,0-9.224-4.119-9.224-9.406
		C633.947,420.924,640.667,414.295,647.651,414.295z"/>
	<path d="M673.636,538.107c-0.719,2.511-1.167,4.747-1.167,6.453c0,3.134,1.341,4.928,4.304,4.928
		c4.747,0,8.778-4.749,13.707-18.725l2.418-6.81h3.495l-4.568,13.438c-4.836,13.887-12.723,18.904-22.041,18.904
		c-9.764,0-12.628-5.196-12.628-11.917c0-4.3,1.165-9.227,2.508-13.796l29.919-99.27c0.535-1.969,0.897-3.673,0.897-5.107
		c0-4.747-3.315-6.984-12.452-6.984l1.25-3.857c13.436-0.174,23.11-2.777,32.702-7.524L673.636,538.107z"/>
	<path d="M724.435,538.107c-0.718,2.511-1.167,4.747-1.167,6.453c0,3.134,1.343,4.928,4.301,4.928
		c4.753,0,8.784-4.749,13.709-18.725l2.415-6.81h3.502l-4.571,13.438c-4.837,13.887-12.721,18.904-22.039,18.904
		c-9.767,0-12.631-5.196-12.631-11.917c0-4.3,1.168-9.227,2.508-13.796l29.922-99.27c0.532-1.969,0.895-3.673,0.895-5.107
		c0-4.747-3.312-6.984-12.455-6.984l1.254-3.857c13.438-0.174,23.113-2.777,32.699-7.524L724.435,538.107z"/>
	<path d="M843.498,523.775l-4.562,13.433c-5.377,14.698-13.981,19.086-21.15,19.086c-4.565,0-8.239-1.882-10.12-4.839
		c-1.078-1.882-1.526-4.03-1.526-6.452c0-4.479,1.526-9.586,2.866-14.604l3.315-13.347c-12.096,28.31-24.188,39.241-36.914,39.241
		c-11.559,0-17.291-9.227-17.291-22.22c0-29.387,26.431-77.227,54.205-77.227c6.451,0,11.015,4.928,11.735,13.708l2.861-11.198
		c5.92-0.18,12.013-0.897,16.935-2.51l-22.933,81.081c-0.448,1.612-1.343,4.39-1.343,6.808c0,2.511,0.986,4.57,4.12,4.57
		c4.75,0,9.5-4.57,14.068-18.723l2.24-6.809H843.498L843.498,523.775z M821.639,480.322c0.091-1.433,0.175-2.778,0.175-4.033
		c0-9.675-3.582-15.947-10.117-15.947c-16.13,0-37.36,43.453-37.36,75.887c0,10.48,2.329,14.152,6.36,14.152
		c10.304,0,28.4-26.161,37.535-56.709L821.639,480.322z"/>
	<path d="M871.718,552.622c10.842,0,18.548-6.628,18.548-18.904c0-7.524-2.421-14.514-9.589-24.279
		c-5.644-7.706-11.92-15.411-11.92-26.609c0-15.591,12.9-25.981,28.496-25.981c10.393,0,22.397,2.867,22.397,15.947
		c0,3.494-2.246,9.498-8.511,9.498c-4.031,0-7.346-3.046-7.346-7.705c0-4.391,2.061-8.422,5.195-12.276
		c-2.416-1.433-5.556-2.148-9.228-2.148c-9.14,0-15.948,6.359-15.948,17.378c0,8.423,3.853,12.275,11.021,22.936
		c6.093,9.406,10.839,17.469,10.839,26.966c0,17.115-14.513,28.852-31.534,28.852c-12.723,0-24.818-5.018-24.818-18.188
		c0-3.493,1.702-8.242,7.168-8.242c5.914,0,8.064,5.645,8.064,11.557c0,3.853-0.719,6.81-1.257,9.497
		C865.269,551.906,867.149,552.622,871.718,552.622z"/>
</g>
<path d="M20.269,631.002c4.034,8.887,9.829,13.995,18.2,16.441c-8.371,2.49-14.167,7.557-18.2,16.442h-1.502
	c4.119-8.886,8.886-13.781,15.926-16.442c-7.041-2.615-11.808-7.555-15.926-16.441H20.269z M28.167,631.002
	c3.735,8.114,8.886,13.092,16.141,15.756h10.947c-0.086-5.367-1.331-10.518-3.78-15.756h1.502
	c4.037,8.887,9.833,13.995,18.204,16.441c-8.371,2.49-14.167,7.557-18.204,16.442h-1.502c2.405-5.192,3.649-10.344,3.78-15.711
	H44.179c-7.168,2.705-12.277,7.6-16.012,15.711h-1.462c4.124-8.886,8.843-13.781,15.884-16.442
	c-7.041-2.615-11.76-7.555-15.884-16.441H28.167z M169.106,639.113c0-5.967-0.903-9.143-3.092-11.547
	c-2.017-2.103-4.808-3.303-9.314-3.303c-5.968,0-11.85,2.615-14.939,10.515v-32.883c-2.188,0.815-5.022,1.158-7.899,1.244v5.323
	c-8.67,0.215-19.789,0.215-27.904,0.215c-7.469,0-18.074,0-25.671-0.256c0.473,4.465,0.645,9.057,0.645,11.246
	c0,2.832-0.085,5.366-0.257,7.211h2.017c1.203-12.233,2.534-16.441,13.522-16.441h5.625v50.013c0,7.126-1.502,8.197-8.886,8.458
	v1.758c2.833-0.171,7.772-0.259,13.008-0.259c4.765,0,9.875,0.086,12.921,0.259v-1.758c-7.385-0.261-8.843-1.332-8.843-8.458
	v-50.013h23.827v52.16c0,4.894-1.847,6.311-6.696,6.311v1.845c2.017-0.087,6.696-0.346,10.562-0.346
	c3.864,0,7.983,0.259,9.829,0.346v-1.845c-4.208,0-5.795-1.417-5.795-6.311v-19.618c0-9.315,5.109-15.929,12.321-15.929
	c6.312,0,7.127,4.679,7.127,10.132v25.415c0,4.894-1.588,6.311-5.837,6.311v1.845c1.846-0.087,6.009-0.346,9.874-0.346
	c3.864,0,8.503,0.259,10.56,0.346v-1.845c-4.85,0-6.698-1.417-6.698-6.311v-23.484H169.106z M219.559,624.435
	c-2.533,0.858-5.709,1.201-9.142,1.201c-1.761,0-3.608-0.087-5.453-0.259v1.846c5.11,0,6.694,2.491,6.694,7.772v18.159
	c0,8.973-5.021,15.924-11.891,15.924c-6.312,0-6.654-4.636-6.654-10.086v-34.558c-2.574,0.858-5.71,1.201-9.143,1.201
	c-1.761,0-3.606-0.087-5.454-0.259v1.846c5.11,0,6.655,2.491,6.655,7.772v22.065c0,5.539,0.729,9.143,2.918,11.507
	c2.017,2.102,5.021,3.349,9.144,3.349c5.625,0,11.418-2.923,14.422-10.562v10.393c2.534-0.904,5.71-1.248,9.145-1.248
	c1.759,0,3.606,0.086,5.452,0.261v-1.846c-5.106,0-6.695-2.449-6.695-7.727L219.559,624.435L219.559,624.435z M233.376,653.711
	c0,8.887-0.085,13.78-0.344,17.556h2.018c0.343-2.188,1.029-3.303,1.801-3.303c0.258,0,0.56,0.085,0.816,0.343
	c1.16,0.947,2.361,1.761,3.608,2.362c2.103,0.86,4.42,1.247,6.955,1.247c7.983,0,15.024-4.251,15.024-12.324
	c0-7.209-5.364-11.074-12.021-15.368c-6.009-3.906-11.29-6.354-11.29-11.634c0-4.379,3.091-6.742,7.212-6.742
	c7.943,0,10.903,6.826,11.979,13.352h2.017c0-7.553,0.086-11.718,0.343-14.936h-2.016c-0.302,2.615-0.943,3.861-1.976,3.861
	c-0.43,0-0.944-0.257-1.547-0.73c-1.588-1.286-4.938-3.221-9.571-3.221c-6.956,0-13.01,3.52-13.01,11.336
	c0,7.297,5.711,10.731,12.107,14.765c5.751,3.607,9.959,6.396,9.959,11.506c0,6.269-4.291,8.369-7.813,8.369
	c-8.8,0-11.074-6.609-12.233-16.438H233.376z M327.276,659.077c-3.089,6.654-8.196,9.059-12.747,9.059
	c-6.785,0-12.666-5.279-12.666-20.864c0-16.612,6.783-21.551,12.58-21.551c3.348,0,6.739,1.588,7.898,3.69
	c-2.017,0.56-3.691,2.233-3.691,4.85c0,2.834,2.188,4.422,4.851,4.422c2.617,0,4.637-1.76,4.637-4.935
	c0-2.663-1.502-5.026-4.122-6.785c-2.833-1.845-6.525-2.792-10.218-2.792c-12.021,0-20.479,10.002-20.479,24.427
	c0,14.512,8.544,23.312,19.447,23.312c9.401,0,14.426-6.525,16.185-12.235L327.276,659.077z M360.13,640.232
	c0,3.519-4.636,5.021-10.518,7.47c-8.802,3.69-14.168,6.783-14.168,13.735c0,6.866,5.282,9.829,11.161,9.829
	c4.208,0,9.743-1.585,13.522-7.81c0,4.119,1.417,7.81,7.555,7.81c3.735,0,5.581-1.372,8.026-3.218l-0.987-1.502
	c-1.202,1.029-2.36,1.845-3.948,1.845c-2.017,0-2.705-1.326-2.705-4.163v-24.43c0-6.225-0.73-9.485-3.52-12.317
	c-2.017-2.018-5.71-3.308-10.646-3.308c-5.624,0-9.832,1.674-12.322,3.308c-2.445,1.673-4.121,3.689-4.121,6.269
	c0,3.173,1.759,5.449,4.767,5.449c3.135,0,5.15-1.758,5.15-4.764c0-2.877-1.932-4.809-4.118-5.365
	c2.016-2.534,5.703-3.134,8.714-3.134c4.552,0,8.156,1.458,8.156,8.842L360.13,640.232L360.13,640.232z M360.13,661.095
	c-2.963,4.809-6.396,6.653-9.915,6.653c-4.034,0-7.041-2.445-7.041-7.728c0-6.782,4.678-9.314,8.543-11.159
	c5.536-2.706,7.471-3.608,8.416-5.022L360.13,661.095L360.13,661.095z M445.514,659.42c-2.103,6.87-4.852,9.314-8.328,9.314
	c-3.348,0-5.666-2.015-5.666-7.812v-33.7h13.907v-1.759H431.52v-14.683c-1.845,0.688-4.163,1.031-6.567,1.203
	c-0.987-7.256-5.666-10.086-11.336-10.086c-6.18,0-11.805,3.262-11.805,10.473c0,6.312,4.764,9.015,4.379,15.326
	c-2.833-2.402-7.082-3.514-11.246-3.514c-7.081,0-13.951,3.514-13.951,11.418c0,7.207,5.71,10.645,12.106,14.681
	c6.009,3.78,9.96,6.312,9.96,11.851c0,5.108-3.348,8.024-8.458,8.024c-8.154,0-10.645-7.467-11.589-16.438h-2.017
	c0,8.886-0.086,13.779-0.344,17.555h2.018c0.343-2.144,0.987-3.303,1.802-3.303c0.257,0,0.518,0.132,0.815,0.343
	c1.244,0.947,2.276,1.762,3.606,2.363c1.762,0.772,4.336,1.246,6.956,1.246c7.983,0,15.026-4.25,15.026-12.323
	c0-7.299-5.708-11.333-12.021-15.369c-6.181-3.991-11.291-6.439-11.291-11.632c0-4.38,3.605-6.747,8.458-6.747
	c4.121,0,7.813,1.634,9.487,3.69c-2.017,2.364-2.964,4.981-2.964,6.915c0,2.317,1.29,4.421,3.952,4.421
	c2.273,0,4.033-1.674,4.033-4.768c0-2.444-1.074-5.494-3.049-7.254c0.216-0.815,0.299-1.631,0.299-2.403
	c0-4.936-3.949-8.587-3.949-14.167c0-6.397,4.594-8.803,9.617-8.803c6.568,0,10.176,4.337,10.176,11.721v10.259h-8.416v1.759h8.416
	v29.45c0,6.27,0.813,9.789,3.348,12.405c1.931,1.933,4.293,2.835,8.458,2.835c7.082,0,10.433-5.11,11.848-11.978L445.514,659.42z
	 M485.439,624.435c-2.533,0.858-5.708,1.201-9.142,1.201c-1.759,0-3.606-0.087-5.455-0.259v1.846c5.109,0,6.694,2.491,6.694,7.772
	v27.516c0,4.897-1.843,6.311-6.694,6.311v1.845c2.015-0.085,6.613-0.343,10.647-0.343c4.033,0,8.629,0.258,10.645,0.343v-1.845
	c-4.85,0-6.695-1.416-6.695-6.311V624.435L485.439,624.435z M480.888,603.397c-3.088,0-5.622,2.576-5.622,5.624
	c0,3.091,2.534,5.624,5.622,5.624c3.051,0,5.625-2.533,5.625-5.624C486.513,605.974,483.938,603.397,480.888,603.397z
	 M511.201,624.435c-2.533,0.858-5.709,1.201-9.143,1.201c-1.764,0-3.61-0.087-5.458-0.259v1.846c5.111,0,6.698,2.491,6.698,7.772
	v27.516c0,4.897-1.846,6.311-6.698,6.311v1.845c2.016-0.085,6.698-0.343,10.56-0.343c3.863,0,8.024,0.258,9.872,0.343v-1.845
	c-4.253,0-5.836-1.416-5.836-6.311v-19.531c0-8.973,4.934-16.014,12.32-16.014c6.349,0,7.127,4.679,7.127,10.132v25.413
	c0,4.897-1.589,6.311-5.796,6.311v1.845c1.846-0.085,5.969-0.343,9.832-0.343c3.864,0,8.542,0.258,10.556,0.343v-1.845
	c-4.847,0-6.694-1.416-6.694-6.311v-23.483c0-6.008-0.863-9.143-3.051-11.546c-2.019-2.104-4.854-3.307-9.315-3.307
	c-6.009,0-11.888,2.704-14.984,10.604v-10.344H511.201L511.201,624.435z M583.392,601.809c-2.533,0.902-5.711,1.245-9.147,1.245
	c-1.762,0-3.606-0.085-5.455-0.257v1.845c5.115,0,6.703,2.447,6.703,7.727v54.009c0,1.759-0.173,3.515-0.604,5.065l1.459,0.643
	l6.268-5.324c3.09,3.436,7.384,5.152,11.585,5.152c10.564,0,19.623-8.03,19.623-23.827c0-16.014-7.125-23.912-16.7-23.912
	c-6.008,0-11.12,3.393-13.735,9.4L583.392,601.809L583.392,601.809z M583.392,637.742c1.801-7.213,6.482-10.948,11.158-10.948
	c7.301,0,10.734,7.041,10.734,21.295c0,14.94-3.952,21.806-11.76,21.806c-3.65,0-7.301-1.458-10.133-4.38V637.742z M656.886,659.42
	c-3.049,6.568-7.642,8.803-12.92,8.803c-6.741,0-13.434-7.041-13.434-19.104c0-1.932,0.081-3.947,0.298-5.625h27.471
	c0-13.264-6.138-19.312-16.435-19.312c-12.058,0-19.882,9.486-19.882,24.94c0,13.481,7.473,22.797,20.225,22.797
	c8.711,0,14.509-5.927,16.438-11.806L656.886,659.42z M630.7,641.82c0.945-11.076,5.582-15.971,10.817-15.971
	c5.879,0,8.627,7.385,8.327,15.971H630.7z M675.62,669.339l25.411-44.39c-5.625,0.257-11.844,0.428-17.771,0.428
	c-5.541,0-11.158-0.084-16.356-0.343c0.301,3.263,0.393,8.286,0.393,15.842h2.015c0.773-10.217,4.38-14.168,12.193-14.168h9.701
	l-25.42,44.389c5.625-0.261,11.85-0.431,17.777-0.431c5.541,0,11.158,0.087,16.313,0.345c-0.26-3.263-0.34-8.242-0.34-15.798h-2.019
	c-0.773,10.175-5.282,14.123-12.236,14.123L675.62,669.339L675.62,669.339z M721.413,624.435c-2.533,0.858-5.71,1.201-9.145,1.201
	c-1.759,0-3.606-0.087-5.454-0.259v1.846c5.111,0,6.7,2.491,6.7,7.772v27.516c0,4.897-1.848,6.311-6.7,6.311v1.845
	c2.015-0.085,6.613-0.343,10.649-0.343s8.629,0.258,10.645,0.343v-1.845c-4.849,0-6.695-1.416-6.695-6.311V624.435z
	 M716.864,603.397c-3.091,0-5.623,2.576-5.623,5.624c0,3.091,2.532,5.624,5.623,5.624c3.051,0,5.625-2.533,5.625-5.624
	C722.489,605.974,719.912,603.397,716.864,603.397z M768.984,659.42c-3.051,6.568-7.644,8.803-12.924,8.803
	c-6.742,0-13.435-7.041-13.435-19.104c0-1.932,0.086-3.947,0.299-5.625h27.475c0-13.264-6.138-19.312-16.439-19.312
	c-12.059,0-19.878,9.486-19.878,24.94c0,13.481,7.471,22.797,20.223,22.797c8.711,0,14.509-5.927,16.438-11.806L768.984,659.42z
	 M742.796,641.82c0.945-11.076,5.582-15.971,10.818-15.971c5.879,0,8.629,7.385,8.329,15.971H742.796z M791.66,624.435
	c-2.53,0.858-5.707,1.201-9.146,1.201c-1.763,0-3.607-0.087-5.453-0.259v1.846c5.114,0,6.698,2.491,6.698,7.772v27.516
	c0,4.897-1.848,6.311-6.698,6.311v1.845c2.019-0.085,6.355-0.343,10.389-0.343c5.457,0,10.818,0.258,13.525,0.343v-1.845
	c-5.799,0-9.315-1.501-9.315-7.212v-18.63c0-6.524,4.853-16.528,12.238-16.528c0.772,0,1.416,0.259,1.846,0.86
	c-1.589,0.988-3.008,2.575-3.008,4.764c0,2.92,2.234,4.555,4.677,4.555c3.092,0,5.022-2.533,5.022-5.538
	c0-3.777-3.27-6.911-8.028-6.911c-6.139,0-10.899,6.139-12.747,11.242V624.435z M818.851,653.711c0,8.887-0.087,13.78-0.341,17.556
	h2.018c0.343-2.188,1.033-3.303,1.803-3.303c0.26,0,0.557,0.085,0.819,0.343c1.158,0.947,2.36,1.761,3.604,2.362
	c2.104,0.86,4.422,1.247,6.954,1.247c7.992,0,15.033-4.251,15.033-12.324c0-7.209-5.369-11.074-12.023-15.368
	c-6.015-3.906-11.287-6.354-11.287-11.634c0-4.379,3.085-6.742,7.205-6.742c7.942,0,10.904,6.826,11.978,13.352h2.017
	c0-7.553,0.084-11.718,0.343-14.936h-2.017c-0.301,2.615-0.943,3.861-1.973,3.861c-0.43,0-0.946-0.257-1.552-0.73
	c-1.582-1.286-4.933-3.221-9.574-3.221c-6.954,0-13.006,3.52-13.006,11.336c0,7.297,5.709,10.731,12.109,14.765
	c5.751,3.607,9.96,6.396,9.96,11.506c0,6.269-4.292,8.369-7.812,8.369c-8.8,0-11.074-6.609-12.237-16.438H818.851z M902.469,631.002
	c-3.739,8.114-8.886,13.092-16.14,15.756h-10.947c0.086-5.367,1.327-10.518,3.779-15.756h-1.505
	c-4.034,8.887-9.834,13.995-18.201,16.441c8.367,2.49,14.167,7.557,18.201,16.442h1.505c-2.404-5.192-3.65-10.344-3.779-15.711
	h11.077c7.167,2.705,12.276,7.6,16.01,15.711h1.462c-4.123-8.886-8.846-13.781-15.884-16.442
	c7.038-2.615,11.761-7.555,15.884-16.441H902.469z M910.366,631.002c-4.036,8.887-9.831,13.995-18.199,16.441
	c8.368,2.49,14.163,7.557,18.199,16.442h1.502c-4.114-8.886-8.886-13.781-15.927-16.442c7.041-2.615,11.812-7.555,15.927-16.441
	H910.366z"/>
<g>
	<g>
		<path d="M877.97,779.99c9.802-25.354,18.756-33.647,32.613-33.647c10.088,0,15.645,6.69,15.645,15.552
			c0,10.84-7.916,20.074-18.379,20.074c-7.543,0-11.788-4.054-11.788-11.494c0-9.332,7.165-17.248,16.024-19.322
			c-0.749-0.189-1.508-0.567-2.451-0.567c-11.688,0-25.731,12.163-41.472,67.021l-8.011,31.198h-27.147l23.573-83.417
			c0.653-2.45,1.035-4.434,1.035-5.841c0-2.638-1.13-3.771-3.205-3.771c-4.617,0-8.294,3.863-12.536,15.272l-3.674,9.802h-3.677
			l5.185-14.702c5.471-15.174,15.457-19.788,26.68-19.788c11.496,0,14.797,7.07,14.797,15.552c0,3.674-0.564,7.637-1.507,11.4
			L877.97,779.99z"/>
	</g>
	<g>
		<path d="M815.243,825.609c-8.295,12.915-24.129,25.921-44.773,25.921c-17.251,0-30.354-9.331-30.354-27.242
			c0-33.742,29.502-77.95,69.658-77.95c11.405,0,20.077,4.995,20.077,15.173c0,23.656-33.458,39.488-59.666,46.465
			c-0.747,4.437-1.129,8.861-1.129,13.201c0,14.332,5.844,18.755,14.892,18.755c6.977,0,18.011-3.86,28.188-15.838L815.243,825.609z
			 M770.849,804.401c8.386-3.675,15.737-7.913,21.205-12.915c9.899-8.856,16.59-21.02,16.59-35.154c0-4.999-1.13-6.412-3.11-6.412
			C793.848,749.92,776.503,776.973,770.849,804.401z"/>
	</g>
	<g>
		<path d="M724.71,825.609c-8.295,12.915-24.132,25.921-44.773,25.921c-17.248,0-30.354-9.331-30.354-27.242
			c0-33.742,29.502-77.95,69.658-77.95c11.408,0,20.08,4.995,20.08,15.173c0,23.656-33.467,39.488-59.666,46.465
			c-0.75,4.437-1.131,8.861-1.131,13.201c0,14.332,5.843,18.755,14.895,18.755c6.976,0,18.004-3.86,28.187-15.838L724.71,825.609z
			 M680.315,804.401c8.386-3.675,15.734-7.913,21.208-12.915c9.895-8.856,16.59-21.02,16.59-35.154c0-4.999-1.133-6.412-3.113-6.412
			C703.31,749.92,685.97,776.973,680.315,804.401z"/>
	</g>
	<g>
		<path d="M635.531,831.643c-5.655,16.214-16.59,19.888-26.11,19.888c-7.54,0-12.728-2.545-15.459-6.973
			c-1.416-2.364-2.075-5.188-2.075-8.584c0-4.242,1.037-9.332,2.926-15.17l17.343-52.131c0.945-3.015,1.508-5.652,1.508-7.727
			c0-2.356-0.749-3.861-2.638-3.861c-10.085,0-25.731,23.749-41.38,74.369v-0.471l-4.992,17.813h-27.615l23.562-80.124
			c0.951-3.015,1.7-5.838,1.7-7.914c0-2.258-0.852-3.674-3.207-3.674c-11.782,0-27.611,30.159-40.15,72.392v-0.476l-5.094,19.796
			h-27.144l23.566-83.417c0.568-1.978,0.943-3.863,0.943-5.472c0-2.453-0.943-4.145-3.487-4.145c-4.432,0-8.108,4.242-12.161,15.271
			l-3.677,9.805h-3.678l5.185-14.702c5.469-15.174,15.838-19.794,26.109-19.794c11.976,0,15.558,7.07,15.558,15.46
			c0,3.767-0.66,7.729-1.696,11.492l-4.432,16.973c12.628-31.764,24.976-43.925,43.45-43.925c11.218,0,15.272,6.131,15.272,14.989
			c0,4.237-0.943,9.049-2.358,14.137l-3.49,12.346c13.384-31.858,26.207-41.472,42.509-41.472c11.312,0,15.74,6.131,15.74,15.081
			c0,4.146-0.945,8.954-2.642,14.045l-18.848,56.931c-0.849,2.447-1.221,4.333-1.221,5.749c0,2.923,1.604,3.863,3.674,3.863
			c3.296,0,7.544-2.456,12.161-15.172l3.487-9.332h3.677L635.531,831.643z"/>
	</g>
	<g>
		<path d="M453.296,832.399c-0.566,1.977-0.85,3.583-0.85,4.9c0,3.297,1.695,4.712,4.147,4.712c2.64,0,6.88-2.453,11.59-15.17
			l3.396-9.332h3.677l-4.807,14.133c-5.372,15.841-16.398,19.888-25.637,19.888c-12.066,0-17.532-6.592-17.532-17.245
			c0-3.958,0.752-8.479,2.262-13.477l30.256-100.768c0.567-2.066,0.944-3.857,0.944-5.463c0-4.897-3.488-7.262-13.104-7.262
			l1.414-4.053c18.284-0.184,31.67-2.921,44.772-7.917L453.296,832.399z"/>
	</g>
	<g>
		<path d="M411.02,825.609c-8.295,12.915-24.131,25.921-44.772,25.921c-17.249,0-30.349-9.331-30.349-27.242
			c0-33.742,29.503-77.95,69.654-77.95c11.406,0,20.078,4.995,20.078,15.173c0,23.656-33.464,39.488-59.665,46.465
			c-0.754,4.437-1.132,8.861-1.132,13.201c0,14.332,5.842,18.755,14.892,18.755c6.975,0,18.003-3.86,28.185-15.838L411.02,825.609z
			 M366.626,804.401c8.388-3.675,15.742-7.913,21.21-12.915c9.896-8.856,16.588-21.02,16.588-35.154
			c0-4.999-1.132-6.412-3.112-6.412C389.625,749.92,372.281,776.973,366.626,804.401z"/>
	</g>
	<g>
		<path d="M276.028,847.48c9.521,0,16.213-6.036,16.213-16.589c0-8.581-3.865-17.059-10.745-27.617
			c-6.032-9.332-11.972-17.438-11.972-28.558c0-16.497,12.912-28.374,35.158-28.374c14.044,0,29.314,4.053,29.314,20.08
			c0,6.124-3.677,14.235-11.783,14.235c-6.407,0-10.65-5.374-10.65-12.915c0-6.786,2.921-12.533,6.03-16.025
			c-1.602-0.94-4.053-1.601-6.786-1.601c-9.234,0-14.893,6.038-15.08,16.497c0,8.856,5.277,15.365,11.594,25.445
			c7.542,12.535,11.405,20.646,11.405,29.881c0,16.873-13.857,29.596-36.29,29.596c-16.213,0-31.859-5.466-31.859-22.428
			c0-7.168,3.676-13.857,10.84-13.857c6.973,0,11.026,6.503,11.026,14.983c0,6.602-2.545,12.348-3.865,15.841
			C270.656,847.102,272.825,847.48,276.028,847.48z"/>
	</g>
	<g>
		<path d="M194.953,847.48c9.521,0,16.213-6.036,16.213-16.589c0-8.581-3.861-17.059-10.746-27.617
			c-6.033-9.332-11.97-17.438-11.97-28.558c0-16.497,12.914-28.374,35.158-28.374c14.045,0,29.313,4.053,29.313,20.08
			c0,6.124-3.677,14.235-11.779,14.235c-6.41,0-10.651-5.374-10.651-12.915c0-6.786,2.922-12.533,6.034-16.025
			c-1.603-0.94-4.054-1.601-6.788-1.601c-9.236,0-14.892,6.038-15.08,16.497c0,8.856,5.279,15.365,11.592,25.445
			c7.542,12.535,11.407,20.646,11.407,29.881c0,16.873-13.855,29.596-36.29,29.596c-16.212,0-31.859-5.466-31.859-22.428
			c0-7.168,3.677-13.857,10.839-13.857c6.975,0,11.028,6.503,11.028,14.983c0,6.602-2.546,12.348-3.865,15.841
			C189.581,847.102,191.75,847.48,194.953,847.48z"/>
	</g>
	<g>
		<path d="M53.387,758.03c-14.327-3.015-25.356-10.936-25.356-25.829c0-15.272,11.971-26.012,33.368-26.012
			c33.18,0,45.148,19.421,76.632,19.421c12.159,0,25.919-2.459,38.268-7.443c4.24-6.604,8.482-11.315,11.97-11.315
			c0.944,0,1.792,0.378,2.641,1.038c0.752,0.656,1.226,1.507,1.226,2.354c0,2.644-3.866,6.131-14.141,9.992
			c-14.892,13.198-22.811,32.427-29.596,57.877h20.171l-0.753,3.861h-20.36l-1.32,5.095l-11.779,49.198
			c-6.315,26.208-22.528,48.824-56.555,48.824c-15.271,0-27.24-3.961-27.24-14.892c0-7.917,6.031-14.236,16.213-14.236
			c8.578,0,15.08,4.236,15.08,11.97c0,5.938-4.053,10.46-10.37,13.292c1.697,0.562,3.395,0.562,5.374,0.562
			c15.457,0,19.51-18.658,26.674-46.47l10.37-39.587c1.32-4.997,2.734-9.521,4.335-13.768H93.071l0.752-3.861h25.924
			c11.214-26.487,29.22-39.491,52.689-55.709c-22.246,6.694-33.462,16.966-54.671,16.966c-22.999,0-37.985-9.704-60.419-9.704
			c-9.614,0-15.457,3.294-15.457,10.84c0,9.891,11.783,14.892,27.616,14.892c12.915,0,21.021-2.733,29.126-7.165l1.602,3.299
			c-4.899,2.637-9.989,4.804-16.024,6.217l-21.303,70.602c-1.225,3.962-1.978,7.073-1.978,9.427c0,5.466,3.865,6.879,13.384,7.168
			l-0.752,3.858c-7.542-0.379-19.889-0.564-31.481-0.564c-12.348,0-23.566,0.186-30.259,0.564l0.944-3.858
			c12.535-0.573,15.08-2.739,19.51-16.595L53.387,758.03z"/>
	</g>
</g>
<path d="M10.391,898.108c2.191,0.14,5.786,0.324,9.332,0.324c0.794,0,1.542-0.046,2.333-0.046
	c4.385-0.098,10.779-0.286,14.417-0.286c22.771,0,33.735,11.759,33.735,33.086c0,20.809-12.598,34.577-34.577,34.577
	c-2.893,0-9.284-0.287-13.392-0.287c-4.479,0-9.194,0.095-11.853,0.287v-1.913c6.486-0.282,7.748-1.259,7.748-8.214v-47.41
	c0-6.954-1.262-7.933-7.748-8.213v-1.907h0.005V898.108z M27.001,955.831c0,6.669,1.262,8.213,7.188,8.213
	c20.811,0,26.458-11.666,26.458-32.479c0-21.414-6.764-31.729-26.55-31.729c-5.833,0-7.095,1.632-7.095,8.214V955.831z
	 M128.979,957.744c2.099,4.761,4.617,6.02,6.626,6.111v1.91c-2.615-0.181-6.626-0.283-10.221-0.283
	c-4.993,0-9.567,0.094-12.272,0.283v-1.91c4.574-0.184,6.858-0.938,6.858-3.504c0-1.118-0.42-2.607-1.305-4.522l-4.806-10.875
	h-23.33l-3.221,7.136c-1.027,2.38-1.589,4.391-1.589,6.114c0,3.271,2.194,5.225,7.421,5.646v1.913
	c-1.912-0.188-5.227-0.287-8.68-0.287c-2.194,0-6.672,0.095-8.306,0.287v-1.913c3.638-0.935,5.927-4.48,7.838-8.867l21.092-47.781
	h1.542L128.979,957.744z M102.243,918.737l-10.874,24.31h21.652L102.243,918.737z M146.756,945.424
	c0.794,10.592,5.18,19.786,17.405,19.786c5.741,0,11.759-3.175,11.759-10.829c0-6.671-6.3-10.123-15.214-14.694
	c-8.584-4.383-16.051-9.095-16.051-18.432c0-9.937,8.537-14.931,17.965-14.931c6.301,0,9.1,1.818,11.664,3.543
	c1.542,0.935,2.379,1.356,3.267,1.356c1.214,0,1.728-1.544,2.102-4.247h2.193c-0.279,2.987-0.468,6.716-0.468,17.59h-2.19
	c-0.7-8.127-5.085-16.429-15.679-16.429c-6.812,0-11.667,4.015-11.667,9.473c0,7.235,6.953,9.945,15.073,14.514
	c9.94,5.273,17.5,9.939,17.5,18.756c0,10.777-8.962,16.242-19.599,16.242c-6.768,0-10.313-1.82-13.067-3.551
	c-1.541-0.979-2.473-1.351-3.268-1.351c-1.211,0-1.726,1.448-2.099,4.207h-2.193c0.282-3.507,0.373-8.684,0.373-21.004H146.756z
	 M272.164,965.769c-0.095-1.442-0.468-2.285-1.446-2.285c-0.842,0-3.174,1.118-4.2,1.545c-2.474,0.841-7.279,2.1-12.505,2.1
	c-19.225,0-30.005-10.823-30.005-29.255c0-19.418,11.853-31.543,28.466-31.543c7.933,0,11.758,2.985,15.678,6.206
	c0.748,0.608,1.401,0.93,1.913,0.93c1.262,0,2.005-1.724,2.379-5.788h2.191c-0.279,4.105-0.374,9.473-0.374,19.083h-2.194
	c-0.885-4.199-2.1-8.208-4.805-11.242c-3.735-4.29-7.936-7.46-14.979-7.46c-11.573,0-18.758,11.105-18.758,28.747
	c0,19.874,7.467,28.412,21.326,28.412c2.986,0,5.366-0.28,7.373-0.794c2.286-0.557,2.937-1.584,2.937-3.594v-8.257
	c0-7.748-1.632-8.861-9.658-9.147v-1.908c3.453,0.184,9.193,0.284,13.487,0.284c4.2,0,7.653-0.098,9.938-0.284v1.908
	c-4.105,0.286-4.853,1.123-4.853,8.218v14.136h-1.911V965.769z M345.243,961.756c-2.288,3.267-5.132,5.366-9.751,5.366
	c-6.302,0-8.867-3.551-9.847-7.287l-2.938-11.938c-1.821-7.468-5.364-8.959-11.759-8.959h-5.461v16.702
	c0,6.957,1.262,7.932,7.748,8.216v1.91c-2.938-0.184-7.748-0.283-12.133-0.283c-4.947,0-9.567,0.094-12.226,0.283v-1.91
	c6.484-0.284,7.746-1.259,7.746-8.216V917.8c0-7.093-1.262-7.933-7.746-8.217v-1.91c2.658,0.187,7.468,0.284,11.666,0.284
	c5.647,0,11.385-0.185,13.484-0.185c14.699,0,22.071,6.204,22.071,14.417c0,6.252-4.199,14.185-19.036,16.005
	c1.12,0.049,2.1,0.141,3.266,0.324c6.207,0.981,10.499,3.27,12.226,10.448l2.1,8.686c1.073,4.48,2.1,6.111,4.014,6.111
	c1.82,0,3.732-1.543,5.273-3.271L345.243,961.756z M311.925,937.021c12.041,0,14.605-6.02,14.605-13.765
	c0-8.916-4.014-13.669-14.932-13.669c-5.037,0-6.111,1.633-6.111,8.214v19.22H311.925L311.925,937.021z M410.82,936.141
	c0,18.519-12.225,30.984-29.445,30.984c-17.592,0-29.305-10.829-29.305-29.816c0-18.571,12.226-30.984,29.398-30.984
	C399.062,906.321,410.82,917.146,410.82,936.141z M361.592,936.931c0,17.452,9.005,28.466,20.157,28.466
	c11.852,0,19.505-11.948,19.505-28.883c0-17.453-8.959-28.465-20.161-28.465C369.243,908.045,361.592,919.996,361.592,936.931z"/>
<path d="M427.829,936.79c0-21.09,9.053-30.474,24.916-30.474c8.025,0,14.326,2.378,19.973,6.817L458.3,932.118
	c10.128,2.104,18.71,8.311,18.71,18.059c0,9.28-7.837,16.938-20.904,16.938c-4.384,0-7.184-0.883-9.004-1.721
	c-3.314-1.641-4.667-4.107-4.667-6.631c0-2.937,2.1-5.038,5.084-5.038c2.938,0,5.227,1.91,5.227,5.182
	c0,2.748-1.632,4.388-4.011,4.853c1.165,1.167,5.084,1.54,6.904,1.54c7.932,0,11.854-7.555,11.854-15.395
	c0-10.315-6.909-16.889-17.78-18.432l14.979-20.674c-2.474-1.907-7.141-2.75-10.872-2.75c-8.914,0-17.124,4.852-17.124,22.959
	v24.634c0,6.394,0.885,8.122,5.272,8.214v1.913c-2.891,0-5.085-0.286-10.92-0.286c-3.312,0-8.306,0.097-10.964,0.286v-1.913
	c6.485-0.281,7.746-1.259,7.746-8.214V936.79L427.829,936.79z"/>
<path d="M535.145,947.618c-0.189,1.729-0.281,4.204-0.281,6.857c0,2.193,0.184,6.813,0.648,11.293
	c-6.203-0.281-14.792-0.281-20.949-0.281c-5.506,0-17.637,0-26.737,0.281v-1.907c6.484-0.287,7.747-1.265,7.747-8.22v-37.84
	c0-6.997-1.263-7.932-7.747-8.214v-1.912c9.101,0.281,21.231,0.281,26.737,0.281c5.552,0,13.393,0,19.036-0.281
	c-0.465,4.102-0.653,8.305-0.653,10.314c0,2.286,0.094,4.478,0.281,5.931h-2.194c-0.978-10.499-4.007-14.048-11.847-14.048h-7.001
	c-6.486,0-7.745,0.935-7.745,7.932v17.782h7.933c6.624,0,7.367-6.298,7.929-9.75h2.194c-0.283,3.22-0.324,5.363-0.324,7.087
	c0,1.355,0.046,2.478,0.046,3.593c0,2.615,0.094,4.901,0.607,10.734h-2.242c-0.56-4.712-1.586-9.749-8.21-9.749h-7.933v18.151
	c0,6.955,1.259,7.932,7.745,7.932h7.001c9.331,0,12.689-4.009,13.766-15.961L535.145,947.618L535.145,947.618z M623.443,946.638
	c-0.182,1.724-0.278,4.242-0.278,6.905c0,2.375,0.187,7.37,0.651,12.223c-6.484-0.283-15.498-0.283-21.882-0.283
	c-5.741,0-18.343,0-27.718,0.283v-1.91c6.484-0.284,7.743-1.259,7.743-8.216v-47.405c0-6.957-1.259-7.932-7.743-8.216v-1.91
	c9.375,0.284,21.971,0.284,27.718,0.284c5.827,0,14.041,0,19.972-0.284c-0.468,4.479-0.651,9.1-0.651,11.294
	c0,2.285,0.092,4.479,0.284,5.925h-2.203c-1.25-11.294-2.704-15.024-12.827-15.024h-7.933c-6.489,0-7.749,0.98-7.749,7.932v22.536
	h6.35c8.305,0,8.121-8.024,8.867-12.604h2.188c-0.281,4.062-0.324,6.812-0.324,9.007c0,1.775,0.049,3.17,0.049,4.572
	c0,3.128,0.095,6.297,0.56,13.576h-2.192c-0.75-6.111-0.843-12.642-9.147-12.642h-6.35v22.959c0,6.952,1.26,7.932,7.749,7.932h6.998
	c11.943,0,14.324-4.298,15.681-16.939h2.188V946.638z M639.854,945.424c0.795,10.592,5.182,19.786,17.404,19.786
	c5.739,0,11.759-3.175,11.759-10.829c0-6.671-6.296-10.123-15.209-14.694c-8.588-4.383-16.051-9.095-16.051-18.432
	c0-9.937,8.538-14.931,17.961-14.931c6.298,0,9.098,1.818,11.666,3.543c1.543,0.935,2.378,1.356,3.27,1.356
	c1.211,0,1.727-1.544,2.1-4.247h2.193c-0.283,2.987-0.467,6.716-0.467,17.59h-2.196c-0.7-8.127-5.085-16.429-15.679-16.429
	c-6.812,0-11.664,4.015-11.664,9.473c0,7.235,6.952,9.945,15.068,14.514c9.942,5.273,17.502,9.939,17.502,18.756
	c0,10.777-8.959,16.242-19.599,16.242c-6.766,0-10.317-1.82-13.071-3.551c-1.545-0.979-2.475-1.351-3.269-1.351
	c-1.211,0-1.729,1.448-2.103,4.207h-2.193c0.286-3.507,0.372-8.684,0.372-21.004H639.854z M700.849,963.574h20.998
	c6.533,0,9.85-4.009,10.92-15.961h2.189c-0.185,2.01-0.282,4.765-0.282,7.84c0,2.011,0.188,6.209,0.654,10.315
	c-6.769-0.281-16.144-0.281-22.818-0.281c-7.279,0-15.306,0-22.307,0.281v-1.907l33.734-53.991h-20.063
	c-6.489,0-9.851,4.014-10.877,15.961h-2.184c0.185-2.01,0.279-4.765,0.279-7.841c0-2.01-0.187-6.207-0.651-10.314
	c6.763,0.281,16.146,0.281,22.813,0.281c7,0,14.608,0,21.327-0.281v1.912L700.849,963.574z M794.404,947.618
	c-0.181,1.729-0.277,4.204-0.277,6.857c0,2.193,0.186,6.813,0.65,11.293c-6.203-0.281-14.789-0.281-20.949-0.281
	c-5.506,0-17.637,0-26.737,0.281v-1.907c6.485-0.287,7.747-1.265,7.747-8.22v-37.84c0-6.997-1.262-7.932-7.747-8.214v-1.912
	c9.101,0.281,21.231,0.281,26.737,0.281c5.552,0,13.392,0,19.036-0.281c-0.465,4.102-0.647,8.305-0.647,10.314
	c0,2.286,0.089,4.478,0.28,5.931h-2.191c-0.98-10.499-4.014-14.048-11.853-14.048h-6.997c-6.49,0-7.749,0.935-7.749,7.932v17.782
	h7.933c6.631,0,7.373-6.298,7.933-9.75h2.193c-0.286,3.22-0.326,5.363-0.326,7.087c0,1.355,0.051,2.478,0.051,3.593
	c0,2.615,0.09,4.901,0.604,10.734h-2.242c-0.557-4.712-1.582-9.749-8.213-9.749h-7.933v18.151c0,6.955,1.259,7.932,7.749,7.932
	h6.997c9.332,0,12.693-4.009,13.769-15.961L794.404,947.618L794.404,947.618z M806.446,926.755c0.187-2.007,0.284-4.757,0.284-7.835
	c0-2.193-0.189-6.765-0.654-11.244c7.933,0.281,19.082,0.281,26.923,0.281c7.838,0,18.95,0,26.878-0.281
	c-0.514,4.479-0.701,9.051-0.701,11.244c0,3.078,0.093,5.928,0.284,7.835h-2.194c-1.022-12.599-3.403-16.885-13.768-16.885h-6.114
	v44.789c0,7.748,1.635,8.915,9.659,9.196v1.91c-3.312-0.187-8.865-0.283-14.044-0.283c-5.741,0-11.059,0.092-14.138,0.283v-1.91
	c8.024-0.284,9.658-1.448,9.658-9.196V909.87h-6.114c-10.312,0-12.736,4.289-13.765,16.885H806.446z M869.613,926.755
	c0.185-2.007,0.281-4.757,0.281-7.835c0-2.193-0.181-6.765-0.648-11.244c7.927,0.281,19.08,0.281,26.92,0.281
	c7.838,0,18.944,0,26.877-0.281c-0.514,4.479-0.699,9.051-0.699,11.244c0,3.078,0.092,5.928,0.283,7.835h-2.191
	c-1.026-12.599-3.407-16.885-13.771-16.885h-6.113v44.789c0,7.748,1.634,8.915,9.658,9.196v1.91
	c-3.312-0.187-8.864-0.283-14.044-0.283c-5.741,0-11.061,0.092-14.133,0.283v-1.91c8.019-0.284,9.653-1.448,9.653-9.196V909.87
	h-6.113c-10.312,0-12.736,4.289-13.767,16.885H869.613z"/>
<g>
	<path d="M15.388,1132.525c1.904,27.775,12.431,52.072,41.773,52.072c14.895,0,29.791-8.951,29.791-30.568
		c0-18.594-14.447-29.116-35.725-41.888c-21.837-13.104-40.876-25.534-40.876-51.403c0-27.1,20.494-39.755,43.115-39.755
		c15.119,0,21.838,4.367,27.997,8.512c3.697,2.351,5.71,3.247,7.84,3.247c2.912,0,4.145-3.469,5.039-10.08h5.262
		c-0.673,8.062-1.12,17.921-1.12,46.81H93.22c-1.679-21.84-12.205-44.121-37.628-44.121c-16.35,0-27.997,10.866-27.997,26.655
		c0,20.83,17.919,29.113,38.523,41.999c23.854,14.892,41.325,26.99,41.325,51.622c0,29.12-22.061,43.563-48.713,43.563
		c-16.24,0-24.75-4.366-31.356-8.511c-3.693-2.351-5.935-3.248-7.838-3.248c-2.911,0-4.145,3.476-5.038,10.086H9.227
		c0.673-9.407,0.897-22.627,0.897-54.992H15.388z"/>
	<path d="M220.219,1158.396c-5.039,15.346-20.158,30.801-42.891,30.801c-33.26,0-52.745-24.306-52.745-59.464
		c0-40.315,20.38-65.071,51.851-65.071c26.876,0,42.89,15.794,42.89,50.398h-71.673c-0.56,4.365-0.784,9.626-0.784,14.673
		c0,31.465,17.468,49.837,35.053,49.837c13.774,0,25.758-5.825,33.709-22.959L220.219,1158.396z M197.26,1110.688
		c0.786-22.398-6.381-41.656-21.724-41.656c-13.663,0-25.76,12.761-28.223,41.656H197.26z M161.983,1046.524
		c14.224-22.288,18.145-34.607,24.973-43.563c2.799-3.696,5.938-5.149,8.736-5.149c1.902,0,3.582,0.557,5.039,1.675
		c1.903,1.564,3.136,3.81,3.136,6.388c0,2.35-1.009,5.035-3.136,7.84c-7.056,8.954-18.144,15.567-36.285,34.825L161.983,1046.524z"
		/>
	<path d="M270.397,1094.005c4.815-13.326,17.246-29.336,33.261-29.336c12.431,0,20.943,8.175,20.943,18.031
		c0,7.835-5.041,14.449-13.104,14.449c-6.381,0-12.205-4.256-12.205-11.871c0-5.709,3.696-9.855,7.839-12.432
		c-1.122-1.566-2.801-2.239-4.817-2.239c-19.262,0-31.917,26.097-31.917,43.115v48.598c0,14.898,9.185,18.815,24.303,18.815v4.815
		c-7.055-0.223-21.054-0.897-35.276-0.897c-10.528,0-21.837,0.675-27.102,0.897v-4.815c12.654,0,17.472-3.695,17.472-16.459v-71.783
		c0-13.775-4.146-20.268-17.472-20.268v-4.814c4.816,0.448,9.63,0.67,14.224,0.67c8.957,0,17.244-0.896,23.852-3.135V1094.005z"/>
	<path d="M361.231,1092.103c8.064-20.604,23.404-27.438,38.974-27.438c11.759,0,19.036,3.139,24.301,8.623
		c5.711,6.274,8.065,14.449,8.065,30.125v61.259c0,12.77,4.816,16.465,17.471,16.465v4.815c-5.375-0.228-17.471-0.897-27.551-0.897
		c-10.078,0-20.942,0.67-25.756,0.897v-4.815c11.086,0,15.23-3.695,15.23-16.465v-66.294c0-14.229-2.128-26.436-18.589-26.436
		c-18.815,0-32.143,17.249-32.143,41.554v51.176c0,12.77,4.145,16.465,15.119,16.465v4.815c-4.816-0.228-15.566-0.897-25.646-0.897
		c-10.082,0-22.288,0.67-27.55,0.897v-4.815c12.653,0,17.468-3.695,17.468-16.465v-130.799c0-13.777-4.144-20.155-17.468-20.155
		v-4.815c4.815,0.449,9.631,0.671,14.224,0.671c8.958,0,17.246-0.896,23.853-3.247L361.231,1092.103L361.231,1092.103z"/>
	<path d="M492.159,1164.671c0,12.767,4.815,16.462,17.468,16.462v4.815c-5.261-0.228-17.245-0.897-27.774-0.897
		c-10.528,0-22.509,0.67-27.774,0.897v-4.815c12.655,0,17.467-3.695,17.467-16.462v-131.023c0-13.778-4.145-20.161-17.467-20.161
		v-4.813c4.814,0.448,9.631,0.675,14.225,0.675c8.957,0,17.245-0.896,23.852-3.253v158.576H492.159z"/>
	<path d="M553.194,1159.521c0,21.158-1.791,42.439-12.206,55.543c-7.278,9.405-18.029,14.001-27.66,14.001
		c-5.04,0-9.633-1.118-12.88-3.475c-3.247-2.464-5.036-5.938-5.036-10.526c0-7.06,4.815-11.871,11.872-11.871
		c6.946,0,11.985,3.361,11.985,11.202c0,5.035-3.027,8.95-8.735,10.974c1.343,0.222,2.799,0.222,3.92,0.222
		c5.036,0,9.402-1.567,12.877-5.263c3.137-3.918,5.26-10.078,5.26-19.485v-107.951c0-13.779-4.142-20.273-17.466-20.273v-4.815
		c4.813,0.449,9.628,0.671,14.224,0.671c8.959,0,17.245-0.892,23.854-3.135v94.183H553.194z M555.208,1026.363
		c0,7.949-6.606,14.67-14.671,14.67c-7.952,0-14.668-6.721-14.668-14.67c0-8.062,6.716-14.671,14.668-14.671
		C548.602,1011.692,555.208,1018.302,555.208,1026.363z"/>
	<path d="M681.647,1127.042c0,44.012-22.957,62.156-52.072,62.156c-29.113,0-52.072-18.145-52.072-62.156
		c0-44.119,22.959-62.378,52.072-62.378C658.69,1064.664,681.647,1082.92,681.647,1127.042z M599.783,1127.042
		c0,40.99,12.432,57.563,29.792,57.563c17.468,0,29.794-16.57,29.794-57.563c0-41.094-12.32-57.785-29.794-57.785
		C612.218,1069.257,599.783,1085.942,599.783,1127.042z M616.023,1046.524c14.229-22.288,18.146-34.607,24.976-43.563
		c2.799-3.696,5.936-5.149,8.731-5.149c1.902,0,3.583,0.557,5.036,1.675c1.902,1.564,3.138,3.81,3.138,6.388
		c0,2.35-1.003,5.035-3.138,7.84c-7.053,8.954-18.145,15.567-36.278,34.825L616.023,1046.524z"/>
	<path d="M759.606,1028.377c25.08,19.042,42.665,46.924,42.665,88.36c0,49.277-25.42,72.45-52.298,72.45
		c-30.013,0-51.4-20.718-51.4-61.703c0-30.352,17.021-62.826,50.058-62.826c12.431,0,21.501,3.805,27.439,11.871
		c-4.928-20.16-13.659-34.048-24.412-44.353l-41.327,20.274l-2.129-4.144l39.867-19.378c-9.294-7.948-19.712-13.546-30.241-18.475
		l1.905-3.923c12.655,5.04,24.859,11.089,35.724,18.815l32.36-15.789l2.016,4.145L759.606,1028.377z M780.434,1116.737
		c0-5.15-0.113-9.969-0.445-14.67c-3.361-27.889-17.921-32.59-29.792-32.59c-16.237,0-29.339,14.898-29.339,58.461
		c0,41.21,13.102,56.659,27.996,56.659C764.866,1184.603,780.434,1169.483,780.434,1116.737z"/>
	<path d="M883.916,1092.324c0-19.258-9.404-23.067-21.275-23.067c-7.841,0-17.465,1.564-22.735,8.169
		c5.711,1.457,10.752,6.501,10.752,14.006c0,7.836-5.257,12.43-13.433,12.43c-7.841,0-12.431-5.939-12.431-14.223
		c0-6.725,4.366-11.984,10.75-16.352c6.501-4.252,17.471-8.623,32.141-8.623c12.879,0,22.511,3.36,27.773,8.623
		c7.279,7.392,9.184,15.903,9.184,32.141v63.716c0,7.392,1.786,10.869,7.055,10.869c4.145,0,7.167-2.132,10.305-4.814l2.579,3.917
		c-6.389,4.814-11.204,8.402-20.94,8.402c-16.017,0-19.713-9.629-19.713-20.382c-9.855,16.237-24.3,20.382-35.273,20.382
		c-15.343,0-29.117-7.727-29.117-25.65c0-18.14,14.003-26.201,36.955-35.836c15.343-6.381,27.436-10.305,27.436-19.485v-14.222
		H883.916L883.916,1092.324z M883.916,1115.954c-2.464,3.696-7.503,6.052-21.949,13.104c-10.082,4.811-22.289,11.422-22.289,29.11
		c0,13.777,7.838,20.161,18.367,20.161c9.18,0,18.145-4.815,25.871-17.359V1115.954L883.916,1115.954z"/>
</g>
<path d="M7.896,1253.756c15.606,0.438,36.851,0.438,46.52,0.438c8.646,0,20.952,0,29.815-0.438
	c-0.732,7.185-1.026,14.503-1.026,18.029c0,3.588,0.146,7.03,0.439,9.297h-3.441c-3.151-17.726-10.55-23.884-23.151-23.884h-5.494
	c-7.254,0-9.451,1.174-9.451,9.748v30.614h7.033c10.474,0,13.918-9.889,15.164-16.189h3.444c-0.439,5.052-0.515,8.714-0.515,11.65
	c0,2.339,0.075,4.247,0.075,6.003c0,4.102,0.146,8.57,0.88,17.729h-3.445c-1.244-8.277-5.272-16.196-15.603-16.196h-7.033v27.622
	c0,11.207,3.588,13.328,16.043,13.773v3.005c-6.156-0.289-16.705-0.44-26.592-0.44c-9.598,0-18.608,0.151-23.663,0.44v-3.005
	c9.598-0.435,11.211-1.977,11.211-12.89v-59.42c0-10.99-1.76-12.455-11.211-12.893V1253.756z M189.885,1338.664
	c-4.541,5.128-9.89,8.43-19.414,8.43c-11.943,0-17.508-5.42-19.196-12.163l-4.321-17.727c-2.418-11.72-6.743-13.919-15.021-13.919
	h-4.908v25.791c0,10.907,1.756,12.449,11.207,12.884v3.005c-5.713-0.288-15.309-0.435-24.467-0.435
	c-8.5,0-16.338,0.146-20.952,0.435v-3.005c9.598-0.435,11.208-1.977,11.208-12.884v-59.42c0-11.134-1.757-12.455-11.208-12.898
	v-2.999c4.614,0.292,12.745,0.438,20.072,0.438c9.89,0,20.072-0.291,23.881-0.291c27.766,0,40.074,9.161,40.074,22.927
	c0,10.699-7.548,22.565-34.58,25.28c1.467,0.146,2.858,0.289,4.396,0.514c12.893,1.542,22.49,4.982,25.202,16.265l3.15,13.33
	c1.32,5.863,3.297,7.771,6.3,7.771c2.271,0,4.615-1.468,6.446-3.294L189.885,1338.664z M133.475,1300.278
	c16.043,0,19.341-9.598,19.341-21.755c0-13.995-4.689-21.76-18.021-21.76c-6.446,0-7.766,2.568-7.766,12.893v30.622H133.475z
	 M271.491,1314.633c-0.293,2.858-0.439,6.601-0.439,10.845c0,3.742,0.293,11.721,1.026,19.493c-9.74-0.443-23.222-0.443-32.82-0.443
	c-9.672,0-30.916,0-46.52,0.443v-3.005c9.596-0.438,11.206-1.979,11.206-12.893v-59.42c0-10.99-1.756-12.455-11.206-12.893v-3.005
	c15.604,0.438,36.848,0.438,46.52,0.438c8.646,0,20.952,0,29.815-0.438c-0.732,7.185-1.026,14.503-1.026,18.029
	c0,3.588,0.146,7.03,0.439,9.297h-3.444c-3.149-17.726-10.55-23.884-23.15-23.884h-5.495c-7.252,0-9.448,1.174-9.448,9.748v30.614
	h7.031c10.477,0,13.919-9.889,15.164-16.189h3.444c-0.44,5.052-0.516,8.714-0.516,11.65c0,2.339,0.073,4.247,0.073,6.003
	c0,4.102,0.146,8.57,0.88,17.729h-3.442c-1.247-8.277-5.275-16.196-15.606-16.196h-7.034v31.21c0,8.57,2.199,9.74,9.451,9.74h6.446
	c13.775,0,21.903-6.881,25.201-26.888h3.45V1314.633z M362.864,1314.633c-0.29,2.858-0.44,6.601-0.44,10.845
	c0,3.742,0.293,11.721,1.027,19.493c-9.744-0.443-23.223-0.443-32.821-0.443c-9.671,0-30.916,0-46.521,0.443v-3.005
	c9.598-0.438,11.209-1.979,11.209-12.893v-59.42c0-10.99-1.758-12.455-11.209-12.893v-3.005c15.604,0.438,36.85,0.438,46.521,0.438
	c8.646,0,20.951,0,29.816-0.438c-0.733,7.185-1.027,14.503-1.027,18.029c0,3.588,0.146,7.03,0.441,9.297h-3.445
	c-3.151-17.726-10.548-23.884-23.15-23.884h-5.495c-7.251,0-9.45,1.174-9.45,9.748v30.614h7.033
	c10.477,0,13.918-9.889,15.163-16.189h3.445c-0.44,5.052-0.515,8.714-0.515,11.65c0,2.339,0.071,4.247,0.071,6.003
	c0,4.102,0.146,8.57,0.879,17.729h-3.443c-1.245-8.277-5.276-16.196-15.604-16.196h-7.032v31.21c0,8.57,2.195,9.74,9.449,9.74h6.45
	c13.771,0,21.903-6.881,25.2-26.888h3.447V1314.633z"/>
<path d="M489.642,1291.116l-3.077,0.884c7.692,3.518,10.842,11.429,10.842,19.048c0,21.613-20.81,36.046-55.313,36.046
	c-30.33,0-52.232-11.282-52.232-30.475c0-20.15,21.612-28.354,30.185-30.186c-10.403-3.296-18.756-8.721-18.756-17.512
	c0-11.721,14.946-17.286,30.258-17.286c6.739,0,10.989,1.389,14.432,3.005c4.174,2.27,9.011,6.153,9.011,12.157
	c0,6.301-5.277,10.04-11.722,10.04c-5.86,0-10.768-3.005-10.768-9.159c0-5.053,3.587-9.743,9.596-10.915
	c-1.244-1.394-4.396-2.567-8.13-2.567c-8.719,0-16.923,6.307-16.923,17.734c0,4.61,0.731,9.301,4.907,13.622
	c3.44-1.026,6.447-1.172,8.424-1.172c3.592,0,5.568,1.615,5.568,3.885c0,2.262-1.833,3.151-4.251,3.151
	c-3.442,0-7.326-2.422-9.598-3.739c-4.615,3.593-8.353,8.645-8.353,17.947c0,19.847,14.798,28.868,38.387,28.868
	c21.319,0,41.244-7.105,41.244-26.453c0-6.297-2.126-12.017-9.302-15.313c-5.642,1.686-12.602,3.81-17.577,5.279
	c-14.653,3.441-25.055,6.741-25.055,14.725c0,6.881,7.545,11.354,15.016,11.354c2.418,0,5.129-0.59,6.008-1.462
	c-4.909-1.687-7.473-5.274-7.473-9.743c0-6.451,5.055-10.04,12.012-10.04c7.182,0,11.504,4.032,11.504,10.186
	c0,9.451-10.037,13.631-20.515,13.631c-13.26,0-21.319-6.012-21.319-18.167c0-15.751,14.435-22.489,28.792-26.374
	c5.709-1.54,15.017-4.177,21.463-6.592c9.892-3.15,20.879-6.009,20.879-14.579c0-7.474-7.686-12.021-15.456-12.021
	c-1.681,0-3.147,0.292-4.102,0.806c4.545,1.764,7.402,5.495,7.402,9.604c0,5.783-5.275,9.446-11.868,9.446
	c-7.179,0-11.869-3.812-11.869-9.966c0-7.911,7.549-12.602,18.756-12.602c12.894,0,21.906,6.813,21.906,20.149
	C512.574,1282.257,500.265,1288.118,489.642,1291.116z"/>
<path d="M636.636,1298.446c0,29.087-20.955,48.647-50.695,48.647c-30.33,0-50.548-16.999-50.548-46.815
	c0-29.158,21.027-48.643,50.691-48.643C616.413,1251.636,636.636,1268.628,636.636,1298.446z M559.42,1299.694
	c0,27.393,12.16,44.685,27.106,44.685c15.897,0,26.153-18.754,26.153-45.353c0-27.396-12.163-44.687-27.18-44.687
	C569.6,1254.346,559.42,1273.096,559.42,1299.694z M680.952,1329.073c0,10.907,1.908,12.449,12.091,12.885v3.004
	c-5.787-0.288-15.897-0.435-25.348-0.435c-8.497,0-16.337,0.146-20.952,0.435v-3.004c9.597-0.436,11.207-1.978,11.207-12.885v-59.42
	c0-10.99-1.757-12.455-11.207-12.897v-3c4.615,0.293,12.746,0.438,20.074,0.438c10.477,0,21.316-0.289,25.348-0.289
	c26.742,0,38.607,9.442,38.607,25.056c0,13.628-9.158,29.082-43.371,29.082h-6.449V1329.073z M685.864,1305.041
	c17.292,0,20.879-11.353,20.879-24.472c0-15.752-4.393-23.809-16.48-23.809c-7.694,0-9.308,2.569-9.308,12.893v35.388H685.864z
	 M816.93,1314.633c-0.293,2.858-0.438,6.601-0.438,10.845c0,3.742,0.289,11.721,1.023,19.493c-9.742-0.443-23.224-0.443-32.82-0.443
	c-9.666,0-30.913,0-46.513,0.443v-3.005c9.596-0.438,11.21-1.979,11.21-12.893v-59.42c0-10.99-1.766-12.455-11.21-12.893v-3.005
	c15.604,0.438,36.847,0.438,46.513,0.438c8.646,0,20.955,0,29.819-0.438c-0.731,7.185-1.026,14.503-1.026,18.029
	c0,3.588,0.146,7.03,0.44,9.297h-3.444c-3.154-17.726-10.552-23.884-23.149-23.884h-5.492c-7.251,0-9.451,1.174-9.451,9.748v30.614
	h7.03c10.478,0,13.919-9.889,15.165-16.189h3.444c-0.44,5.052-0.514,8.714-0.514,11.65c0,2.339,0.067,4.247,0.067,6.003
	c0,4.102,0.146,8.57,0.873,17.729h-3.441c-1.241-8.277-5.269-16.196-15.605-16.196h-7.03v31.21c0,8.57,2.199,9.74,9.451,9.74h6.443
	c13.776,0,21.905-6.881,25.201-26.888h3.448v0.014H816.93z M923.595,1256.761c-9.597,1.321-11.283,4.323-11.283,17.069v71.43
	c-1.318-0.076-2.707-0.076-4.028-0.076c-1.318,0-2.637,0-3.877,0.076l-60.073-74.58v54.214c0,12.748,2.413,15.751,15.457,17.072
	v3.005c-4.469-0.291-10.916-0.443-17.066-0.443c-4.837,0-9.892,0.152-13.047,0.443v-3.005c9.602-1.321,11.214-4.322,11.214-17.072
	v-55.24c0-10.99-1.764-12.455-11.214-12.893v-3.005c3.155,0.293,8.21,0.438,13.047,0.438c6.737,0,13.184-0.146,18.309-0.438
	l47.838,59.421v-39.347c0-12.743-2.564-15.748-15.46-17.069v-3.005c4.323,0.293,10.996,0.438,17.143,0.438
	c4.614,0,9.892-0.146,13.042-0.438V1256.761z"/>
</svg>
